<svg width="900" height="261" viewBox="0 0 900 261" fill="none" xmlns="http://www.w3.org/2000/svg">
<rect width="900" height="260.6" fill="#374A5F" fill-opacity="0.025"/>
<rect x="0.5" y="0.5" width="899" height="259.6" stroke="#374A5F" stroke-opacity="0.1"/>
<path d="M42.484 46.364H53.536L52.978 50.27H52.186C51.682 47.93 51.502 47.282 49.9 47.282H48.91L46.948 56.588C46.876 56.912 46.858 57.146 46.858 57.272C46.858 57.956 47.434 58.118 48.532 58.154L48.352 59H42.322L42.502 58.154C43.708 58.1 44.428 57.92 44.644 56.858L46.678 47.282H45.706C44.104 47.282 43.708 47.93 42.178 50.27H41.368L42.484 46.364ZM56.5129 51.44L55.8109 53.726H55.9369C57.1969 51.548 59.2309 49.172 60.9589 49.172C61.8949 49.172 62.2729 49.712 62.2729 50.54C62.2729 50.774 62.2189 51.098 62.1649 51.332L60.7429 56.732C60.6529 57.074 60.5809 57.362 60.5809 57.506C60.5809 57.686 60.6709 57.776 60.8329 57.776C61.1749 57.776 61.6609 57.38 62.4349 56.426L62.8489 56.84C61.7149 58.496 60.8329 59.18 59.8069 59.18C58.9789 59.18 58.4569 58.622 58.4569 57.812C58.4569 57.38 58.5289 56.93 58.7089 56.264L60.0049 51.584C60.0589 51.35 60.0949 51.134 60.0949 50.99C60.0949 50.738 60.0049 50.612 59.7709 50.612C58.7809 50.612 56.2069 53.276 55.3789 56.516L54.7489 59H52.6249L55.3789 47.12L54.1189 46.49L54.2269 46.058L57.4849 45.302H57.9529L56.5129 51.44ZM71.753 51.224C71.753 53.312 68.909 54.284 65.903 54.968V55.4C65.903 56.912 66.623 57.902 67.793 57.902C68.855 57.902 69.755 57.29 70.619 56.264L71.087 56.66C69.809 58.478 68.477 59.18 66.983 59.18C64.823 59.18 63.851 57.47 63.851 55.544C63.851 52.394 66.371 49.172 69.467 49.172C71.015 49.172 71.753 50.09 71.753 51.224ZM68.999 50.144C67.613 50.144 66.281 52.07 65.975 54.374C68.639 53.582 69.935 52.718 69.935 51.278C69.935 50.648 69.629 50.144 68.999 50.144ZM78.5291 54.086H78.6551C80.0231 51.35 81.7331 49.172 83.4611 49.172C84.7931 49.172 85.5671 50.288 85.5671 51.908C85.5671 55.634 82.5251 59.18 79.5011 59.18C78.7271 59.18 78.0971 58.784 77.8091 58.352L77.3231 60.512C77.2691 60.728 77.2331 60.926 77.2331 61.07C77.2511 61.592 77.7191 61.664 78.3851 61.754L78.1871 62.546H73.3631L73.5611 61.754C74.4071 61.646 74.9471 61.556 75.1451 60.728L77.5391 50.864L76.2971 50.27L76.4231 49.82L79.5011 49.154H80.0051L79.4471 51.512L78.5291 54.086ZM82.4531 50.702C81.3191 50.702 79.0331 53.51 78.0791 57.056C78.1511 57.794 78.5831 58.334 79.3211 58.334C81.4811 58.334 83.3711 54.878 83.3891 52.124C83.3891 51.188 83.0471 50.702 82.4531 50.702ZM89.2044 55.184H89.3304C91.3104 51.224 92.4984 49.172 93.7944 49.172C94.5864 49.172 94.9104 49.748 94.9104 50.378C94.9104 51.242 94.3344 51.782 93.6504 52.106H93.3444C93.3444 51.764 93.2544 51.44 92.8404 51.44C91.7964 51.44 89.7084 54.554 88.6104 59H86.4864L88.4844 50.9L87.2604 50.27L87.3864 49.82L90.4644 49.154H90.9684L90.2304 52.052L89.2044 55.184ZM98.1048 58.334C99.9768 58.334 101.165 54.77 101.165 52.358C101.165 50.9 100.715 50.018 99.8688 50.018C97.9968 50.018 96.8088 53.582 96.8088 56.012C96.8088 57.452 97.2588 58.334 98.1048 58.334ZM98.0328 59.18C96.0348 59.18 94.6668 57.794 94.6668 55.4C94.6668 52.304 96.8088 49.172 99.9408 49.172C101.939 49.172 103.307 50.558 103.307 52.952C103.307 56.048 101.165 59.18 98.0328 59.18ZM104.33 56.894L106.598 47.12L105.338 46.49L105.446 46.058L108.704 45.302H109.172L107.786 51.152L106.832 53.888H106.958C108.38 51.242 110 49.172 111.746 49.172C113.168 49.172 113.852 50.288 113.852 51.908C113.852 55.634 110.738 59.18 107.462 59.18C105.914 59.18 104.672 58.388 104.33 56.894ZM110.738 50.666C109.586 50.666 107.12 53.51 106.328 57.056C106.346 57.812 106.85 58.352 107.552 58.352C109.748 58.352 111.692 54.842 111.71 52.088C111.71 51.152 111.386 50.666 110.738 50.666ZM117.228 47.12L115.968 46.49L116.094 46.058L119.334 45.302H119.82L117.12 56.732C117.03 57.092 116.994 57.362 116.994 57.506C116.994 57.686 117.084 57.776 117.246 57.776C117.588 57.776 118.074 57.38 118.848 56.426L119.262 56.84C118.146 58.496 117.264 59.18 116.22 59.18C115.41 59.18 114.888 58.622 114.888 57.812C114.888 57.38 114.96 56.93 115.122 56.264L117.228 47.12ZM128.067 51.224C128.067 53.312 125.223 54.284 122.217 54.968V55.4C122.217 56.912 122.937 57.902 124.107 57.902C125.169 57.902 126.069 57.29 126.933 56.264L127.401 56.66C126.123 58.478 124.791 59.18 123.297 59.18C121.137 59.18 120.165 57.47 120.165 55.544C120.165 52.394 122.685 49.172 125.781 49.172C127.329 49.172 128.067 50.09 128.067 51.224ZM125.313 50.144C123.927 50.144 122.595 52.07 122.289 54.374C124.953 53.582 126.249 52.718 126.249 51.278C126.249 50.648 125.943 50.144 125.313 50.144ZM137.144 53.744H137.27C138.548 51.566 140.402 49.172 142.13 49.172C143.066 49.172 143.444 49.712 143.444 50.54C143.444 50.774 143.39 51.116 143.336 51.332L141.914 56.732C141.824 57.074 141.752 57.362 141.752 57.506C141.752 57.686 141.842 57.776 142.004 57.776C142.346 57.776 142.832 57.38 143.606 56.426L144.02 56.84C142.886 58.496 142.004 59.18 140.978 59.18C140.15 59.18 139.628 58.622 139.628 57.812C139.628 57.38 139.7 56.93 139.88 56.264L141.158 51.62C141.212 51.386 141.248 51.17 141.248 51.026C141.248 50.792 141.158 50.666 140.924 50.666C139.916 50.666 137.486 53.42 136.73 56.462L136.1 59H133.976L135.83 51.62C135.884 51.386 135.92 51.17 135.92 51.026C135.92 50.792 135.83 50.666 135.596 50.666C134.624 50.666 132.14 53.42 131.384 56.462L130.754 59H128.63L130.646 50.9L129.422 50.27L129.548 49.82L132.626 49.154H133.13L132.608 51.35L131.798 53.744H131.924C133.22 51.566 135.074 49.172 136.82 49.172C137.72 49.172 138.008 49.73 138.008 50.432C138.008 51.026 137.72 52.088 137.144 53.744ZM151.253 58.298C152.099 58.298 152.549 57.848 152.549 57.092C152.549 55.724 149.165 54.284 149.165 52.16C149.165 50.45 150.605 49.172 152.585 49.172C154.007 49.172 154.979 49.856 154.979 50.864C154.979 51.332 154.565 51.674 154.133 51.854H153.827C153.431 50.792 152.801 50.108 151.919 50.108C151.127 50.108 150.731 50.504 150.731 51.188C150.731 52.412 154.223 54.032 154.223 56.084C154.223 57.992 152.585 59.18 150.731 59.18C148.967 59.18 147.779 58.316 147.779 57.218C147.779 56.642 148.139 56.192 148.661 55.976H148.931C149.345 57.362 150.101 58.298 151.253 58.298ZM159.496 50.324L158.11 56.354C158.002 56.822 157.948 57.11 157.948 57.362C157.948 57.632 158.056 57.812 158.344 57.812C158.974 57.812 159.676 57.236 160.756 56.084L161.206 56.534C159.928 58.208 158.542 59.18 157.318 59.18C156.256 59.18 155.824 58.514 155.824 57.614C155.824 57.182 155.896 56.786 156.022 56.246L157.39 50.324H156.076L156.256 49.694C157.57 49.316 158.578 48.488 159.532 47.246H160.252L159.748 49.352H161.944L161.71 50.324H159.496ZM165.246 57.686C166.542 57.686 168.396 54.932 169.386 50.846C169.098 50.288 168.72 50.018 168.126 50.018C165.93 50.018 164.346 53.402 164.328 56.156C164.328 57.074 164.634 57.686 165.246 57.686ZM169.926 49.964L171.24 49.082H172.068L171.402 51.242L170.07 56.732C169.98 57.074 169.908 57.362 169.908 57.506C169.908 57.686 169.998 57.776 170.16 57.776C170.502 57.776 171.006 57.38 171.744 56.426L172.176 56.84C171.06 58.496 170.178 59.18 169.134 59.18C168.324 59.18 167.892 58.604 167.892 57.74C167.892 57.182 168.216 55.976 168.54 55.022H168.414C167.406 57.2 165.966 59.18 164.346 59.18C163.032 59.18 162.222 58.118 162.222 56.336C162.222 52.61 164.94 49.172 167.928 49.172C168.828 49.172 169.422 49.46 169.926 49.964ZM177.215 50.324L175.829 56.354C175.721 56.822 175.667 57.11 175.667 57.362C175.667 57.632 175.775 57.812 176.063 57.812C176.693 57.812 177.395 57.236 178.475 56.084L178.925 56.534C177.647 58.208 176.261 59.18 175.037 59.18C173.975 59.18 173.543 58.514 173.543 57.614C173.543 57.182 173.615 56.786 173.741 56.246L175.109 50.324H173.795L173.975 49.694C175.289 49.316 176.297 48.488 177.251 47.246H177.971L177.467 49.352H179.663L179.429 50.324H177.215ZM187.879 51.224C187.879 53.312 185.035 54.284 182.029 54.968V55.4C182.029 56.912 182.749 57.902 183.919 57.902C184.981 57.902 185.881 57.29 186.745 56.264L187.213 56.66C185.935 58.478 184.603 59.18 183.109 59.18C180.949 59.18 179.977 57.47 179.977 55.544C179.977 52.394 182.497 49.172 185.593 49.172C187.141 49.172 187.879 50.09 187.879 51.224ZM185.125 50.144C183.739 50.144 182.407 52.07 182.101 54.374C184.765 53.582 186.061 52.718 186.061 51.278C186.061 50.648 185.755 50.144 185.125 50.144ZM196.956 53.744H197.082C198.36 51.566 200.214 49.172 201.942 49.172C202.878 49.172 203.256 49.712 203.256 50.54C203.256 50.774 203.202 51.116 203.148 51.332L201.726 56.732C201.636 57.074 201.564 57.362 201.564 57.506C201.564 57.686 201.654 57.776 201.816 57.776C202.158 57.776 202.644 57.38 203.418 56.426L203.832 56.84C202.698 58.496 201.816 59.18 200.79 59.18C199.962 59.18 199.44 58.622 199.44 57.812C199.44 57.38 199.512 56.93 199.692 56.264L200.97 51.62C201.024 51.386 201.06 51.17 201.06 51.026C201.06 50.792 200.97 50.666 200.736 50.666C199.728 50.666 197.298 53.42 196.542 56.462L195.912 59H193.788L195.642 51.62C195.696 51.386 195.732 51.17 195.732 51.026C195.732 50.792 195.642 50.666 195.408 50.666C194.436 50.666 191.952 53.42 191.196 56.462L190.566 59H188.442L190.458 50.9L189.234 50.27L189.36 49.82L192.438 49.154H192.942L192.42 51.35L191.61 53.744H191.736C193.032 51.566 194.886 49.172 196.632 49.172C197.532 49.172 197.82 49.73 197.82 50.432C197.82 51.026 197.532 52.088 196.956 53.744ZM212.735 51.224C212.735 53.312 209.891 54.284 206.885 54.968V55.4C206.885 56.912 207.605 57.902 208.775 57.902C209.837 57.902 210.737 57.29 211.601 56.264L212.069 56.66C210.791 58.478 209.459 59.18 207.965 59.18C205.805 59.18 204.833 57.47 204.833 55.544C204.833 52.394 207.353 49.172 210.449 49.172C211.997 49.172 212.735 50.09 212.735 51.224ZM209.981 50.144C208.595 50.144 207.263 52.07 206.957 54.374C209.621 53.582 210.917 52.718 210.917 51.278C210.917 50.648 210.611 50.144 209.981 50.144ZM217.798 49.154L217.222 51.458L216.484 53.726H216.61C217.87 51.548 219.904 49.172 221.632 49.172C222.586 49.172 222.964 49.712 222.964 50.54C222.964 50.774 222.91 51.098 222.856 51.332L221.416 56.732C221.326 57.074 221.254 57.362 221.254 57.506C221.254 57.686 221.344 57.776 221.506 57.776C221.848 57.776 222.334 57.38 223.108 56.426L223.522 56.84C222.406 58.496 221.524 59.18 220.498 59.18C219.67 59.18 219.13 58.622 219.13 57.812C219.13 57.38 219.202 56.93 219.382 56.264L220.678 51.584C220.732 51.35 220.768 51.134 220.768 50.99C220.768 50.738 220.678 50.612 220.444 50.612C219.472 50.612 216.88 53.276 216.052 56.516L215.422 59H213.298L215.314 50.9L214.09 50.27L214.216 49.82L217.294 49.154H217.798ZM228.571 50.324L227.185 56.354C227.077 56.822 227.023 57.11 227.023 57.362C227.023 57.632 227.131 57.812 227.419 57.812C228.049 57.812 228.751 57.236 229.831 56.084L230.281 56.534C229.003 58.208 227.617 59.18 226.393 59.18C225.331 59.18 224.899 58.514 224.899 57.614C224.899 57.182 224.971 56.786 225.097 56.246L226.465 50.324H225.151L225.331 49.694C226.645 49.316 227.653 48.488 228.607 47.246H229.327L228.823 49.352H231.019L230.785 50.324H228.571Z" fill="#374A5F"/>
<rect x="40" y="93" width="820" height="127.6" fill="#DFEBF8"/>
<rect x="40.5" y="93.5" width="819" height="126.6" stroke="#374A5F" stroke-opacity="0.1"/>
<path d="M195.12 147.92V142.808H187.104V147.92C187.104 149.336 187.824 149.6 189.384 149.648V150.8H181.776V149.648C183.384 149.6 184.056 149.336 184.056 147.92V136.808C184.056 135.416 183.384 135.152 181.776 135.104V133.952H189.384V135.104C187.824 135.152 187.104 135.416 187.104 136.808V141.512H195.12V136.808C195.12 135.416 194.4 135.152 192.84 135.104V133.952H200.448V135.104C198.84 135.152 198.168 135.416 198.168 136.808V147.92C198.168 149.336 198.84 149.6 200.448 149.648V150.8H192.84V149.648C194.4 149.6 195.12 149.336 195.12 147.92ZM208.554 149.648C210.522 149.648 211.53 147.656 211.53 144.728C211.53 141.608 210.282 139.064 208.122 139.064C206.13 139.064 205.146 141.08 205.146 144.008C205.146 147.128 206.37 149.648 208.554 149.648ZM208.218 151.04C204.522 151.04 202.146 148.304 202.146 144.608C202.146 140.408 204.93 137.696 208.434 137.696C212.13 137.696 214.53 140.432 214.53 144.128C214.53 148.328 211.722 151.04 208.218 151.04ZM229.06 146.744L231.34 140.552C231.436 140.264 231.484 140.048 231.484 139.856C231.484 139.28 231.052 139.16 229.972 138.992V137.936H234.508V138.992C233.5 139.352 233.332 139.424 233.14 139.952L228.868 150.992H228.004L224.86 142.808L221.596 150.992H220.756L216.316 139.952C216.1 139.424 215.932 139.328 214.948 138.992V137.936H220.948V138.992C219.916 139.16 219.508 139.304 219.508 139.832C219.508 140.048 219.58 140.312 219.7 140.6L221.98 146.768L224.14 141.104L223.732 139.952C223.54 139.424 223.372 139.304 222.436 138.992V137.936H228.22V138.992C227.116 139.16 226.708 139.28 226.708 139.856C226.708 140.072 226.78 140.336 226.876 140.6L229.06 146.744ZM262.613 150.8H256.301V149.72C257.381 149.576 257.981 149.456 257.981 148.352V141.872C257.981 140.336 257.453 139.784 256.061 139.784C254.957 139.784 253.949 140.24 253.109 140.816V148.352C253.109 149.456 253.733 149.576 254.789 149.72V150.8H248.525V149.72C249.605 149.576 250.205 149.456 250.205 148.352V141.872C250.205 140.336 249.677 139.784 248.309 139.784C247.181 139.784 246.173 140.24 245.333 140.816V148.352C245.333 149.456 245.909 149.576 246.989 149.72V150.8H240.701V149.72C241.757 149.576 242.429 149.456 242.429 148.352V140.528L240.821 139.496V138.896L244.661 137.648H245.333V140.096C246.437 138.944 247.781 137.696 249.773 137.696C251.405 137.696 252.557 138.464 252.965 140.192C254.093 139.04 255.581 137.696 257.597 137.696C259.709 137.696 260.885 138.872 260.885 141.608V148.352C260.885 149.456 261.533 149.576 262.613 149.72V150.8ZM268.7 137.696V148.352C268.7 149.456 269.348 149.576 270.428 149.72V150.8H264.068V149.72C265.124 149.576 265.796 149.456 265.796 148.352V140.48L264.188 139.472V138.896L268.028 137.696H268.7ZM267.164 136.256C266.084 136.256 265.316 135.44 265.316 134.456C265.316 133.472 266.084 132.656 267.164 132.656C268.22 132.656 268.988 133.472 268.988 134.456C268.988 135.44 268.22 136.256 267.164 136.256ZM277.531 146.216C276.739 146.216 275.947 146.096 275.227 145.856C274.579 146.528 274.339 146.936 274.339 147.416C274.339 147.92 274.627 148.112 275.131 148.112H280.675C283.027 148.112 284.347 149.072 284.347 151.16C284.347 153.968 281.419 155.768 277.219 155.768C273.691 155.768 271.603 154.808 271.603 152.84C271.603 151.544 272.731 150.92 273.811 150.512C272.851 150.152 272.323 149.528 272.323 148.52C272.323 147.32 273.283 146.408 274.627 145.568C273.355 144.92 272.467 143.792 272.467 142.112C272.467 139.376 274.651 137.696 277.627 137.696C278.515 137.696 279.259 137.864 279.859 138.08L284.227 137.816V139.616H283.291L281.011 139.112V139.256C281.971 139.808 282.667 140.768 282.667 142.016C282.667 144.584 280.579 146.216 277.531 146.216ZM280.219 150.848H274.267C273.907 151.208 273.787 151.664 273.787 152.12C273.787 153.824 275.323 154.52 277.555 154.52C280.123 154.52 281.995 153.752 281.995 152.096C281.995 151.088 281.323 150.848 280.219 150.848ZM277.747 145.136C279.187 145.136 279.859 143.96 279.859 142.208C279.859 140.336 278.971 138.824 277.387 138.824C275.947 138.824 275.299 140 275.299 141.752C275.299 143.6 276.139 145.136 277.747 145.136ZM290.352 132.536V140.096C291.48 138.944 292.92 137.696 294.936 137.696C297.12 137.696 298.392 138.872 298.392 141.632V148.352C298.392 149.456 299.064 149.576 300.144 149.72V150.8H293.808V149.72C294.864 149.576 295.488 149.456 295.488 148.352V141.872C295.488 140.384 294.912 139.784 293.496 139.784C292.344 139.784 291.192 140.24 290.352 140.816V148.352C290.352 149.456 290.976 149.576 292.032 149.72V150.8H285.696V149.72C286.776 149.576 287.448 149.456 287.448 148.352V135.296L285.816 134.264V133.664L289.704 132.536H290.352ZM305.623 135.104V137.936H309.151V139.376H305.623V147.464C305.623 148.736 306.175 149.192 307.399 149.192C308.071 149.192 308.863 149 309.463 148.688L309.775 149.432C308.863 150.416 307.543 151.04 305.887 151.04C303.967 151.04 302.743 150.128 302.743 147.92V139.376H301.015V138.464C302.359 137.768 303.655 136.64 304.759 135.104H305.623ZM320.661 137.648V141.584C322.029 138.656 322.749 137.696 324.285 137.696C324.717 137.696 325.029 137.84 325.221 138.008V140.648H324.693C323.205 140.648 322.077 140.84 320.661 142.376V148.304C320.661 149.456 321.237 149.528 322.869 149.72V150.8H316.029V149.72C317.085 149.576 317.757 149.456 317.757 148.352V140.528L316.149 139.496V138.896L319.965 137.648H320.661ZM332.435 137.696C335.699 137.696 337.403 140 337.403 143.096V143.888H329.027C329.027 146.792 330.659 148.736 333.203 148.736C334.907 148.736 336.035 147.944 336.899 146.792L337.427 147.104C336.827 149.432 335.003 151.04 332.195 151.04C328.667 151.04 326.435 148.376 326.435 144.776C326.435 140.528 329.027 137.696 332.435 137.696ZM332.051 139.016C330.323 139.016 329.291 140.72 329.099 142.664H334.691C334.691 140.456 333.803 139.016 332.051 139.016ZM348.28 151.04V148.832C347.368 150.152 346.168 151.04 344.32 151.04C341.152 151.04 339.256 148.496 339.256 144.992C339.256 140.48 341.992 137.744 345.52 137.744C346.696 137.744 347.752 138.152 348.28 138.848V135.296L346.648 134.264V133.664L350.536 132.536H351.184V147.944C351.184 148.76 351.424 149 352.408 149.096L353.008 149.144V150.224L348.808 151.04H348.28ZM345.616 138.992C343.504 138.992 342.184 141.032 342.184 143.984C342.184 146.768 343.336 149.048 345.688 149.048C346.672 149.048 347.656 148.688 348.28 148.112V142.04C348.28 139.976 347.296 138.992 345.616 138.992ZM363.706 151.04V148.688C362.626 149.816 361.258 151.04 359.242 151.04C357.13 151.04 355.786 149.864 355.786 147.056V140.768C355.786 139.952 355.546 139.64 354.514 139.472L354.13 139.4V138.416L358.21 137.696H358.714V146.696C358.714 148.28 359.338 149 360.706 149C361.858 149 362.866 148.544 363.706 147.992V140.768C363.706 139.952 363.466 139.64 362.434 139.472L362.074 139.4V138.416L366.106 137.696H366.634V147.944C366.634 148.76 366.85 149 367.834 149.096L368.434 149.144V150.224L364.234 151.04H363.706ZM372.669 143.6C372.669 146.672 374.085 148.736 376.701 148.736C378.261 148.736 379.341 148.04 380.229 146.792L380.781 147.128C380.037 149.792 378.213 151.04 375.669 151.04C372.309 151.04 370.029 148.496 370.029 144.8C370.029 140.888 372.549 137.696 376.389 137.696C378.909 137.696 380.637 138.848 380.637 140.816C380.637 141.704 380.205 142.136 379.653 142.376H378.093V141.44C378.093 140.072 377.517 139.04 376.077 139.04C374.085 139.04 372.669 140.912 372.669 143.6ZM388.428 137.696C391.692 137.696 393.396 140 393.396 143.096V143.888H385.02C385.02 146.792 386.652 148.736 389.196 148.736C390.9 148.736 392.028 147.944 392.892 146.792L393.42 147.104C392.82 149.432 390.996 151.04 388.188 151.04C384.66 151.04 382.428 148.376 382.428 144.776C382.428 140.528 385.02 137.696 388.428 137.696ZM388.044 139.016C386.316 139.016 385.284 140.72 385.092 142.664H390.684C390.684 140.456 389.796 139.016 388.044 139.016ZM403.044 143.6C403.044 146.672 404.46 148.736 407.076 148.736C408.636 148.736 409.716 148.04 410.604 146.792L411.156 147.128C410.412 149.792 408.588 151.04 406.044 151.04C402.684 151.04 400.404 148.496 400.404 144.8C400.404 140.888 402.924 137.696 406.764 137.696C409.284 137.696 411.012 138.848 411.012 140.816C411.012 141.704 410.58 142.136 410.028 142.376H408.468V141.44C408.468 140.072 407.892 139.04 406.452 139.04C404.46 139.04 403.044 140.912 403.044 143.6ZM417.579 149.048C418.515 149.048 419.163 148.784 419.979 148.208V144.008L417.171 145.088C416.283 145.424 415.779 146.072 415.779 146.984C415.779 148.304 416.427 149.048 417.579 149.048ZM422.883 142.088C422.883 142.664 422.811 146.912 422.811 147.656C422.811 148.616 423.123 149.168 423.795 149.168C424.011 149.168 424.539 149.12 424.899 149.024L425.043 149.792C424.227 150.608 423.315 151.04 422.307 151.04C421.035 151.04 420.339 150.152 420.051 148.856C419.211 149.864 417.915 151.016 416.091 151.016C413.955 151.016 412.851 149.576 412.851 147.728C412.851 145.52 414.555 144.752 416.163 144.2L419.979 142.832V141.56C419.979 140 419.499 138.944 417.915 138.944C416.739 138.944 416.163 139.52 416.163 140.624C416.163 141.08 416.211 141.488 416.331 141.992L414.219 142.304C413.763 141.992 413.547 141.536 413.547 140.888C413.547 138.8 415.587 137.696 418.347 137.696C421.299 137.696 422.883 139.016 422.883 142.088ZM430.461 132.536V148.352C430.461 149.456 431.133 149.576 432.189 149.72V150.8H425.829V149.72C426.909 149.576 427.581 149.456 427.581 148.352V135.296L425.949 134.264V133.664L429.813 132.536H430.461ZM438.289 132.536V148.352C438.289 149.456 438.961 149.576 440.017 149.72V150.8H433.657V149.72C434.737 149.576 435.409 149.456 435.409 148.352V135.296L433.777 134.264V133.664L437.641 132.536H438.289ZM459.577 137.936V138.992C458.569 139.376 458.425 139.424 458.185 139.952L453.313 150.992H452.545L447.457 139.952C447.217 139.448 447.073 139.376 446.065 138.992V137.936H452.425V138.992C451.177 139.16 450.721 139.28 450.721 139.856C450.721 140.048 450.769 140.24 450.913 140.552L453.577 147.08L456.313 140.552C456.433 140.216 456.481 140.048 456.481 139.856C456.481 139.28 456.025 139.16 454.801 138.992V137.936H459.577ZM466.297 149.648C468.265 149.648 469.273 147.656 469.273 144.728C469.273 141.608 468.025 139.064 465.865 139.064C463.873 139.064 462.889 141.08 462.889 144.008C462.889 147.128 464.113 149.648 466.297 149.648ZM465.961 151.04C462.265 151.04 459.889 148.304 459.889 144.608C459.889 140.408 462.673 137.696 466.177 137.696C469.873 137.696 472.273 140.432 472.273 144.128C472.273 148.328 469.465 151.04 465.961 151.04ZM478.508 132.536V148.352C478.508 149.456 479.18 149.576 480.236 149.72V150.8H473.876V149.72C474.956 149.576 475.628 149.456 475.628 148.352V135.296L473.996 134.264V133.664L477.86 132.536H478.508ZM491.112 151.04V148.688C490.032 149.816 488.664 151.04 486.648 151.04C484.536 151.04 483.192 149.864 483.192 147.056V140.768C483.192 139.952 482.952 139.64 481.92 139.472L481.536 139.4V138.416L485.616 137.696H486.12V146.696C486.12 148.28 486.744 149 488.112 149C489.264 149 490.272 148.544 491.112 147.992V140.768C491.112 139.952 490.872 139.64 489.84 139.472L489.48 139.4V138.416L493.512 137.696H494.04V147.944C494.04 148.76 494.256 149 495.24 149.096L495.84 149.144V150.224L491.64 151.04H491.112ZM519.347 150.8H513.035V149.72C514.115 149.576 514.715 149.456 514.715 148.352V141.872C514.715 140.336 514.187 139.784 512.795 139.784C511.691 139.784 510.683 140.24 509.843 140.816V148.352C509.843 149.456 510.467 149.576 511.523 149.72V150.8H505.259V149.72C506.339 149.576 506.939 149.456 506.939 148.352V141.872C506.939 140.336 506.411 139.784 505.043 139.784C503.915 139.784 502.907 140.24 502.067 140.816V148.352C502.067 149.456 502.643 149.576 503.723 149.72V150.8H497.435V149.72C498.491 149.576 499.163 149.456 499.163 148.352V140.528L497.555 139.496V138.896L501.395 137.648H502.067V140.096C503.171 138.944 504.515 137.696 506.507 137.696C508.139 137.696 509.291 138.464 509.699 140.192C510.827 139.04 512.315 137.696 514.331 137.696C516.443 137.696 517.619 138.872 517.619 141.608V148.352C517.619 149.456 518.267 149.576 519.347 149.72V150.8ZM526.803 137.696C530.067 137.696 531.771 140 531.771 143.096V143.888H523.395C523.395 146.792 525.027 148.736 527.571 148.736C529.275 148.736 530.403 147.944 531.267 146.792L531.795 147.104C531.195 149.432 529.371 151.04 526.563 151.04C523.035 151.04 520.803 148.376 520.803 144.776C520.803 140.528 523.395 137.696 526.803 137.696ZM526.419 139.016C524.691 139.016 523.659 140.72 523.467 142.664H529.059C529.059 140.456 528.171 139.016 526.419 139.016ZM538.351 151.04C536.623 151.04 534.991 150.656 533.815 149.792L533.671 146.696H534.919C535.375 148.664 536.503 149.816 538.423 149.816C539.839 149.816 540.751 149.168 540.751 148.016C540.751 146.648 539.791 146.168 537.631 145.568C535.207 144.872 533.791 143.864 533.791 141.584C533.791 139.232 535.519 137.696 538.231 137.696C539.887 137.696 541.255 138.104 542.311 138.728V141.608H541.087C540.727 139.856 539.767 138.944 538.135 138.944C536.887 138.944 536.167 139.688 536.167 140.672C536.167 141.848 536.959 142.472 538.927 143C541.399 143.672 543.103 144.512 543.103 147.032C543.103 149.408 541.327 151.04 538.351 151.04ZM554.852 149.048C555.788 149.048 556.436 148.784 557.252 148.208V144.008L554.444 145.088C553.556 145.424 553.052 146.072 553.052 146.984C553.052 148.304 553.7 149.048 554.852 149.048ZM560.156 142.088C560.156 142.664 560.084 146.912 560.084 147.656C560.084 148.616 560.396 149.168 561.068 149.168C561.284 149.168 561.812 149.12 562.172 149.024L562.316 149.792C561.5 150.608 560.588 151.04 559.58 151.04C558.308 151.04 557.612 150.152 557.324 148.856C556.484 149.864 555.188 151.016 553.364 151.016C551.228 151.016 550.124 149.576 550.124 147.728C550.124 145.52 551.828 144.752 553.436 144.2L557.252 142.832V141.56C557.252 140 556.772 138.944 555.188 138.944C554.012 138.944 553.436 139.52 553.436 140.624C553.436 141.08 553.484 141.488 553.604 141.992L551.492 142.304C551.036 141.992 550.82 141.536 550.82 140.888C550.82 138.8 552.86 137.696 555.62 137.696C558.572 137.696 560.156 139.016 560.156 142.088ZM573.11 148.352V141.872C573.11 140.384 572.51 139.784 571.094 139.784C569.966 139.784 568.766 140.24 567.95 140.816V148.352C567.95 149.456 568.55 149.576 569.63 149.72V150.8H563.318V149.72C564.374 149.576 565.046 149.456 565.046 148.352V140.528L563.438 139.496V138.896L567.278 137.648H567.95V140.096C569.054 138.944 570.542 137.696 572.558 137.696C574.718 137.696 576.014 138.872 576.014 141.632V148.352C576.014 149.456 576.662 149.576 577.742 149.72V150.8H571.406V149.72C572.486 149.576 573.11 149.456 573.11 148.352ZM588.256 151.04V148.832C587.344 150.152 586.144 151.04 584.296 151.04C581.128 151.04 579.232 148.496 579.232 144.992C579.232 140.48 581.968 137.744 585.496 137.744C586.672 137.744 587.728 138.152 588.256 138.848V135.296L586.624 134.264V133.664L590.512 132.536H591.16V147.944C591.16 148.76 591.4 149 592.384 149.096L592.984 149.144V150.224L588.784 151.04H588.256ZM585.592 138.992C583.48 138.992 582.16 141.032 582.16 143.984C582.16 146.768 583.312 149.048 585.664 149.048C586.648 149.048 587.632 148.688 588.256 148.112V142.04C588.256 139.976 587.272 138.992 585.592 138.992ZM612.966 146.744L615.246 140.552C615.342 140.264 615.39 140.048 615.39 139.856C615.39 139.28 614.958 139.16 613.878 138.992V137.936H618.414V138.992C617.406 139.352 617.238 139.424 617.046 139.952L612.774 150.992H611.91L608.766 142.808L605.502 150.992H604.662L600.222 139.952C600.006 139.424 599.838 139.328 598.854 138.992V137.936H604.854V138.992C603.822 139.16 603.414 139.304 603.414 139.832C603.414 140.048 603.486 140.312 603.606 140.6L605.886 146.768L608.046 141.104L607.638 139.952C607.446 139.424 607.278 139.304 606.342 138.992V137.936H612.126V138.992C611.022 139.16 610.614 139.28 610.614 139.856C610.614 140.072 610.686 140.336 610.782 140.6L612.966 146.744ZM624.227 149.048C625.163 149.048 625.811 148.784 626.627 148.208V144.008L623.819 145.088C622.931 145.424 622.427 146.072 622.427 146.984C622.427 148.304 623.075 149.048 624.227 149.048ZM629.531 142.088C629.531 142.664 629.459 146.912 629.459 147.656C629.459 148.616 629.771 149.168 630.443 149.168C630.659 149.168 631.187 149.12 631.547 149.024L631.691 149.792C630.875 150.608 629.963 151.04 628.955 151.04C627.683 151.04 626.987 150.152 626.699 148.856C625.859 149.864 624.563 151.016 622.739 151.016C620.603 151.016 619.499 149.576 619.499 147.728C619.499 145.52 621.203 144.752 622.811 144.2L626.627 142.832V141.56C626.627 140 626.147 138.944 624.563 138.944C623.387 138.944 622.811 139.52 622.811 140.624C622.811 141.08 622.859 141.488 622.979 141.992L620.867 142.304C620.411 141.992 620.195 141.536 620.195 140.888C620.195 138.8 622.235 137.696 624.995 137.696C627.947 137.696 629.531 139.016 629.531 142.088ZM637.325 137.696V148.352C637.325 149.456 637.973 149.576 639.053 149.72V150.8H632.693V149.72C633.749 149.576 634.421 149.456 634.421 148.352V140.48L632.813 139.472V138.896L636.653 137.696H637.325ZM635.789 136.256C634.709 136.256 633.941 135.44 633.941 134.456C633.941 133.472 634.709 132.656 635.789 132.656C636.845 132.656 637.613 133.472 637.613 134.456C637.613 135.44 636.845 136.256 635.789 136.256ZM644.74 135.104V137.936H648.268V139.376H644.74V147.464C644.74 148.736 645.292 149.192 646.516 149.192C647.188 149.192 647.98 149 648.58 148.688L648.892 149.432C647.98 150.416 646.66 151.04 645.004 151.04C643.084 151.04 641.86 150.128 641.86 147.92V139.376H640.132V138.464C641.476 137.768 642.772 136.64 643.876 135.104H644.74ZM659.154 135.104V137.936H662.682V139.376H659.154V147.464C659.154 148.736 659.706 149.192 660.93 149.192C661.602 149.192 662.394 149 662.994 148.688L663.306 149.432C662.394 150.416 661.074 151.04 659.418 151.04C657.498 151.04 656.274 150.128 656.274 147.92V139.376H654.546V138.464C655.89 137.768 657.186 136.64 658.29 135.104H659.154ZM669.036 137.696V148.352C669.036 149.456 669.684 149.576 670.764 149.72V150.8H664.404V149.72C665.46 149.576 666.132 149.456 666.132 148.352V140.48L664.524 139.472V138.896L668.364 137.696H669.036ZM667.5 136.256C666.42 136.256 665.652 135.44 665.652 134.456C665.652 133.472 666.42 132.656 667.5 132.656C668.556 132.656 669.324 133.472 669.324 134.456C669.324 135.44 668.556 136.256 667.5 136.256ZM694.355 150.8H688.043V149.72C689.123 149.576 689.723 149.456 689.723 148.352V141.872C689.723 140.336 689.195 139.784 687.803 139.784C686.699 139.784 685.691 140.24 684.851 140.816V148.352C684.851 149.456 685.475 149.576 686.531 149.72V150.8H680.267V149.72C681.347 149.576 681.947 149.456 681.947 148.352V141.872C681.947 140.336 681.419 139.784 680.051 139.784C678.923 139.784 677.915 140.24 677.075 140.816V148.352C677.075 149.456 677.651 149.576 678.731 149.72V150.8H672.443V149.72C673.499 149.576 674.171 149.456 674.171 148.352V140.528L672.563 139.496V138.896L676.403 137.648H677.075V140.096C678.179 138.944 679.523 137.696 681.515 137.696C683.147 137.696 684.299 138.464 684.707 140.192C685.835 139.04 687.323 137.696 689.339 137.696C691.451 137.696 692.627 138.872 692.627 141.608V148.352C692.627 149.456 693.275 149.576 694.355 149.72V150.8ZM701.81 137.696C705.074 137.696 706.778 140 706.778 143.096V143.888H698.402C698.402 146.792 700.034 148.736 702.578 148.736C704.282 148.736 705.41 147.944 706.274 146.792L706.802 147.104C706.202 149.432 704.378 151.04 701.57 151.04C698.042 151.04 695.81 148.376 695.81 144.776C695.81 140.528 698.402 137.696 701.81 137.696ZM701.426 139.016C699.698 139.016 698.666 140.72 698.474 142.664H704.066C704.066 140.456 703.178 139.016 701.426 139.016ZM713.359 151.04C711.631 151.04 709.999 150.656 708.823 149.792L708.679 146.696H709.927C710.383 148.664 711.511 149.816 713.431 149.816C714.847 149.816 715.759 149.168 715.759 148.016C715.759 146.648 714.799 146.168 712.639 145.568C710.215 144.872 708.799 143.864 708.799 141.584C708.799 139.232 710.527 137.696 713.239 137.696C714.895 137.696 716.263 138.104 717.319 138.728V141.608H716.095C715.735 139.856 714.775 138.944 713.143 138.944C711.895 138.944 711.175 139.688 711.175 140.672C711.175 141.848 711.967 142.472 713.935 143C716.407 143.672 718.111 144.512 718.111 147.032C718.111 149.408 716.335 151.04 713.359 151.04ZM271.56 168.696V179.352C271.56 180.456 272.208 180.576 273.288 180.72V181.8H266.928V180.72C267.984 180.576 268.656 180.456 268.656 179.352V171.48L267.048 170.472V169.896L270.888 168.696H271.56ZM270.024 167.256C268.944 167.256 268.176 166.44 268.176 165.456C268.176 164.472 268.944 163.656 270.024 163.656C271.08 163.656 271.848 164.472 271.848 165.456C271.848 166.44 271.08 167.256 270.024 167.256ZM284.759 179.352V172.872C284.759 171.384 284.159 170.784 282.743 170.784C281.615 170.784 280.415 171.24 279.599 171.816V179.352C279.599 180.456 280.199 180.576 281.279 180.72V181.8H274.967V180.72C276.023 180.576 276.695 180.456 276.695 179.352V171.528L275.087 170.496V169.896L278.927 168.648H279.599V171.096C280.703 169.944 282.191 168.696 284.207 168.696C286.367 168.696 287.663 169.872 287.663 172.632V179.352C287.663 180.456 288.311 180.576 289.391 180.72V181.8H283.055V180.72C284.135 180.576 284.759 180.456 284.759 179.352ZM300.045 166.104V168.936H303.573V170.376H300.045V178.464C300.045 179.736 300.597 180.192 301.821 180.192C302.493 180.192 303.285 180 303.885 179.688L304.197 180.432C303.285 181.416 301.965 182.04 300.309 182.04C298.389 182.04 297.165 181.128 297.165 178.92V170.376H295.437V169.464C296.781 168.768 298.077 167.64 299.181 166.104H300.045ZM309.735 163.536V171.096C310.863 169.944 312.303 168.696 314.319 168.696C316.503 168.696 317.775 169.872 317.775 172.632V179.352C317.775 180.456 318.447 180.576 319.527 180.72V181.8H313.191V180.72C314.247 180.576 314.871 180.456 314.871 179.352V172.872C314.871 171.384 314.295 170.784 312.879 170.784C311.727 170.784 310.575 171.24 309.735 171.816V179.352C309.735 180.456 310.359 180.576 311.415 180.72V181.8H305.079V180.72C306.159 180.576 306.831 180.456 306.831 179.352V166.296L305.199 165.264V164.664L309.087 163.536H309.735ZM326.998 168.696C330.262 168.696 331.966 171 331.966 174.096V174.888H323.59C323.59 177.792 325.222 179.736 327.766 179.736C329.47 179.736 330.598 178.944 331.462 177.792L331.99 178.104C331.39 180.432 329.566 182.04 326.758 182.04C323.23 182.04 320.998 179.376 320.998 175.776C320.998 171.528 323.59 168.696 326.998 168.696ZM326.614 170.016C324.886 170.016 323.854 171.72 323.662 173.664H329.254C329.254 171.456 328.366 170.016 326.614 170.016ZM339.023 173.736C339.023 168.144 342.911 164.712 347.591 164.712C350.062 164.712 351.887 165.36 353.039 166.296V170.04H351.743C351.095 167.376 349.607 166.104 347.471 166.104C343.943 166.104 342.359 169.32 342.359 173.04C342.359 177.36 344.039 180.624 347.711 180.624C348.959 180.624 349.727 180.408 350.471 179.808V176.52C350.471 175.152 349.823 174.888 348.287 174.816V173.688H355.415V174.816C353.879 174.888 353.351 175.152 353.351 176.52V180.312C351.815 181.392 349.775 182.04 347.375 182.04C342.119 182.04 339.023 178.584 339.023 173.736ZM361.25 163.536V179.352C361.25 180.456 361.922 180.576 362.978 180.72V181.8H356.618V180.72C357.698 180.576 358.37 180.456 358.37 179.352V166.296L356.738 165.264V164.664L360.602 163.536H361.25ZM371.07 180.648C373.038 180.648 374.046 178.656 374.046 175.728C374.046 172.608 372.798 170.064 370.638 170.064C368.646 170.064 367.662 172.08 367.662 175.008C367.662 178.128 368.886 180.648 371.07 180.648ZM370.734 182.04C367.038 182.04 364.662 179.304 364.662 175.608C364.662 171.408 367.446 168.696 370.95 168.696C374.646 168.696 377.046 171.432 377.046 175.128C377.046 179.328 374.238 182.04 370.734 182.04ZM379.849 166.296L378.241 165.264V164.664L382.105 163.536H382.753V170.856C383.665 169.56 384.985 168.696 386.761 168.696C389.977 168.696 391.777 171.24 391.777 174.744C391.777 179.256 388.897 182.04 385.297 182.04C382.969 182.04 381.001 181.368 379.849 180.432V166.296ZM385.441 180.768C387.505 180.768 388.849 178.8 388.849 175.824C388.849 173.04 387.745 170.664 385.345 170.664C384.361 170.664 383.377 170.976 382.753 171.576V177.72C382.753 179.88 383.737 180.768 385.441 180.768ZM398.383 180.048C399.319 180.048 399.967 179.784 400.783 179.208V175.008L397.975 176.088C397.087 176.424 396.583 177.072 396.583 177.984C396.583 179.304 397.231 180.048 398.383 180.048ZM403.687 173.088C403.687 173.664 403.615 177.912 403.615 178.656C403.615 179.616 403.927 180.168 404.599 180.168C404.815 180.168 405.343 180.12 405.703 180.024L405.847 180.792C405.031 181.608 404.119 182.04 403.111 182.04C401.839 182.04 401.143 181.152 400.855 179.856C400.015 180.864 398.719 182.016 396.895 182.016C394.759 182.016 393.655 180.576 393.655 178.728C393.655 176.52 395.359 175.752 396.967 175.2L400.783 173.832V172.56C400.783 171 400.303 169.944 398.719 169.944C397.543 169.944 396.967 170.52 396.967 171.624C396.967 172.08 397.015 172.488 397.135 172.992L395.023 173.304C394.567 172.992 394.351 172.536 394.351 171.888C394.351 169.8 396.391 168.696 399.151 168.696C402.103 168.696 403.687 170.016 403.687 173.088ZM411.266 163.536V179.352C411.266 180.456 411.938 180.576 412.993 180.72V181.8H406.634V180.72C407.714 180.576 408.386 180.456 408.386 179.352V166.296L406.754 165.264V164.664L410.618 163.536H411.266ZM433.058 178.92V173.808H425.042V178.92C425.042 180.336 425.762 180.6 427.322 180.648V181.8H419.714V180.648C421.322 180.6 421.994 180.336 421.994 178.92V167.808C421.994 166.416 421.322 166.152 419.714 166.104V164.952H427.322V166.104C425.762 166.152 425.042 166.416 425.042 167.808V172.512H433.058V167.808C433.058 166.416 432.338 166.152 430.778 166.104V164.952H438.386V166.104C436.778 166.152 436.106 166.416 436.106 167.808V178.92C436.106 180.336 436.778 180.6 438.386 180.648V181.8H430.778V180.648C432.338 180.6 433.058 180.336 433.058 178.92ZM446.54 166.248H445.292V173.352H446.612C449.372 173.352 450.668 172.152 450.668 169.728C450.668 167.664 449.372 166.248 446.54 166.248ZM439.964 164.952H447.572C451.916 164.952 453.86 166.872 453.86 169.728C453.86 172.272 451.772 173.808 449.612 174.12L453.26 178.944C454.052 180.024 454.916 180.6 456.188 180.648V181.8H452.132C451.316 181.224 450.764 180.624 450.02 179.52L446.468 174.576H445.292V178.92C445.292 180.336 445.964 180.6 447.524 180.648V181.8H439.964V180.648C441.572 180.6 442.244 180.336 442.244 178.92V167.808C442.244 166.416 441.572 166.152 439.964 166.128V164.952ZM473.889 178.656L472.929 176.376H466.209L465.321 178.632C465.177 178.992 465.057 179.328 465.057 179.592C465.057 180.336 465.561 180.6 467.145 180.648V181.8H461.769V180.648C462.417 180.552 462.921 180.408 463.185 179.76L468.657 166.488L467.889 164.784H471.225L477.681 179.76C477.945 180.384 478.401 180.552 479.097 180.648V181.8H472.089V180.648C473.673 180.6 474.153 180.36 474.153 179.616C474.153 179.328 474.057 179.016 473.889 178.656ZM469.521 168.144L466.713 175.128H472.425L469.521 168.144ZM489.186 182.04V179.832C488.274 181.152 487.074 182.04 485.226 182.04C482.058 182.04 480.162 179.496 480.162 175.992C480.162 171.48 482.898 168.744 486.426 168.744C487.602 168.744 488.658 169.152 489.186 169.848V166.296L487.554 165.264V164.664L491.442 163.536H492.09V178.944C492.09 179.76 492.33 180 493.314 180.096L493.914 180.144V181.224L489.714 182.04H489.186ZM486.522 169.992C484.41 169.992 483.09 172.032 483.09 174.984C483.09 177.768 484.242 180.048 486.594 180.048C487.578 180.048 488.562 179.688 489.186 179.112V173.04C489.186 170.976 488.202 169.992 486.522 169.992ZM507.788 168.936V169.992C506.78 170.376 506.636 170.424 506.396 170.952L501.524 181.992H500.756L495.668 170.952C495.428 170.448 495.284 170.376 494.276 169.992V168.936H500.636V169.992C499.388 170.16 498.932 170.28 498.932 170.856C498.932 171.048 498.98 171.24 499.124 171.552L501.788 178.08L504.524 171.552C504.644 171.216 504.692 171.048 504.692 170.856C504.692 170.28 504.236 170.16 503.012 169.992V168.936H507.788ZM513.458 168.696V179.352C513.458 180.456 514.106 180.576 515.186 180.72V181.8H508.826V180.72C509.882 180.576 510.554 180.456 510.554 179.352V171.48L508.946 170.472V169.896L512.786 168.696H513.458ZM511.922 167.256C510.842 167.256 510.074 166.44 510.074 165.456C510.074 164.472 510.842 163.656 511.922 163.656C512.978 163.656 513.746 164.472 513.746 165.456C513.746 166.44 512.978 167.256 511.922 167.256ZM519.505 174.6C519.505 177.672 520.921 179.736 523.537 179.736C525.097 179.736 526.177 179.04 527.065 177.792L527.617 178.128C526.873 180.792 525.049 182.04 522.505 182.04C519.145 182.04 516.865 179.496 516.865 175.8C516.865 171.888 519.385 168.696 523.225 168.696C525.745 168.696 527.473 169.848 527.473 171.816C527.473 172.704 527.041 173.136 526.489 173.376H524.929V172.44C524.929 171.072 524.353 170.04 522.913 170.04C520.921 170.04 519.505 171.912 519.505 174.6ZM535.264 168.696C538.528 168.696 540.232 171 540.232 174.096V174.888H531.856C531.856 177.792 533.488 179.736 536.032 179.736C537.736 179.736 538.864 178.944 539.728 177.792L540.256 178.104C539.656 180.432 537.832 182.04 535.024 182.04C531.496 182.04 529.264 179.376 529.264 175.776C529.264 171.528 531.856 168.696 535.264 168.696ZM534.88 170.016C533.152 170.016 532.12 171.72 531.928 173.664H537.52C537.52 171.456 536.632 170.016 534.88 170.016ZM555.952 180.624C558.232 180.624 559.48 179.208 560.368 176.4H561.688L561.184 180.648C559.672 181.488 557.992 182.04 555.472 182.04C550.456 182.04 547.288 178.56 547.288 173.736C547.288 168.144 551.032 164.712 555.76 164.712C558.208 164.712 559.96 165.36 561.112 166.296V170.04H559.816C559.168 167.376 557.8 166.104 555.64 166.104C552.088 166.104 550.624 169.32 550.624 173.04C550.624 177.384 552.424 180.624 555.952 180.624ZM569.623 168.696C572.887 168.696 574.591 171 574.591 174.096V174.888H566.215C566.215 177.792 567.847 179.736 570.391 179.736C572.095 179.736 573.223 178.944 574.087 177.792L574.615 178.104C574.015 180.432 572.191 182.04 569.383 182.04C565.855 182.04 563.623 179.376 563.623 175.776C563.623 171.528 566.215 168.696 569.623 168.696ZM569.239 170.016C567.511 170.016 566.479 171.72 566.287 173.664H571.879C571.879 171.456 570.991 170.016 569.239 170.016ZM586.235 179.352V172.872C586.235 171.384 585.635 170.784 584.219 170.784C583.091 170.784 581.891 171.24 581.075 171.816V179.352C581.075 180.456 581.675 180.576 582.755 180.72V181.8H576.443V180.72C577.499 180.576 578.171 180.456 578.171 179.352V171.528L576.563 170.496V169.896L580.403 168.648H581.075V171.096C582.179 169.944 583.667 168.696 585.683 168.696C587.843 168.696 589.139 169.872 589.139 172.632V179.352C589.139 180.456 589.787 180.576 590.867 180.72V181.8H584.531V180.72C585.611 180.576 586.235 180.456 586.235 179.352ZM596.365 166.104V168.936H599.893V170.376H596.365V178.464C596.365 179.736 596.917 180.192 598.141 180.192C598.813 180.192 599.605 180 600.205 179.688L600.517 180.432C599.605 181.416 598.285 182.04 596.629 182.04C594.709 182.04 593.485 181.128 593.485 178.92V170.376H591.757V169.464C593.101 168.768 594.397 167.64 595.501 166.104H596.365ZM606.247 168.648V172.584C607.615 169.656 608.335 168.696 609.871 168.696C610.303 168.696 610.615 168.84 610.807 169.008V171.648H610.279C608.791 171.648 607.663 171.84 606.247 173.376V179.304C606.247 180.456 606.823 180.528 608.455 180.72V181.8H601.615V180.72C602.671 180.576 603.343 180.456 603.343 179.352V171.528L601.735 170.496V169.896L605.551 168.648H606.247ZM618.021 168.696C621.285 168.696 622.989 171 622.989 174.096V174.888H614.613C614.613 177.792 616.245 179.736 618.789 179.736C620.493 179.736 621.621 178.944 622.485 177.792L623.013 178.104C622.413 180.432 620.589 182.04 617.781 182.04C614.253 182.04 612.021 179.376 612.021 175.776C612.021 171.528 614.613 168.696 618.021 168.696ZM617.637 170.016C615.909 170.016 614.877 171.72 614.685 173.664H620.277C620.277 171.456 619.389 170.016 617.637 170.016ZM630.692 168.072C630.692 166.752 629.876 166.008 628.532 166.008C627.14 166.008 626.564 166.872 626.564 168.168V169.176H624.428C624.02 168.864 623.804 168.432 623.804 167.904C623.804 166.08 625.82 164.712 628.508 164.712C631.484 164.712 633.404 166.032 633.404 168.72C633.404 170.712 632.3 171.936 630.524 173.16C629.132 174.096 628.652 174.84 628.652 176.112V176.832H627.764C627.38 176.424 626.852 175.536 626.852 174.576C626.852 173.328 627.332 172.32 628.604 171.288C629.732 170.352 630.692 169.632 630.692 168.072ZM626.228 180.072C626.228 178.944 627.092 178.08 628.196 178.08C629.3 178.08 630.14 178.944 630.14 180.072C630.14 181.152 629.3 182.04 628.196 182.04C627.092 182.04 626.228 181.152 626.228 180.072Z" fill="#0B66C3"/>
</svg>
