<svg width="900" height="277" viewBox="0 0 900 277" fill="none" xmlns="http://www.w3.org/2000/svg">
<rect y="0.371094" width="900" height="275.878" fill="#374A5F" fill-opacity="0.025"/>
<rect x="0.5" y="0.871094" width="899" height="274.878" stroke="#374A5F" stroke-opacity="0.1"/>
<path d="M42.448 46.7351H53.5L52.942 50.6411H52.15C51.646 48.3011 51.466 47.6531 49.864 47.6531H48.874L46.912 56.9591C46.84 57.2831 46.822 57.5171 46.822 57.6431C46.822 58.3271 47.398 58.4891 48.496 58.5251L48.316 59.3711H42.286L42.466 58.5251C43.672 58.4711 44.392 58.2911 44.608 57.2291L46.642 47.6531H45.67C44.068 47.6531 43.672 48.3011 42.142 50.6411H41.332L42.448 46.7351ZM56.4769 51.8111L55.7749 54.0971H55.9009C57.1609 51.9191 59.1949 49.5431 60.9229 49.5431C61.8589 49.5431 62.2369 50.0831 62.2369 50.9111C62.2369 51.1451 62.1829 51.4691 62.1289 51.7031L60.7069 57.1031C60.6169 57.4451 60.5449 57.7331 60.5449 57.8771C60.5449 58.0571 60.6349 58.1471 60.7969 58.1471C61.1389 58.1471 61.6249 57.7511 62.3989 56.7971L62.8129 57.2111C61.6789 58.8671 60.7969 59.5511 59.7709 59.5511C58.9429 59.5511 58.4209 58.9931 58.4209 58.1831C58.4209 57.7511 58.4929 57.3011 58.6729 56.6351L59.9689 51.9551C60.0229 51.7211 60.0589 51.5051 60.0589 51.3611C60.0589 51.1091 59.9689 50.9831 59.7349 50.9831C58.7449 50.9831 56.1709 53.6471 55.3429 56.8871L54.7129 59.3711H52.5889L55.3429 47.4911L54.0829 46.8611L54.1909 46.4291L57.4489 45.6731H57.9169L56.4769 51.8111ZM71.717 51.5951C71.717 53.6831 68.873 54.6551 65.867 55.3391V55.7711C65.867 57.2831 66.587 58.2731 67.757 58.2731C68.819 58.2731 69.719 57.6611 70.583 56.6351L71.051 57.0311C69.773 58.8491 68.441 59.5511 66.947 59.5511C64.787 59.5511 63.815 57.8411 63.815 55.9151C63.815 52.7651 66.335 49.5431 69.431 49.5431C70.979 49.5431 71.717 50.4611 71.717 51.5951ZM68.963 50.5151C67.577 50.5151 66.245 52.4411 65.939 54.7451C68.603 53.9531 69.899 53.0891 69.899 51.6491C69.899 51.0191 69.593 50.5151 68.963 50.5151ZM80.0231 49.5251L79.4471 51.8291L78.7091 54.0971H78.8351C80.0951 51.9191 82.1291 49.5431 83.8571 49.5431C84.8111 49.5431 85.1891 50.0831 85.1891 50.9111C85.1891 51.1451 85.1351 51.4691 85.0811 51.7031L83.6411 57.1031C83.5511 57.4451 83.4791 57.7331 83.4791 57.8771C83.4791 58.0571 83.5691 58.1471 83.7311 58.1471C84.0731 58.1471 84.5591 57.7511 85.3331 56.7971L85.7471 57.2111C84.6311 58.8671 83.7491 59.5511 82.7231 59.5511C81.8951 59.5511 81.3551 58.9931 81.3551 58.1831C81.3551 57.7511 81.4271 57.3011 81.6071 56.6351L82.9031 51.9551C82.9571 51.7211 82.9931 51.5051 82.9931 51.3611C82.9931 51.1091 82.9031 50.9831 82.6691 50.9831C81.6971 50.9831 79.1051 53.6471 78.2771 56.8871L77.6471 59.3711H75.5231L77.5391 51.2711L76.3151 50.6411L76.4411 50.1911L79.5191 49.5251H80.0231ZM89.7347 58.0571C91.0307 58.0571 92.8847 55.3031 93.8747 51.2171C93.5867 50.6591 93.2087 50.3891 92.6147 50.3891C90.4187 50.3891 88.8347 53.7731 88.8167 56.5271C88.8167 57.4451 89.1227 58.0571 89.7347 58.0571ZM94.4147 50.3351L95.7287 49.4531H96.5567L95.8907 51.6131L94.5587 57.1031C94.4687 57.4451 94.3967 57.7331 94.3967 57.8771C94.3967 58.0571 94.4867 58.1471 94.6487 58.1471C94.9907 58.1471 95.4947 57.7511 96.2327 56.7971L96.6647 57.2111C95.5487 58.8671 94.6667 59.5511 93.6227 59.5511C92.8127 59.5511 92.3807 58.9751 92.3807 58.1111C92.3807 57.5531 92.7047 56.3471 93.0287 55.3931H92.9027C91.8947 57.5711 90.4547 59.5511 88.8347 59.5511C87.5207 59.5511 86.7107 58.4891 86.7107 56.7071C86.7107 52.9811 89.4287 49.5431 92.4167 49.5431C93.3167 49.5431 93.9107 49.8311 94.4147 50.3351ZM98.6292 51.1811L97.3872 50.6411L97.5132 50.1911L100.231 49.5431H100.573L101.203 57.3551L103.237 55.0151C104.011 54.1151 104.623 53.0891 104.623 52.0991C104.623 51.1991 103.975 50.7851 103.003 50.7851L103.021 50.4971C103.345 50.0291 103.939 49.5431 104.749 49.5431C105.865 49.5431 106.297 50.3531 106.297 51.2171C106.297 52.4951 105.433 53.8091 103.975 55.4471L100.303 59.5331H99.4572L98.6292 51.1811ZM111.287 49.5431L109.415 57.1031C109.325 57.4451 109.253 57.7331 109.253 57.8771C109.253 58.0571 109.343 58.1471 109.505 58.1471C109.847 58.1471 110.351 57.7511 111.107 56.7971L111.539 57.2111C110.405 58.8671 109.523 59.5511 108.497 59.5511C107.669 59.5511 107.147 58.9931 107.147 58.1831C107.147 57.7511 107.237 57.3011 107.399 56.6351L108.731 51.2711L107.489 50.6411L107.615 50.1911L110.783 49.5431H111.287ZM110.567 48.4631C109.793 48.4631 109.253 47.8871 109.253 47.2031C109.253 46.4111 109.865 45.7631 110.693 45.7631C111.467 45.7631 112.007 46.3391 112.007 47.0231C112.007 47.8151 111.395 48.4631 110.567 48.4631ZM117.636 49.5431C118.23 49.5431 118.752 49.6691 119.184 49.9031L122.442 49.6331L122.118 50.9651H121.398L120.03 50.5871C120.39 51.0551 120.588 51.6131 120.588 52.2071C120.588 54.5831 118.572 56.0591 116.142 56.0591C115.818 56.0591 115.512 56.0231 115.242 55.9691C114.864 56.1671 114.594 56.3651 114.594 56.6351C114.594 56.9411 114.846 57.0491 115.278 57.1751L118.032 57.8771C119.256 58.1831 120.354 58.7771 120.354 60.1271C120.354 61.6571 118.77 63.1331 115.368 63.1331C112.956 63.1331 110.904 62.1611 110.904 60.7751C110.904 59.4431 112.326 58.9391 113.784 58.6331C113.442 58.3631 113.208 58.0211 113.208 57.5531C113.208 56.7611 113.784 56.2391 114.72 55.7891C113.748 55.3571 113.208 54.4751 113.208 53.3591C113.208 51.0191 115.206 49.5431 117.636 49.5431ZM117.222 59.7311L114.18 58.9211C113.136 59.2811 112.65 59.7491 112.65 60.5591C112.65 61.6751 113.964 62.3411 115.566 62.3411C117.276 62.3411 118.518 61.7291 118.518 60.7751C118.518 60.1631 118.032 59.9471 117.222 59.7311ZM116.376 55.3391C117.492 55.3391 118.572 53.8811 118.572 51.9551C118.572 51.0191 118.248 50.2631 117.402 50.2631C116.304 50.2631 115.206 51.7391 115.206 53.6651C115.206 54.6011 115.548 55.3391 116.376 55.3391ZM124.822 58.0571C126.118 58.0571 127.972 55.3031 128.962 51.2171C128.674 50.6591 128.296 50.3891 127.702 50.3891C125.506 50.3891 123.922 53.7731 123.904 56.5271C123.904 57.4451 124.21 58.0571 124.822 58.0571ZM129.502 50.3351L130.816 49.4531H131.644L130.978 51.6131L129.646 57.1031C129.556 57.4451 129.484 57.7331 129.484 57.8771C129.484 58.0571 129.574 58.1471 129.736 58.1471C130.078 58.1471 130.582 57.7511 131.32 56.7971L131.752 57.2111C130.636 58.8671 129.754 59.5511 128.71 59.5511C127.9 59.5511 127.468 58.9751 127.468 58.1111C127.468 57.5531 127.792 56.3471 128.116 55.3931H127.99C126.982 57.5711 125.542 59.5511 123.922 59.5511C122.608 59.5511 121.798 58.4891 121.798 56.7071C121.798 52.9811 124.516 49.5431 127.504 49.5431C128.404 49.5431 128.998 49.8311 129.502 50.3351ZM136.792 50.6951L135.406 56.7251C135.298 57.1931 135.244 57.4811 135.244 57.7331C135.244 58.0031 135.352 58.1831 135.64 58.1831C136.27 58.1831 136.972 57.6071 138.052 56.4551L138.502 56.9051C137.224 58.5791 135.838 59.5511 134.614 59.5511C133.552 59.5511 133.12 58.8851 133.12 57.9851C133.12 57.5531 133.192 57.1571 133.318 56.6171L134.686 50.6951H133.372L133.552 50.0651C134.866 49.6871 135.874 48.8591 136.828 47.6171H137.548L137.044 49.7231H139.24L139.006 50.6951H136.792ZM144.072 49.5431L142.2 57.1031C142.11 57.4451 142.038 57.7331 142.038 57.8771C142.038 58.0571 142.128 58.1471 142.29 58.1471C142.632 58.1471 143.136 57.7511 143.892 56.7971L144.324 57.2111C143.19 58.8671 142.308 59.5511 141.282 59.5511C140.454 59.5511 139.932 58.9931 139.932 58.1831C139.932 57.7511 140.022 57.3011 140.184 56.6351L141.516 51.2711L140.274 50.6411L140.4 50.1911L143.568 49.5431H144.072ZM143.352 48.4631C142.578 48.4631 142.038 47.8871 142.038 47.2031C142.038 46.4111 142.65 45.7631 143.478 45.7631C144.252 45.7631 144.792 46.3391 144.792 47.0231C144.792 47.8151 144.18 48.4631 143.352 48.4631ZM148.837 58.7051C150.709 58.7051 151.897 55.1411 151.897 52.7291C151.897 51.2711 151.447 50.3891 150.601 50.3891C148.729 50.3891 147.541 53.9531 147.541 56.3831C147.541 57.8231 147.991 58.7051 148.837 58.7051ZM148.765 59.5511C146.767 59.5511 145.399 58.1651 145.399 55.7711C145.399 52.6751 147.541 49.5431 150.673 49.5431C152.671 49.5431 154.039 50.9291 154.039 53.3231C154.039 56.4191 151.897 59.5511 148.765 59.5511ZM159.453 49.5251L158.877 51.8291L158.139 54.0971H158.265C159.525 51.9191 161.559 49.5431 163.287 49.5431C164.241 49.5431 164.619 50.0831 164.619 50.9111C164.619 51.1451 164.565 51.4691 164.511 51.7031L163.071 57.1031C162.981 57.4451 162.909 57.7331 162.909 57.8771C162.909 58.0571 162.999 58.1471 163.161 58.1471C163.503 58.1471 163.989 57.7511 164.763 56.7971L165.177 57.2111C164.061 58.8671 163.179 59.5511 162.153 59.5511C161.325 59.5511 160.785 58.9931 160.785 58.1831C160.785 57.7511 160.857 57.3011 161.037 56.6351L162.333 51.9551C162.387 51.7211 162.423 51.5051 162.423 51.3611C162.423 51.1091 162.333 50.9831 162.099 50.9831C161.127 50.9831 158.535 53.6471 157.707 56.8871L157.077 59.3711H154.953L156.969 51.2711L155.745 50.6411L155.871 50.1911L158.949 49.5251H159.453ZM172.408 54.4571H172.534C173.902 51.7211 175.612 49.5431 177.34 49.5431C178.672 49.5431 179.446 50.6591 179.446 52.2791C179.446 56.0051 176.404 59.5511 173.38 59.5511C172.606 59.5511 171.976 59.1551 171.688 58.7231L171.202 60.8831C171.148 61.0991 171.112 61.2971 171.112 61.4411C171.13 61.9631 171.598 62.0351 172.264 62.1251L172.066 62.9171H167.242L167.44 62.1251C168.286 62.0171 168.826 61.9271 169.024 61.0991L171.418 51.2351L170.176 50.6411L170.302 50.1911L173.38 49.5251H173.884L173.326 51.8831L172.408 54.4571ZM176.332 51.0731C175.198 51.0731 172.912 53.8811 171.958 57.4271C172.03 58.1651 172.462 58.7051 173.2 58.7051C175.36 58.7051 177.25 55.2491 177.268 52.4951C177.268 51.5591 176.926 51.0731 176.332 51.0731ZM182.96 55.5551H183.086C185.066 51.5951 186.254 49.5431 187.55 49.5431C188.342 49.5431 188.666 50.1191 188.666 50.7491C188.666 51.6131 188.09 52.1531 187.406 52.4771H187.1C187.1 52.1351 187.01 51.8111 186.596 51.8111C185.552 51.8111 183.464 54.9251 182.366 59.3711H180.242L182.24 51.2711L181.016 50.6411L181.142 50.1911L184.22 49.5251H184.724L183.986 52.4231L182.96 55.5551ZM191.861 58.7051C193.733 58.7051 194.921 55.1411 194.921 52.7291C194.921 51.2711 194.471 50.3891 193.625 50.3891C191.753 50.3891 190.565 53.9531 190.565 56.3831C190.565 57.8231 191.015 58.7051 191.861 58.7051ZM191.789 59.5511C189.791 59.5511 188.423 58.1651 188.423 55.7711C188.423 52.6751 190.565 49.5431 193.697 49.5431C195.695 49.5431 197.063 50.9291 197.063 53.3231C197.063 56.4191 194.921 59.5511 191.789 59.5511ZM198.156 57.2651L200.424 47.4911L199.164 46.8611L199.272 46.4291L202.53 45.6731H202.998L201.612 51.5231L200.658 54.2591H200.784C202.206 51.6131 203.826 49.5431 205.572 49.5431C206.994 49.5431 207.678 50.6591 207.678 52.2791C207.678 56.0051 204.564 59.5511 201.288 59.5511C199.74 59.5511 198.498 58.7591 198.156 57.2651ZM204.564 51.0371C203.412 51.0371 200.946 53.8811 200.154 57.4271C200.172 58.1831 200.676 58.7231 201.378 58.7231C203.574 58.7231 205.518 55.2131 205.536 52.4591C205.536 51.5231 205.212 51.0371 204.564 51.0371ZM210.984 47.4911L209.724 46.8611L209.85 46.4291L213.09 45.6731H213.576L210.876 57.1031C210.786 57.4631 210.75 57.7331 210.75 57.8771C210.75 58.0571 210.84 58.1471 211.002 58.1471C211.344 58.1471 211.83 57.7511 212.604 56.7971L213.018 57.2111C211.902 58.8671 211.02 59.5511 209.976 59.5511C209.166 59.5511 208.644 58.9931 208.644 58.1831C208.644 57.7511 208.716 57.3011 208.878 56.6351L210.984 47.4911ZM221.823 51.5951C221.823 53.6831 218.979 54.6551 215.973 55.3391V55.7711C215.973 57.2831 216.693 58.2731 217.863 58.2731C218.925 58.2731 219.825 57.6611 220.689 56.6351L221.157 57.0311C219.879 58.8491 218.547 59.5511 217.053 59.5511C214.893 59.5511 213.921 57.8411 213.921 55.9151C213.921 52.7651 216.441 49.5431 219.537 49.5431C221.085 49.5431 221.823 50.4611 221.823 51.5951ZM219.069 50.5151C217.683 50.5151 216.351 52.4411 216.045 54.7451C218.709 53.9531 220.005 53.0891 220.005 51.6491C220.005 51.0191 219.699 50.5151 219.069 50.5151ZM230.9 54.1151H231.026C232.304 51.9371 234.158 49.5431 235.886 49.5431C236.822 49.5431 237.2 50.0831 237.2 50.9111C237.2 51.1451 237.146 51.4871 237.092 51.7031L235.67 57.1031C235.58 57.4451 235.508 57.7331 235.508 57.8771C235.508 58.0571 235.598 58.1471 235.76 58.1471C236.102 58.1471 236.588 57.7511 237.362 56.7971L237.776 57.2111C236.642 58.8671 235.76 59.5511 234.734 59.5511C233.906 59.5511 233.384 58.9931 233.384 58.1831C233.384 57.7511 233.456 57.3011 233.636 56.6351L234.914 51.9911C234.968 51.7571 235.004 51.5411 235.004 51.3971C235.004 51.1631 234.914 51.0371 234.68 51.0371C233.672 51.0371 231.242 53.7911 230.486 56.8331L229.856 59.3711H227.732L229.586 51.9911C229.64 51.7571 229.676 51.5411 229.676 51.3971C229.676 51.1631 229.586 51.0371 229.352 51.0371C228.38 51.0371 225.896 53.7911 225.14 56.8331L224.51 59.3711H222.386L224.402 51.2711L223.178 50.6411L223.304 50.1911L226.382 49.5251H226.886L226.364 51.7211L225.554 54.1151H225.68C226.976 51.9371 228.83 49.5431 230.576 49.5431C231.476 49.5431 231.764 50.1011 231.764 50.8031C231.764 51.3971 231.476 52.4591 230.9 54.1151Z" fill="#374A5F"/>
<g filter="url(#filter0_d_600_40025)">
<rect x="40" y="104.371" width="820" height="45.3979" rx="3" fill="white"/>
<rect x="40.2837" y="104.655" width="819.433" height="44.8305" rx="2.71626" stroke="#E5E5E5" stroke-width="0.567474"/>
<g clip-path="url(#clip0_600_40025)">
<rect x="671.599" y="115.696" width="83.7232" height="23.3495" rx="1.13495" fill="#1351C9"/>
<path d="M683.978 131.371V124.889H685.042V130.467H687.795V131.371H683.978ZM688.917 131.371V124.889H689.981V131.371H688.917ZM696.498 124.889L694.233 131.371H693.107L690.841 124.889H691.932L693.297 128.95C693.339 129.069 693.383 129.212 693.43 129.381C693.48 129.549 693.526 129.719 693.568 129.89C693.612 130.062 693.646 130.214 693.67 130.347C693.693 130.214 693.726 130.062 693.767 129.89C693.811 129.719 693.857 129.549 693.905 129.381C693.952 129.212 693.996 129.067 694.038 128.946L695.407 124.889H696.498ZM701.02 131.371H697.349V124.889H701.02V125.785H698.413V127.545H700.856V128.436H698.413V130.471H701.02V131.371ZM710.188 131.371H708.881L705.706 126.197H705.666C705.678 126.372 705.688 126.556 705.697 126.752C705.709 126.947 705.718 127.148 705.724 127.354C705.733 127.561 705.74 127.771 705.746 127.984V131.371H704.78V124.889H706.079L709.249 130.028H709.28C709.274 129.877 709.266 129.704 709.257 129.509C709.249 129.314 709.24 129.113 709.231 128.906C709.225 128.696 709.22 128.494 709.217 128.299V124.889H710.188V131.371ZM717.645 128.121C717.645 128.621 717.582 129.076 717.455 129.487C717.331 129.895 717.143 130.246 716.892 130.542C716.64 130.835 716.326 131.061 715.947 131.22C715.569 131.38 715.126 131.46 714.617 131.46C714.1 131.46 713.651 131.38 713.27 131.22C712.891 131.061 712.577 130.833 712.325 130.538C712.077 130.242 711.891 129.889 711.767 129.478C711.643 129.067 711.58 128.612 711.58 128.113C711.58 127.445 711.69 126.862 711.909 126.366C712.13 125.866 712.466 125.479 712.915 125.204C713.367 124.926 713.938 124.788 714.626 124.788C715.3 124.788 715.86 124.925 716.306 125.2C716.753 125.475 717.087 125.862 717.308 126.361C717.533 126.858 717.645 127.445 717.645 128.121ZM712.698 128.121C712.698 128.621 712.766 129.054 712.902 129.42C713.038 129.784 713.246 130.065 713.527 130.263C713.81 130.458 714.174 130.555 714.617 130.555C715.064 130.555 715.427 130.458 715.708 130.263C715.989 130.065 716.196 129.784 716.329 129.42C716.462 129.054 716.528 128.621 716.528 128.121C716.528 127.362 716.376 126.768 716.071 126.339C715.77 125.908 715.288 125.692 714.626 125.692C714.183 125.692 713.818 125.789 713.531 125.985C713.247 126.18 713.038 126.459 712.902 126.822C712.766 127.183 712.698 127.616 712.698 128.121ZM726.703 124.889L725.009 131.371H723.848L722.766 127.487C722.739 127.393 722.71 127.281 722.677 127.151C722.645 127.02 722.612 126.887 722.58 126.752C722.55 126.616 722.524 126.491 722.5 126.379C722.479 126.264 722.464 126.175 722.456 126.113C722.45 126.175 722.436 126.262 722.416 126.375C722.395 126.487 722.37 126.611 722.34 126.747C722.314 126.88 722.284 127.013 722.252 127.146C722.219 127.276 722.19 127.391 722.163 127.492L721.099 131.371H719.942L718.253 124.889H719.321L720.257 128.689C720.286 128.81 720.316 128.942 720.345 129.083C720.378 129.222 720.407 129.363 720.434 129.505C720.464 129.647 720.49 129.785 720.514 129.921C720.537 130.054 720.557 130.176 720.571 130.285C720.586 130.173 720.605 130.048 720.629 129.913C720.653 129.774 720.678 129.633 720.704 129.491C720.734 129.347 720.764 129.208 720.793 129.075C720.826 128.942 720.858 128.822 720.891 128.715L721.946 124.889H722.983L724.06 128.729C724.093 128.838 724.124 128.961 724.154 129.097C724.186 129.233 724.217 129.372 724.247 129.514C724.276 129.655 724.303 129.793 724.326 129.926C724.35 130.059 724.369 130.179 724.384 130.285C724.405 130.14 724.431 129.975 724.464 129.788C724.496 129.602 724.533 129.413 724.575 129.221C724.616 129.029 724.657 128.851 724.699 128.689L725.63 124.889H726.703Z" fill="white"/>
<circle cx="738.298" cy="127.371" r="5.67474" fill="white"/>
<path d="M741.03 127.371L736.826 129.682L736.826 125.059L741.03 127.371Z" fill="#1351C9"/>
</g>
<mask id="mask0_600_40025" style="mask-type:alpha" maskUnits="userSpaceOnUse" x="797" y="117" width="21" height="21">
<path d="M797.011 127.638C797.011 121.997 801.584 117.423 807.225 117.423C812.866 117.423 817.44 121.997 817.44 127.638C817.44 133.279 812.866 137.853 807.225 137.853C801.584 137.853 797.011 133.279 797.011 127.638Z" fill="#9499A5"/>
</mask>
<g mask="url(#mask0_600_40025)">
<circle cx="807.225" cy="127.637" r="10.2145" fill="#9499A5"/>
<path d="M814.035 137.852H800.415V136.068C800.415 134.886 800.864 133.751 801.662 132.915C802.46 132.079 803.543 131.609 804.671 131.609H809.779C810.907 131.609 811.99 132.079 812.788 132.915C813.586 133.751 814.035 134.886 814.035 136.068V137.852Z" fill="white"/>
<path d="M803.253 125.935C803.253 123.741 805.031 121.963 807.225 121.963C809.419 121.963 811.197 123.741 811.197 125.935C811.197 128.129 809.419 129.907 807.225 129.907C805.031 129.907 803.253 128.129 803.253 125.935Z" fill="white"/>
</g>
<g clip-path="url(#clip1_600_40025)">
<g clip-path="url(#clip2_600_40025)">
<path d="M780.227 117.22H780.518C780.587 117.229 780.656 117.237 780.724 117.249C781.145 117.324 781.468 117.54 781.675 117.922C781.815 118.188 781.894 118.482 781.907 118.783C781.918 118.966 781.91 119.151 781.907 119.335C781.907 119.366 781.914 119.378 781.945 119.383C782.338 119.452 782.721 119.565 783.088 119.722C783.871 120.054 784.565 120.568 785.111 121.223C785.657 121.878 786.041 122.654 786.231 123.488C786.309 123.823 786.349 124.167 786.349 124.511C786.346 126.408 786.345 128.305 786.347 130.202C786.346 130.22 786.349 130.237 786.356 130.254C786.362 130.27 786.373 130.285 786.385 130.296C787.027 130.94 787.667 131.584 788.306 132.228C788.318 132.239 788.327 132.252 788.333 132.266C788.339 132.281 788.342 132.297 788.341 132.313C788.341 132.612 788.341 132.911 788.341 133.21V133.265H772.404V133.21C772.404 132.911 772.404 132.612 772.404 132.313C772.403 132.297 772.406 132.281 772.412 132.266C772.418 132.252 772.428 132.238 772.44 132.228C773.078 131.587 773.717 130.944 774.355 130.302C774.369 130.289 774.38 130.273 774.387 130.255C774.394 130.237 774.397 130.218 774.396 130.199C774.396 128.295 774.395 126.392 774.394 124.488C774.395 124.139 774.438 123.791 774.521 123.452C774.757 122.452 775.271 121.54 776.004 120.825C776.736 120.109 777.656 119.619 778.656 119.412L778.836 119.376C778.836 119.363 778.836 119.355 778.836 119.347C778.836 119.319 778.833 119.292 778.831 119.264C778.811 118.881 778.837 118.504 778.971 118.141C779.144 117.675 779.464 117.372 779.954 117.264C780.044 117.243 780.136 117.234 780.227 117.22Z" fill="#9499A5"/>
<path d="M783.368 134.277H777.378C777.422 135.383 777.885 136.247 778.814 136.839C779.287 137.135 779.835 137.291 780.393 137.287C780.95 137.283 781.496 137.12 781.965 136.817C782.874 136.225 783.326 135.367 783.368 134.277Z" fill="#9499A5"/>
<rect x="782.256" y="115.721" width="8.51211" height="8.51211" rx="4.25606" fill="#1351C9"/>
<path d="M785.21 119.989C785.21 119.745 785.227 119.507 785.26 119.274C785.295 119.041 785.353 118.825 785.434 118.626C785.516 118.424 785.626 118.248 785.767 118.096C785.907 117.945 786.082 117.827 786.291 117.742C786.501 117.655 786.753 117.612 787.047 117.612C787.13 117.612 787.22 117.616 787.316 117.625C787.412 117.633 787.491 117.646 787.554 117.664V118.06C787.486 118.036 787.407 118.019 787.319 118.008C787.232 117.997 787.144 117.991 787.055 117.991C786.712 117.991 786.441 118.066 786.243 118.216C786.048 118.365 785.906 118.568 785.819 118.825C785.733 119.08 785.683 119.367 785.67 119.687H785.7C785.758 119.595 785.831 119.511 785.919 119.438C786.008 119.362 786.115 119.302 786.241 119.257C786.368 119.213 786.516 119.191 786.684 119.191C786.92 119.191 787.126 119.239 787.302 119.335C787.479 119.431 787.616 119.571 787.712 119.753C787.81 119.936 787.859 120.158 787.859 120.418C787.859 120.697 787.807 120.938 787.704 121.142C787.6 121.345 787.452 121.502 787.26 121.613C787.07 121.722 786.843 121.776 786.579 121.776C786.381 121.776 786.199 121.738 786.033 121.663C785.867 121.587 785.722 121.474 785.598 121.324C785.476 121.175 785.381 120.989 785.312 120.768C785.244 120.544 785.21 120.284 785.21 119.989ZM786.573 121.388C786.824 121.388 787.026 121.308 787.177 121.147C787.329 120.986 787.404 120.744 787.404 120.418C787.404 120.152 787.337 119.942 787.202 119.787C787.067 119.631 786.864 119.554 786.593 119.554C786.408 119.554 786.247 119.593 786.11 119.67C785.974 119.746 785.868 119.842 785.792 119.958C785.716 120.075 785.678 120.193 785.678 120.313C785.678 120.435 785.696 120.559 785.731 120.684C785.768 120.81 785.823 120.926 785.897 121.034C785.971 121.141 786.064 121.227 786.177 121.291C786.29 121.356 786.422 121.388 786.573 121.388Z" fill="white"/>
</g>
</g>
<path d="M87.8845 134.746C86.2 134.746 84.8915 134.277 83.9591 133.339C83.0267 132.4 82.5605 131.063 82.5605 129.327C82.5605 127.535 82.9926 126.161 83.8566 125.203C84.7206 124.245 85.9529 123.767 87.5535 123.767C89.078 123.767 90.2551 124.184 91.085 125.017C91.9148 125.851 92.3305 127.051 92.3321 128.616V130.243H86.0897C86.0892 130.509 86.1445 130.772 86.2517 131.013C86.3588 131.254 86.5152 131.467 86.7097 131.638C87.1677 131.998 87.7324 132.178 88.3041 132.144C88.8729 132.149 89.4405 132.087 89.9964 131.961C90.5739 131.817 91.1351 131.609 91.67 131.34V133.969C91.1357 134.257 90.564 134.462 89.9731 134.577C89.2831 134.699 88.5841 134.755 87.8845 134.746ZM87.6794 126.256C87.2974 126.245 86.9265 126.391 86.6468 126.664C86.3388 127.012 86.1652 127.467 86.1596 127.942H89.1596C89.169 127.495 89.0213 127.06 88.7447 126.72C88.6101 126.566 88.445 126.445 88.261 126.365C88.077 126.285 87.8785 126.247 87.6794 126.256Z" fill="#231F20"/>
<path d="M100.903 134.558L100.234 133.155H100.162C99.7843 133.687 99.2913 134.117 98.7236 134.409C98.1212 134.655 97.4771 134.77 96.8308 134.746C95.8798 134.746 95.13 134.446 94.5814 133.847C94.0329 133.247 93.7586 132.405 93.7586 131.321C93.7586 130.192 94.1339 129.349 94.8845 128.799C95.635 128.25 96.7213 127.934 98.1479 127.866L99.8355 127.81V127.661C99.8355 126.786 99.4252 126.351 98.6047 126.351C97.865 126.351 96.9272 126.614 95.7912 127.138L94.7819 124.722C95.9614 124.087 97.4501 123.768 99.2481 123.767C100.544 123.767 101.549 124.104 102.262 124.778C102.975 125.452 103.33 126.395 103.327 127.605V134.558H100.903ZM98.3134 132.163C98.7135 132.172 99.1019 132.021 99.3996 131.741C99.5471 131.604 99.6639 131.436 99.7417 131.246C99.8195 131.057 99.8563 130.852 99.8495 130.646V129.823L99.0453 129.86C97.8969 129.904 97.3227 130.347 97.3227 131.189C97.3227 131.838 97.6529 132.163 98.3134 132.163Z" fill="#231F20"/>
<path d="M111.808 123.767C112.097 123.766 112.387 123.792 112.672 123.842L112.87 123.879L112.558 127.333C112.167 127.247 111.768 127.21 111.369 127.221C110.607 127.221 110.055 127.404 109.707 127.768C109.525 127.982 109.386 128.232 109.297 128.503C109.208 128.774 109.172 129.061 109.19 129.347V134.558H105.693V123.955H108.292L108.838 125.648H109.008C109.296 125.091 109.716 124.623 110.227 124.287C110.695 123.957 111.244 123.776 111.808 123.767Z" fill="#231F20"/>
<path d="M119.236 131.853C119.814 131.83 120.385 131.707 120.924 131.489V134.157C120.493 134.356 120.043 134.508 119.581 134.611C119.088 134.707 118.587 134.752 118.085 134.746C116.913 134.746 116.068 134.444 115.549 133.842C115.03 133.239 114.771 132.315 114.773 131.069V126.696H113.549V125.208L115.101 124.057L116.003 121.829H118.29V123.955H120.772V126.696H118.29V130.824C118.29 131.51 118.605 131.853 119.236 131.853Z" fill="#231F20"/>
<path d="M129.059 134.557V128.774C129.059 127.353 128.657 126.642 127.854 126.642C127.597 126.628 127.341 126.691 127.117 126.825C126.894 126.958 126.711 127.155 126.591 127.394C126.32 127.896 126.185 128.731 126.185 129.898V134.557H122.688V119.994H126.185V122.063C126.185 122.998 126.137 124.065 126.04 125.264H126.201C126.483 124.765 126.896 124.363 127.39 124.103C127.892 123.869 128.437 123.754 128.987 123.766C130.12 123.766 130.999 124.108 131.625 124.792C132.252 125.476 132.566 126.432 132.57 127.66V134.557H129.059Z" fill="#231F20"/>
<path d="M135.374 134.741C136.293 134.741 137.038 133.96 137.038 132.996C137.038 132.033 136.293 131.252 135.374 131.252C134.455 131.252 133.709 132.033 133.709 132.996C133.709 133.96 134.455 134.741 135.374 134.741Z" fill="#40DDA6"/>
<path d="M388.073 128.146C388.073 128.645 388.01 129.1 387.883 129.511C387.759 129.919 387.571 130.271 387.32 130.566C387.068 130.859 386.754 131.085 386.375 131.245C385.997 131.404 385.554 131.484 385.045 131.484C384.528 131.484 384.079 131.404 383.698 131.245C383.319 131.085 383.005 130.858 382.753 130.562C382.505 130.266 382.319 129.913 382.195 129.502C382.071 129.092 382.009 128.636 382.009 128.137C382.009 127.469 382.118 126.887 382.337 126.39C382.558 125.891 382.894 125.504 383.343 125.229C383.795 124.951 384.366 124.812 385.054 124.812C385.728 124.812 386.288 124.949 386.735 125.224C387.181 125.499 387.515 125.886 387.736 126.386C387.961 126.882 388.073 127.469 388.073 128.146ZM383.126 128.146C383.126 128.645 383.194 129.078 383.33 129.445C383.466 129.808 383.674 130.089 383.955 130.287C384.239 130.482 384.602 130.58 385.045 130.58C385.492 130.58 385.855 130.482 386.136 130.287C386.417 130.089 386.624 129.808 386.757 129.445C386.89 129.078 386.956 128.645 386.956 128.146C386.956 127.386 386.804 126.792 386.5 126.364C386.198 125.932 385.716 125.716 385.054 125.716C384.611 125.716 384.246 125.814 383.959 126.009C383.675 126.204 383.466 126.483 383.33 126.847C383.194 127.207 383.126 127.64 383.126 128.146ZM390.481 131.396L388.614 126.488H389.718L390.729 129.369C390.794 129.553 390.853 129.751 390.906 129.964C390.96 130.176 390.996 130.355 391.017 130.5H391.053C391.073 130.349 391.113 130.169 391.172 129.959C391.231 129.746 391.292 129.55 391.354 129.369L392.365 126.488H393.464L391.598 131.396H390.481ZM396.164 126.395C396.602 126.395 396.977 126.485 397.29 126.665C397.604 126.845 397.845 127.101 398.013 127.432C398.182 127.763 398.266 128.159 398.266 128.62V129.179H394.989C395.001 129.655 395.128 130.021 395.371 130.278C395.616 130.535 395.959 130.664 396.399 130.664C396.713 130.664 396.993 130.634 397.242 130.575C397.493 130.513 397.751 130.423 398.017 130.305V131.152C397.772 131.267 397.522 131.351 397.268 131.404C397.014 131.458 396.71 131.484 396.355 131.484C395.873 131.484 395.449 131.391 395.083 131.205C394.719 131.016 394.434 130.735 394.227 130.363C394.023 129.99 393.921 129.528 393.921 128.975C393.921 128.425 394.014 127.958 394.2 127.574C394.387 127.19 394.648 126.897 394.985 126.696C395.322 126.495 395.715 126.395 396.164 126.395ZM396.164 127.179C395.836 127.179 395.57 127.286 395.366 127.499C395.165 127.711 395.047 128.023 395.012 128.434H397.246C397.243 128.189 397.202 127.971 397.122 127.782C397.045 127.593 396.927 127.445 396.767 127.339C396.611 127.233 396.41 127.179 396.164 127.179ZM401.928 126.395C402.011 126.395 402.101 126.399 402.198 126.408C402.296 126.417 402.38 126.429 402.451 126.443L402.353 127.419C402.291 127.401 402.214 127.388 402.123 127.379C402.034 127.37 401.954 127.366 401.883 127.366C401.697 127.366 401.52 127.397 401.351 127.459C401.183 127.518 401.034 127.609 400.904 127.734C400.774 127.855 400.672 128.007 400.598 128.19C400.524 128.373 400.487 128.586 400.487 128.829V131.396H399.441V126.488H400.256L400.398 127.352H400.447C400.545 127.178 400.666 127.018 400.811 126.873C400.955 126.729 401.121 126.613 401.307 126.528C401.496 126.439 401.703 126.395 401.928 126.395ZM404.481 131.396L402.615 126.488H403.719L404.73 129.369C404.795 129.553 404.854 129.751 404.907 129.964C404.96 130.176 404.997 130.355 405.018 130.5H405.053C405.074 130.349 405.114 130.169 405.173 129.959C405.232 129.746 405.293 129.55 405.355 129.369L406.366 126.488H407.465L405.599 131.396H404.481ZM409.252 126.488V131.396H408.21V126.488H409.252ZM408.737 124.608C408.897 124.608 409.034 124.651 409.15 124.737C409.268 124.822 409.327 124.97 409.327 125.18C409.327 125.387 409.268 125.535 409.15 125.623C409.034 125.709 408.897 125.752 408.737 125.752C408.572 125.752 408.432 125.709 408.316 125.623C408.204 125.535 408.148 125.387 408.148 125.18C408.148 124.97 408.204 124.822 408.316 124.737C408.432 124.651 408.572 124.608 408.737 124.608ZM412.701 126.395C413.138 126.395 413.514 126.485 413.827 126.665C414.14 126.845 414.381 127.101 414.55 127.432C414.718 127.763 414.802 128.159 414.802 128.62V129.179H411.526C411.538 129.655 411.665 130.021 411.907 130.278C412.153 130.535 412.495 130.664 412.936 130.664C413.249 130.664 413.53 130.634 413.778 130.575C414.029 130.513 414.288 130.423 414.554 130.305V131.152C414.309 131.267 414.059 131.351 413.805 131.404C413.551 131.458 413.246 131.484 412.892 131.484C412.41 131.484 411.986 131.391 411.619 131.205C411.256 131.016 410.97 130.735 410.763 130.363C410.56 129.99 410.458 129.528 410.458 128.975C410.458 128.425 410.551 127.958 410.737 127.574C410.923 127.19 411.185 126.897 411.522 126.696C411.859 126.495 412.252 126.395 412.701 126.395ZM412.701 127.179C412.373 127.179 412.107 127.286 411.903 127.499C411.702 127.711 411.584 128.023 411.548 128.434H413.783C413.78 128.189 413.738 127.971 413.658 127.782C413.582 127.593 413.463 127.445 413.304 127.339C413.147 127.233 412.946 127.179 412.701 127.179ZM419.989 131.391L419.369 129.108C419.339 128.996 419.304 128.86 419.262 128.7C419.221 128.54 419.18 128.376 419.138 128.208C419.097 128.036 419.058 127.878 419.023 127.734C418.99 127.589 418.965 127.476 418.948 127.397H418.912C418.897 127.476 418.874 127.589 418.841 127.734C418.809 127.878 418.772 128.036 418.73 128.208C418.689 128.379 418.648 128.546 418.606 128.709C418.568 128.871 418.532 129.01 418.5 129.126L417.848 131.391H416.704L415.33 126.483H416.385L417.023 128.922C417.065 129.087 417.105 129.266 417.143 129.458C417.185 129.65 417.22 129.833 417.25 130.008C417.279 130.182 417.301 130.326 417.316 130.438H417.352C417.363 130.358 417.38 130.258 417.4 130.136C417.421 130.012 417.445 129.884 417.471 129.751C417.498 129.615 417.524 129.488 417.551 129.369C417.578 129.248 417.603 129.151 417.626 129.077L418.38 126.483H419.519L420.242 129.077C420.275 129.189 420.31 129.331 420.348 129.502C420.387 129.671 420.421 129.841 420.45 130.012C420.483 130.181 420.504 130.321 420.513 130.433H420.548C420.56 130.333 420.581 130.197 420.61 130.026C420.643 129.851 420.68 129.666 420.721 129.471C420.762 129.273 420.805 129.09 420.849 128.922L421.501 126.483H422.539L421.155 131.391H419.989Z" fill="black"/>
<path d="M462.947 131.396H461.879V125.818H459.982V124.914H464.841V125.818H462.947V131.396ZM467.682 126.395C468.12 126.395 468.495 126.485 468.808 126.665C469.122 126.845 469.363 127.101 469.531 127.432C469.7 127.763 469.784 128.159 469.784 128.62V129.179H466.508C466.519 129.655 466.646 130.021 466.889 130.278C467.134 130.535 467.477 130.664 467.917 130.664C468.231 130.664 468.511 130.634 468.76 130.575C469.011 130.513 469.27 130.423 469.536 130.305V131.152C469.29 131.267 469.04 131.351 468.786 131.404C468.532 131.458 468.228 131.484 467.873 131.484C467.391 131.484 466.967 131.391 466.601 131.205C466.237 131.016 465.952 130.735 465.745 130.363C465.541 129.99 465.439 129.528 465.439 128.975C465.439 128.425 465.532 127.958 465.718 127.574C465.905 127.19 466.166 126.897 466.503 126.696C466.84 126.495 467.233 126.395 467.682 126.395ZM467.682 127.179C467.354 127.179 467.088 127.286 466.884 127.499C466.683 127.711 466.565 128.023 466.53 128.434H468.764C468.761 128.189 468.72 127.971 468.64 127.782C468.563 127.593 468.445 127.445 468.285 127.339C468.129 127.233 467.928 127.179 467.682 127.179ZM472.883 126.395C473.503 126.395 473.972 126.532 474.288 126.807C474.607 127.082 474.767 127.51 474.767 128.093V131.396H474.027L473.827 130.699H473.792C473.653 130.877 473.509 131.023 473.362 131.138C473.214 131.254 473.042 131.339 472.847 131.396C472.655 131.455 472.42 131.484 472.142 131.484C471.85 131.484 471.588 131.431 471.358 131.325C471.127 131.215 470.945 131.05 470.812 130.828C470.679 130.606 470.613 130.326 470.613 129.986C470.613 129.48 470.801 129.1 471.176 128.846C471.554 128.592 472.125 128.452 472.887 128.425L473.738 128.394V128.137C473.738 127.797 473.659 127.555 473.499 127.41C473.342 127.265 473.121 127.193 472.834 127.193C472.589 127.193 472.351 127.228 472.12 127.299C471.89 127.37 471.665 127.457 471.446 127.561L471.109 126.825C471.349 126.698 471.621 126.594 471.925 126.514C472.232 126.435 472.552 126.395 472.883 126.395ZM473.734 129.05L473.1 129.072C472.58 129.09 472.215 129.179 472.005 129.338C471.795 129.498 471.69 129.717 471.69 129.995C471.69 130.237 471.763 130.414 471.907 130.527C472.052 130.636 472.243 130.691 472.479 130.691C472.84 130.691 473.138 130.589 473.375 130.385C473.614 130.178 473.734 129.875 473.734 129.476V129.05ZM481.772 126.395C482.321 126.395 482.735 126.537 483.013 126.82C483.294 127.104 483.434 127.559 483.434 128.186V131.396H482.392V128.372C482.392 128 482.32 127.719 482.175 127.53C482.03 127.34 481.81 127.246 481.515 127.246C481.101 127.246 480.802 127.379 480.619 127.645C480.439 127.908 480.349 128.291 480.349 128.793V131.396H479.307V128.372C479.307 128.124 479.274 127.917 479.209 127.751C479.147 127.583 479.051 127.457 478.921 127.374C478.791 127.289 478.627 127.246 478.429 127.246C478.142 127.246 477.913 127.311 477.742 127.441C477.573 127.571 477.452 127.763 477.378 128.017C477.304 128.268 477.267 128.577 477.267 128.944V131.396H476.225V126.488H477.037L477.183 127.148H477.241C477.341 126.977 477.465 126.837 477.613 126.727C477.764 126.615 477.931 126.532 478.114 126.479C478.297 126.423 478.488 126.395 478.686 126.395C479.053 126.395 479.361 126.46 479.613 126.59C479.864 126.717 480.052 126.912 480.176 127.175H480.255C480.409 126.909 480.623 126.712 480.898 126.585C481.173 126.458 481.464 126.395 481.772 126.395ZM489.291 124.816C489.625 124.816 489.917 124.871 490.169 124.98C490.423 125.09 490.621 125.249 490.763 125.459C490.904 125.666 490.975 125.919 490.975 126.217C490.975 126.616 490.851 126.953 490.603 127.228C490.355 127.503 490.041 127.748 489.663 127.964L491.193 129.454C491.337 129.256 491.457 129.038 491.552 128.802C491.646 128.563 491.728 128.311 491.796 128.048H492.873C492.781 128.415 492.654 128.777 492.492 129.134C492.329 129.489 492.124 129.814 491.875 130.11L493.192 131.396H491.858L491.201 130.753C491.018 130.9 490.822 131.029 490.612 131.138C490.405 131.248 490.179 131.333 489.934 131.396C489.688 131.455 489.418 131.484 489.122 131.484C488.67 131.484 488.28 131.412 487.952 131.267C487.624 131.122 487.371 130.915 487.194 130.646C487.019 130.374 486.932 130.052 486.932 129.68C486.932 129.369 486.984 129.103 487.087 128.882C487.194 128.657 487.344 128.461 487.54 128.292C487.735 128.121 487.968 127.958 488.24 127.804C488.092 127.636 487.964 127.472 487.854 127.312C487.745 127.153 487.661 126.989 487.602 126.82C487.545 126.649 487.517 126.466 487.517 126.271C487.517 125.969 487.591 125.71 487.739 125.495C487.887 125.276 488.094 125.109 488.36 124.994C488.626 124.875 488.936 124.816 489.291 124.816ZM488.856 128.438C488.685 128.548 488.537 128.659 488.413 128.771C488.289 128.88 488.193 129.001 488.125 129.134C488.06 129.267 488.027 129.423 488.027 129.6C488.027 129.904 488.134 130.145 488.346 130.323C488.562 130.5 488.84 130.589 489.18 130.589C489.478 130.589 489.74 130.544 489.965 130.456C490.192 130.364 490.39 130.25 490.559 130.114L488.856 128.438ZM489.273 125.641C489.063 125.641 488.881 125.696 488.728 125.805C488.577 125.914 488.502 126.084 488.502 126.315C488.502 126.501 488.55 126.677 488.648 126.842C488.748 127.005 488.887 127.181 489.065 127.37C489.375 127.199 489.605 127.03 489.756 126.865C489.91 126.699 489.987 126.507 489.987 126.288C489.987 126.081 489.917 125.922 489.778 125.809C489.639 125.697 489.471 125.641 489.273 125.641ZM500.166 129.631C500.166 130.015 500.071 130.346 499.882 130.624C499.696 130.902 499.427 131.115 499.075 131.263C498.726 131.41 498.31 131.484 497.825 131.484C497.589 131.484 497.362 131.471 497.147 131.444C496.931 131.418 496.727 131.379 496.535 131.329C496.346 131.276 496.173 131.212 496.016 131.138V130.136C496.279 130.252 496.573 130.357 496.898 130.451C497.224 130.543 497.555 130.589 497.891 130.589C498.166 130.589 498.394 130.553 498.574 130.482C498.757 130.408 498.893 130.305 498.982 130.172C499.071 130.036 499.115 129.878 499.115 129.698C499.115 129.505 499.063 129.343 498.96 129.21C498.856 129.077 498.7 128.956 498.49 128.846C498.283 128.734 498.023 128.614 497.71 128.487C497.497 128.401 497.293 128.304 497.098 128.195C496.906 128.085 496.734 127.957 496.584 127.809C496.433 127.661 496.313 127.487 496.225 127.286C496.139 127.082 496.096 126.842 496.096 126.568C496.096 126.201 496.183 125.888 496.358 125.628C496.535 125.368 496.783 125.168 497.102 125.029C497.424 124.89 497.8 124.821 498.228 124.821C498.568 124.821 498.888 124.856 499.186 124.927C499.487 124.998 499.783 125.099 500.073 125.229L499.736 126.084C499.47 125.975 499.211 125.888 498.96 125.823C498.712 125.758 498.457 125.725 498.197 125.725C497.973 125.725 497.782 125.759 497.625 125.827C497.469 125.895 497.349 125.991 497.266 126.115C497.187 126.237 497.147 126.381 497.147 126.55C497.147 126.739 497.192 126.899 497.284 127.029C497.379 127.156 497.524 127.272 497.719 127.379C497.917 127.485 498.171 127.603 498.481 127.734C498.839 127.881 499.142 128.036 499.39 128.199C499.641 128.362 499.833 128.557 499.966 128.784C500.099 129.009 500.166 129.291 500.166 129.631ZM505.588 126.488V131.396H504.768L504.626 130.735H504.568C504.465 130.903 504.333 131.044 504.174 131.156C504.014 131.265 503.837 131.347 503.642 131.4C503.447 131.456 503.241 131.484 503.025 131.484C502.656 131.484 502.34 131.422 502.077 131.298C501.817 131.171 501.617 130.976 501.478 130.713C501.339 130.45 501.27 130.11 501.27 129.693V126.488H502.316V129.498C502.316 129.879 502.393 130.165 502.547 130.354C502.703 130.543 502.946 130.637 503.274 130.637C503.59 130.637 503.841 130.572 504.027 130.442C504.213 130.312 504.345 130.12 504.422 129.866C504.502 129.612 504.542 129.3 504.542 128.931V126.488H505.588ZM508.124 124.497V126.16C508.124 126.352 508.118 126.541 508.106 126.727C508.097 126.91 508.088 127.054 508.079 127.157H508.124C508.257 126.944 508.441 126.766 508.678 126.621C508.917 126.473 509.223 126.399 509.596 126.399C510.178 126.399 510.646 126.613 511.001 127.042C511.356 127.468 511.533 128.099 511.533 128.935C511.533 129.491 511.452 129.958 511.289 130.336C511.127 130.714 510.898 131.001 510.602 131.196C510.309 131.388 509.965 131.484 509.569 131.484C509.197 131.484 508.895 131.416 508.665 131.28C508.437 131.141 508.258 130.98 508.128 130.797H508.053L507.862 131.396H507.082V124.497H508.124ZM509.321 127.246C509.025 127.246 508.79 127.305 508.616 127.423C508.444 127.541 508.32 127.719 508.243 127.955C508.167 128.189 508.127 128.486 508.124 128.846V128.939C508.124 129.486 508.209 129.904 508.381 130.194C508.555 130.484 508.872 130.629 509.33 130.629C509.693 130.629 509.972 130.482 510.168 130.19C510.363 129.894 510.46 129.471 510.46 128.922C510.46 128.366 510.363 127.948 510.168 127.667C509.975 127.386 509.693 127.246 509.321 127.246ZM518.285 126.395C518.835 126.395 519.249 126.537 519.526 126.82C519.807 127.104 519.948 127.559 519.948 128.186V131.396H518.906V128.372C518.906 128 518.833 127.719 518.689 127.53C518.544 127.34 518.323 127.246 518.028 127.246C517.614 127.246 517.316 127.379 517.132 127.645C516.952 127.908 516.862 128.291 516.862 128.793V131.396H515.82V128.372C515.82 128.124 515.788 127.917 515.723 127.751C515.661 127.583 515.564 127.457 515.434 127.374C515.304 127.289 515.14 127.246 514.942 127.246C514.656 127.246 514.427 127.311 514.255 127.441C514.087 127.571 513.965 127.763 513.892 128.017C513.818 128.268 513.781 128.577 513.781 128.944V131.396H512.739V126.488H513.55L513.697 127.148H513.754C513.855 126.977 513.979 126.837 514.127 126.727C514.277 126.615 514.444 126.532 514.628 126.479C514.811 126.423 515.001 126.395 515.199 126.395C515.566 126.395 515.875 126.46 516.126 126.59C516.377 126.717 516.565 126.912 516.689 127.175H516.769C516.923 126.909 517.137 126.712 517.412 126.585C517.687 126.458 517.978 126.395 518.285 126.395ZM522.444 126.488V131.396H521.402V126.488H522.444ZM521.929 124.608C522.089 124.608 522.226 124.651 522.342 124.737C522.46 124.822 522.519 124.97 522.519 125.18C522.519 125.387 522.46 125.535 522.342 125.623C522.226 125.709 522.089 125.752 521.929 125.752C521.764 125.752 521.623 125.709 521.508 125.623C521.396 125.535 521.34 125.387 521.34 125.18C521.34 124.97 521.396 124.822 521.508 124.737C521.623 124.651 521.764 124.608 521.929 124.608ZM527.236 129.995C527.236 130.317 527.158 130.589 527.001 130.81C526.844 131.032 526.615 131.2 526.314 131.316C526.015 131.428 525.649 131.484 525.214 131.484C524.872 131.484 524.576 131.459 524.328 131.409C524.082 131.362 523.85 131.288 523.632 131.187V130.287C523.865 130.397 524.127 130.491 524.416 130.571C524.709 130.651 524.985 130.691 525.246 130.691C525.588 130.691 525.835 130.637 525.986 130.531C526.137 130.422 526.212 130.277 526.212 130.097C526.212 129.99 526.181 129.896 526.119 129.813C526.06 129.727 525.947 129.64 525.782 129.551C525.619 129.46 525.38 129.35 525.064 129.223C524.753 129.099 524.492 128.975 524.279 128.851C524.066 128.727 523.905 128.577 523.796 128.403C523.686 128.226 523.632 128 523.632 127.725C523.632 127.29 523.803 126.961 524.146 126.736C524.492 126.508 524.948 126.395 525.516 126.395C525.817 126.395 526.101 126.426 526.367 126.488C526.636 126.547 526.899 126.634 527.156 126.749L526.828 127.534C526.607 127.436 526.383 127.357 526.159 127.295C525.937 127.23 525.711 127.197 525.48 127.197C525.212 127.197 525.006 127.238 524.864 127.321C524.725 127.404 524.656 127.522 524.656 127.676C524.656 127.791 524.69 127.889 524.758 127.968C524.826 128.048 524.943 128.128 525.108 128.208C525.277 128.288 525.51 128.387 525.809 128.505C526.101 128.617 526.354 128.735 526.567 128.86C526.782 128.981 526.948 129.13 527.063 129.307C527.178 129.485 527.236 129.714 527.236 129.995ZM531.661 129.995C531.661 130.317 531.582 130.589 531.426 130.81C531.269 131.032 531.04 131.2 530.738 131.316C530.44 131.428 530.073 131.484 529.639 131.484C529.296 131.484 529.001 131.459 528.752 131.409C528.507 131.362 528.275 131.288 528.056 131.187V130.287C528.29 130.397 528.551 130.491 528.841 130.571C529.134 130.651 529.41 130.691 529.67 130.691C530.013 130.691 530.26 130.637 530.41 130.531C530.561 130.422 530.637 130.277 530.637 130.097C530.637 129.99 530.605 129.896 530.543 129.813C530.484 129.727 530.372 129.64 530.206 129.551C530.044 129.46 529.805 129.35 529.488 129.223C529.178 129.099 528.916 128.975 528.704 128.851C528.491 128.727 528.33 128.577 528.22 128.403C528.111 128.226 528.056 128 528.056 127.725C528.056 127.29 528.228 126.961 528.571 126.736C528.916 126.508 529.373 126.395 529.94 126.395C530.242 126.395 530.526 126.426 530.792 126.488C531.061 126.547 531.324 126.634 531.581 126.749L531.253 127.534C531.031 127.436 530.808 127.357 530.583 127.295C530.362 127.23 530.136 127.197 529.905 127.197C529.636 127.197 529.431 127.238 529.289 127.321C529.15 127.404 529.08 127.522 529.08 127.676C529.08 127.791 529.114 127.889 529.182 127.968C529.25 128.048 529.367 128.128 529.533 128.208C529.701 128.288 529.935 128.387 530.233 128.505C530.526 128.617 530.778 128.735 530.991 128.86C531.207 128.981 531.372 129.13 531.488 129.307C531.603 129.485 531.661 129.714 531.661 129.995ZM533.829 126.488V131.396H532.787V126.488H533.829ZM533.314 124.608C533.474 124.608 533.611 124.651 533.727 124.737C533.845 124.822 533.904 124.97 533.904 125.18C533.904 125.387 533.845 125.535 533.727 125.623C533.611 125.709 533.474 125.752 533.314 125.752C533.149 125.752 533.008 125.709 532.893 125.623C532.781 125.535 532.725 125.387 532.725 125.18C532.725 124.97 532.781 124.822 532.893 124.737C533.008 124.651 533.149 124.608 533.314 124.608ZM539.667 128.931C539.667 129.338 539.614 129.7 539.508 130.017C539.401 130.333 539.246 130.6 539.042 130.819C538.838 131.035 538.593 131.2 538.306 131.316C538.02 131.428 537.696 131.484 537.335 131.484C536.998 131.484 536.69 131.428 536.409 131.316C536.128 131.2 535.884 131.035 535.677 130.819C535.473 130.6 535.315 130.333 535.203 130.017C535.091 129.7 535.034 129.338 535.034 128.931C535.034 128.39 535.128 127.932 535.314 127.556C535.503 127.178 535.772 126.89 536.121 126.692C536.469 126.494 536.885 126.395 537.366 126.395C537.819 126.395 538.218 126.494 538.563 126.692C538.909 126.89 539.18 127.178 539.375 127.556C539.57 127.935 539.667 128.393 539.667 128.931ZM536.107 128.931C536.107 129.288 536.15 129.594 536.236 129.848C536.325 130.102 536.461 130.298 536.644 130.433C536.827 130.566 537.063 130.633 537.353 130.633C537.643 130.633 537.879 130.566 538.062 130.433C538.246 130.298 538.38 130.102 538.466 129.848C538.552 129.594 538.594 129.288 538.594 128.931C538.594 128.573 538.552 128.27 538.466 128.022C538.38 127.77 538.246 127.58 538.062 127.45C537.879 127.317 537.641 127.25 537.349 127.25C536.917 127.25 536.602 127.395 536.404 127.685C536.206 127.974 536.107 128.39 536.107 128.931ZM543.422 126.395C543.975 126.395 544.405 126.538 544.713 126.825C545.023 127.108 545.178 127.565 545.178 128.195V131.396H544.136V128.39C544.136 128.008 544.058 127.723 543.901 127.534C543.745 127.342 543.502 127.246 543.174 127.246C542.698 127.246 542.367 127.392 542.181 127.685C541.998 127.977 541.906 128.401 541.906 128.957V131.396H540.864V126.488H541.676L541.822 127.153H541.88C541.986 126.981 542.118 126.841 542.274 126.732C542.434 126.619 542.611 126.535 542.806 126.479C543.004 126.423 543.21 126.395 543.422 126.395Z" fill="black"/>
<path d="M585.817 124.914C586.654 124.914 587.264 125.085 587.648 125.428C588.033 125.771 588.225 126.251 588.225 126.869C588.225 127.15 588.18 127.417 588.092 127.671C588.006 127.923 587.864 128.146 587.666 128.341C587.468 128.533 587.207 128.685 586.881 128.798C586.559 128.91 586.162 128.966 585.689 128.966H584.997V131.396H583.933V124.914H585.817ZM585.746 125.796H584.997V128.079H585.578C585.912 128.079 586.196 128.041 586.429 127.964C586.663 127.884 586.84 127.759 586.961 127.587C587.082 127.416 587.143 127.19 587.143 126.909C587.143 126.534 587.029 126.254 586.802 126.071C586.577 125.888 586.225 125.796 585.746 125.796ZM591.9 126.395C591.983 126.395 592.073 126.399 592.17 126.408C592.268 126.417 592.352 126.429 592.423 126.443L592.326 127.419C592.264 127.401 592.187 127.388 592.095 127.379C592.006 127.37 591.927 127.366 591.856 127.366C591.669 127.366 591.492 127.397 591.324 127.459C591.155 127.518 591.006 127.609 590.876 127.734C590.746 127.855 590.644 128.007 590.57 128.19C590.496 128.373 590.459 128.586 590.459 128.829V131.396H589.413V126.488H590.229L590.37 127.352H590.419C590.517 127.178 590.638 127.018 590.783 126.873C590.928 126.729 591.093 126.613 591.279 126.528C591.468 126.439 591.675 126.395 591.9 126.395ZM597.677 128.931C597.677 129.338 597.624 129.7 597.517 130.017C597.411 130.333 597.256 130.6 597.052 130.819C596.848 131.035 596.602 131.2 596.316 131.316C596.029 131.428 595.705 131.484 595.345 131.484C595.008 131.484 594.699 131.428 594.418 131.316C594.137 131.2 593.894 131.035 593.687 130.819C593.483 130.6 593.325 130.333 593.212 130.017C593.1 129.7 593.044 129.338 593.044 128.931C593.044 128.39 593.137 127.932 593.323 127.556C593.512 127.178 593.781 126.89 594.13 126.692C594.479 126.494 594.894 126.395 595.376 126.395C595.828 126.395 596.227 126.494 596.573 126.692C596.919 126.89 597.189 127.178 597.384 127.556C597.579 127.935 597.677 128.393 597.677 128.931ZM594.117 128.931C594.117 129.288 594.16 129.594 594.245 129.848C594.334 130.102 594.47 130.298 594.653 130.433C594.836 130.566 595.073 130.633 595.362 130.633C595.652 130.633 595.889 130.566 596.072 130.433C596.255 130.298 596.39 130.102 596.475 129.848C596.561 129.594 596.604 129.288 596.604 128.931C596.604 128.573 596.561 128.27 596.475 128.022C596.39 127.77 596.255 127.58 596.072 127.45C595.889 127.317 595.651 127.25 595.358 127.25C594.927 127.25 594.612 127.395 594.414 127.685C594.216 127.974 594.117 128.39 594.117 128.931ZM598.382 133.577C598.228 133.577 598.082 133.565 597.943 133.541C597.804 133.521 597.687 133.495 597.592 133.466V132.632C597.693 132.662 597.79 132.684 597.885 132.699C597.98 132.714 598.088 132.721 598.209 132.721C598.401 132.721 598.559 132.668 598.683 132.561C598.81 132.455 598.874 132.253 598.874 131.954V126.488H599.916V132.047C599.916 132.346 599.862 132.61 599.756 132.841C599.653 133.071 599.487 133.252 599.259 133.382C599.035 133.512 598.742 133.577 598.382 133.577ZM598.812 125.18C598.812 124.97 598.868 124.822 598.98 124.737C599.095 124.651 599.236 124.608 599.401 124.608C599.561 124.608 599.698 124.651 599.814 124.737C599.932 124.822 599.991 124.97 599.991 125.18C599.991 125.387 599.932 125.535 599.814 125.623C599.698 125.709 599.561 125.752 599.401 125.752C599.236 125.752 599.095 125.709 598.98 125.623C598.868 125.535 598.812 125.387 598.812 125.18ZM603.365 126.395C603.802 126.395 604.178 126.485 604.491 126.665C604.804 126.845 605.045 127.101 605.213 127.432C605.382 127.763 605.466 128.159 605.466 128.62V129.179H602.19C602.202 129.655 602.329 130.021 602.571 130.278C602.816 130.535 603.159 130.664 603.6 130.664C603.913 130.664 604.194 130.634 604.442 130.575C604.693 130.513 604.952 130.423 605.218 130.305V131.152C604.973 131.267 604.723 131.351 604.469 131.404C604.214 131.458 603.91 131.484 603.555 131.484C603.074 131.484 602.649 131.391 602.283 131.205C601.919 131.016 601.634 130.735 601.427 130.363C601.223 129.99 601.121 129.528 601.121 128.975C601.121 128.425 601.215 127.958 601.401 127.574C601.587 127.19 601.849 126.897 602.185 126.696C602.522 126.495 602.915 126.395 603.365 126.395ZM603.365 127.179C603.037 127.179 602.771 127.286 602.567 127.499C602.366 127.711 602.248 128.023 602.212 128.434H604.446C604.444 128.189 604.402 127.971 604.322 127.782C604.246 127.593 604.127 127.445 603.968 127.339C603.811 127.233 603.61 127.179 603.365 127.179ZM608.618 131.484C608.154 131.484 607.752 131.394 607.412 131.214C607.073 131.033 606.811 130.757 606.628 130.385C606.444 130.012 606.353 129.539 606.353 128.966C606.353 128.369 606.453 127.881 606.654 127.503C606.855 127.125 607.133 126.845 607.488 126.665C607.845 126.485 608.255 126.395 608.716 126.395C609.008 126.395 609.273 126.424 609.509 126.483C609.749 126.539 609.951 126.609 610.117 126.692L609.806 127.525C609.626 127.451 609.441 127.389 609.252 127.339C609.063 127.289 608.881 127.264 608.707 127.264C608.42 127.264 608.181 127.327 607.989 127.454C607.8 127.581 607.658 127.77 607.563 128.022C607.472 128.273 607.426 128.585 607.426 128.957C607.426 129.318 607.473 129.622 607.568 129.87C607.662 130.116 607.803 130.302 607.989 130.429C608.175 130.553 608.404 130.615 608.676 130.615C608.945 130.615 609.186 130.583 609.399 130.518C609.611 130.453 609.812 130.368 610.002 130.265V131.169C609.815 131.276 609.616 131.354 609.403 131.404C609.19 131.458 608.929 131.484 608.618 131.484ZM612.981 130.642C613.117 130.642 613.251 130.63 613.384 130.606C613.517 130.58 613.638 130.549 613.748 130.513V131.302C613.632 131.353 613.483 131.396 613.3 131.431C613.117 131.466 612.926 131.484 612.728 131.484C612.45 131.484 612.2 131.438 611.979 131.347C611.757 131.252 611.581 131.091 611.451 130.864C611.321 130.636 611.256 130.321 611.256 129.919V127.281H610.587V126.816L611.305 126.448L611.646 125.397H612.302V126.488H613.708V127.281H612.302V129.906C612.302 130.154 612.365 130.339 612.489 130.46C612.613 130.581 612.777 130.642 612.981 130.642ZM619.826 127.875H622.247V131.13C621.907 131.242 621.555 131.329 621.191 131.391C620.828 131.453 620.42 131.484 619.968 131.484C619.309 131.484 618.75 131.354 618.292 131.094C617.837 130.831 617.491 130.451 617.255 129.955C617.018 129.455 616.9 128.854 616.9 128.15C616.9 127.473 617.031 126.887 617.294 126.39C617.558 125.891 617.94 125.505 618.443 125.233C618.945 124.958 619.554 124.821 620.269 124.821C620.621 124.821 620.961 124.856 621.289 124.927C621.62 124.995 621.923 125.09 622.198 125.211L621.825 126.089C621.607 125.985 621.361 125.898 621.089 125.827C620.818 125.756 620.535 125.721 620.243 125.721C619.779 125.721 619.378 125.821 619.041 126.022C618.707 126.223 618.45 126.507 618.27 126.873C618.09 127.237 617.999 127.667 617.999 128.164C617.999 128.645 618.072 129.068 618.217 129.432C618.361 129.795 618.588 130.079 618.895 130.283C619.205 130.484 619.606 130.584 620.096 130.584C620.342 130.584 620.55 130.571 620.721 130.544C620.893 130.518 621.051 130.488 621.196 130.456V128.784H619.826V127.875ZM625.616 126.395C626.237 126.395 626.705 126.532 627.021 126.807C627.341 127.082 627.5 127.51 627.5 128.093V131.396H626.76L626.56 130.699H626.525C626.386 130.877 626.243 131.023 626.095 131.138C625.947 131.254 625.776 131.339 625.58 131.396C625.388 131.455 625.153 131.484 624.876 131.484C624.583 131.484 624.321 131.431 624.091 131.325C623.86 131.215 623.679 131.05 623.546 130.828C623.413 130.606 623.346 130.326 623.346 129.986C623.346 129.48 623.534 129.1 623.909 128.846C624.287 128.592 624.858 128.452 625.62 128.425L626.472 128.394V128.137C626.472 127.797 626.392 127.555 626.232 127.41C626.076 127.265 625.854 127.193 625.567 127.193C625.322 127.193 625.084 127.228 624.853 127.299C624.623 127.37 624.398 127.457 624.18 127.561L623.843 126.825C624.082 126.698 624.354 126.594 624.658 126.514C624.966 126.435 625.285 126.395 625.616 126.395ZM626.467 129.05L625.833 129.072C625.313 129.09 624.948 129.179 624.738 129.338C624.528 129.498 624.423 129.717 624.423 129.995C624.423 130.237 624.496 130.414 624.641 130.527C624.785 130.636 624.976 130.691 625.212 130.691C625.573 130.691 625.872 130.589 626.108 130.385C626.347 130.178 626.467 129.875 626.467 129.476V129.05ZM630.005 131.396H628.959V124.497H630.005V131.396ZM632.541 131.396H631.495V124.497H632.541V131.396ZM635.986 126.395C636.423 126.395 636.798 126.485 637.112 126.665C637.425 126.845 637.666 127.101 637.834 127.432C638.003 127.763 638.087 128.159 638.087 128.62V129.179H634.811C634.823 129.655 634.95 130.021 635.192 130.278C635.437 130.535 635.78 130.664 636.221 130.664C636.534 130.664 636.815 130.634 637.063 130.575C637.314 130.513 637.573 130.423 637.839 130.305V131.152C637.593 131.267 637.344 131.351 637.09 131.404C636.835 131.458 636.531 131.484 636.176 131.484C635.695 131.484 635.27 131.391 634.904 131.205C634.54 131.016 634.255 130.735 634.048 130.363C633.844 129.99 633.742 129.528 633.742 128.975C633.742 128.425 633.835 127.958 634.022 127.574C634.208 127.19 634.469 126.897 634.806 126.696C635.143 126.495 635.536 126.395 635.986 126.395ZM635.986 127.179C635.658 127.179 635.392 127.286 635.188 127.499C634.987 127.711 634.868 128.023 634.833 128.434H637.067C637.064 128.189 637.023 127.971 636.943 127.782C636.866 127.593 636.748 127.445 636.589 127.339C636.432 127.233 636.231 127.179 635.986 127.179ZM641.749 126.395C641.832 126.395 641.922 126.399 642.019 126.408C642.117 126.417 642.201 126.429 642.272 126.443L642.175 127.419C642.113 127.401 642.036 127.388 641.944 127.379C641.855 127.37 641.776 127.366 641.705 127.366C641.519 127.366 641.341 127.397 641.173 127.459C641.004 127.518 640.855 127.609 640.725 127.734C640.595 127.855 640.493 128.007 640.419 128.19C640.345 128.373 640.308 128.586 640.308 128.829V131.396H639.262V126.488H640.078L640.22 127.352H640.268C640.366 127.178 640.487 127.018 640.632 126.873C640.777 126.729 640.942 126.613 641.128 126.528C641.318 126.439 641.524 126.395 641.749 126.395ZM642.441 126.488H643.576L644.582 129.29C644.626 129.417 644.666 129.542 644.702 129.666C644.74 129.788 644.773 129.907 644.799 130.026C644.829 130.144 644.852 130.262 644.87 130.38H644.897C644.926 130.227 644.968 130.055 645.021 129.866C645.077 129.674 645.139 129.482 645.207 129.29L646.174 126.488H647.295L645.189 132.069C645.068 132.389 644.919 132.661 644.742 132.885C644.567 133.113 644.36 133.284 644.121 133.399C643.882 133.518 643.608 133.577 643.301 133.577C643.153 133.577 643.024 133.568 642.915 133.55C642.806 133.535 642.713 133.519 642.636 133.501V132.668C642.698 132.683 642.776 132.696 642.871 132.708C642.965 132.72 643.063 132.726 643.163 132.726C643.35 132.726 643.511 132.689 643.647 132.615C643.782 132.541 643.898 132.436 643.992 132.3C644.087 132.167 644.165 132.015 644.227 131.843L644.4 131.382L642.441 126.488Z" fill="black"/>
</g>
<path d="M716 180.249L716 145.249" stroke="#98A3AE"/>
<path d="M502 180.249L502 145.249" stroke="#98A3AE"/>
<rect x="435" y="180.249" width="134" height="38" fill="#FAFCFD"/>
<rect x="435.5" y="180.749" width="133" height="37" stroke="#374A5F" stroke-opacity="0.1"/>
<path d="M449.839 204.473C447.529 204.473 446.087 203.045 446.087 200.777V194.295H447.291V200.777C447.291 202.387 448.215 203.297 449.839 203.297C451.449 203.297 452.373 202.387 452.373 200.777V194.295H453.577V200.777C453.577 203.045 452.135 204.473 449.839 204.473ZM455.781 204.249V196.829H456.859L456.887 198.159C457.279 197.137 458.147 196.661 459.169 196.661C460.863 196.661 461.675 197.907 461.675 199.475V204.249H460.499V199.811C460.499 198.439 460.037 197.697 458.917 197.697C457.769 197.697 456.957 198.439 456.957 199.811V204.249H455.781ZM466.65 204.417C464.578 204.417 463.248 202.891 463.248 200.539C463.248 198.187 464.578 196.661 466.65 196.661C468.358 196.661 469.548 197.585 469.8 199.237L468.568 199.321C468.4 198.341 467.658 197.781 466.65 197.781C465.278 197.781 464.48 198.817 464.48 200.539C464.48 202.261 465.278 203.297 466.65 203.297C467.658 203.297 468.4 202.737 468.568 201.617L469.8 201.701C469.548 203.353 468.358 204.417 466.65 204.417ZM472.782 204.249C471.914 204.249 471.326 203.829 471.326 202.849V194.309H472.502V202.751C472.502 203.059 472.656 203.213 472.964 203.213H473.608V204.249H472.782ZM477.874 204.417C475.774 204.417 474.472 202.891 474.472 200.539C474.472 198.187 475.774 196.661 477.818 196.661C479.75 196.661 481.094 198.061 481.094 200.553V200.903H475.704C475.788 202.499 476.586 203.297 477.874 203.297C478.84 203.297 479.47 202.807 479.722 202.051L480.982 202.149C480.59 203.479 479.442 204.417 477.874 204.417ZM475.704 199.867H479.806C479.694 198.439 478.91 197.781 477.818 197.781C476.67 197.781 475.9 198.495 475.704 199.867ZM484.881 204.417C483.341 204.417 482.375 203.675 482.375 202.401C482.375 201.141 483.089 200.441 484.713 200.133L487.345 199.643C487.345 198.397 486.757 197.781 485.581 197.781C484.545 197.781 483.971 198.257 483.747 199.111L482.501 199.013C482.781 197.613 483.901 196.661 485.581 196.661C487.485 196.661 488.521 197.809 488.521 199.685V202.751C488.521 203.087 488.633 203.213 488.913 203.213H489.207V204.249C489.123 204.263 488.941 204.277 488.759 204.277C487.863 204.277 487.457 203.927 487.359 203.101C486.995 203.871 485.973 204.417 484.881 204.417ZM484.993 203.381C486.477 203.381 487.345 202.429 487.345 201.197V200.665L484.937 201.113C483.929 201.295 483.607 201.673 483.607 202.289C483.607 202.989 484.125 203.381 484.993 203.381ZM490.535 204.249V196.829H491.571L491.613 198.201C491.879 197.263 492.467 196.829 493.377 196.829H494.105V197.949H493.391C492.271 197.949 491.711 198.551 491.711 199.769V204.249H490.535ZM499.34 206.349V196.829H500.432L500.446 197.963C500.894 197.109 501.72 196.661 502.728 196.661C504.94 196.661 505.934 198.495 505.934 200.539C505.934 202.583 504.94 204.417 502.728 204.417C501.762 204.417 500.908 203.983 500.516 203.269V206.349H499.34ZM502.616 203.297C503.904 203.297 504.702 202.275 504.702 200.539C504.702 198.803 503.904 197.781 502.616 197.781C501.328 197.781 500.516 198.719 500.516 200.539C500.516 202.359 501.314 203.297 502.616 203.297ZM509.723 204.417C508.183 204.417 507.217 203.675 507.217 202.401C507.217 201.141 507.931 200.441 509.555 200.133L512.187 199.643C512.187 198.397 511.599 197.781 510.423 197.781C509.387 197.781 508.813 198.257 508.589 199.111L507.343 199.013C507.623 197.613 508.743 196.661 510.423 196.661C512.327 196.661 513.363 197.809 513.363 199.685V202.751C513.363 203.087 513.475 203.213 513.755 203.213H514.049V204.249C513.965 204.263 513.783 204.277 513.601 204.277C512.705 204.277 512.299 203.927 512.201 203.101C511.837 203.871 510.815 204.417 509.723 204.417ZM509.835 203.381C511.319 203.381 512.187 202.429 512.187 201.197V200.665L509.779 201.113C508.771 201.295 508.449 201.673 508.449 202.289C508.449 202.989 508.967 203.381 509.835 203.381ZM518.163 206.517C516.567 206.517 515.363 205.663 515.055 204.361L516.287 204.277C516.511 204.977 517.015 205.397 518.163 205.397C519.507 205.397 520.249 204.865 520.249 203.773V202.569C519.885 203.353 519.045 203.857 518.079 203.857C516.189 203.857 514.845 202.373 514.845 200.259C514.845 198.145 516.161 196.661 518.023 196.661C519.059 196.661 519.969 197.179 520.305 198.005V196.829H521.425V203.745C521.425 205.481 520.207 206.517 518.163 206.517ZM518.135 202.737C519.409 202.737 520.235 201.785 520.249 200.259C520.277 198.733 519.423 197.781 518.135 197.781C516.833 197.781 516.077 198.733 516.077 200.259C516.077 201.785 516.861 202.737 518.135 202.737ZM526.423 204.417C524.323 204.417 523.021 202.891 523.021 200.539C523.021 198.187 524.323 196.661 526.367 196.661C528.299 196.661 529.643 198.061 529.643 200.553V200.903H524.253C524.337 202.499 525.135 203.297 526.423 203.297C527.389 203.297 528.019 202.807 528.271 202.051L529.531 202.149C529.139 203.479 527.991 204.417 526.423 204.417ZM524.253 199.867H528.355C528.243 198.439 527.459 197.781 526.367 197.781C525.219 197.781 524.449 198.495 524.253 199.867ZM537.589 204.249C536.245 204.249 535.615 203.661 535.615 202.345V197.865H534.523V196.829H535.615V195.093H536.791V196.829H538.765V197.865H536.791V202.317C536.791 202.989 537.085 203.213 537.701 203.213H538.765V204.249H537.589ZM540.245 195.667V194.295H541.477V195.667H540.245ZM540.273 204.249V196.829H541.449V204.249H540.273ZM545.847 204.249C544.503 204.249 543.873 203.661 543.873 202.345V197.865H542.781V196.829H543.873V195.093H545.049V196.829H547.023V197.865H545.049V202.317C545.049 202.989 545.343 203.213 545.959 203.213H547.023V204.249H545.847ZM550.069 204.249C549.201 204.249 548.613 203.829 548.613 202.849V194.309H549.789V202.751C549.789 203.059 549.943 203.213 550.251 203.213H550.895V204.249H550.069ZM555.162 204.417C553.062 204.417 551.76 202.891 551.76 200.539C551.76 198.187 553.062 196.661 555.106 196.661C557.038 196.661 558.382 198.061 558.382 200.553V200.903H552.992C553.076 202.499 553.874 203.297 555.162 203.297C556.128 203.297 556.758 202.807 557.01 202.051L558.27 202.149C557.878 203.479 556.73 204.417 555.162 204.417ZM552.992 199.867H557.094C556.982 198.439 556.198 197.781 555.106 197.781C553.958 197.781 553.188 198.495 552.992 199.867Z" fill="#374A5F"/>
<rect x="627" y="180.249" width="178" height="56" fill="#FAFCFD"/>
<rect x="627.5" y="180.749" width="177" height="55" stroke="#374A5F" stroke-opacity="0.1"/>
<path d="M642.204 204.473C639.376 204.473 637.668 202.513 637.668 199.293C637.668 196.073 639.376 194.085 642.204 194.085C645.046 194.085 646.754 196.073 646.754 199.293C646.754 202.513 645.046 204.473 642.204 204.473ZM642.204 203.297C644.262 203.297 645.494 201.813 645.494 199.293C645.494 196.773 644.262 195.261 642.204 195.261C640.16 195.261 638.928 196.773 638.928 199.293C638.928 201.813 640.16 203.297 642.204 203.297ZM648.508 204.249V196.829H649.586L649.614 198.159C650.006 197.137 650.874 196.661 651.896 196.661C653.59 196.661 654.402 197.907 654.402 199.475V204.249H653.226V199.811C653.226 198.439 652.764 197.697 651.644 197.697C650.496 197.697 649.684 198.439 649.684 199.811V204.249H648.508ZM657.893 204.249C657.025 204.249 656.437 203.829 656.437 202.849V194.309H657.613V202.751C657.613 203.059 657.767 203.213 658.075 203.213H658.719V204.249H657.893ZM660.15 206.349V205.313H661.004C661.522 205.313 661.732 205.159 661.872 204.809L662.138 204.109H661.732L659.016 196.829H660.304L662.516 203.017L664.63 196.829H665.918L662.908 205.187C662.628 205.985 662.11 206.349 661.116 206.349H660.15ZM670.554 204.249C670.554 201.995 671.422 200.609 674.278 199.097C675.636 198.383 676.154 197.963 676.154 197.039C676.154 196.115 675.552 195.471 674.362 195.471C673.088 195.471 672.36 196.171 672.164 197.445L670.596 197.347C670.806 195.345 672.15 194.085 674.362 194.085C676.476 194.085 677.722 195.275 677.722 197.011C677.722 198.537 677.036 199.265 675.034 200.329C673.312 201.253 672.444 202.191 672.388 202.863H677.722V204.249H670.554ZM682.571 204.473C680.275 204.473 679.001 203.311 678.917 201.575L680.471 201.491C680.583 202.625 681.395 203.087 682.571 203.087C683.761 203.087 684.755 202.625 684.755 201.421C684.755 200.231 683.873 199.671 682.557 199.671H681.731V198.355H682.557C683.621 198.355 684.419 197.963 684.419 196.913C684.419 195.989 683.817 195.471 682.599 195.471C681.395 195.471 680.807 195.975 680.695 196.773L679.141 196.689C679.323 195.135 680.541 194.085 682.599 194.085C684.727 194.085 685.987 195.135 685.987 196.801C685.987 197.851 685.385 198.579 684.265 198.929C685.553 199.279 686.323 200.203 686.323 201.477C686.323 203.367 684.811 204.473 682.571 204.473ZM689.795 199.125C688.507 199.125 687.583 198.285 687.583 196.661C687.583 195.037 688.507 194.197 689.795 194.197C691.083 194.197 691.993 195.037 691.993 196.661C691.993 198.285 691.083 199.125 689.795 199.125ZM688.689 204.249L695.465 194.309H696.641L689.865 204.249H688.689ZM689.795 198.187C690.495 198.187 690.859 197.641 690.859 196.661C690.859 195.681 690.495 195.135 689.795 195.135C689.095 195.135 688.731 195.681 688.731 196.661C688.731 197.641 689.095 198.187 689.795 198.187ZM695.535 204.361C694.247 204.361 693.323 203.521 693.323 201.897C693.323 200.273 694.247 199.433 695.535 199.433C696.823 199.433 697.747 200.273 697.747 201.897C697.747 203.521 696.823 204.361 695.535 204.361ZM695.535 203.423C696.235 203.423 696.599 202.877 696.599 201.897C696.599 200.917 696.235 200.371 695.535 200.371C694.835 200.371 694.471 200.917 694.471 201.897C694.471 202.877 694.835 203.423 695.535 203.423ZM705.751 204.417C703.693 204.417 702.349 202.905 702.349 200.539C702.349 198.173 703.693 196.661 705.751 196.661C707.795 196.661 709.139 198.173 709.139 200.539C709.139 202.905 707.795 204.417 705.751 204.417ZM705.751 203.297C707.109 203.297 707.907 202.261 707.907 200.539C707.907 198.817 707.109 197.781 705.751 197.781C704.379 197.781 703.581 198.817 703.581 200.539C703.581 202.261 704.379 203.297 705.751 203.297ZM711.183 204.249V197.865H710.175V196.829H711.183V196.157C711.183 195.065 711.799 194.309 713.143 194.309H714.319V195.345H713.227C712.639 195.345 712.359 195.681 712.359 196.241V196.829H714.221V197.865H712.359V204.249H711.183ZM719.478 206.349V196.829H720.57L720.584 197.963C721.032 197.109 721.858 196.661 722.866 196.661C725.078 196.661 726.072 198.495 726.072 200.539C726.072 202.583 725.078 204.417 722.866 204.417C721.9 204.417 721.046 203.983 720.654 203.269V206.349H719.478ZM722.754 203.297C724.042 203.297 724.84 202.275 724.84 200.539C724.84 198.803 724.042 197.781 722.754 197.781C721.466 197.781 720.654 198.719 720.654 200.539C720.654 202.359 721.452 203.297 722.754 203.297ZM729.861 204.417C728.321 204.417 727.355 203.675 727.355 202.401C727.355 201.141 728.069 200.441 729.693 200.133L732.325 199.643C732.325 198.397 731.737 197.781 730.561 197.781C729.525 197.781 728.951 198.257 728.727 199.111L727.481 199.013C727.761 197.613 728.881 196.661 730.561 196.661C732.465 196.661 733.501 197.809 733.501 199.685V202.751C733.501 203.087 733.613 203.213 733.893 203.213H734.187V204.249C734.103 204.263 733.921 204.277 733.739 204.277C732.843 204.277 732.437 203.927 732.339 203.101C731.975 203.871 730.953 204.417 729.861 204.417ZM729.973 203.381C731.457 203.381 732.325 202.429 732.325 201.197V200.665L729.917 201.113C728.909 201.295 728.587 201.673 728.587 202.289C728.587 202.989 729.105 203.381 729.973 203.381ZM735.516 204.249V196.829H736.552L736.594 198.201C736.86 197.263 737.448 196.829 738.358 196.829H739.086V197.949H738.372C737.252 197.949 736.692 198.551 736.692 199.769V204.249H735.516ZM742.839 204.249C741.495 204.249 740.865 203.661 740.865 202.345V197.865H739.773V196.829H740.865V195.093H742.041V196.829H744.015V197.865H742.041V202.317C742.041 202.989 742.335 203.213 742.951 203.213H744.015V204.249H742.839ZM745.495 195.667V194.295H746.727V195.667H745.495ZM745.523 204.249V196.829H746.699V204.249H745.523ZM751.703 204.417C749.631 204.417 748.301 202.891 748.301 200.539C748.301 198.187 749.631 196.661 751.703 196.661C753.411 196.661 754.601 197.585 754.853 199.237L753.621 199.321C753.453 198.341 752.711 197.781 751.703 197.781C750.331 197.781 749.533 198.817 749.533 200.539C749.533 202.261 750.331 203.297 751.703 203.297C752.711 203.297 753.453 202.737 753.621 201.617L754.853 201.701C754.601 203.353 753.411 204.417 751.703 204.417ZM756.282 195.667V194.295H757.514V195.667H756.282ZM756.31 204.249V196.829H757.486V204.249H756.31ZM759.865 206.349V196.829H760.957L760.971 197.963C761.419 197.109 762.245 196.661 763.253 196.661C765.465 196.661 766.459 198.495 766.459 200.539C766.459 202.583 765.465 204.417 763.253 204.417C762.287 204.417 761.433 203.983 761.041 203.269V206.349H759.865ZM763.141 203.297C764.429 203.297 765.227 202.275 765.227 200.539C765.227 198.803 764.429 197.781 763.141 197.781C761.853 197.781 761.041 198.719 761.041 200.539C761.041 202.359 761.839 203.297 763.141 203.297ZM770.248 204.417C768.708 204.417 767.742 203.675 767.742 202.401C767.742 201.141 768.456 200.441 770.08 200.133L772.712 199.643C772.712 198.397 772.124 197.781 770.948 197.781C769.912 197.781 769.338 198.257 769.114 199.111L767.868 199.013C768.148 197.613 769.268 196.661 770.948 196.661C772.852 196.661 773.888 197.809 773.888 199.685V202.751C773.888 203.087 774 203.213 774.28 203.213H774.574V204.249C774.49 204.263 774.308 204.277 774.126 204.277C773.23 204.277 772.824 203.927 772.726 203.101C772.362 203.871 771.34 204.417 770.248 204.417ZM770.36 203.381C771.844 203.381 772.712 202.429 772.712 201.197V200.665L770.304 201.113C769.296 201.295 768.974 201.673 768.974 202.289C768.974 202.989 769.492 203.381 770.36 203.381ZM775.902 204.249V196.829H776.98L777.008 198.159C777.4 197.137 778.268 196.661 779.29 196.661C780.984 196.661 781.796 197.907 781.796 199.475V204.249H780.62V199.811C780.62 198.439 780.158 197.697 779.038 197.697C777.89 197.697 777.078 198.439 777.078 199.811V204.249H775.902ZM786.192 204.249C784.848 204.249 784.218 203.661 784.218 202.345V197.865H783.126V196.829H784.218V195.093H785.394V196.829H787.368V197.865H785.394V202.317C785.394 202.989 785.688 203.213 786.304 203.213H787.368V204.249H786.192ZM791.442 204.417C789.454 204.417 788.348 203.367 788.236 201.911L789.468 201.827C789.608 202.723 790.182 203.297 791.442 203.297C792.45 203.297 793.108 202.989 793.108 202.261C793.108 201.673 792.814 201.421 791.218 201.141C789.09 200.763 788.418 200.105 788.418 198.929C788.418 197.613 789.426 196.661 791.218 196.661C793.024 196.661 793.976 197.753 794.2 199.041L792.968 199.125C792.8 198.341 792.212 197.781 791.204 197.781C790.14 197.781 789.65 198.243 789.65 198.873C789.65 199.601 790.126 199.881 791.442 200.105C793.71 200.497 794.34 201.085 794.34 202.261C794.34 203.633 793.08 204.417 791.442 204.417ZM672.895 222.249L670.193 214.829H671.481L673.637 221.045L675.793 214.829H677.081L674.379 222.249H672.895ZM678.346 213.667V212.295H679.578V213.667H678.346ZM678.374 222.249V214.829H679.55V222.249H678.374ZM684.357 222.417C682.369 222.417 681.263 221.367 681.151 219.911L682.383 219.827C682.523 220.723 683.097 221.297 684.357 221.297C685.365 221.297 686.023 220.989 686.023 220.261C686.023 219.673 685.729 219.421 684.133 219.141C682.005 218.763 681.333 218.105 681.333 216.929C681.333 215.613 682.341 214.661 684.133 214.661C685.939 214.661 686.891 215.753 687.115 217.041L685.883 217.125C685.715 216.341 685.127 215.781 684.119 215.781C683.055 215.781 682.565 216.243 682.565 216.873C682.565 217.601 683.041 217.881 684.357 218.105C686.625 218.497 687.255 219.085 687.255 220.261C687.255 221.633 685.995 222.417 684.357 222.417ZM688.832 213.667V212.295H690.064V213.667H688.832ZM688.86 222.249V214.829H690.036V222.249H688.86ZM694.434 222.249C693.09 222.249 692.46 221.661 692.46 220.345V215.865H691.368V214.829H692.46V213.093H693.636V214.829H695.61V215.865H693.636V220.317C693.636 220.989 693.93 221.213 694.546 221.213H695.61V222.249H694.434ZM703.416 222.249C702.072 222.249 701.442 221.661 701.442 220.345V215.865H700.35V214.829H701.442V213.093H702.618V214.829H704.592V215.865H702.618V220.317C702.618 220.989 702.912 221.213 703.528 221.213H704.592V222.249H703.416ZM706.1 222.249V212.309H707.276V215.991C707.654 215.081 708.494 214.661 709.516 214.661C711.112 214.661 711.994 215.823 711.994 217.475V222.249H710.818V217.811C710.818 216.383 710.3 215.697 709.264 215.697C708.06 215.697 707.276 216.453 707.276 217.825V222.249H706.1ZM714.071 213.667V212.295H715.303V213.667H714.071ZM714.099 222.249V214.829H715.275V222.249H714.099ZM720.082 222.417C718.094 222.417 716.988 221.367 716.876 219.911L718.108 219.827C718.248 220.723 718.822 221.297 720.082 221.297C721.09 221.297 721.748 220.989 721.748 220.261C721.748 219.673 721.454 219.421 719.858 219.141C717.73 218.763 717.058 218.105 717.058 216.929C717.058 215.613 718.066 214.661 719.858 214.661C721.664 214.661 722.616 215.753 722.84 217.041L721.608 217.125C721.44 216.341 720.852 215.781 719.844 215.781C718.78 215.781 718.29 216.243 718.29 216.873C718.29 217.601 718.766 217.881 720.082 218.105C722.35 218.497 722.98 219.085 722.98 220.261C722.98 221.633 721.72 222.417 720.082 222.417ZM728.222 224.349V214.829H729.314L729.328 215.963C729.776 215.109 730.602 214.661 731.61 214.661C733.822 214.661 734.816 216.495 734.816 218.539C734.816 220.583 733.822 222.417 731.61 222.417C730.644 222.417 729.79 221.983 729.398 221.269V224.349H728.222ZM731.498 221.297C732.786 221.297 733.584 220.275 733.584 218.539C733.584 216.803 732.786 215.781 731.498 215.781C730.21 215.781 729.398 216.719 729.398 218.539C729.398 220.359 730.196 221.297 731.498 221.297ZM738.604 222.417C737.064 222.417 736.098 221.675 736.098 220.401C736.098 219.141 736.812 218.441 738.436 218.133L741.068 217.643C741.068 216.397 740.48 215.781 739.304 215.781C738.268 215.781 737.694 216.257 737.47 217.111L736.224 217.013C736.504 215.613 737.624 214.661 739.304 214.661C741.208 214.661 742.244 215.809 742.244 217.685V220.751C742.244 221.087 742.356 221.213 742.636 221.213H742.93V222.249C742.846 222.263 742.664 222.277 742.482 222.277C741.586 222.277 741.18 221.927 741.082 221.101C740.718 221.871 739.696 222.417 738.604 222.417ZM738.716 221.381C740.2 221.381 741.068 220.429 741.068 219.197V218.665L738.66 219.113C737.652 219.295 737.33 219.673 737.33 220.289C737.33 220.989 737.848 221.381 738.716 221.381ZM747.045 224.517C745.449 224.517 744.245 223.663 743.937 222.361L745.169 222.277C745.393 222.977 745.897 223.397 747.045 223.397C748.389 223.397 749.131 222.865 749.131 221.773V220.569C748.767 221.353 747.927 221.857 746.961 221.857C745.071 221.857 743.727 220.373 743.727 218.259C743.727 216.145 745.043 214.661 746.905 214.661C747.941 214.661 748.851 215.179 749.187 216.005V214.829H750.307V221.745C750.307 223.481 749.089 224.517 747.045 224.517ZM747.017 220.737C748.291 220.737 749.117 219.785 749.131 218.259C749.159 216.733 748.305 215.781 747.017 215.781C745.715 215.781 744.959 216.733 744.959 218.259C744.959 219.785 745.743 220.737 747.017 220.737ZM755.305 222.417C753.205 222.417 751.903 220.891 751.903 218.539C751.903 216.187 753.205 214.661 755.249 214.661C757.181 214.661 758.525 216.061 758.525 218.553V218.903H753.135C753.219 220.499 754.017 221.297 755.305 221.297C756.271 221.297 756.901 220.807 757.153 220.051L758.413 220.149C758.021 221.479 756.873 222.417 755.305 222.417ZM753.135 217.867H757.237C757.125 216.439 756.341 215.781 755.249 215.781C754.101 215.781 753.331 216.495 753.135 217.867ZM760.297 219.379C760.213 218.399 760.073 216.649 760.073 215.529V212.309H761.277V215.529C761.277 216.649 761.151 218.399 761.067 219.379H760.297ZM759.835 222.249V220.667H761.417V222.249H759.835Z" fill="#374A5F"/>
<defs>
<filter id="filter0_d_600_40025" x="35.4602" y="100.966" width="829.08" height="54.477" filterUnits="userSpaceOnUse" color-interpolation-filters="sRGB">
<feFlood flood-opacity="0" result="BackgroundImageFix"/>
<feColorMatrix in="SourceAlpha" type="matrix" values="0 0 0 0 0 0 0 0 0 0 0 0 0 0 0 0 0 0 127 0" result="hardAlpha"/>
<feOffset dy="1.13495"/>
<feGaussianBlur stdDeviation="2.2699"/>
<feComposite in2="hardAlpha" operator="out"/>
<feColorMatrix type="matrix" values="0 0 0 0 0.6 0 0 0 0 0.6 0 0 0 0 0.6 0 0 0 0.3 0"/>
<feBlend mode="normal" in2="BackgroundImageFix" result="effect1_dropShadow_600_40025"/>
<feBlend mode="normal" in="SourceGraphic" in2="effect1_dropShadow_600_40025" result="shape"/>
</filter>
<clipPath id="clip0_600_40025">
<rect width="83.7232" height="23.3495" fill="white" transform="translate(671.599 115.696)"/>
</clipPath>
<clipPath id="clip1_600_40025">
<rect width="20.4291" height="23.8339" fill="white" transform="translate(771.474 115.153)"/>
</clipPath>
<clipPath id="clip2_600_40025">
<rect width="18.7266" height="22.1315" fill="white" transform="translate(772.042 115.721)"/>
</clipPath>
</defs>
</svg>
