<svg width="900" height="271" viewBox="0 0 900 271" fill="none" xmlns="http://www.w3.org/2000/svg">
<rect y="0.248047" width="900" height="270" fill="#374A5F" fill-opacity="0.025"/>
<rect x="0.5" y="0.748047" width="899" height="269" stroke="#374A5F" stroke-opacity="0.1"/>
<path d="M42.448 46.612H53.5L52.942 50.518H52.15C51.646 48.178 51.466 47.53 49.864 47.53H48.874L46.912 56.836C46.84 57.16 46.822 57.394 46.822 57.52C46.822 58.204 47.398 58.366 48.496 58.402L48.316 59.248H42.286L42.466 58.402C43.672 58.348 44.392 58.168 44.608 57.106L46.642 47.53H45.67C44.068 47.53 43.672 48.178 42.142 50.518H41.332L42.448 46.612ZM56.4769 51.688L55.7749 53.974H55.9009C57.1609 51.796 59.1949 49.42 60.9229 49.42C61.8589 49.42 62.2369 49.96 62.2369 50.788C62.2369 51.022 62.1829 51.346 62.1289 51.58L60.7069 56.98C60.6169 57.322 60.5449 57.61 60.5449 57.754C60.5449 57.934 60.6349 58.024 60.7969 58.024C61.1389 58.024 61.6249 57.628 62.3989 56.674L62.8129 57.088C61.6789 58.744 60.7969 59.428 59.7709 59.428C58.9429 59.428 58.4209 58.87 58.4209 58.06C58.4209 57.628 58.4929 57.178 58.6729 56.512L59.9689 51.832C60.0229 51.598 60.0589 51.382 60.0589 51.238C60.0589 50.986 59.9689 50.86 59.7349 50.86C58.7449 50.86 56.1709 53.524 55.3429 56.764L54.7129 59.248H52.5889L55.3429 47.368L54.0829 46.738L54.1909 46.306L57.4489 45.55H57.9169L56.4769 51.688ZM71.717 51.472C71.717 53.56 68.873 54.532 65.867 55.216V55.648C65.867 57.16 66.587 58.15 67.757 58.15C68.819 58.15 69.719 57.538 70.583 56.512L71.051 56.908C69.773 58.726 68.441 59.428 66.947 59.428C64.787 59.428 63.815 57.718 63.815 55.792C63.815 52.642 66.335 49.42 69.431 49.42C70.979 49.42 71.717 50.338 71.717 51.472ZM68.963 50.392C67.577 50.392 66.245 52.318 65.939 54.622C68.603 53.83 69.899 52.966 69.899 51.526C69.899 50.896 69.593 50.392 68.963 50.392ZM78.3311 55.432H78.4571C80.4371 51.472 81.6251 49.42 82.9211 49.42C83.7131 49.42 84.0371 49.996 84.0371 50.626C84.0371 51.49 83.4611 52.03 82.7771 52.354H82.4711C82.4711 52.012 82.3811 51.688 81.9671 51.688C80.9231 51.688 78.8351 54.802 77.7371 59.248H75.6131L77.6111 51.148L76.3871 50.518L76.5131 50.068L79.5911 49.402H80.0951L79.3571 52.3L78.3311 55.432ZM91.6077 51.472C91.6077 53.56 88.7637 54.532 85.7577 55.216V55.648C85.7577 57.16 86.4777 58.15 87.6477 58.15C88.7097 58.15 89.6097 57.538 90.4737 56.512L90.9417 56.908C89.6637 58.726 88.3317 59.428 86.8377 59.428C84.6777 59.428 83.7057 57.718 83.7057 55.792C83.7057 52.642 86.2257 49.42 89.3217 49.42C90.8697 49.42 91.6077 50.338 91.6077 51.472ZM88.8537 50.392C87.4677 50.392 86.1357 52.318 85.8297 54.622C88.4937 53.83 89.7897 52.966 89.7897 51.526C89.7897 50.896 89.4837 50.392 88.8537 50.392ZM95.1403 58.546C95.9863 58.546 96.4363 58.096 96.4363 57.34C96.4363 55.972 93.0523 54.532 93.0523 52.408C93.0523 50.698 94.4923 49.42 96.4723 49.42C97.8943 49.42 98.8663 50.104 98.8663 51.112C98.8663 51.58 98.4523 51.922 98.0203 52.102H97.7143C97.3183 51.04 96.6883 50.356 95.8063 50.356C95.0143 50.356 94.6183 50.752 94.6183 51.436C94.6183 52.66 98.1103 54.28 98.1103 56.332C98.1103 58.24 96.4723 59.428 94.6183 59.428C92.8543 59.428 91.6663 58.564 91.6663 57.466C91.6663 56.89 92.0263 56.44 92.5483 56.224H92.8183C93.2323 57.61 93.9883 58.546 95.1403 58.546ZM106.311 54.802H106.185C104.727 57.628 103.053 59.428 101.451 59.428C100.551 59.428 100.011 58.798 100.011 57.844C100.011 57.52 100.065 57.106 100.173 56.692L101.541 51.148L100.317 50.518L100.443 50.068L103.593 49.42H104.097L102.297 56.656C102.225 56.926 102.171 57.268 102.171 57.538C102.171 57.844 102.261 58.006 102.531 58.006C103.791 58.006 106.077 54.73 106.869 51.688L107.373 49.744L109.533 49.6L107.697 56.98C107.607 57.322 107.535 57.61 107.535 57.754C107.535 57.934 107.625 58.024 107.787 58.024C108.129 58.024 108.633 57.628 109.407 56.674L109.821 57.088C108.687 58.744 107.823 59.428 106.797 59.428C105.969 59.428 105.537 58.852 105.537 57.988C105.537 57.448 105.771 56.548 106.311 54.802ZM113.395 47.368L112.135 46.738L112.261 46.306L115.501 45.55H115.987L113.287 56.98C113.197 57.34 113.161 57.61 113.161 57.754C113.161 57.934 113.251 58.024 113.413 58.024C113.755 58.024 114.241 57.628 115.015 56.674L115.429 57.088C114.313 58.744 113.431 59.428 112.387 59.428C111.577 59.428 111.055 58.87 111.055 58.06C111.055 57.628 111.127 57.178 111.289 56.512L113.395 47.368ZM120.382 50.572L118.996 56.602C118.888 57.07 118.834 57.358 118.834 57.61C118.834 57.88 118.942 58.06 119.23 58.06C119.86 58.06 120.562 57.484 121.642 56.332L122.092 56.782C120.814 58.456 119.428 59.428 118.204 59.428C117.142 59.428 116.71 58.762 116.71 57.862C116.71 57.43 116.782 57.034 116.908 56.494L118.276 50.572H116.962L117.142 49.942C118.456 49.564 119.464 48.736 120.418 47.494H121.138L120.634 49.6H122.83L122.596 50.572H120.382ZM126.079 58.546C126.925 58.546 127.375 58.096 127.375 57.34C127.375 55.972 123.991 54.532 123.991 52.408C123.991 50.698 125.431 49.42 127.411 49.42C128.833 49.42 129.805 50.104 129.805 51.112C129.805 51.58 129.391 51.922 128.959 52.102H128.653C128.257 51.04 127.627 50.356 126.745 50.356C125.953 50.356 125.557 50.752 125.557 51.436C125.557 52.66 129.049 54.28 129.049 56.332C129.049 58.24 127.411 59.428 125.557 59.428C123.793 59.428 122.605 58.564 122.605 57.466C122.605 56.89 122.965 56.44 123.487 56.224H123.757C124.171 57.61 124.927 58.546 126.079 58.546Z" fill="#374A5F"/>
<g filter="url(#filter0_d_600_40179)">
<rect x="40" y="104.248" width="820" height="37.5833" rx="3" fill="white"/>
<rect x="40.2847" y="104.533" width="819.43" height="37.0139" rx="2.71528" stroke="#E5E5E5" stroke-width="0.569444"/>
<path d="M87.6398 129.87C86.0795 129.87 84.8675 129.435 84.0038 128.566C83.1401 127.697 82.7083 126.459 82.7083 124.851C82.7083 123.191 83.1085 121.918 83.9088 121.031C84.7091 120.144 85.8506 119.7 87.3332 119.7C88.7453 119.7 89.8357 120.086 90.6043 120.859C91.373 121.631 91.758 122.742 91.7595 124.192V125.699H85.9773C85.9769 125.946 86.0281 126.189 86.1273 126.412C86.2266 126.636 86.3714 126.833 86.5516 126.991C86.9758 127.325 87.4989 127.491 88.0285 127.46C88.5554 127.464 89.0811 127.407 89.596 127.29C90.131 127.158 90.6507 126.965 91.1463 126.715V129.15C90.6513 129.417 90.1217 129.607 89.5744 129.714C88.9353 129.826 88.2878 129.879 87.6398 129.87ZM87.4498 122.006C87.096 121.996 86.7524 122.131 86.4933 122.384C86.208 122.706 86.0472 123.128 86.042 123.568H88.8209C88.8296 123.154 88.6928 122.751 88.4365 122.436C88.3119 122.293 88.159 122.181 87.9885 122.107C87.8181 122.033 87.6342 121.998 87.4498 122.006Z" fill="#231F20"/>
<path d="M99.6987 129.696L99.079 128.397H99.0121C98.6624 128.889 98.2057 129.287 97.6799 129.558C97.1219 129.786 96.5252 129.892 95.9266 129.87C95.0457 129.87 94.3512 129.592 93.8431 129.037C93.3349 128.482 93.0809 127.702 93.0809 126.697C93.0809 125.652 93.4285 124.871 94.1237 124.362C94.819 123.853 95.8252 123.561 97.1466 123.497L98.7098 123.445V123.307C98.7098 122.497 98.3298 122.094 97.5697 122.094C96.8846 122.094 96.0159 122.337 94.9637 122.823L94.0287 120.585C95.1213 119.997 96.5002 119.702 98.1657 119.7C99.3662 119.7 100.297 120.012 100.957 120.637C101.618 121.262 101.947 122.134 101.944 123.255V129.696H99.6987ZM97.2999 127.478C97.6705 127.486 98.0302 127.346 98.306 127.087C98.4426 126.96 98.5508 126.804 98.6229 126.629C98.6949 126.453 98.729 126.263 98.7227 126.073V125.31L97.9778 125.344C96.9141 125.385 96.3822 125.795 96.3822 126.575C96.3822 127.177 96.6881 127.478 97.2999 127.478Z" fill="#231F20"/>
<path d="M109.799 119.7C110.068 119.7 110.336 119.723 110.6 119.77L110.784 119.804L110.495 123.004C110.133 122.924 109.763 122.889 109.393 122.9C108.687 122.9 108.176 123.07 107.854 123.407C107.685 123.605 107.556 123.836 107.474 124.087C107.391 124.338 107.358 124.604 107.375 124.869V129.696H104.136V119.874H106.543L107.049 121.443H107.206C107.472 120.927 107.861 120.493 108.335 120.182C108.768 119.876 109.277 119.709 109.799 119.7Z" fill="#231F20"/>
<path d="M116.68 127.191C117.216 127.17 117.744 127.056 118.244 126.854V129.325C117.844 129.51 117.427 129.651 117 129.746C116.543 129.835 116.079 129.877 115.614 129.871C114.528 129.871 113.745 129.591 113.265 129.033C112.784 128.475 112.544 127.619 112.546 126.465V122.414H111.412V121.036L112.85 119.97L113.686 117.906H115.804V119.875H118.103V122.414H115.804V126.238C115.804 126.874 116.096 127.191 116.68 127.191Z" fill="#231F20"/>
<path d="M125.779 129.696V124.339C125.779 123.022 125.407 122.364 124.663 122.364C124.425 122.351 124.188 122.409 123.981 122.533C123.773 122.656 123.604 122.839 123.493 123.061C123.242 123.525 123.117 124.298 123.117 125.38V129.696H119.878V116.206H123.117V118.123C123.117 118.989 123.072 119.977 122.983 121.087H123.132C123.393 120.626 123.775 120.252 124.233 120.012C124.698 119.795 125.203 119.689 125.712 119.7C126.761 119.7 127.576 120.017 128.156 120.651C128.736 121.284 129.028 122.17 129.031 123.307V129.696H125.779Z" fill="#231F20"/>
<path d="M131.628 129.866C132.48 129.866 133.17 129.143 133.17 128.251C133.17 127.358 132.48 126.635 131.628 126.635C130.777 126.635 130.087 127.358 130.087 128.251C130.087 129.143 130.777 129.866 131.628 129.866Z" fill="#40DDA6"/>
<path d="M493.181 127.608H492.118V124.672H489.12V127.608H488.052V121.104H489.12V123.765H492.118V121.104H493.181V127.608ZM499.156 125.135C499.156 125.544 499.103 125.907 498.996 126.225C498.889 126.542 498.733 126.811 498.529 127.03C498.324 127.247 498.078 127.413 497.79 127.528C497.503 127.641 497.178 127.697 496.816 127.697C496.478 127.697 496.168 127.641 495.886 127.528C495.604 127.413 495.36 127.247 495.152 127.03C494.947 126.811 494.789 126.542 494.676 126.225C494.563 125.907 494.507 125.544 494.507 125.135C494.507 124.592 494.6 124.132 494.787 123.756C494.977 123.376 495.247 123.087 495.597 122.888C495.947 122.69 496.364 122.59 496.847 122.59C497.301 122.59 497.701 122.69 498.048 122.888C498.395 123.087 498.667 123.376 498.862 123.756C499.058 124.135 499.156 124.595 499.156 125.135ZM495.584 125.135C495.584 125.494 495.627 125.801 495.713 126.056C495.802 126.311 495.938 126.507 496.122 126.643C496.306 126.776 496.543 126.843 496.834 126.843C497.124 126.843 497.362 126.776 497.546 126.643C497.729 126.507 497.864 126.311 497.95 126.056C498.036 125.801 498.079 125.494 498.079 125.135C498.079 124.776 498.036 124.472 497.95 124.223C497.864 123.971 497.729 123.779 497.546 123.649C497.362 123.516 497.123 123.449 496.829 123.449C496.396 123.449 496.08 123.594 495.882 123.885C495.683 124.175 495.584 124.592 495.584 125.135ZM505.923 122.59C506.474 122.59 506.89 122.733 507.168 123.017C507.45 123.302 507.591 123.759 507.591 124.387V127.608H506.545V124.574C506.545 124.201 506.473 123.919 506.327 123.729C506.182 123.539 505.961 123.444 505.665 123.444C505.249 123.444 504.95 123.578 504.766 123.845C504.585 124.109 504.495 124.493 504.495 124.997V127.608H503.449V124.574C503.449 124.325 503.416 124.118 503.351 123.951C503.289 123.782 503.193 123.656 503.062 123.573C502.932 123.487 502.767 123.444 502.568 123.444C502.281 123.444 502.051 123.51 501.879 123.64C501.71 123.771 501.588 123.963 501.514 124.218C501.44 124.471 501.403 124.78 501.403 125.148V127.608H500.357V122.684H501.171L501.318 123.346H501.376C501.477 123.174 501.601 123.034 501.75 122.924C501.901 122.811 502.069 122.728 502.252 122.675C502.436 122.618 502.628 122.59 502.826 122.59C503.194 122.59 503.504 122.655 503.756 122.786C504.008 122.913 504.197 123.109 504.321 123.373H504.401C504.555 123.106 504.77 122.909 505.046 122.781C505.322 122.654 505.614 122.59 505.923 122.59ZM511.012 122.59C511.451 122.59 511.828 122.681 512.142 122.862C512.456 123.042 512.698 123.299 512.867 123.631C513.036 123.963 513.121 124.361 513.121 124.823V125.384H509.833C509.845 125.862 509.973 126.229 510.216 126.487C510.462 126.745 510.806 126.874 511.248 126.874C511.562 126.874 511.844 126.845 512.093 126.785C512.345 126.723 512.605 126.633 512.872 126.514V127.364C512.625 127.479 512.375 127.564 512.12 127.617C511.865 127.671 511.559 127.697 511.203 127.697C510.72 127.697 510.294 127.604 509.927 127.417C509.562 127.227 509.276 126.946 509.068 126.572C508.863 126.198 508.761 125.734 508.761 125.179C508.761 124.628 508.854 124.159 509.041 123.774C509.228 123.388 509.491 123.094 509.829 122.893C510.167 122.691 510.561 122.59 511.012 122.59ZM511.012 123.378C510.683 123.378 510.416 123.484 510.211 123.698C510.01 123.911 509.891 124.224 509.855 124.637H512.098C512.095 124.39 512.053 124.172 511.973 123.983C511.896 123.793 511.777 123.645 511.617 123.538C511.46 123.431 511.258 123.378 511.012 123.378Z" fill="#111111"/>
<path d="M554.867 127.608H551.183V121.104H554.867V122.003H552.251V123.769H554.702V124.663H552.251V126.705H554.867V127.608ZM557.291 127.608L555.418 122.684H556.526L557.54 125.575C557.606 125.759 557.665 125.958 557.718 126.171C557.772 126.385 557.809 126.564 557.829 126.71H557.865C557.886 126.558 557.926 126.378 557.985 126.167C558.044 125.953 558.105 125.756 558.168 125.575L559.182 122.684H560.285L558.412 127.608H557.291ZM562.994 122.59C563.433 122.59 563.81 122.681 564.124 122.862C564.439 123.042 564.681 123.299 564.85 123.631C565.019 123.963 565.103 124.361 565.103 124.823V125.384H561.816C561.827 125.862 561.955 126.229 562.198 126.487C562.444 126.745 562.788 126.874 563.23 126.874C563.545 126.874 563.826 126.845 564.076 126.785C564.328 126.723 564.587 126.633 564.854 126.514V127.364C564.608 127.479 564.357 127.564 564.102 127.617C563.847 127.671 563.542 127.697 563.186 127.697C562.702 127.697 562.277 127.604 561.909 127.417C561.544 127.227 561.258 126.946 561.05 126.572C560.846 126.198 560.743 125.734 560.743 125.179C560.743 124.628 560.837 124.159 561.024 123.774C561.211 123.388 561.473 123.094 561.811 122.893C562.149 122.691 562.544 122.59 562.994 122.59ZM562.994 123.378C562.665 123.378 562.398 123.484 562.194 123.698C561.992 123.911 561.873 124.224 561.838 124.637H564.08C564.077 124.39 564.035 124.172 563.955 123.983C563.878 123.793 563.76 123.645 563.6 123.538C563.442 123.431 563.241 123.378 562.994 123.378ZM568.849 122.59C569.404 122.59 569.835 122.734 570.144 123.022C570.455 123.306 570.611 123.765 570.611 124.396V127.608H569.565V124.592C569.565 124.21 569.487 123.923 569.33 123.734C569.172 123.541 568.929 123.444 568.6 123.444C568.122 123.444 567.79 123.591 567.603 123.885C567.42 124.178 567.328 124.604 567.328 125.162V127.608H566.282V122.684H567.096L567.243 123.351H567.301C567.408 123.179 567.54 123.038 567.697 122.928C567.857 122.816 568.035 122.731 568.231 122.675C568.429 122.618 568.636 122.59 568.849 122.59ZM573.907 126.852C574.044 126.852 574.179 126.84 574.312 126.817C574.446 126.79 574.567 126.759 574.677 126.723V127.515C574.561 127.565 574.412 127.608 574.228 127.644C574.044 127.68 573.852 127.697 573.654 127.697C573.375 127.697 573.124 127.651 572.902 127.559C572.679 127.465 572.503 127.303 572.373 127.075C572.242 126.846 572.177 126.53 572.177 126.127V123.48H571.505V123.013L572.226 122.644L572.568 121.589H573.227V122.684H574.637V123.48H573.227V126.114C573.227 126.363 573.289 126.548 573.414 126.67C573.538 126.791 573.703 126.852 573.907 126.852ZM579.98 121.104C580.54 121.104 581.003 121.172 581.368 121.309C581.736 121.445 582.009 121.653 582.187 121.932C582.367 122.211 582.458 122.565 582.458 122.995C582.458 123.315 582.399 123.588 582.28 123.814C582.161 124.039 582.006 124.226 581.813 124.374C581.62 124.522 581.414 124.641 581.194 124.73L583.041 127.608H581.835L580.265 125.001H579.219V127.608H578.151V121.104H579.98ZM579.909 121.994H579.219V124.121H579.958C580.453 124.121 580.812 124.029 581.034 123.845C581.26 123.661 581.372 123.389 581.372 123.031C581.372 122.654 581.252 122.387 581.012 122.23C580.775 122.073 580.407 121.994 579.909 121.994ZM585.826 122.59C586.265 122.59 586.641 122.681 586.956 122.862C587.27 123.042 587.512 123.299 587.681 123.631C587.85 123.963 587.934 124.361 587.934 124.823V125.384H584.647C584.659 125.862 584.786 126.229 585.029 126.487C585.275 126.745 585.62 126.874 586.061 126.874C586.376 126.874 586.658 126.845 586.907 126.785C587.159 126.723 587.418 126.633 587.685 126.514V127.364C587.439 127.479 587.188 127.564 586.933 127.617C586.678 127.671 586.373 127.697 586.017 127.697C585.534 127.697 585.108 127.604 584.74 127.417C584.375 127.227 584.089 126.946 583.882 126.572C583.677 126.198 583.575 125.734 583.575 125.179C583.575 124.628 583.668 124.159 583.855 123.774C584.042 123.388 584.304 123.094 584.642 122.893C584.98 122.691 585.375 122.59 585.826 122.59ZM585.826 123.378C585.496 123.378 585.23 123.484 585.025 123.698C584.823 123.911 584.705 124.224 584.669 124.637H586.911C586.908 124.39 586.867 124.172 586.787 123.983C586.709 123.793 586.591 123.645 586.431 123.538C586.273 123.431 586.072 123.378 585.826 123.378ZM592.423 126.203C592.423 126.526 592.345 126.799 592.187 127.021C592.03 127.244 591.8 127.413 591.498 127.528C591.198 127.641 590.831 127.697 590.395 127.697C590.051 127.697 589.754 127.672 589.505 127.622C589.259 127.574 589.026 127.5 588.806 127.399V126.496C589.041 126.606 589.303 126.701 589.594 126.781C589.887 126.861 590.165 126.901 590.426 126.901C590.77 126.901 591.017 126.848 591.169 126.741C591.32 126.631 591.396 126.486 591.396 126.305C591.396 126.198 591.364 126.103 591.302 126.02C591.243 125.934 591.13 125.847 590.964 125.758C590.801 125.666 590.561 125.556 590.243 125.428C589.932 125.304 589.669 125.179 589.456 125.055C589.242 124.93 589.081 124.78 588.971 124.605C588.861 124.428 588.806 124.201 588.806 123.925C588.806 123.489 588.978 123.158 589.322 122.933C589.669 122.704 590.128 122.59 590.697 122.59C591 122.59 591.284 122.621 591.551 122.684C591.821 122.743 592.085 122.83 592.343 122.946L592.014 123.734C591.791 123.636 591.568 123.556 591.342 123.493C591.12 123.428 590.893 123.395 590.661 123.395C590.392 123.395 590.185 123.437 590.043 123.52C589.904 123.603 589.834 123.722 589.834 123.876C589.834 123.992 589.868 124.089 589.936 124.169C590.005 124.25 590.122 124.33 590.288 124.41C590.457 124.49 590.691 124.589 590.991 124.708C591.284 124.82 591.538 124.939 591.751 125.064C591.968 125.185 592.134 125.335 592.25 125.513C592.365 125.691 592.423 125.921 592.423 126.203ZM597.913 125.135C597.913 125.544 597.86 125.907 597.753 126.225C597.646 126.542 597.49 126.811 597.286 127.03C597.081 127.247 596.835 127.413 596.547 127.528C596.26 127.641 595.935 127.697 595.573 127.697C595.235 127.697 594.925 127.641 594.643 127.528C594.361 127.413 594.117 127.247 593.909 127.03C593.704 126.811 593.546 126.542 593.433 126.225C593.32 125.907 593.264 125.544 593.264 125.135C593.264 124.592 593.357 124.132 593.544 123.756C593.734 123.376 594.004 123.087 594.354 122.888C594.704 122.69 595.121 122.59 595.604 122.59C596.058 122.59 596.458 122.69 596.805 122.888C597.152 123.087 597.424 123.376 597.619 123.756C597.815 124.135 597.913 124.595 597.913 125.135ZM594.341 125.135C594.341 125.494 594.384 125.801 594.47 126.056C594.559 126.311 594.695 126.507 594.879 126.643C595.063 126.776 595.3 126.843 595.591 126.843C595.881 126.843 596.119 126.776 596.303 126.643C596.486 126.507 596.621 126.311 596.707 126.056C596.793 125.801 596.836 125.494 596.836 125.135C596.836 124.776 596.793 124.472 596.707 124.223C596.621 123.971 596.486 123.779 596.303 123.649C596.119 123.516 595.88 123.449 595.586 123.449C595.153 123.449 594.837 123.594 594.639 123.885C594.44 124.175 594.341 124.592 594.341 125.135ZM603.407 122.684V127.608H602.584L602.442 126.946H602.384C602.28 127.115 602.148 127.255 601.988 127.368C601.828 127.478 601.65 127.559 601.454 127.613C601.258 127.669 601.052 127.697 600.836 127.697C600.465 127.697 600.148 127.635 599.884 127.511C599.623 127.383 599.423 127.187 599.283 126.923C599.144 126.659 599.074 126.318 599.074 125.9V122.684H600.124V125.704C600.124 126.087 600.201 126.373 600.355 126.563C600.513 126.753 600.756 126.848 601.085 126.848C601.402 126.848 601.654 126.782 601.841 126.652C602.028 126.521 602.16 126.329 602.237 126.074C602.317 125.819 602.357 125.506 602.357 125.135V122.684H603.407ZM607.402 122.59C607.485 122.59 607.576 122.595 607.674 122.604C607.771 122.612 607.856 122.624 607.927 122.639L607.829 123.618C607.767 123.6 607.69 123.587 607.598 123.578C607.509 123.569 607.429 123.564 607.358 123.564C607.171 123.564 606.993 123.596 606.824 123.658C606.655 123.717 606.505 123.809 606.375 123.934C606.244 124.055 606.142 124.208 606.068 124.392C605.993 124.576 605.956 124.789 605.956 125.033V127.608H604.906V122.684H605.725L605.867 123.551H605.916C606.014 123.376 606.136 123.216 606.281 123.071C606.426 122.925 606.593 122.81 606.779 122.724C606.969 122.635 607.177 122.59 607.402 122.59ZM610.823 127.697C610.358 127.697 609.954 127.607 609.613 127.426C609.272 127.245 609.01 126.968 608.826 126.594C608.642 126.22 608.55 125.746 608.55 125.17C608.55 124.571 608.651 124.082 608.853 123.702C609.054 123.323 609.333 123.042 609.689 122.862C610.048 122.681 610.459 122.59 610.921 122.59C611.215 122.59 611.48 122.62 611.718 122.679C611.958 122.735 612.161 122.805 612.327 122.888L612.016 123.725C611.835 123.65 611.649 123.588 611.46 123.538C611.27 123.487 611.087 123.462 610.912 123.462C610.625 123.462 610.384 123.526 610.192 123.653C610.002 123.781 609.859 123.971 609.765 124.223C609.673 124.475 609.627 124.788 609.627 125.162C609.627 125.523 609.674 125.829 609.769 126.078C609.864 126.324 610.005 126.511 610.192 126.639C610.378 126.763 610.608 126.825 610.881 126.825C611.151 126.825 611.393 126.793 611.606 126.728C611.82 126.662 612.022 126.578 612.211 126.474V127.382C612.025 127.488 611.824 127.567 611.611 127.617C611.397 127.671 611.135 127.697 610.823 127.697ZM615.33 122.59C615.769 122.59 616.146 122.681 616.46 122.862C616.774 123.042 617.016 123.299 617.185 123.631C617.354 123.963 617.439 124.361 617.439 124.823V125.384H614.151C614.163 125.862 614.29 126.229 614.534 126.487C614.78 126.745 615.124 126.874 615.566 126.874C615.88 126.874 616.162 126.845 616.411 126.785C616.663 126.723 616.923 126.633 617.19 126.514V127.364C616.943 127.479 616.693 127.564 616.438 127.617C616.183 127.671 615.877 127.697 615.521 127.697C615.038 127.697 614.612 127.604 614.244 127.417C613.88 127.227 613.593 126.946 613.386 126.572C613.181 126.198 613.079 125.734 613.079 125.179C613.079 124.628 613.172 124.159 613.359 123.774C613.546 123.388 613.808 123.094 614.147 122.893C614.485 122.691 614.879 122.59 615.33 122.59ZM615.33 123.378C615.001 123.378 614.734 123.484 614.529 123.698C614.328 123.911 614.209 124.224 614.173 124.637H616.415C616.413 124.39 616.371 124.172 616.291 123.983C616.214 123.793 616.095 123.645 615.935 123.538C615.778 123.431 615.576 123.378 615.33 123.378ZM621.928 126.203C621.928 126.526 621.849 126.799 621.692 127.021C621.535 127.244 621.305 127.413 621.002 127.528C620.703 127.641 620.335 127.697 619.899 127.697C619.555 127.697 619.258 127.672 619.009 127.622C618.763 127.574 618.53 127.5 618.311 127.399V126.496C618.545 126.606 618.807 126.701 619.098 126.781C619.392 126.861 619.669 126.901 619.93 126.901C620.274 126.901 620.522 126.848 620.673 126.741C620.824 126.631 620.9 126.486 620.9 126.305C620.9 126.198 620.869 126.103 620.806 126.02C620.747 125.934 620.634 125.847 620.468 125.758C620.305 125.666 620.065 125.556 619.748 125.428C619.436 125.304 619.174 125.179 618.96 125.055C618.747 124.93 618.585 124.78 618.475 124.605C618.366 124.428 618.311 124.201 618.311 123.925C618.311 123.489 618.483 123.158 618.827 122.933C619.174 122.704 619.632 122.59 620.201 122.59C620.504 122.59 620.789 122.621 621.056 122.684C621.325 122.743 621.589 122.83 621.847 122.946L621.518 123.734C621.296 123.636 621.072 123.556 620.846 123.493C620.624 123.428 620.397 123.395 620.166 123.395C619.896 123.395 619.69 123.437 619.547 123.52C619.408 123.603 619.338 123.722 619.338 123.876C619.338 123.992 619.372 124.089 619.441 124.169C619.509 124.25 619.626 124.33 619.792 124.41C619.961 124.49 620.195 124.589 620.495 124.708C620.789 124.82 621.042 124.939 621.256 125.064C621.472 125.185 621.638 125.335 621.754 125.513C621.87 125.691 621.928 125.921 621.928 126.203Z" fill="black"/>
<path d="M629.722 125.192L631.601 123.312L632.138 123.849L629.722 126.265L627.306 123.849L627.843 123.312L629.722 125.192Z" fill="black"/>
<rect x="657.056" y="111.914" width="86.7778" height="22.25" rx="1.13889" fill="#F2F4F8"/>
<path d="M672.119 127.608L670.246 122.176H670.206C670.215 122.298 670.225 122.464 670.237 122.675C670.249 122.885 670.259 123.111 670.268 123.351C670.277 123.591 670.282 123.821 670.282 124.04V127.608H669.312V121.104H670.811L672.613 126.296H672.64L674.504 121.104H675.998V127.608H674.98V123.987C674.98 123.788 674.983 123.573 674.989 123.342C674.997 123.111 675.006 122.891 675.015 122.684C675.027 122.476 675.036 122.31 675.042 122.185H675.006L673.062 127.608H672.119ZM676.861 122.684H678L679.01 125.495C679.055 125.623 679.095 125.749 679.13 125.873C679.169 125.995 679.202 126.115 679.228 126.234C679.258 126.352 679.282 126.471 679.299 126.59H679.326C679.356 126.435 679.397 126.263 679.451 126.074C679.507 125.881 679.569 125.688 679.637 125.495L680.607 122.684H681.733L679.62 128.285C679.498 128.605 679.348 128.878 679.17 129.103C678.995 129.332 678.788 129.504 678.548 129.619C678.307 129.738 678.033 129.797 677.725 129.797C677.576 129.797 677.447 129.788 677.337 129.771C677.228 129.756 677.134 129.739 677.057 129.722V128.885C677.119 128.9 677.198 128.913 677.293 128.925C677.388 128.937 677.486 128.943 677.587 128.943C677.773 128.943 677.935 128.906 678.072 128.832C678.208 128.758 678.324 128.652 678.419 128.516C678.513 128.382 678.592 128.23 678.654 128.058L678.828 127.595L676.861 122.684ZM690.234 124.294C690.234 125.027 690.098 125.639 689.825 126.131C689.552 126.621 689.156 126.99 688.637 127.239C688.118 127.485 687.493 127.608 686.76 127.608H684.954V121.104H686.956C687.629 121.104 688.21 121.226 688.7 121.469C689.189 121.709 689.567 122.067 689.834 122.541C690.101 123.013 690.234 123.597 690.234 124.294ZM689.122 124.325C689.122 123.791 689.038 123.352 688.869 123.008C688.703 122.664 688.456 122.409 688.13 122.243C687.807 122.074 687.408 121.99 686.933 121.99H686.021V126.714H686.778C687.564 126.714 688.151 126.514 688.54 126.114C688.928 125.713 689.122 125.117 689.122 124.325ZM693.46 122.59C694.083 122.59 694.553 122.728 694.87 123.004C695.19 123.28 695.351 123.71 695.351 124.294V127.608H694.608L694.407 126.91H694.372C694.232 127.088 694.089 127.235 693.94 127.35C693.792 127.466 693.62 127.552 693.424 127.608C693.231 127.668 692.996 127.697 692.717 127.697C692.423 127.697 692.161 127.644 691.929 127.537C691.698 127.427 691.516 127.261 691.382 127.039C691.249 126.817 691.182 126.535 691.182 126.194C691.182 125.687 691.37 125.305 691.747 125.05C692.127 124.795 692.699 124.654 693.464 124.628L694.318 124.597V124.339C694.318 123.997 694.238 123.754 694.078 123.609C693.921 123.464 693.699 123.391 693.411 123.391C693.165 123.391 692.926 123.427 692.695 123.498C692.463 123.569 692.238 123.656 692.018 123.76L691.68 123.022C691.921 122.894 692.193 122.79 692.499 122.71C692.807 122.63 693.128 122.59 693.46 122.59ZM694.314 125.255L693.678 125.277C693.156 125.295 692.79 125.384 692.579 125.544C692.368 125.704 692.263 125.924 692.263 126.203C692.263 126.446 692.336 126.624 692.481 126.736C692.626 126.846 692.818 126.901 693.055 126.901C693.417 126.901 693.716 126.799 693.954 126.594C694.194 126.386 694.314 126.082 694.314 125.682V125.255ZM700.124 126.203C700.124 126.526 700.046 126.799 699.888 127.021C699.731 127.244 699.501 127.413 699.199 127.528C698.899 127.641 698.531 127.697 698.096 127.697C697.751 127.697 697.455 127.672 697.206 127.622C696.96 127.574 696.727 127.5 696.507 127.399V126.496C696.742 126.606 697.004 126.701 697.295 126.781C697.588 126.861 697.866 126.901 698.127 126.901C698.471 126.901 698.718 126.848 698.87 126.741C699.021 126.631 699.096 126.486 699.096 126.305C699.096 126.198 699.065 126.103 699.003 126.02C698.944 125.934 698.831 125.847 698.665 125.758C698.502 125.666 698.262 125.556 697.944 125.428C697.633 125.304 697.37 125.179 697.157 125.055C696.943 124.93 696.782 124.78 696.672 124.605C696.562 124.428 696.507 124.201 696.507 123.925C696.507 123.489 696.679 123.158 697.023 122.933C697.37 122.704 697.829 122.59 698.398 122.59C698.701 122.59 698.985 122.621 699.252 122.684C699.522 122.743 699.786 122.83 700.044 122.946L699.715 123.734C699.492 123.636 699.268 123.556 699.043 123.493C698.821 123.428 698.594 123.395 698.362 123.395C698.093 123.395 697.886 123.437 697.744 123.52C697.605 123.603 697.535 123.722 697.535 123.876C697.535 123.992 697.569 124.089 697.637 124.169C697.705 124.25 697.823 124.33 697.989 124.41C698.158 124.49 698.392 124.589 698.692 124.708C698.985 124.82 699.239 124.939 699.452 125.064C699.669 125.185 699.835 125.335 699.951 125.513C700.066 125.691 700.124 125.921 700.124 126.203ZM702.3 120.686V122.426C702.3 122.606 702.294 122.783 702.282 122.955C702.273 123.127 702.263 123.26 702.251 123.355H702.309C702.412 123.183 702.54 123.042 702.691 122.933C702.842 122.82 703.011 122.735 703.198 122.679C703.388 122.623 703.59 122.595 703.803 122.595C704.18 122.595 704.5 122.658 704.764 122.786C705.028 122.91 705.23 123.105 705.369 123.369C705.512 123.633 705.583 123.975 705.583 124.396V127.608H704.537V124.592C704.537 124.21 704.459 123.923 704.302 123.734C704.144 123.541 703.901 123.444 703.572 123.444C703.255 123.444 703.003 123.511 702.816 123.645C702.632 123.775 702.5 123.969 702.42 124.227C702.34 124.482 702.3 124.794 702.3 125.162V127.608H701.254V120.686H702.3ZM708.092 120.686V122.354C708.092 122.547 708.086 122.737 708.074 122.924C708.065 123.108 708.056 123.252 708.047 123.355H708.092C708.225 123.142 708.411 122.962 708.648 122.817C708.888 122.669 709.195 122.595 709.569 122.595C710.153 122.595 710.623 122.81 710.979 123.24C711.335 123.667 711.513 124.3 711.513 125.139C711.513 125.697 711.431 126.166 711.268 126.545C711.105 126.925 710.875 127.212 710.579 127.408C710.285 127.601 709.94 127.697 709.542 127.697C709.169 127.697 708.866 127.629 708.635 127.493C708.406 127.353 708.227 127.192 708.096 127.008H708.021L707.829 127.608H707.046V120.686H708.092ZM709.293 123.444C708.997 123.444 708.761 123.504 708.586 123.622C708.414 123.741 708.289 123.919 708.212 124.156C708.135 124.39 708.095 124.689 708.092 125.05V125.144C708.092 125.692 708.178 126.112 708.35 126.403C708.525 126.693 708.842 126.839 709.302 126.839C709.667 126.839 709.947 126.692 710.143 126.398C710.339 126.102 710.436 125.678 710.436 125.126C710.436 124.568 710.339 124.149 710.143 123.867C709.95 123.585 709.667 123.444 709.293 123.444ZM717.083 125.135C717.083 125.544 717.03 125.907 716.923 126.225C716.816 126.542 716.66 126.811 716.456 127.03C716.251 127.247 716.005 127.413 715.717 127.528C715.429 127.641 715.105 127.697 714.743 127.697C714.405 127.697 714.095 127.641 713.813 127.528C713.531 127.413 713.287 127.247 713.079 127.03C712.874 126.811 712.716 126.542 712.603 126.225C712.49 125.907 712.434 125.544 712.434 125.135C712.434 124.592 712.527 124.132 712.714 123.756C712.904 123.376 713.174 123.087 713.524 122.888C713.874 122.69 714.291 122.59 714.774 122.59C715.228 122.59 715.628 122.69 715.975 122.888C716.322 123.087 716.594 123.376 716.789 123.756C716.985 124.135 717.083 124.595 717.083 125.135ZM713.511 125.135C713.511 125.494 713.554 125.801 713.64 126.056C713.729 126.311 713.865 126.507 714.049 126.643C714.233 126.776 714.47 126.843 714.761 126.843C715.051 126.843 715.289 126.776 715.472 126.643C715.656 126.507 715.791 126.311 715.877 126.056C715.963 125.801 716.006 125.494 716.006 125.135C716.006 124.776 715.963 124.472 715.877 124.223C715.791 123.971 715.656 123.779 715.472 123.649C715.289 123.516 715.05 123.449 714.756 123.449C714.323 123.449 714.007 123.594 713.809 123.885C713.61 124.175 713.511 124.592 713.511 125.135ZM720.215 122.59C720.838 122.59 721.308 122.728 721.625 123.004C721.945 123.28 722.106 123.71 722.106 124.294V127.608H721.363L721.162 126.91H721.127C720.987 127.088 720.844 127.235 720.695 127.35C720.547 127.466 720.375 127.552 720.179 127.608C719.986 127.668 719.751 127.697 719.472 127.697C719.178 127.697 718.916 127.644 718.684 127.537C718.453 127.427 718.271 127.261 718.137 127.039C718.004 126.817 717.937 126.535 717.937 126.194C717.937 125.687 718.125 125.305 718.502 125.05C718.882 124.795 719.454 124.654 720.219 124.628L721.073 124.597V124.339C721.073 123.997 720.993 123.754 720.833 123.609C720.676 123.464 720.454 123.391 720.166 123.391C719.92 123.391 719.681 123.427 719.45 123.498C719.218 123.569 718.993 123.656 718.773 123.76L718.435 123.022C718.676 122.894 718.948 122.79 719.254 122.71C719.562 122.63 719.883 122.59 720.215 122.59ZM721.069 125.255L720.433 125.277C719.911 125.295 719.545 125.384 719.334 125.544C719.123 125.704 719.018 125.924 719.018 126.203C719.018 126.446 719.091 126.624 719.236 126.736C719.381 126.846 719.573 126.901 719.81 126.901C720.172 126.901 720.471 126.799 720.709 126.594C720.949 126.386 721.069 126.082 721.069 125.682V125.255ZM726.065 122.59C726.148 122.59 726.239 122.595 726.336 122.604C726.434 122.612 726.519 122.624 726.59 122.639L726.492 123.618C726.43 123.6 726.353 123.587 726.261 123.578C726.172 123.569 726.092 123.564 726.021 123.564C725.834 123.564 725.656 123.596 725.487 123.658C725.318 123.717 725.168 123.809 725.037 123.934C724.907 124.055 724.805 124.208 724.73 124.392C724.656 124.576 724.619 124.789 724.619 125.033V127.608H723.569V122.684H724.388L724.53 123.551H724.579C724.677 123.376 724.799 123.216 724.944 123.071C725.089 122.925 725.255 122.81 725.442 122.724C725.632 122.635 725.84 122.59 726.065 122.59ZM729.157 127.697C728.57 127.697 728.098 127.484 727.742 127.057C727.389 126.627 727.213 125.993 727.213 125.157C727.213 124.312 727.392 123.673 727.751 123.24C728.113 122.807 728.589 122.59 729.179 122.59C729.428 122.59 729.646 122.624 729.833 122.692C730.02 122.758 730.18 122.847 730.314 122.959C730.45 123.072 730.566 123.198 730.661 123.338H730.71C730.695 123.246 730.677 123.114 730.656 122.942C730.638 122.767 730.629 122.605 730.629 122.457V120.686H731.679V127.608H730.861L730.674 126.937H730.629C730.54 127.079 730.428 127.208 730.291 127.324C730.158 127.436 729.998 127.527 729.811 127.595C729.627 127.663 729.409 127.697 729.157 127.697ZM729.451 126.848C729.898 126.848 730.214 126.719 730.398 126.461C730.582 126.203 730.677 125.816 730.683 125.299V125.162C730.683 124.61 730.594 124.187 730.416 123.894C730.238 123.597 729.913 123.449 729.442 123.449C729.065 123.449 728.777 123.602 728.579 123.907C728.383 124.21 728.285 124.632 728.285 125.175C728.285 125.718 728.383 126.133 728.579 126.421C728.777 126.705 729.068 126.848 729.451 126.848Z" fill="black"/>
<mask id="mask0_600_40179" style="mask-type:alpha" maskUnits="userSpaceOnUse" x="796" y="113" width="22" height="21">
<path d="M796.792 123.609C796.792 117.948 801.381 113.359 807.042 113.359C812.703 113.359 817.292 117.948 817.292 123.609C817.292 129.27 812.703 133.859 807.042 133.859C801.381 133.859 796.792 129.27 796.792 123.609Z" fill="#9499A5"/>
</mask>
<g mask="url(#mask0_600_40179)">
<circle cx="807.042" cy="123.609" r="10.25" fill="#9499A5"/>
<path d="M813.875 133.86H800.208V132.07C800.208 130.883 800.658 129.745 801.459 128.906C802.26 128.067 803.346 127.596 804.479 127.596H809.604C810.737 127.596 811.823 128.067 812.624 128.906C813.425 129.745 813.875 130.883 813.875 132.07V133.86Z" fill="white"/>
<path d="M803.055 121.901C803.055 119.699 804.84 117.914 807.042 117.914C809.243 117.914 811.028 119.699 811.028 121.901C811.028 124.102 809.243 125.887 807.042 125.887C804.84 125.887 803.055 124.102 803.055 121.901Z" fill="white"/>
</g>
<g clip-path="url(#clip0_600_40179)">
<g clip-path="url(#clip1_600_40179)">
<path d="M779.95 113.155H780.242C780.311 113.165 780.38 113.173 780.449 113.185C780.871 113.26 781.196 113.477 781.403 113.86C781.543 114.127 781.622 114.422 781.636 114.724C781.647 114.908 781.639 115.094 781.636 115.278C781.636 115.309 781.643 115.321 781.674 115.326C782.068 115.395 782.453 115.509 782.821 115.666C783.607 115.999 784.303 116.515 784.851 117.173C785.399 117.83 785.784 118.609 785.975 119.445C786.053 119.782 786.093 120.126 786.094 120.472C786.09 122.376 786.089 124.279 786.091 126.183C786.09 126.201 786.093 126.218 786.1 126.235C786.107 126.251 786.117 126.265 786.13 126.277C786.773 126.923 787.416 127.569 788.057 128.216C788.069 128.226 788.078 128.239 788.084 128.254C788.09 128.269 788.093 128.285 788.092 128.301C788.092 128.601 788.092 128.901 788.092 129.201V129.256H772.1V129.201C772.1 128.901 772.1 128.601 772.1 128.301C772.099 128.285 772.102 128.269 772.108 128.254C772.114 128.239 772.124 128.226 772.135 128.216C772.777 127.572 773.417 126.928 774.057 126.283C774.071 126.27 774.082 126.254 774.089 126.236C774.097 126.218 774.1 126.199 774.099 126.18C774.099 124.269 774.098 122.359 774.096 120.449C774.098 120.098 774.14 119.749 774.224 119.409C774.461 118.405 774.977 117.491 775.712 116.773C776.447 116.055 777.37 115.563 778.374 115.355L778.554 115.319C778.554 115.306 778.554 115.298 778.554 115.29C778.554 115.262 778.551 115.235 778.549 115.207C778.529 114.822 778.556 114.444 778.69 114.08C778.863 113.612 779.185 113.308 779.676 113.2C779.766 113.179 779.858 113.17 779.95 113.155Z" fill="#9499A5"/>
<path d="M783.102 130.272H777.091C777.135 131.382 777.599 132.249 778.532 132.843C779.007 133.14 779.556 133.296 780.116 133.292C780.676 133.289 781.223 133.125 781.694 132.821C782.606 132.227 783.06 131.366 783.102 130.272Z" fill="#9499A5"/>
<rect x="781.986" y="111.65" width="8.54167" height="8.54167" rx="4.27083" fill="#1351C9"/>
<path d="M784.95 115.913C784.95 115.668 784.967 115.429 785 115.195C785.035 114.962 785.094 114.745 785.175 114.545C785.257 114.343 785.368 114.166 785.509 114.014C785.65 113.862 785.825 113.743 786.034 113.658C786.246 113.57 786.499 113.527 786.793 113.527C786.877 113.527 786.967 113.532 787.063 113.541C787.16 113.548 787.239 113.561 787.302 113.58V113.977C787.234 113.953 787.155 113.936 787.066 113.925C786.979 113.913 786.891 113.908 786.802 113.908C786.457 113.908 786.185 113.983 785.987 114.133C785.791 114.283 785.649 114.487 785.562 114.745C785.475 115.001 785.425 115.289 785.412 115.61H785.442C785.5 115.517 785.573 115.433 785.662 115.359C785.751 115.283 785.858 115.223 785.984 115.179C786.112 115.134 786.261 115.112 786.429 115.112C786.667 115.112 786.873 115.16 787.049 115.256C787.227 115.353 787.364 115.493 787.461 115.676C787.559 115.86 787.608 116.082 787.608 116.344C787.608 116.623 787.556 116.865 787.452 117.069C787.349 117.273 787.2 117.431 787.008 117.542C786.817 117.651 786.589 117.706 786.324 117.706C786.125 117.706 785.943 117.668 785.776 117.592C785.609 117.516 785.463 117.403 785.339 117.253C785.217 117.103 785.121 116.916 785.053 116.694C784.984 116.47 784.95 116.209 784.95 115.913ZM786.318 117.317C786.57 117.317 786.772 117.236 786.924 117.075C787.076 116.914 787.152 116.67 787.152 116.344C787.152 116.077 787.085 115.865 786.949 115.71C786.814 115.554 786.61 115.476 786.337 115.476C786.152 115.476 785.991 115.515 785.854 115.593C785.717 115.669 785.61 115.765 785.534 115.882C785.458 115.999 785.42 116.117 785.42 116.238C785.42 116.36 785.438 116.484 785.473 116.61C785.51 116.737 785.565 116.853 785.64 116.961C785.714 117.068 785.807 117.155 785.92 117.219C786.033 117.284 786.166 117.317 786.318 117.317Z" fill="white"/>
</g>
</g>
</g>
<path d="M705 174.248L705 139.248" stroke="#999999" stroke-width="1.55303"/>
<rect x="630" y="174.248" width="150" height="56" fill="#E6EEFE"/>
<rect x="630.5" y="174.748" width="149" height="55" stroke="#374A5F" stroke-opacity="0.1"/>
<path d="M644.476 198.472C642.754 198.472 641.676 197.576 641.284 196.218L642.81 196.12C643.02 196.75 643.566 197.1 644.476 197.1C645.904 197.1 646.716 196.134 646.856 193.838C646.324 194.636 645.498 195.056 644.448 195.056C642.502 195.056 641.144 193.684 641.144 191.64C641.144 189.456 642.6 188.084 644.686 188.084C647.248 188.084 648.41 189.876 648.41 192.774C648.41 196.148 647.346 198.472 644.476 198.472ZM644.658 193.754C645.904 193.754 646.772 192.984 646.772 191.64C646.772 190.352 646.002 189.428 644.714 189.428C643.454 189.428 642.684 190.324 642.684 191.626C642.684 192.928 643.482 193.754 644.658 193.754ZM653.712 198.472C651.5 198.472 650.212 197.324 650.072 195.63L651.626 195.532C651.766 196.568 652.55 197.086 653.712 197.086C655.014 197.086 655.826 196.316 655.826 195.014C655.826 193.74 655.028 192.914 653.698 192.914C652.802 192.914 652.074 193.32 651.78 193.964H650.212L650.884 188.308H656.708V189.694H652.228L651.878 192.452C652.382 191.92 653.166 191.626 654.048 191.626C656.05 191.626 657.394 193.054 657.394 195.014C657.394 197.072 655.896 198.472 653.712 198.472ZM661.015 193.124C659.727 193.124 658.803 192.284 658.803 190.66C658.803 189.036 659.727 188.196 661.015 188.196C662.303 188.196 663.213 189.036 663.213 190.66C663.213 192.284 662.303 193.124 661.015 193.124ZM659.909 198.248L666.685 188.308H667.861L661.085 198.248H659.909ZM661.015 192.186C661.715 192.186 662.079 191.64 662.079 190.66C662.079 189.68 661.715 189.134 661.015 189.134C660.315 189.134 659.951 189.68 659.951 190.66C659.951 191.64 660.315 192.186 661.015 192.186ZM666.755 198.36C665.467 198.36 664.543 197.52 664.543 195.896C664.543 194.272 665.467 193.432 666.755 193.432C668.043 193.432 668.967 194.272 668.967 195.896C668.967 197.52 668.043 198.36 666.755 198.36ZM666.755 197.422C667.455 197.422 667.819 196.876 667.819 195.896C667.819 194.916 667.455 194.37 666.755 194.37C666.055 194.37 665.691 194.916 665.691 195.896C665.691 196.876 666.055 197.422 666.755 197.422ZM676.971 198.416C674.913 198.416 673.569 196.904 673.569 194.538C673.569 192.172 674.913 190.66 676.971 190.66C679.015 190.66 680.359 192.172 680.359 194.538C680.359 196.904 679.015 198.416 676.971 198.416ZM676.971 197.296C678.329 197.296 679.127 196.26 679.127 194.538C679.127 192.816 678.329 191.78 676.971 191.78C675.599 191.78 674.801 192.816 674.801 194.538C674.801 196.26 675.599 197.296 676.971 197.296ZM682.403 198.248V191.864H681.395V190.828H682.403V190.156C682.403 189.064 683.019 188.308 684.363 188.308H685.539V189.344H684.447C683.859 189.344 683.579 189.68 683.579 190.24V190.828H685.441V191.864H683.579V198.248H682.403ZM690.698 200.348V190.828H691.79L691.804 191.962C692.252 191.108 693.078 190.66 694.086 190.66C696.298 190.66 697.292 192.494 697.292 194.538C697.292 196.582 696.298 198.416 694.086 198.416C693.12 198.416 692.266 197.982 691.874 197.268V200.348H690.698ZM693.974 197.296C695.262 197.296 696.06 196.274 696.06 194.538C696.06 192.802 695.262 191.78 693.974 191.78C692.686 191.78 691.874 192.718 691.874 194.538C691.874 196.358 692.672 197.296 693.974 197.296ZM701.081 198.416C699.541 198.416 698.575 197.674 698.575 196.4C698.575 195.14 699.289 194.44 700.913 194.132L703.545 193.642C703.545 192.396 702.957 191.78 701.781 191.78C700.745 191.78 700.171 192.256 699.947 193.11L698.701 193.012C698.981 191.612 700.101 190.66 701.781 190.66C703.685 190.66 704.721 191.808 704.721 193.684V196.75C704.721 197.086 704.833 197.212 705.113 197.212H705.407V198.248C705.323 198.262 705.141 198.276 704.959 198.276C704.063 198.276 703.657 197.926 703.559 197.1C703.195 197.87 702.173 198.416 701.081 198.416ZM701.193 197.38C702.677 197.38 703.545 196.428 703.545 195.196V194.664L701.137 195.112C700.129 195.294 699.807 195.672 699.807 196.288C699.807 196.988 700.325 197.38 701.193 197.38ZM706.735 198.248V190.828H707.771L707.813 192.2C708.079 191.262 708.667 190.828 709.577 190.828H710.305V191.948H709.591C708.471 191.948 707.911 192.55 707.911 193.768V198.248H706.735ZM714.059 198.248C712.715 198.248 712.085 197.66 712.085 196.344V191.864H710.993V190.828H712.085V189.092H713.261V190.828H715.235V191.864H713.261V196.316C713.261 196.988 713.555 197.212 714.171 197.212H715.235V198.248H714.059ZM716.715 189.666V188.294H717.947V189.666H716.715ZM716.743 198.248V190.828H717.919V198.248H716.743ZM722.922 198.416C720.85 198.416 719.52 196.89 719.52 194.538C719.52 192.186 720.85 190.66 722.922 190.66C724.63 190.66 725.82 191.584 726.072 193.236L724.84 193.32C724.672 192.34 723.93 191.78 722.922 191.78C721.55 191.78 720.752 192.816 720.752 194.538C720.752 196.26 721.55 197.296 722.922 197.296C723.93 197.296 724.672 196.736 724.84 195.616L726.072 195.7C725.82 197.352 724.63 198.416 722.922 198.416ZM727.502 189.666V188.294H728.734V189.666H727.502ZM727.53 198.248V190.828H728.706V198.248H727.53ZM731.085 200.348V190.828H732.177L732.191 191.962C732.639 191.108 733.465 190.66 734.473 190.66C736.685 190.66 737.679 192.494 737.679 194.538C737.679 196.582 736.685 198.416 734.473 198.416C733.507 198.416 732.653 197.982 732.261 197.268V200.348H731.085ZM734.361 197.296C735.649 197.296 736.447 196.274 736.447 194.538C736.447 192.802 735.649 191.78 734.361 191.78C733.073 191.78 732.261 192.718 732.261 194.538C732.261 196.358 733.059 197.296 734.361 197.296ZM741.468 198.416C739.928 198.416 738.962 197.674 738.962 196.4C738.962 195.14 739.676 194.44 741.3 194.132L743.932 193.642C743.932 192.396 743.344 191.78 742.168 191.78C741.132 191.78 740.558 192.256 740.334 193.11L739.088 193.012C739.368 191.612 740.488 190.66 742.168 190.66C744.072 190.66 745.108 191.808 745.108 193.684V196.75C745.108 197.086 745.22 197.212 745.5 197.212H745.794V198.248C745.71 198.262 745.528 198.276 745.346 198.276C744.45 198.276 744.044 197.926 743.946 197.1C743.582 197.87 742.56 198.416 741.468 198.416ZM741.58 197.38C743.064 197.38 743.932 196.428 743.932 195.196V194.664L741.524 195.112C740.516 195.294 740.194 195.672 740.194 196.288C740.194 196.988 740.712 197.38 741.58 197.38ZM747.122 198.248V190.828H748.2L748.228 192.158C748.62 191.136 749.488 190.66 750.51 190.66C752.204 190.66 753.016 191.906 753.016 193.474V198.248H751.84V193.81C751.84 192.438 751.378 191.696 750.258 191.696C749.11 191.696 748.298 192.438 748.298 193.81V198.248H747.122ZM757.412 198.248C756.068 198.248 755.438 197.66 755.438 196.344V191.864H754.346V190.828H755.438V189.092H756.614V190.828H758.588V191.864H756.614V196.316C756.614 196.988 756.908 197.212 757.524 197.212H758.588V198.248H757.412ZM762.662 198.416C760.674 198.416 759.568 197.366 759.456 195.91L760.688 195.826C760.828 196.722 761.402 197.296 762.662 197.296C763.67 197.296 764.328 196.988 764.328 196.26C764.328 195.672 764.034 195.42 762.438 195.14C760.31 194.762 759.638 194.104 759.638 192.928C759.638 191.612 760.646 190.66 762.438 190.66C764.244 190.66 765.196 191.752 765.42 193.04L764.188 193.124C764.02 192.34 763.432 191.78 762.424 191.78C761.36 191.78 760.87 192.242 760.87 192.872C760.87 193.6 761.346 193.88 762.662 194.104C764.93 194.496 765.56 195.084 765.56 196.26C765.56 197.632 764.3 198.416 762.662 198.416ZM653.986 216.248L651.284 208.828H652.572L654.728 215.044L656.884 208.828H658.172L655.47 216.248H653.986ZM659.437 207.666V206.294H660.669V207.666H659.437ZM659.465 216.248V208.828H660.641V216.248H659.465ZM665.448 216.416C663.46 216.416 662.354 215.366 662.242 213.91L663.474 213.826C663.614 214.722 664.188 215.296 665.448 215.296C666.456 215.296 667.114 214.988 667.114 214.26C667.114 213.672 666.82 213.42 665.224 213.14C663.096 212.762 662.424 212.104 662.424 210.928C662.424 209.612 663.432 208.66 665.224 208.66C667.03 208.66 667.982 209.752 668.206 211.04L666.974 211.124C666.806 210.34 666.218 209.78 665.21 209.78C664.146 209.78 663.656 210.242 663.656 210.872C663.656 211.6 664.132 211.88 665.448 212.104C667.716 212.496 668.346 213.084 668.346 214.26C668.346 215.632 667.086 216.416 665.448 216.416ZM669.923 207.666V206.294H671.155V207.666H669.923ZM669.951 216.248V208.828H671.127V216.248H669.951ZM675.524 216.248C674.18 216.248 673.55 215.66 673.55 214.344V209.864H672.458V208.828H673.55V207.092H674.726V208.828H676.7V209.864H674.726V214.316C674.726 214.988 675.02 215.212 675.636 215.212H676.7V216.248H675.524ZM680.97 216.416C678.87 216.416 677.568 214.89 677.568 212.538C677.568 210.186 678.87 208.66 680.914 208.66C682.846 208.66 684.19 210.06 684.19 212.552V212.902H678.8C678.884 214.498 679.682 215.296 680.97 215.296C681.936 215.296 682.566 214.806 682.818 214.05L684.078 214.148C683.686 215.478 682.538 216.416 680.97 216.416ZM678.8 211.866H682.902C682.79 210.438 682.006 209.78 680.914 209.78C679.766 209.78 678.996 210.494 678.8 211.866ZM688.415 216.416C686.483 216.416 685.279 214.918 685.279 212.538C685.279 210.158 686.483 208.66 688.415 208.66C689.409 208.66 690.291 209.108 690.697 209.864V206.308H691.873V216.248H690.809L690.767 215.128C690.347 215.94 689.451 216.416 688.415 216.416ZM688.653 215.296C689.969 215.296 690.697 214.232 690.697 212.538C690.697 210.816 689.969 209.78 688.653 209.78C687.351 209.78 686.511 210.816 686.511 212.538C686.511 214.232 687.351 215.296 688.653 215.296ZM700.325 216.248C698.981 216.248 698.351 215.66 698.351 214.344V209.864H697.259V208.828H698.351V207.092H699.527V208.828H701.501V209.864H699.527V214.316C699.527 214.988 699.821 215.212 700.437 215.212H701.501V216.248H700.325ZM703.01 216.248V206.308H704.186V209.99C704.564 209.08 705.404 208.66 706.426 208.66C708.022 208.66 708.904 209.822 708.904 211.474V216.248H707.728V211.81C707.728 210.382 707.21 209.696 706.174 209.696C704.97 209.696 704.186 210.452 704.186 211.824V216.248H703.01ZM710.98 207.666V206.294H712.212V207.666H710.98ZM711.008 216.248V208.828H712.184V216.248H711.008ZM716.991 216.416C715.003 216.416 713.897 215.366 713.785 213.91L715.017 213.826C715.157 214.722 715.731 215.296 716.991 215.296C717.999 215.296 718.657 214.988 718.657 214.26C718.657 213.672 718.363 213.42 716.767 213.14C714.639 212.762 713.967 212.104 713.967 210.928C713.967 209.612 714.975 208.66 716.767 208.66C718.573 208.66 719.525 209.752 719.749 211.04L718.517 211.124C718.349 210.34 717.761 209.78 716.753 209.78C715.689 209.78 715.199 210.242 715.199 210.872C715.199 211.6 715.675 211.88 716.991 212.104C719.259 212.496 719.889 213.084 719.889 214.26C719.889 215.632 718.629 216.416 716.991 216.416ZM725.131 218.348V208.828H726.223L726.237 209.962C726.685 209.108 727.511 208.66 728.519 208.66C730.731 208.66 731.725 210.494 731.725 212.538C731.725 214.582 730.731 216.416 728.519 216.416C727.553 216.416 726.699 215.982 726.307 215.268V218.348H725.131ZM728.407 215.296C729.695 215.296 730.493 214.274 730.493 212.538C730.493 210.802 729.695 209.78 728.407 209.78C727.119 209.78 726.307 210.718 726.307 212.538C726.307 214.358 727.105 215.296 728.407 215.296ZM735.514 216.416C733.974 216.416 733.008 215.674 733.008 214.4C733.008 213.14 733.722 212.44 735.346 212.132L737.978 211.642C737.978 210.396 737.39 209.78 736.214 209.78C735.178 209.78 734.604 210.256 734.38 211.11L733.134 211.012C733.414 209.612 734.534 208.66 736.214 208.66C738.118 208.66 739.154 209.808 739.154 211.684V214.75C739.154 215.086 739.266 215.212 739.546 215.212H739.84V216.248C739.756 216.262 739.574 216.276 739.392 216.276C738.496 216.276 738.09 215.926 737.992 215.1C737.628 215.87 736.606 216.416 735.514 216.416ZM735.626 215.38C737.11 215.38 737.978 214.428 737.978 213.196V212.664L735.57 213.112C734.562 213.294 734.24 213.672 734.24 214.288C734.24 214.988 734.758 215.38 735.626 215.38ZM743.955 218.516C742.359 218.516 741.155 217.662 740.847 216.36L742.079 216.276C742.303 216.976 742.807 217.396 743.955 217.396C745.299 217.396 746.041 216.864 746.041 215.772V214.568C745.677 215.352 744.837 215.856 743.871 215.856C741.981 215.856 740.637 214.372 740.637 212.258C740.637 210.144 741.953 208.66 743.815 208.66C744.851 208.66 745.761 209.178 746.097 210.004V208.828H747.217V215.744C747.217 217.48 745.999 218.516 743.955 218.516ZM743.927 214.736C745.201 214.736 746.027 213.784 746.041 212.258C746.069 210.732 745.215 209.78 743.927 209.78C742.625 209.78 741.869 210.732 741.869 212.258C741.869 213.784 742.653 214.736 743.927 214.736ZM752.214 216.416C750.114 216.416 748.812 214.89 748.812 212.538C748.812 210.186 750.114 208.66 752.158 208.66C754.09 208.66 755.434 210.06 755.434 212.552V212.902H750.044C750.128 214.498 750.926 215.296 752.214 215.296C753.18 215.296 753.81 214.806 754.062 214.05L755.322 214.148C754.93 215.478 753.782 216.416 752.214 216.416ZM750.044 211.866H754.146C754.034 210.438 753.25 209.78 752.158 209.78C751.01 209.78 750.24 210.494 750.044 211.866ZM757.206 213.378C757.122 212.398 756.982 210.648 756.982 209.528V206.308H758.186V209.528C758.186 210.648 758.06 212.398 757.976 213.378H757.206ZM756.744 216.248V214.666H758.326V216.248H756.744Z" fill="#1351C9"/>
<defs>
<filter id="filter0_d_600_40179" x="35.4444" y="100.831" width="829.111" height="46.6941" filterUnits="userSpaceOnUse" color-interpolation-filters="sRGB">
<feFlood flood-opacity="0" result="BackgroundImageFix"/>
<feColorMatrix in="SourceAlpha" type="matrix" values="0 0 0 0 0 0 0 0 0 0 0 0 0 0 0 0 0 0 127 0" result="hardAlpha"/>
<feOffset dy="1.13889"/>
<feGaussianBlur stdDeviation="2.27778"/>
<feComposite in2="hardAlpha" operator="out"/>
<feColorMatrix type="matrix" values="0 0 0 0 0.6 0 0 0 0 0.6 0 0 0 0 0.6 0 0 0 0.3 0"/>
<feBlend mode="normal" in2="BackgroundImageFix" result="effect1_dropShadow_600_40179"/>
<feBlend mode="normal" in="SourceGraphic" in2="effect1_dropShadow_600_40179" result="shape"/>
</filter>
<clipPath id="clip0_600_40179">
<rect width="20.5" height="23.9167" fill="white" transform="translate(771.167 111.081)"/>
</clipPath>
<clipPath id="clip1_600_40179">
<rect width="18.7917" height="22.2083" fill="white" transform="translate(771.736 111.65)"/>
</clipPath>
</defs>
</svg>
