<svg width="121" height="1273" viewBox="0 0 121 1273" fill="none" xmlns="http://www.w3.org/2000/svg">
<path d="M120.4 1217.72C120.4 1229.24 117.893 1239.05 112.88 1247.16C107.813 1255.27 100.773 1261.48 91.76 1265.8C82.7467 1270.07 72.2933 1272.2 60.4 1272.2C48.5067 1272.2 38.0533 1270.07 29.04 1265.8C20.0267 1261.48 13.0133 1255.27 7.99999 1247.16C2.93333 1239.05 0.399996 1229.24 0.399995 1217.72C0.399995 1204.44 3.75999 1193.45 10.48 1184.76C17.2 1176.01 26.24 1169.93 37.6 1166.52L42.16 1183.48C34.1067 1185.72 27.7867 1189.72 23.2 1195.48C18.6133 1201.19 16.32 1208.6 16.32 1217.72C16.32 1225.88 18.16 1232.68 21.84 1238.12C25.52 1243.56 30.6667 1247.67 37.28 1250.44C43.8933 1253.16 51.6 1254.52 60.4 1254.52C69.2 1254.57 76.9067 1253.24 83.52 1250.52C90.1333 1247.75 95.28 1243.64 98.96 1238.2C102.64 1232.71 104.48 1225.88 104.48 1217.72C104.48 1208.6 102.187 1201.19 97.6 1195.48C92.96 1189.72 86.64 1185.72 78.64 1183.48L83.2 1166.52C94.56 1169.93 103.6 1176.01 110.32 1184.76C117.04 1193.45 120.4 1204.44 120.4 1217.72ZM120.4 1084.84C120.4 1096.36 117.893 1106.18 112.88 1114.28C107.813 1122.39 100.773 1128.6 91.76 1132.92C82.7467 1137.19 72.2933 1139.32 60.4 1139.32C48.5067 1139.32 38.0533 1137.19 29.04 1132.92C20.0267 1128.6 13.0133 1122.39 7.99998 1114.28C2.93332 1106.18 0.39999 1096.36 0.399989 1084.84C0.399989 1073.38 2.93332 1063.59 7.99998 1055.48C13.0133 1047.32 20.0267 1041.11 29.04 1036.84C38.0533 1032.58 48.5067 1030.44 60.4 1030.44C72.2933 1030.44 82.7467 1032.58 91.76 1036.84C100.773 1041.11 107.813 1047.32 112.88 1055.48C117.893 1063.59 120.4 1073.38 120.4 1084.84ZM104.48 1084.84C104.587 1076.68 102.8 1069.91 99.12 1064.52C95.3867 1059.08 90.2133 1055 83.6 1052.28C76.9333 1049.56 69.2 1048.2 60.4 1048.2C51.6 1048.2 43.92 1049.56 37.36 1052.28C30.7467 1055 25.6 1059.08 21.92 1064.52C18.24 1069.91 16.3733 1076.68 16.32 1084.84C16.2133 1093 18 1099.8 21.68 1105.24C25.36 1110.63 30.5333 1114.68 37.2 1117.4C43.8667 1120.12 51.6 1121.51 60.4 1121.56C69.2 1121.62 76.9067 1120.28 83.52 1117.56C90.08 1114.84 95.2 1110.76 98.88 1105.32C102.56 1099.83 104.427 1093 104.48 1084.84ZM118 998.487L2.79998 998.487L2.79998 983.367L89.44 941.607L2.79998 900.087L2.79998 884.807L117.92 884.807L117.92 900.647L39.12 900.647L118 937.847L118 945.447L39.12 982.727L118 982.727L118 998.487ZM118 844.794L2.79998 844.794L2.79998 828.074L118 828.074L118 844.794ZM118 788.05L2.79997 788.05L2.79997 771.09L88.4 714.37L2.79997 714.37L2.79997 697.41L118 697.41L118 714.37L32.32 771.09L118 771.09L118 788.05ZM120.4 611.961C120.4 619.695 119.067 626.815 116.4 633.321C113.68 639.828 109.733 645.481 104.56 650.281C99.3866 655.081 93.0933 658.815 85.68 661.481C78.2666 664.148 69.84 665.481 60.4 665.481C47.9733 665.481 37.3066 663.215 28.4 658.681C19.44 654.148 12.56 647.855 7.75997 639.801C2.90663 631.748 0.479963 622.468 0.479963 611.961C0.479962 598.415 3.62663 587.615 9.91996 579.561C16.2133 571.455 24.9066 565.935 36 563.001L39.04 579.961C32.16 582.308 26.6666 586.095 22.56 591.321C18.4533 596.548 16.3733 603.108 16.32 611.001C16.2666 619.161 18.08 625.961 21.76 631.401C25.44 636.788 30.6133 640.841 37.28 643.561C43.8933 646.281 51.6 647.668 60.4 647.721C69.2 647.775 76.9066 646.441 83.52 643.721C90.08 641.001 95.2 636.921 98.88 631.481C102.56 625.988 104.427 619.161 104.48 611.001C104.587 604.441 103.387 598.815 100.88 594.121C98.32 589.375 94.5866 585.615 89.68 582.841C84.7733 580.068 78.7466 578.281 71.6 577.481L71.6 599.881L58.16 599.881L58.16 559.721C59.12 559.615 60.4 559.535 62 559.481C63.5466 559.428 64.5333 559.401 64.96 559.401C75.6266 559.401 85.1466 561.455 93.52 565.561C101.893 569.668 108.48 575.641 113.28 583.481C118.027 591.321 120.4 600.815 120.4 611.961ZM120.4 437.665C120.4 445.932 118.987 453.398 116.16 460.065C113.28 466.678 109.2 472.145 103.92 476.465C98.5866 480.732 92.2666 483.505 84.96 484.785L82.32 467.345C89.36 465.585 94.8533 461.905 98.8 456.305C102.693 450.705 104.64 444.172 104.64 436.705C104.64 432.065 103.92 427.798 102.48 423.905C100.987 420.012 98.88 416.892 96.16 414.545C93.3866 412.145 90.08 410.945 86.24 410.945C84.16 410.945 82.32 411.318 80.72 412.065C79.12 412.758 77.7333 413.745 76.56 415.025C75.3333 416.252 74.2933 417.772 73.44 419.585C72.5333 421.345 71.76 423.292 71.12 425.425L62.4 454.945C61.5466 457.825 60.4533 460.758 59.12 463.745C57.7333 466.732 55.9466 469.478 53.76 471.985C51.52 474.438 48.7733 476.438 45.52 477.985C42.2133 479.532 38.2133 480.305 33.52 480.305C26.4266 480.305 20.4266 478.492 15.52 474.865C10.56 471.185 6.82662 466.225 4.31995 459.985C1.75996 453.745 0.479956 446.758 0.479955 439.025C0.58662 431.238 1.97329 424.278 4.63996 418.145C7.30662 411.958 11.1466 406.838 16.16 402.785C21.12 398.678 27.1466 395.852 34.24 394.305L37.28 412.225C32.96 413.025 29.2533 414.732 26.16 417.345C23.0133 419.958 20.6133 423.158 18.96 426.945C17.2533 430.732 16.3733 434.838 16.32 439.265C16.2133 443.532 16.8533 447.452 18.24 451.025C19.6266 454.545 21.5733 457.372 24.08 459.505C26.5866 461.585 29.4666 462.625 32.72 462.625C35.92 462.625 38.5066 461.692 40.48 459.825C42.4533 457.958 44.0266 455.665 45.2 452.945C46.32 450.172 47.2533 447.425 48 444.705L54 423.425C54.7466 420.758 55.76 417.745 57.04 414.385C58.2666 410.972 60 407.692 62.24 404.545C64.48 401.345 67.4666 398.705 71.2 396.625C74.88 394.545 79.52 393.505 85.12 393.505C90.9333 393.505 96.0533 394.678 100.48 397.025C104.853 399.372 108.533 402.598 111.52 406.705C114.453 410.758 116.667 415.452 118.16 420.785C119.653 426.118 120.4 431.745 120.4 437.665ZM120.4 312.376C120.4 323.896 117.893 333.71 112.88 341.816C107.813 349.923 100.773 356.136 91.76 360.456C82.7466 364.723 72.2933 366.856 60.4 366.856C48.5066 366.856 38.0533 364.723 29.04 360.456C20.0266 356.136 13.0133 349.923 7.99995 341.816C2.93329 333.71 0.399956 323.896 0.399956 312.376C0.399955 300.91 2.93329 291.123 7.99995 283.016C13.0133 274.856 20.0266 268.643 29.0399 264.376C38.0533 260.11 48.5066 257.976 60.4 257.976C72.2933 257.976 82.7466 260.11 91.76 264.376C100.773 268.643 107.813 274.856 112.88 283.016C117.893 291.123 120.4 300.91 120.4 312.376ZM104.48 312.376C104.587 304.216 102.8 297.443 99.12 292.056C95.3866 286.616 90.2133 282.536 83.6 279.816C76.9333 277.096 69.2 275.736 60.4 275.736C51.6 275.736 43.92 277.096 37.36 279.816C30.7466 282.536 25.5999 286.616 21.9199 292.056C18.2399 297.443 16.3733 304.216 16.32 312.376C16.2133 320.536 18 327.336 21.6799 332.776C25.36 338.163 30.5333 342.216 37.2 344.936C43.8666 347.656 51.6 349.043 60.4 349.096C69.2 349.15 76.9066 347.816 83.52 345.096C90.08 342.376 95.2 338.296 98.88 332.856C102.56 327.363 104.427 320.536 104.48 312.376ZM120.4 177.939C120.4 189.459 117.893 199.272 112.88 207.379C107.813 215.485 100.773 221.699 91.76 226.019C82.7466 230.285 72.2933 232.419 60.4 232.419C48.5066 232.419 38.0533 230.285 29.0399 226.019C20.0266 221.699 13.0133 215.485 7.99994 207.379C2.93328 199.272 0.39995 189.459 0.39995 177.939C0.399949 166.472 2.93328 156.685 7.99994 148.579C13.0133 140.419 20.0266 134.205 29.0399 129.939C38.0533 125.672 48.5066 123.539 60.3999 123.539C72.2933 123.539 82.7466 125.672 91.7599 129.939C100.773 134.205 107.813 140.419 112.88 148.579C117.893 156.685 120.4 166.472 120.4 177.939ZM104.48 177.939C104.587 169.779 102.8 163.005 99.1199 157.619C95.3866 152.179 90.2133 148.099 83.5999 145.379C76.9333 142.659 69.1999 141.299 60.3999 141.299C51.5999 141.299 43.9199 142.659 37.3599 145.379C30.7466 148.099 25.5999 152.179 21.9199 157.619C18.2399 163.005 16.3733 169.779 16.3199 177.939C16.2133 186.099 17.9999 192.899 21.6799 198.339C25.3599 203.725 30.5333 207.779 37.2 210.499C43.8666 213.219 51.6 214.605 60.4 214.659C69.2 214.712 76.9066 213.379 83.52 210.659C90.08 207.939 95.2 203.859 98.88 198.419C102.56 192.925 104.427 186.099 104.48 177.939ZM118 91.5812L2.79994 91.5812L2.79994 74.6212L88.3999 17.9012L2.79994 17.9012L2.79994 0.941247L118 0.941242L118 17.9012L32.3199 74.6212L118 74.6212L118 91.5812Z" fill="#EAEAEA"/>
</svg>
