<svg width="718" height="485" viewBox="0 0 718 485" fill="none" xmlns="http://www.w3.org/2000/svg">
<rect width="717.101" height="484.119" transform="translate(0.873047 0.219818)" fill="#F3F2F2"/>
<path d="M221.534 261.722C218.049 261.722 215.079 260.964 212.626 259.447C210.174 257.914 208.294 255.784 206.986 253.057C205.696 250.329 205.05 247.166 205.05 243.568C205.05 239.969 205.696 236.806 206.986 234.079C208.294 231.352 210.174 229.23 212.626 227.713C215.079 226.18 218.049 225.413 221.534 225.413C225.552 225.413 228.877 226.43 231.507 228.463C234.154 230.497 235.993 233.232 237.026 236.669L231.894 238.049C231.217 235.612 230.006 233.7 228.264 232.312C226.537 230.924 224.294 230.23 221.534 230.23C219.065 230.23 217.008 230.787 215.362 231.901C213.716 233.014 212.473 234.571 211.634 236.572C210.811 238.573 210.4 240.905 210.4 243.568C210.383 246.23 210.787 248.562 211.61 250.563C212.449 252.564 213.692 254.122 215.338 255.235C217 256.349 219.065 256.905 221.534 256.905C224.294 256.905 226.537 256.211 228.264 254.824C230.006 253.42 231.217 251.507 231.894 249.087L237.026 250.467C235.993 253.904 234.154 256.639 231.507 258.672C228.877 260.706 225.552 261.722 221.534 261.722ZM253.702 261.722C251.088 261.722 248.821 261.133 246.901 259.955C244.98 258.777 243.496 257.155 242.447 255.09C241.414 253.008 240.897 250.612 240.897 247.901C240.897 245.173 241.43 242.777 242.495 240.712C243.56 238.63 245.053 237.016 246.973 235.87C248.894 234.708 251.137 234.127 253.702 234.127C256.317 234.127 258.584 234.717 260.504 235.895C262.425 237.073 263.909 238.694 264.958 240.76C266.007 242.826 266.532 245.206 266.532 247.901C266.532 250.628 265.999 253.032 264.934 255.114C263.885 257.18 262.4 258.801 260.48 259.979C258.56 261.141 256.301 261.722 253.702 261.722ZM253.702 256.954C256.204 256.954 258.068 256.115 259.294 254.436C260.537 252.742 261.158 250.563 261.158 247.901C261.158 245.173 260.529 242.995 259.27 241.365C258.027 239.719 256.171 238.896 253.702 238.896C252.008 238.896 250.612 239.283 249.515 240.058C248.417 240.816 247.603 241.873 247.07 243.229C246.537 244.568 246.271 246.126 246.271 247.901C246.271 250.644 246.901 252.839 248.159 254.485C249.418 256.131 251.266 256.954 253.702 256.954ZM303.173 260.996L303.198 244.705C303.198 242.817 302.713 241.349 301.745 240.3C300.777 239.235 299.502 238.702 297.921 238.702C296.952 238.702 296.065 238.928 295.258 239.38C294.467 239.816 293.822 240.478 293.322 241.365C292.837 242.236 292.595 243.334 292.595 244.657L290.151 243.423C290.118 241.583 290.506 239.969 291.312 238.581C292.135 237.194 293.249 236.12 294.653 235.362C296.057 234.587 297.63 234.2 299.373 234.2C302.197 234.2 304.384 235.047 305.933 236.742C307.482 238.436 308.257 240.687 308.257 243.495L308.232 260.996H303.173ZM271.827 260.996V234.854H276.329V242.406H276.91V260.996H271.827ZM287.512 260.996L287.536 244.802C287.536 242.898 287.052 241.405 286.084 240.324C285.132 239.243 283.849 238.702 282.235 238.702C280.638 238.702 279.347 239.251 278.362 240.348C277.394 241.446 276.91 242.882 276.91 244.657L274.489 243.108C274.489 241.397 274.901 239.872 275.724 238.533C276.547 237.194 277.66 236.137 279.064 235.362C280.468 234.587 282.058 234.2 283.833 234.2C285.689 234.2 287.27 234.595 288.577 235.386C289.884 236.161 290.877 237.25 291.554 238.654C292.248 240.058 292.595 241.688 292.595 243.544L292.571 260.996H287.512ZM315.026 230.569V225.655H320.085V230.569H315.026ZM315.026 260.996V234.854H320.085V260.996H315.026ZM345.702 260.996V248.143C345.702 247.126 345.614 246.085 345.436 245.02C345.275 243.939 344.952 242.938 344.468 242.019C344 241.099 343.33 240.356 342.459 239.792C341.604 239.227 340.482 238.944 339.094 238.944C338.191 238.944 337.335 239.098 336.528 239.404C335.721 239.695 335.011 240.171 334.398 240.833C333.801 241.494 333.325 242.366 332.97 243.447C332.631 244.528 332.462 245.843 332.462 247.392L329.315 246.206C329.315 243.834 329.759 241.744 330.646 239.937C331.534 238.113 332.809 236.693 334.471 235.677C336.133 234.66 338.142 234.152 340.498 234.152C342.306 234.152 343.822 234.442 345.049 235.023C346.275 235.604 347.268 236.371 348.026 237.323C348.801 238.259 349.39 239.283 349.793 240.397C350.197 241.51 350.471 242.6 350.616 243.665C350.761 244.73 350.834 245.666 350.834 246.473V260.996H345.702ZM327.33 260.996V234.854H331.857V242.406H332.462V260.996H327.33ZM367.911 273.341C366.507 273.341 365.143 273.123 363.82 272.688C362.513 272.252 361.319 271.606 360.237 270.751C359.156 269.912 358.26 268.871 357.55 267.629L362.222 265.256C362.787 266.37 363.594 267.185 364.643 267.701C365.692 268.218 366.797 268.476 367.959 268.476C369.395 268.476 370.622 268.218 371.638 267.701C372.655 267.201 373.421 266.442 373.938 265.426C374.47 264.409 374.729 263.15 374.712 261.65V254.339H375.318V234.854H379.796V261.698C379.796 262.392 379.772 263.054 379.723 263.683C379.675 264.312 379.586 264.942 379.457 265.571C379.086 267.33 378.376 268.782 377.327 269.928C376.294 271.074 374.971 271.929 373.357 272.494C371.759 273.059 369.944 273.341 367.911 273.341ZM367.523 261.722C365.087 261.722 362.981 261.117 361.206 259.907C359.447 258.697 358.083 257.051 357.115 254.969C356.163 252.871 355.687 250.515 355.687 247.901C355.687 245.27 356.171 242.922 357.139 240.857C358.107 238.775 359.479 237.137 361.254 235.943C363.045 234.733 365.167 234.127 367.62 234.127C370.089 234.127 372.163 234.733 373.841 235.943C375.535 237.137 376.81 238.775 377.666 240.857C378.537 242.938 378.973 245.286 378.973 247.901C378.973 250.515 378.537 252.863 377.666 254.945C376.794 257.026 375.511 258.68 373.817 259.907C372.122 261.117 370.025 261.722 367.523 261.722ZM368.225 257.147C369.887 257.147 371.243 256.752 372.292 255.961C373.341 255.171 374.107 254.081 374.591 252.693C375.076 251.306 375.318 249.708 375.318 247.901C375.318 246.093 375.067 244.496 374.567 243.108C374.083 241.72 373.325 240.639 372.292 239.864C371.275 239.09 369.976 238.702 368.395 238.702C366.716 238.702 365.337 239.114 364.256 239.937C363.174 240.76 362.367 241.865 361.835 243.253C361.319 244.641 361.06 246.19 361.06 247.901C361.06 249.627 361.319 251.193 361.835 252.597C362.367 253.984 363.158 255.09 364.207 255.913C365.272 256.736 366.612 257.147 368.225 257.147ZM408.92 261.722C406.419 261.722 404.16 261.295 402.142 260.439C400.141 259.568 398.487 258.333 397.18 256.736C395.889 255.122 395.05 253.21 394.663 250.999L399.94 250.2C400.472 252.33 401.586 253.993 403.28 255.187C404.974 256.365 406.951 256.954 409.21 256.954C410.614 256.954 411.905 256.736 413.083 256.3C414.261 255.848 415.205 255.211 415.916 254.388C416.642 253.549 417.005 252.548 417.005 251.386C417.005 250.757 416.892 250.2 416.666 249.716C416.456 249.232 416.158 248.812 415.77 248.457C415.399 248.086 414.939 247.772 414.391 247.513C413.858 247.239 413.269 247.005 412.624 246.811L403.692 244.173C402.82 243.915 401.933 243.584 401.029 243.181C400.125 242.761 399.294 242.22 398.536 241.559C397.793 240.881 397.188 240.05 396.72 239.066C396.252 238.065 396.018 236.855 396.018 235.435C396.018 233.288 396.567 231.473 397.664 229.988C398.778 228.488 400.278 227.358 402.167 226.599C404.055 225.825 406.169 225.438 408.509 225.438C410.865 225.47 412.97 225.889 414.826 226.696C416.698 227.503 418.247 228.665 419.474 230.182C420.716 231.683 421.572 233.506 422.04 235.652L416.617 236.572C416.375 235.265 415.859 234.144 415.068 233.208C414.278 232.256 413.309 231.529 412.164 231.029C411.018 230.513 409.775 230.246 408.436 230.23C407.145 230.198 405.959 230.392 404.878 230.811C403.813 231.231 402.957 231.82 402.312 232.578C401.682 233.337 401.368 234.208 401.368 235.193C401.368 236.161 401.65 236.943 402.215 237.541C402.78 238.138 403.474 238.614 404.297 238.969C405.136 239.308 405.967 239.59 406.79 239.816L413.229 241.631C414.036 241.857 414.947 242.164 415.964 242.551C416.997 242.922 417.989 243.447 418.941 244.125C419.91 244.802 420.708 245.706 421.338 246.836C421.967 247.949 422.282 249.353 422.282 251.047C422.282 252.806 421.927 254.356 421.217 255.695C420.507 257.018 419.53 258.132 418.288 259.035C417.061 259.923 415.641 260.593 414.027 261.045C412.414 261.496 410.711 261.722 408.92 261.722ZM438.793 261.722C436.179 261.722 433.911 261.133 431.991 259.955C430.071 258.777 428.586 257.155 427.537 255.09C426.504 253.008 425.988 250.612 425.988 247.901C425.988 245.173 426.52 242.777 427.585 240.712C428.65 238.63 430.143 237.016 432.064 235.87C433.984 234.708 436.227 234.127 438.793 234.127C441.407 234.127 443.674 234.717 445.595 235.895C447.515 237.073 449 238.694 450.049 240.76C451.097 242.826 451.622 245.206 451.622 247.901C451.622 250.628 451.089 253.032 450.024 255.114C448.975 257.18 447.491 258.801 445.57 259.979C443.65 261.141 441.391 261.722 438.793 261.722ZM438.793 256.954C441.294 256.954 443.158 256.115 444.384 254.436C445.627 252.742 446.248 250.563 446.248 247.901C446.248 245.173 445.619 242.995 444.36 241.365C443.118 239.719 441.262 238.896 438.793 238.896C437.098 238.896 435.702 239.283 434.605 240.058C433.508 240.816 432.693 241.873 432.16 243.229C431.628 244.568 431.362 246.126 431.362 247.901C431.362 250.644 431.991 252.839 433.25 254.485C434.508 256.131 436.356 256.954 438.793 256.954ZM468.294 261.722C465.68 261.722 463.412 261.133 461.492 259.955C459.572 258.777 458.087 257.155 457.038 255.09C456.005 253.008 455.489 250.612 455.489 247.901C455.489 245.173 456.021 242.777 457.086 240.712C458.151 238.63 459.644 237.016 461.565 235.87C463.485 234.708 465.728 234.127 468.294 234.127C470.908 234.127 473.175 234.717 475.096 235.895C477.016 237.073 478.501 238.694 479.55 240.76C480.598 242.826 481.123 245.206 481.123 247.901C481.123 250.628 480.59 253.032 479.525 255.114C478.476 257.18 476.992 258.801 475.071 259.979C473.151 261.141 470.892 261.722 468.294 261.722ZM468.294 256.954C470.795 256.954 472.659 256.115 473.885 254.436C475.128 252.742 475.749 250.563 475.749 247.901C475.749 245.173 475.12 242.995 473.861 241.365C472.619 239.719 470.763 238.896 468.294 238.896C466.599 238.896 465.203 239.283 464.106 240.058C463.009 240.816 462.194 241.873 461.661 243.229C461.129 244.568 460.863 246.126 460.863 247.901C460.863 250.644 461.492 252.839 462.751 254.485C464.009 256.131 465.857 256.954 468.294 256.954ZM504.79 260.996V248.143C504.79 247.126 504.702 246.085 504.524 245.02C504.363 243.939 504.04 242.938 503.556 242.019C503.088 241.099 502.418 240.356 501.547 239.792C500.691 239.227 499.57 238.944 498.182 238.944C497.278 238.944 496.423 239.098 495.616 239.404C494.809 239.695 494.099 240.171 493.486 240.833C492.889 241.494 492.413 242.366 492.058 243.447C491.719 244.528 491.55 245.843 491.55 247.392L488.403 246.206C488.403 243.834 488.847 241.744 489.734 239.937C490.622 238.113 491.897 236.693 493.559 235.677C495.221 234.66 497.23 234.152 499.586 234.152C501.393 234.152 502.91 234.442 504.137 235.023C505.363 235.604 506.356 236.371 507.114 237.323C507.889 238.259 508.478 239.283 508.881 240.397C509.285 241.51 509.559 242.6 509.704 243.665C509.849 244.73 509.922 245.666 509.922 246.473V260.996H504.79ZM486.418 260.996V234.854H490.944V242.406H491.55V260.996H486.418Z" fill="#2F2F2F" fill-opacity="0.5"/>
<rect x="168.045" y="191.598" width="381.105" height="100.796" rx="50.398" stroke="#2F2F2F" stroke-opacity="0.5" stroke-width="1.51287"/>
</svg>
