<svg width="151" height="28" viewBox="0 0 151 28" fill="none" xmlns="http://www.w3.org/2000/svg">
<path d="M1.4 21.5V7.1H7.22C7.36 7.1 7.53333 7.10667 7.74 7.12C7.94667 7.12667 8.14333 7.14667 8.33 7.18C9.13 7.30667 9.79667 7.58 10.33 8C10.87 8.42 11.2733 8.95 11.54 9.59C11.8067 10.23 11.94 10.9367 11.94 11.71C11.94 12.8567 11.6467 13.8467 11.06 14.68C10.4733 15.5067 9.59333 16.0233 8.42 16.23L7.57 16.33H3.49V21.5H1.4ZM9.82 21.5L6.98 15.64L9.09 15.1L12.21 21.5H9.82ZM3.49 14.35H7.14C7.27333 14.35 7.42 14.3433 7.58 14.33C7.74667 14.3167 7.90333 14.2933 8.05 14.26C8.47667 14.16 8.82 13.9767 9.08 13.71C9.34 13.4367 9.52667 13.1233 9.64 12.77C9.75333 12.4167 9.81 12.0633 9.81 11.71C9.81 11.3567 9.75333 11.0067 9.64 10.66C9.52667 10.3067 9.34 9.99667 9.08 9.73C8.82 9.45667 8.47667 9.27 8.05 9.17C7.90333 9.13 7.74667 9.10333 7.58 9.09C7.42 9.07667 7.27333 9.07 7.14 9.07H3.49V14.35ZM17.4578 21.8C16.6578 21.8 15.9878 21.6533 15.4478 21.36C14.9078 21.06 14.4978 20.6667 14.2178 20.18C13.9445 19.6867 13.8078 19.1467 13.8078 18.56C13.8078 18.0133 13.9045 17.5333 14.0978 17.12C14.2911 16.7067 14.5778 16.3567 14.9578 16.07C15.3378 15.7767 15.8045 15.54 16.3578 15.36C16.8378 15.22 17.3811 15.0967 17.9878 14.99C18.5945 14.8833 19.2311 14.7833 19.8978 14.69C20.5711 14.5967 21.2378 14.5033 21.8978 14.41L21.1378 14.83C21.1511 13.9833 20.9711 13.3567 20.5978 12.95C20.2311 12.5367 19.5978 12.33 18.6978 12.33C18.1311 12.33 17.6111 12.4633 17.1378 12.73C16.6645 12.99 16.3345 13.4233 16.1478 14.03L14.1978 13.43C14.4645 12.5033 14.9711 11.7667 15.7178 11.22C16.4711 10.6733 17.4711 10.4 18.7178 10.4C19.6845 10.4 20.5245 10.5667 21.2378 10.9C21.9578 11.2267 22.4845 11.7467 22.8178 12.46C22.9911 12.8133 23.0978 13.1867 23.1378 13.58C23.1778 13.9733 23.1978 14.3967 23.1978 14.85V21.5H21.3478V19.03L21.7078 19.35C21.2611 20.1767 20.6911 20.7933 19.9978 21.2C19.3111 21.6 18.4645 21.8 17.4578 21.8ZM17.8278 20.09C18.4211 20.09 18.9311 19.9867 19.3578 19.78C19.7845 19.5667 20.1278 19.2967 20.3878 18.97C20.6478 18.6433 20.8178 18.3033 20.8978 17.95C21.0111 17.63 21.0745 17.27 21.0878 16.87C21.1078 16.47 21.1178 16.15 21.1178 15.91L21.7978 16.16C21.1378 16.26 20.5378 16.35 19.9978 16.43C19.4578 16.51 18.9678 16.59 18.5278 16.67C18.0945 16.7433 17.7078 16.8333 17.3678 16.94C17.0811 17.04 16.8245 17.16 16.5978 17.3C16.3778 17.44 16.2011 17.61 16.0678 17.81C15.9411 18.01 15.8778 18.2533 15.8778 18.54C15.8778 18.82 15.9478 19.08 16.0878 19.32C16.2278 19.5533 16.4411 19.74 16.7278 19.88C17.0145 20.02 17.3811 20.09 17.8278 20.09ZM30.4145 21.8C29.3079 21.8 28.3679 21.5533 27.5945 21.06C26.8212 20.5667 26.2279 19.89 25.8145 19.03C25.4079 18.17 25.2012 17.1933 25.1945 16.1C25.2012 14.9867 25.4145 14.0033 25.8345 13.15C26.2545 12.29 26.8545 11.6167 27.6345 11.13C28.4145 10.6433 29.3512 10.4 30.4445 10.4C31.6245 10.4 32.6312 10.6933 33.4645 11.28C34.3045 11.8667 34.8579 12.67 35.1245 13.69L33.0445 14.29C32.8379 13.6833 32.4979 13.2133 32.0245 12.88C31.5579 12.54 31.0212 12.37 30.4145 12.37C29.7279 12.37 29.1645 12.5333 28.7245 12.86C28.2845 13.18 27.9579 13.62 27.7445 14.18C27.5312 14.74 27.4212 15.38 27.4145 16.1C27.4212 17.2133 27.6745 18.1133 28.1745 18.8C28.6812 19.4867 29.4279 19.83 30.4145 19.83C31.0879 19.83 31.6312 19.6767 32.0445 19.37C32.4645 19.0567 32.7845 18.61 33.0045 18.03L35.1245 18.53C34.7712 19.5833 34.1879 20.3933 33.3745 20.96C32.5612 21.52 31.5745 21.8 30.4145 21.8ZM44.7417 21.5V16.19C44.7417 15.77 44.7051 15.34 44.6317 14.9C44.5651 14.4533 44.4317 14.04 44.2317 13.66C44.0384 13.28 43.7617 12.9733 43.4017 12.74C43.0484 12.5067 42.5851 12.39 42.0117 12.39C41.6384 12.39 41.2851 12.4533 40.9517 12.58C40.6184 12.7 40.3251 12.8967 40.0717 13.17C39.8251 13.4433 39.6284 13.8033 39.4817 14.25C39.3417 14.6967 39.2717 15.24 39.2717 15.88L37.9717 15.39C37.9717 14.41 38.1551 13.5467 38.5217 12.8C38.8884 12.0467 39.4151 11.46 40.1017 11.04C40.7884 10.62 41.6184 10.41 42.5917 10.41C43.3384 10.41 43.9651 10.53 44.4717 10.77C44.9784 11.01 45.3884 11.3267 45.7017 11.72C46.0217 12.1067 46.2651 12.53 46.4317 12.99C46.5984 13.45 46.7117 13.9 46.7717 14.34C46.8317 14.78 46.8617 15.1667 46.8617 15.5V21.5H44.7417ZM37.1517 21.5V7.1H39.0217V14.87H39.2717V21.5H37.1517ZM54.2564 21.8C53.1831 21.8 52.2397 21.5667 51.4264 21.1C50.6197 20.6267 49.9897 19.97 49.5364 19.13C49.0897 18.2833 48.8664 17.3033 48.8664 16.19C48.8664 15.01 49.0864 13.9867 49.5264 13.12C49.9731 12.2533 50.5931 11.5833 51.3864 11.11C52.1797 10.6367 53.1031 10.4 54.1564 10.4C55.2564 10.4 56.1931 10.6567 56.9664 11.17C57.7397 11.6767 58.3164 12.4 58.6964 13.34C59.0831 14.28 59.2364 15.3967 59.1564 16.69H57.0664V15.93C57.0531 14.6767 56.8131 13.75 56.3464 13.15C55.8864 12.55 55.1831 12.25 54.2364 12.25C53.1897 12.25 52.4031 12.58 51.8764 13.24C51.3497 13.9 51.0864 14.8533 51.0864 16.1C51.0864 17.2867 51.3497 18.2067 51.8764 18.86C52.4031 19.5067 53.1631 19.83 54.1564 19.83C54.8097 19.83 55.3731 19.6833 55.8464 19.39C56.3264 19.09 56.6997 18.6633 56.9664 18.11L59.0164 18.76C58.5964 19.7267 57.9597 20.4767 57.1064 21.01C56.2531 21.5367 55.3031 21.8 54.2564 21.8ZM50.4064 16.69V15.06H58.1164V16.69H50.4064ZM61.6 21.5V6.8H63.69V21.5H61.6Z" fill="#2F2F2F"/>
<rect x="72.3036" y="14.0378" width="20.9237" height="1.83541" fill="#2F2F2F"/>
<path fill-rule="evenodd" clip-rule="evenodd" d="M89.1504 19.998L94.1494 14.999L89.1504 10L88.0017 11.1487L91.8521 14.9991L88.0018 18.8494L89.1504 19.998Z" fill="#2F2F2F"/>
<path fill-rule="evenodd" clip-rule="evenodd" d="M76 10L71 15L76 20L77.1489 18.8511L73.2977 14.9999L77.1488 11.1488L76 10Z" fill="#2F2F2F"/>
<path d="M107.41 21.8C105.97 21.8 104.743 21.4867 103.73 20.86C102.717 20.2267 101.94 19.3467 101.4 18.22C100.867 17.0933 100.6 15.7867 100.6 14.3C100.6 12.8133 100.867 11.5067 101.4 10.38C101.94 9.25333 102.717 8.37667 103.73 7.75C104.743 7.11667 105.97 6.8 107.41 6.8C109.07 6.8 110.443 7.22 111.53 8.06C112.623 8.9 113.383 10.03 113.81 11.45L111.69 12.02C111.41 11.0133 110.91 10.2233 110.19 9.65C109.477 9.07667 108.55 8.79 107.41 8.79C106.39 8.79 105.54 9.02 104.86 9.48C104.18 9.94 103.667 10.5833 103.32 11.41C102.98 12.2367 102.81 13.2 102.81 14.3C102.803 15.4 102.97 16.3633 103.31 17.19C103.657 18.0167 104.17 18.66 104.85 19.12C105.537 19.58 106.39 19.81 107.41 19.81C108.55 19.81 109.477 19.5233 110.19 18.95C110.91 18.37 111.41 17.58 111.69 16.58L113.81 17.15C113.383 18.57 112.623 19.7 111.53 20.54C110.443 21.38 109.07 21.8 107.41 21.8ZM123.589 21.5V16.19C123.589 15.77 123.553 15.34 123.479 14.9C123.413 14.4533 123.279 14.04 123.079 13.66C122.886 13.28 122.609 12.9733 122.249 12.74C121.896 12.5067 121.433 12.39 120.859 12.39C120.486 12.39 120.133 12.4533 119.799 12.58C119.466 12.7 119.173 12.8967 118.919 13.17C118.673 13.4433 118.476 13.8033 118.329 14.25C118.189 14.6967 118.119 15.24 118.119 15.88L116.819 15.39C116.819 14.41 117.003 13.5467 117.369 12.8C117.736 12.0467 118.263 11.46 118.949 11.04C119.636 10.62 120.466 10.41 121.439 10.41C122.186 10.41 122.813 10.53 123.319 10.77C123.826 11.01 124.236 11.3267 124.549 11.72C124.869 12.1067 125.113 12.53 125.279 12.99C125.446 13.45 125.559 13.9 125.619 14.34C125.679 14.78 125.709 15.1667 125.709 15.5V21.5H123.589ZM115.999 21.5V7.1H117.869V14.87H118.119V21.5H115.999ZM133.104 21.8C132.031 21.8 131.087 21.5667 130.274 21.1C129.467 20.6267 128.837 19.97 128.384 19.13C127.937 18.2833 127.714 17.3033 127.714 16.19C127.714 15.01 127.934 13.9867 128.374 13.12C128.821 12.2533 129.441 11.5833 130.234 11.11C131.027 10.6367 131.951 10.4 133.004 10.4C134.104 10.4 135.041 10.6567 135.814 11.17C136.587 11.6767 137.164 12.4 137.544 13.34C137.931 14.28 138.084 15.3967 138.004 16.69H135.914V15.93C135.901 14.6767 135.661 13.75 135.194 13.15C134.734 12.55 134.031 12.25 133.084 12.25C132.037 12.25 131.251 12.58 130.724 13.24C130.197 13.9 129.934 14.8533 129.934 16.1C129.934 17.2867 130.197 18.2067 130.724 18.86C131.251 19.5067 132.011 19.83 133.004 19.83C133.657 19.83 134.221 19.6833 134.694 19.39C135.174 19.09 135.547 18.6633 135.814 18.11L137.864 18.76C137.444 19.7267 136.807 20.4767 135.954 21.01C135.101 21.5367 134.151 21.8 133.104 21.8ZM129.254 16.69V15.06H136.964V16.69H129.254ZM147.535 21.5V16.19C147.535 15.77 147.498 15.34 147.425 14.9C147.358 14.4533 147.225 14.04 147.025 13.66C146.831 13.28 146.555 12.9733 146.195 12.74C145.841 12.5067 145.378 12.39 144.805 12.39C144.431 12.39 144.078 12.4533 143.745 12.58C143.411 12.7 143.118 12.8967 142.865 13.17C142.618 13.4433 142.421 13.8033 142.275 14.25C142.135 14.6967 142.065 15.24 142.065 15.88L140.765 15.39C140.765 14.41 140.948 13.5467 141.315 12.8C141.681 12.0467 142.208 11.46 142.895 11.04C143.581 10.62 144.411 10.41 145.385 10.41C146.131 10.41 146.758 10.53 147.265 10.77C147.771 11.01 148.181 11.3267 148.495 11.72C148.815 12.1067 149.058 12.53 149.225 12.99C149.391 13.45 149.505 13.9 149.565 14.34C149.625 14.78 149.655 15.1667 149.655 15.5V21.5H147.535ZM139.945 21.5V10.7H141.815V13.82H142.065V21.5H139.945Z" fill="#2F2F2F"/>
</svg>
