<svg width="20" height="21" viewBox="0 0 20 21" fill="none" xmlns="http://www.w3.org/2000/svg">
<path fill-rule="evenodd" clip-rule="evenodd" d="M3.17115 4.91927C3.92126 4.16939 4.93849 3.74813 5.99915 3.74813C7.0598 3.74813 8.07703 4.16939 8.82715 4.91927L9.99915 6.09027L11.1711 4.91927C11.5401 4.53723 11.9815 4.2325 12.4695 4.02287C12.9575 3.81323 13.4824 3.70289 14.0135 3.69827C14.5447 3.69366 15.0714 3.79486 15.563 3.99599C16.0545 4.19711 16.5012 4.49412 16.8767 4.86969C17.2523 5.24526 17.5493 5.69187 17.7504 6.18346C17.9516 6.67504 18.0528 7.20176 18.0481 7.73288C18.0435 8.264 17.9332 8.78888 17.7236 9.27689C17.5139 9.76491 17.2092 10.2063 16.8271 10.5753L9.99915 17.4043L3.17115 10.5753C2.42126 9.82516 2 8.80793 2 7.74727C2 6.68662 2.42126 5.66938 3.17115 4.91927Z" fill="#3266d0"/>
</svg>
