<svg width="900" height="453" viewBox="0 0 900 453" fill="none" xmlns="http://www.w3.org/2000/svg">
<rect width="900" height="452.75" fill="#374A5F" fill-opacity="0.025"/>
<rect x="0.5" y="0.5" width="899" height="451.75" stroke="#374A5F" stroke-opacity="0.1"/>
<path d="M45.976 48.506L44.248 56.606C44.194 56.858 44.158 57.092 44.158 57.218C44.158 57.848 44.608 58.028 45.634 58.028H46.408C47.884 58.028 48.55 57.326 50.116 55.256H50.998L49.594 59H39.766L39.964 58.154C41.17 58.1 41.728 57.92 41.944 56.858L43.69 48.704C43.726 48.47 43.762 48.2 43.762 48.074C43.762 47.39 43.348 47.246 42.268 47.21L42.43 46.364H48.154L47.956 47.21C46.75 47.264 46.192 47.444 45.976 48.506ZM56.1255 49.172L54.2535 56.732C54.1635 57.074 54.0915 57.362 54.0915 57.506C54.0915 57.686 54.1815 57.776 54.3435 57.776C54.6855 57.776 55.1895 57.38 55.9455 56.426L56.3775 56.84C55.2435 58.496 54.3615 59.18 53.3355 59.18C52.5075 59.18 51.9855 58.622 51.9855 57.812C51.9855 57.38 52.0755 56.93 52.2375 56.264L53.5695 50.9L52.3275 50.27L52.4535 49.82L55.6215 49.172H56.1255ZM55.4055 48.092C54.6315 48.092 54.0915 47.516 54.0915 46.832C54.0915 46.04 54.7035 45.392 55.5315 45.392C56.3055 45.392 56.8455 45.968 56.8455 46.652C56.8455 47.444 56.2335 48.092 55.4055 48.092ZM61.9705 49.154L61.3945 51.458L60.6565 53.726H60.7825C62.0425 51.548 64.0765 49.172 65.8045 49.172C66.7585 49.172 67.1365 49.712 67.1365 50.54C67.1365 50.774 67.0825 51.098 67.0285 51.332L65.5885 56.732C65.4985 57.074 65.4265 57.362 65.4265 57.506C65.4265 57.686 65.5165 57.776 65.6785 57.776C66.0205 57.776 66.5065 57.38 67.2805 56.426L67.6945 56.84C66.5785 58.496 65.6965 59.18 64.6705 59.18C63.8425 59.18 63.3025 58.622 63.3025 57.812C63.3025 57.38 63.3745 56.93 63.5545 56.264L64.8505 51.584C64.9045 51.35 64.9405 51.134 64.9405 50.99C64.9405 50.738 64.8505 50.612 64.6165 50.612C63.6445 50.612 61.0525 53.276 60.2245 56.516L59.5945 59H57.4705L59.4865 50.9L58.2625 50.27L58.3885 49.82L61.4665 49.154H61.9705ZM74.0401 53.024L75.5161 56.498C75.8041 57.2 76.0561 57.686 76.4341 57.686C76.8301 57.686 77.3161 57.236 77.9281 56.462L78.3061 56.894C77.3701 58.406 76.5241 59.18 75.5161 59.18C74.5621 59.18 74.0401 58.406 73.6081 57.29L72.2581 53.924L75.4621 50.342C76.1821 49.532 76.6681 49.172 77.3701 49.172C78.1981 49.172 78.5941 49.748 78.5941 50.324C78.5941 50.99 78.1981 51.422 77.4781 51.692H77.1901C77.1901 51.206 77.0101 50.846 76.5241 50.846C76.1641 50.846 75.7861 51.008 75.1741 51.728L74.0401 53.024ZM73.9501 45.302L70.7281 59H68.6041L71.3581 47.12L70.0981 46.49L70.2241 46.058L73.4641 45.302H73.9501ZM86.9763 51.224C86.9763 53.312 84.1323 54.284 81.1263 54.968V55.4C81.1263 56.912 81.8463 57.902 83.0163 57.902C84.0783 57.902 84.9783 57.29 85.8423 56.264L86.3103 56.66C85.0323 58.478 83.7003 59.18 82.2063 59.18C80.0463 59.18 79.0743 57.47 79.0743 55.544C79.0743 52.394 81.5943 49.172 84.6903 49.172C86.2383 49.172 86.9763 50.09 86.9763 51.224ZM84.2223 50.144C82.8363 50.144 81.5043 52.07 81.1983 54.374C83.8623 53.582 85.1583 52.718 85.1583 51.278C85.1583 50.648 84.8523 50.144 84.2223 50.144ZM90.581 57.704C91.913 57.704 93.947 54.716 94.793 50.738C94.487 50.18 94.001 50 93.515 50C91.265 50 89.627 53.402 89.609 56.156C89.609 57.074 89.933 57.704 90.581 57.704ZM95.639 47.12L94.361 46.49L94.487 46.058L97.691 45.302H98.159L95.495 56.732C95.405 57.074 95.351 57.362 95.351 57.506C95.351 57.686 95.441 57.776 95.603 57.776C95.945 57.776 96.449 57.38 97.187 56.426L97.619 56.84C96.503 58.496 95.603 59.18 94.577 59.18C93.749 59.18 93.335 58.604 93.335 57.812C93.335 57.182 93.623 55.994 93.911 55.004H93.785C92.777 57.182 91.301 59.18 89.645 59.18C88.313 59.18 87.485 58.118 87.485 56.336C87.485 52.61 90.257 49.172 93.317 49.172C94.073 49.172 94.667 49.442 95.027 49.82L95.639 47.12ZM103.916 48.506L102.17 56.66C102.134 56.894 102.098 57.164 102.098 57.29C102.098 57.974 102.512 58.118 103.592 58.154L103.43 59H97.7056L97.9036 58.154C99.1096 58.1 99.6676 57.92 99.8836 56.858L101.63 48.704C101.666 48.47 101.702 48.2 101.702 48.074C101.702 47.39 101.288 47.246 100.208 47.21L100.37 46.364H106.094L105.896 47.21C104.69 47.264 104.132 47.444 103.916 48.506ZM109.741 49.154L109.165 51.458L108.427 53.726H108.553C109.813 51.548 111.847 49.172 113.575 49.172C114.529 49.172 114.907 49.712 114.907 50.54C114.907 50.774 114.853 51.098 114.799 51.332L113.359 56.732C113.269 57.074 113.197 57.362 113.197 57.506C113.197 57.686 113.287 57.776 113.449 57.776C113.791 57.776 114.277 57.38 115.051 56.426L115.465 56.84C114.349 58.496 113.467 59.18 112.441 59.18C111.613 59.18 111.073 58.622 111.073 57.812C111.073 57.38 111.145 56.93 111.325 56.264L112.621 51.584C112.675 51.35 112.711 51.134 112.711 50.99C112.711 50.738 112.621 50.612 112.387 50.612C111.415 50.612 108.823 53.276 107.995 56.516L107.365 59H105.241L107.257 50.9L106.033 50.27L106.159 49.82L109.237 49.154H109.741ZM120.136 47.66H119.506C118.948 47.516 118.588 47.21 118.588 46.544C118.588 45.824 119.128 45.248 119.92 45.248C120.838 45.248 121.432 45.878 121.432 46.922C121.432 48.506 119.992 49.946 117.85 50.072V49.28C119.092 49.064 119.992 48.488 120.136 47.66ZM124.647 58.298C125.493 58.298 125.943 57.848 125.943 57.092C125.943 55.724 122.559 54.284 122.559 52.16C122.559 50.45 123.999 49.172 125.979 49.172C127.401 49.172 128.373 49.856 128.373 50.864C128.373 51.332 127.959 51.674 127.527 51.854H127.221C126.825 50.792 126.195 50.108 125.313 50.108C124.521 50.108 124.125 50.504 124.125 51.188C124.125 52.412 127.617 54.032 127.617 56.084C127.617 57.992 125.979 59.18 124.125 59.18C122.361 59.18 121.173 58.316 121.173 57.218C121.173 56.642 121.533 56.192 122.055 55.976H122.325C122.739 57.362 123.495 58.298 124.647 58.298ZM135.353 54.086H135.479C136.847 51.35 138.557 49.172 140.285 49.172C141.617 49.172 142.391 50.288 142.391 51.908C142.391 55.634 139.349 59.18 136.325 59.18C135.551 59.18 134.921 58.784 134.633 58.352L134.147 60.512C134.093 60.728 134.057 60.926 134.057 61.07C134.075 61.592 134.543 61.664 135.209 61.754L135.011 62.546H130.187L130.385 61.754C131.231 61.646 131.771 61.556 131.969 60.728L134.363 50.864L133.121 50.27L133.247 49.82L136.325 49.154H136.829L136.271 51.512L135.353 54.086ZM139.277 50.702C138.143 50.702 135.857 53.51 134.903 57.056C134.975 57.794 135.407 58.334 136.145 58.334C138.305 58.334 140.195 54.878 140.213 52.124C140.213 51.188 139.871 50.702 139.277 50.702ZM149.934 54.554H149.808C148.35 57.38 146.676 59.18 145.074 59.18C144.174 59.18 143.634 58.55 143.634 57.596C143.634 57.272 143.688 56.858 143.796 56.444L145.164 50.9L143.94 50.27L144.066 49.82L147.216 49.172H147.72L145.92 56.408C145.848 56.678 145.794 57.02 145.794 57.29C145.794 57.596 145.884 57.758 146.154 57.758C147.414 57.758 149.7 54.482 150.492 51.44L150.996 49.496L153.156 49.352L151.32 56.732C151.23 57.074 151.158 57.362 151.158 57.506C151.158 57.686 151.248 57.776 151.41 57.776C151.752 57.776 152.256 57.38 153.03 56.426L153.444 56.84C152.31 58.496 151.446 59.18 150.42 59.18C149.592 59.18 149.16 58.604 149.16 57.74C149.16 57.2 149.394 56.3 149.934 54.554ZM157.305 55.184H157.431C159.411 51.224 160.599 49.172 161.895 49.172C162.687 49.172 163.011 49.748 163.011 50.378C163.011 51.242 162.435 51.782 161.751 52.106H161.445C161.445 51.764 161.355 51.44 160.941 51.44C159.897 51.44 157.809 54.554 156.711 59H154.587L156.585 50.9L155.361 50.27L155.487 49.82L158.565 49.154H159.069L158.331 52.052L157.305 55.184ZM165.755 54.086H165.881C167.249 51.35 168.959 49.172 170.687 49.172C172.019 49.172 172.793 50.288 172.793 51.908C172.793 55.634 169.751 59.18 166.727 59.18C165.953 59.18 165.323 58.784 165.035 58.352L164.549 60.512C164.495 60.728 164.459 60.926 164.459 61.07C164.477 61.592 164.945 61.664 165.611 61.754L165.413 62.546H160.589L160.787 61.754C161.633 61.646 162.173 61.556 162.371 60.728L164.765 50.864L163.523 50.27L163.649 49.82L166.727 49.154H167.231L166.673 51.512L165.755 54.086ZM169.679 50.702C168.545 50.702 166.259 53.51 165.305 57.056C165.377 57.794 165.809 58.334 166.547 58.334C168.707 58.334 170.597 54.878 170.615 52.124C170.615 51.188 170.273 50.702 169.679 50.702ZM177.043 58.334C178.915 58.334 180.103 54.77 180.103 52.358C180.103 50.9 179.653 50.018 178.807 50.018C176.935 50.018 175.747 53.582 175.747 56.012C175.747 57.452 176.197 58.334 177.043 58.334ZM176.971 59.18C174.973 59.18 173.605 57.794 173.605 55.4C173.605 52.304 175.747 49.172 178.879 49.172C180.877 49.172 182.245 50.558 182.245 52.952C182.245 56.048 180.103 59.18 176.971 59.18ZM186.094 58.298C186.94 58.298 187.39 57.848 187.39 57.092C187.39 55.724 184.006 54.284 184.006 52.16C184.006 50.45 185.446 49.172 187.426 49.172C188.848 49.172 189.82 49.856 189.82 50.864C189.82 51.332 189.406 51.674 188.974 51.854H188.668C188.272 50.792 187.642 50.108 186.76 50.108C185.968 50.108 185.572 50.504 185.572 51.188C185.572 52.412 189.064 54.032 189.064 56.084C189.064 57.992 187.426 59.18 185.572 59.18C183.808 59.18 182.62 58.316 182.62 57.218C182.62 56.642 182.98 56.192 183.502 55.976H183.772C184.186 57.362 184.942 58.298 186.094 58.298ZM198.47 51.224C198.47 53.312 195.626 54.284 192.62 54.968V55.4C192.62 56.912 193.34 57.902 194.51 57.902C195.572 57.902 196.472 57.29 197.336 56.264L197.804 56.66C196.526 58.478 195.194 59.18 193.7 59.18C191.54 59.18 190.568 57.47 190.568 55.544C190.568 52.394 193.088 49.172 196.184 49.172C197.732 49.172 198.47 50.09 198.47 51.224ZM195.716 50.144C194.33 50.144 192.998 52.07 192.692 54.374C195.356 53.582 196.652 52.718 196.652 51.278C196.652 50.648 196.346 50.144 195.716 50.144Z" fill="#374A5F"/>
<rect x="40" y="103" width="380" height="124" fill="#374A5F" fill-opacity="0.025"/>
<rect x="40.375" y="103.375" width="379.25" height="123.25" stroke="#374A5F" stroke-opacity="0.1" stroke-width="0.75"/>
<path d="M71.176 145V136.48H72.436V143.812H76.504V145H71.176ZM78.8513 145V143.812H80.8913V137.668H78.8513V136.48H84.1793V137.668H82.1393V143.812H84.1793V145H78.8513ZM86.6466 145V136.48H88.1826L90.9786 143.212V136.48H92.2146V145H90.6786L87.8826 138.268V145H86.6466ZM94.4179 145V136.48H95.6779V140.488L98.8699 136.48H100.394L97.3459 140.224L100.49 145H99.0139L96.5539 141.196L95.6779 142.276V145H94.4179ZM102.717 145V136.48H107.949V137.668H103.977V140.152H107.805V141.304H103.977V143.812H108.045V145H102.717ZM110.573 145V136.48H112.649C114.917 136.48 116.345 138.016 116.345 140.752C116.345 143.488 114.917 145 112.649 145H110.573ZM111.833 143.812H112.613C114.149 143.812 115.037 142.792 115.037 140.752C115.037 138.7 114.149 137.668 112.613 137.668H111.833V143.812ZM118.428 145V143.812H120.468V137.668H118.428V136.48H123.756V137.668H121.716V143.812H123.756V145H118.428ZM126.223 145V136.48H127.759L130.555 143.212V136.48H131.791V145H130.255L127.459 138.268V145H126.223ZM136.491 140.428L136.335 137.428V136.48H137.511V137.428L137.355 140.428H136.491ZM144.946 145.192C143.098 145.192 141.898 144.016 141.754 142.228L143.05 142.144C143.218 143.368 143.914 144.016 144.994 144.016C146.038 144.016 146.626 143.596 146.626 142.84C146.626 142.084 146.218 141.652 144.43 141.148C142.678 140.668 141.946 140.08 141.946 138.76C141.946 137.296 143.026 136.288 144.814 136.288C146.59 136.288 147.61 137.404 147.778 139.048L146.482 139.12C146.35 138.136 145.798 137.464 144.778 137.464C143.842 137.464 143.242 137.956 143.242 138.7C143.242 139.444 143.662 139.72 145.174 140.14C147.214 140.692 147.922 141.448 147.922 142.84C147.922 144.244 146.734 145.192 144.946 145.192ZM159.924 145L157.392 136.48H158.724L160.668 143.32L162.612 136.48H163.944L161.412 145H159.924ZM165.92 145V143.812H167.96V137.668H165.92V136.48H171.248V137.668H169.208V143.812H171.248V145H165.92ZM176.607 145.192C174.759 145.192 173.559 144.016 173.415 142.228L174.711 142.144C174.879 143.368 175.575 144.016 176.655 144.016C177.699 144.016 178.287 143.596 178.287 142.84C178.287 142.084 177.879 141.652 176.091 141.148C174.339 140.668 173.607 140.08 173.607 138.76C173.607 137.296 174.687 136.288 176.475 136.288C178.251 136.288 179.271 137.404 179.439 139.048L178.143 139.12C178.011 138.136 177.459 137.464 176.439 137.464C175.503 137.464 174.903 137.956 174.903 138.7C174.903 139.444 175.323 139.72 176.835 140.14C178.875 140.692 179.583 141.448 179.583 142.84C179.583 144.244 178.395 145.192 176.607 145.192ZM181.75 145V143.812H183.79V137.668H181.75V136.48H187.078V137.668H185.038V143.812H187.078V145H181.75ZM192.33 145.192C190.302 145.192 189.162 143.596 189.162 140.752C189.162 137.884 190.302 136.288 192.33 136.288C194.358 136.288 195.498 137.884 195.498 140.752C195.498 143.596 194.358 145.192 192.33 145.192ZM192.33 144.016C193.53 144.016 194.19 142.912 194.19 140.752C194.19 138.592 193.53 137.464 192.33 137.464C191.13 137.464 190.47 138.592 190.47 140.752C190.47 142.912 191.13 144.016 192.33 144.016ZM197.461 145V136.48H198.997L201.793 143.212V136.48H203.029V145H201.493L198.697 138.268V145H197.461Z" fill="#98A3AE"/>
<path d="M75.096 175.224C72.436 175.224 70.63 173.264 70.63 170.044C70.63 166.824 72.436 164.836 75.096 164.836C77.504 164.836 78.778 166.138 79.198 168.224L77.924 168.308C77.644 166.894 76.748 166.012 75.096 166.012C73.192 166.012 71.89 167.524 71.89 170.044C71.89 172.564 73.192 174.048 75.096 174.048C76.832 174.048 77.756 173.082 78.008 171.528L79.282 171.612C78.918 173.768 77.476 175.224 75.096 175.224ZM80.8544 175V167.58H81.8904L81.9324 168.952C82.1984 168.014 82.7864 167.58 83.6964 167.58H84.4244V168.7H83.7104C82.5904 168.7 82.0304 169.302 82.0304 170.52V175H80.8544ZM88.4965 175.168C86.3965 175.168 85.0945 173.642 85.0945 171.29C85.0945 168.938 86.3965 167.412 88.4405 167.412C90.3725 167.412 91.7165 168.812 91.7165 171.304V171.654H86.3265C86.4105 173.25 87.2085 174.048 88.4965 174.048C89.4625 174.048 90.0925 173.558 90.3445 172.802L91.6045 172.9C91.2125 174.23 90.0645 175.168 88.4965 175.168ZM86.3265 170.618H90.4285C90.3165 169.19 89.5325 168.532 88.4405 168.532C87.2925 168.532 86.5225 169.246 86.3265 170.618ZM95.5029 175.168C93.9629 175.168 92.9969 174.426 92.9969 173.152C92.9969 171.892 93.7109 171.192 95.3349 170.884L97.9669 170.394C97.9669 169.148 97.3789 168.532 96.2029 168.532C95.1669 168.532 94.5929 169.008 94.3689 169.862L93.1229 169.764C93.4029 168.364 94.5229 167.412 96.2029 167.412C98.1069 167.412 99.1429 168.56 99.1429 170.436V173.502C99.1429 173.838 99.2549 173.964 99.5349 173.964H99.8289V175C99.7449 175.014 99.5629 175.028 99.3809 175.028C98.4849 175.028 98.0789 174.678 97.9809 173.852C97.6169 174.622 96.5949 175.168 95.5029 175.168ZM95.6149 174.132C97.0989 174.132 97.9669 173.18 97.9669 171.948V171.416L95.5589 171.864C94.5509 172.046 94.2289 172.424 94.2289 173.04C94.2289 173.74 94.7469 174.132 95.6149 174.132ZM103.504 175C102.16 175 101.53 174.412 101.53 173.096V168.616H100.438V167.58H101.53V165.844H102.706V167.58H104.68V168.616H102.706V173.068C102.706 173.74 103 173.964 103.616 173.964H104.68V175H103.504ZM108.95 175.168C106.85 175.168 105.548 173.642 105.548 171.29C105.548 168.938 106.85 167.412 108.894 167.412C110.826 167.412 112.17 168.812 112.17 171.304V171.654H106.78C106.864 173.25 107.662 174.048 108.95 174.048C109.916 174.048 110.546 173.558 110.798 172.802L112.058 172.9C111.666 174.23 110.518 175.168 108.95 175.168ZM106.78 170.618H110.882C110.77 169.19 109.986 168.532 108.894 168.532C107.746 168.532 106.976 169.246 106.78 170.618ZM120.297 175.168C118.197 175.168 116.895 173.642 116.895 171.29C116.895 168.938 118.197 167.412 120.241 167.412C122.173 167.412 123.517 168.812 123.517 171.304V171.654H118.127C118.211 173.25 119.009 174.048 120.297 174.048C121.263 174.048 121.893 173.558 122.145 172.802L123.405 172.9C123.013 174.23 121.865 175.168 120.297 175.168ZM118.127 170.618H122.229C122.117 169.19 121.333 168.532 120.241 168.532C119.093 168.532 118.323 169.246 118.127 170.618ZM128.008 175.168C125.936 175.168 124.606 173.642 124.606 171.29C124.606 168.938 125.936 167.412 128.008 167.412C129.716 167.412 130.906 168.336 131.158 169.988L129.926 170.072C129.758 169.092 129.016 168.532 128.008 168.532C126.636 168.532 125.838 169.568 125.838 171.29C125.838 173.012 126.636 174.048 128.008 174.048C129.016 174.048 129.758 173.488 129.926 172.368L131.158 172.452C130.906 174.104 129.716 175.168 128.008 175.168ZM135.514 175.168C133.456 175.168 132.112 173.656 132.112 171.29C132.112 168.924 133.456 167.412 135.514 167.412C137.558 167.412 138.902 168.924 138.902 171.29C138.902 173.656 137.558 175.168 135.514 175.168ZM135.514 174.048C136.872 174.048 137.67 173.012 137.67 171.29C137.67 169.568 136.872 168.532 135.514 168.532C134.142 168.532 133.344 169.568 133.344 171.29C133.344 173.012 134.142 174.048 135.514 174.048ZM140.505 175V167.58H141.583L141.611 168.91C142.003 167.888 142.871 167.412 143.893 167.412C145.587 167.412 146.399 168.658 146.399 170.226V175H145.223V170.562C145.223 169.19 144.761 168.448 143.641 168.448C142.493 168.448 141.681 169.19 141.681 170.562V175H140.505ZM151.373 175.168C149.315 175.168 147.971 173.656 147.971 171.29C147.971 168.924 149.315 167.412 151.373 167.412C153.417 167.412 154.761 168.924 154.761 171.29C154.761 173.656 153.417 175.168 151.373 175.168ZM151.373 174.048C152.731 174.048 153.529 173.012 153.529 171.29C153.529 169.568 152.731 168.532 151.373 168.532C150.001 168.532 149.203 169.568 149.203 171.29C149.203 173.012 150.001 174.048 151.373 174.048ZM156.364 175V167.58H157.442L157.47 168.882C157.834 167.972 158.604 167.412 159.556 167.412C160.676 167.412 161.46 167.972 161.782 168.966C162.104 167.972 162.86 167.412 163.952 167.412C165.534 167.412 166.402 168.434 166.402 170.226V175H165.226V170.478C165.226 169.134 164.694 168.448 163.672 168.448C162.636 168.448 161.964 169.232 161.964 170.562V175H160.788V170.562C160.788 169.246 160.354 168.448 159.262 168.448C158.226 168.448 157.54 169.246 157.54 170.562V175H156.364ZM168.477 166.418V165.046H169.709V166.418H168.477ZM168.505 175V167.58H169.681V175H168.505ZM174.684 175.168C172.612 175.168 171.282 173.642 171.282 171.29C171.282 168.938 172.612 167.412 174.684 167.412C176.392 167.412 177.582 168.336 177.834 169.988L176.602 170.072C176.434 169.092 175.692 168.532 174.684 168.532C173.312 168.532 172.514 169.568 172.514 171.29C172.514 173.012 173.312 174.048 174.684 174.048C175.692 174.048 176.434 173.488 176.602 172.368L177.834 172.452C177.582 174.104 176.392 175.168 174.684 175.168ZM185.827 175.168C183.769 175.168 182.425 173.656 182.425 171.29C182.425 168.924 183.769 167.412 185.827 167.412C187.871 167.412 189.215 168.924 189.215 171.29C189.215 173.656 187.871 175.168 185.827 175.168ZM185.827 174.048C187.185 174.048 187.983 173.012 187.983 171.29C187.983 169.568 187.185 168.532 185.827 168.532C184.455 168.532 183.657 169.568 183.657 171.29C183.657 173.012 184.455 174.048 185.827 174.048ZM190.817 177.1V167.58H191.909L191.923 168.714C192.371 167.86 193.197 167.412 194.205 167.412C196.417 167.412 197.411 169.246 197.411 171.29C197.411 173.334 196.417 175.168 194.205 175.168C193.239 175.168 192.385 174.734 191.993 174.02V177.1H190.817ZM194.093 174.048C195.381 174.048 196.179 173.026 196.179 171.29C196.179 169.554 195.381 168.532 194.093 168.532C192.805 168.532 191.993 169.47 191.993 171.29C191.993 173.11 192.791 174.048 194.093 174.048ZM199.007 177.1V167.58H200.099L200.113 168.714C200.561 167.86 201.387 167.412 202.395 167.412C204.607 167.412 205.601 169.246 205.601 171.29C205.601 173.334 204.607 175.168 202.395 175.168C201.429 175.168 200.575 174.734 200.183 174.02V177.1H199.007ZM202.283 174.048C203.571 174.048 204.369 173.026 204.369 171.29C204.369 169.554 203.571 168.532 202.283 168.532C200.995 168.532 200.183 169.47 200.183 171.29C200.183 173.11 200.981 174.048 202.283 174.048ZM210.094 175.168C208.036 175.168 206.692 173.656 206.692 171.29C206.692 168.924 208.036 167.412 210.094 167.412C212.138 167.412 213.482 168.924 213.482 171.29C213.482 173.656 212.138 175.168 210.094 175.168ZM210.094 174.048C211.452 174.048 212.25 173.012 212.25 171.29C212.25 169.568 211.452 168.532 210.094 168.532C208.722 168.532 207.924 169.568 207.924 171.29C207.924 173.012 208.722 174.048 210.094 174.048ZM215.085 175V167.58H216.121L216.163 168.952C216.429 168.014 217.017 167.58 217.927 167.58H218.655V168.7H217.941C216.821 168.7 216.261 169.302 216.261 170.52V175H215.085ZM222.408 175C221.064 175 220.434 174.412 220.434 173.096V168.616H219.342V167.58H220.434V165.844H221.61V167.58H223.584V168.616H221.61V173.068C221.61 173.74 221.904 173.964 222.52 173.964H223.584V175H222.408ZM227.529 175.168C226.045 175.168 225.093 174.118 225.093 172.354V167.58H226.269V172.032C226.269 173.474 226.773 174.132 227.837 174.132C229.013 174.132 229.727 173.334 229.727 172.004V167.58H230.903V175H229.783V173.796C229.377 174.678 228.593 175.168 227.529 175.168ZM233.145 175V167.58H234.223L234.251 168.91C234.643 167.888 235.511 167.412 236.533 167.412C238.227 167.412 239.039 168.658 239.039 170.226V175H237.863V170.562C237.863 169.19 237.401 168.448 236.281 168.448C235.133 168.448 234.321 169.19 234.321 170.562V175H233.145ZM241.115 166.418V165.046H242.347V166.418H241.115ZM241.143 175V167.58H242.319V175H241.143ZM246.717 175C245.373 175 244.743 174.412 244.743 173.096V168.616H243.651V167.58H244.743V165.844H245.919V167.58H247.893V168.616H245.919V173.068C245.919 173.74 246.213 173.964 246.829 173.964H247.893V175H246.717ZM249.669 177.1V176.064H250.523C251.041 176.064 251.251 175.91 251.391 175.56L251.657 174.86H251.251L248.535 167.58H249.823L252.035 173.768L254.149 167.58H255.437L252.427 175.938C252.147 176.736 251.629 177.1 250.635 177.1H249.669ZM261.094 175V168.616H260.086V167.58H261.094V166.908C261.094 165.816 261.71 165.06 263.054 165.06H264.23V166.096H263.138C262.55 166.096 262.27 166.432 262.27 166.992V167.58H264.132V168.616H262.27V175H261.094ZM268.172 175.168C266.114 175.168 264.77 173.656 264.77 171.29C264.77 168.924 266.114 167.412 268.172 167.412C270.216 167.412 271.56 168.924 271.56 171.29C271.56 173.656 270.216 175.168 268.172 175.168ZM268.172 174.048C269.53 174.048 270.328 173.012 270.328 171.29C270.328 169.568 269.53 168.532 268.172 168.532C266.8 168.532 266.002 169.568 266.002 171.29C266.002 173.012 266.8 174.048 268.172 174.048ZM273.163 175V167.58H274.199L274.241 168.952C274.507 168.014 275.095 167.58 276.005 167.58H276.733V168.7H276.019C274.899 168.7 274.339 169.302 274.339 170.52V175H273.163ZM284.866 175.168C282.766 175.168 281.464 173.642 281.464 171.29C281.464 168.938 282.766 167.412 284.81 167.412C286.742 167.412 288.086 168.812 288.086 171.304V171.654H282.696C282.78 173.25 283.578 174.048 284.866 174.048C285.832 174.048 286.462 173.558 286.714 172.802L287.974 172.9C287.582 174.23 286.434 175.168 284.866 175.168ZM282.696 170.618H286.798C286.686 169.19 285.902 168.532 284.81 168.532C283.662 168.532 282.892 169.246 282.696 170.618ZM291.35 175L288.648 167.58H289.936L292.092 173.796L294.248 167.58H295.536L292.834 175H291.35ZM299.495 175.168C297.395 175.168 296.093 173.642 296.093 171.29C296.093 168.938 297.395 167.412 299.439 167.412C301.371 167.412 302.715 168.812 302.715 171.304V171.654H297.325C297.409 173.25 298.207 174.048 299.495 174.048C300.461 174.048 301.091 173.558 301.343 172.802L302.603 172.9C302.211 174.23 301.063 175.168 299.495 175.168ZM297.325 170.618H301.427C301.315 169.19 300.531 168.532 299.439 168.532C298.291 168.532 297.521 169.246 297.325 170.618ZM304.308 175V167.58H305.344L305.386 168.952C305.652 168.014 306.24 167.58 307.15 167.58H307.878V168.7H307.164C306.044 168.7 305.484 169.302 305.484 170.52V175H304.308ZM309.579 177.1V176.064H310.433C310.951 176.064 311.161 175.91 311.301 175.56L311.567 174.86H311.161L308.445 167.58H309.733L311.945 173.768L314.059 167.58H315.347L312.337 175.938C312.057 176.736 311.539 177.1 310.545 177.1H309.579ZM320.276 175V167.58H321.354L321.382 168.882C321.746 167.972 322.516 167.412 323.468 167.412C324.588 167.412 325.372 167.972 325.694 168.966C326.016 167.972 326.772 167.412 327.864 167.412C329.446 167.412 330.314 168.434 330.314 170.226V175H329.138V170.478C329.138 169.134 328.606 168.448 327.584 168.448C326.548 168.448 325.876 169.232 325.876 170.562V175H324.7V170.562C324.7 169.246 324.266 168.448 323.174 168.448C322.138 168.448 321.452 169.246 321.452 170.562V175H320.276ZM335.288 175.168C333.188 175.168 331.886 173.642 331.886 171.29C331.886 168.938 333.188 167.412 335.232 167.412C337.164 167.412 338.508 168.812 338.508 171.304V171.654H333.118C333.202 173.25 334 174.048 335.288 174.048C336.254 174.048 336.884 173.558 337.136 172.802L338.396 172.9C338.004 174.23 336.856 175.168 335.288 175.168ZM333.118 170.618H337.22C337.108 169.19 336.324 168.532 335.232 168.532C334.084 168.532 333.314 169.246 333.118 170.618ZM340.1 175V167.58H341.178L341.206 168.882C341.57 167.972 342.34 167.412 343.292 167.412C344.412 167.412 345.196 167.972 345.518 168.966C345.84 167.972 346.596 167.412 347.688 167.412C349.27 167.412 350.138 168.434 350.138 170.226V175H348.962V170.478C348.962 169.134 348.43 168.448 347.408 168.448C346.372 168.448 345.7 169.232 345.7 170.562V175H344.524V170.562C344.524 169.246 344.09 168.448 342.998 168.448C341.962 168.448 341.276 169.246 341.276 170.562V175H340.1ZM355.643 175.168C354.607 175.168 353.767 174.692 353.347 173.88L353.305 175H352.241V165.06H353.417V168.616C353.781 168 354.607 167.412 355.643 167.412C357.603 167.412 358.835 168.91 358.835 171.29C358.835 173.67 357.603 175.168 355.643 175.168ZM355.573 174.048C356.819 174.048 357.603 172.984 357.603 171.29C357.603 169.568 356.819 168.532 355.601 168.532C354.229 168.532 353.417 169.568 353.417 171.29C353.417 172.984 354.229 174.048 355.573 174.048ZM363.329 175.168C361.229 175.168 359.927 173.642 359.927 171.29C359.927 168.938 361.229 167.412 363.273 167.412C365.205 167.412 366.549 168.812 366.549 171.304V171.654H361.159C361.243 173.25 362.041 174.048 363.329 174.048C364.295 174.048 364.925 173.558 365.177 172.802L366.437 172.9C366.045 174.23 364.897 175.168 363.329 175.168ZM361.159 170.618H365.261C365.149 169.19 364.365 168.532 363.273 168.532C362.125 168.532 361.355 169.246 361.159 170.618ZM368.141 175V167.58H369.177L369.219 168.952C369.485 168.014 370.073 167.58 370.983 167.58H371.711V168.7H370.997C369.877 168.7 369.317 169.302 369.317 170.52V175H368.141ZM379.844 175.168C377.786 175.168 376.442 173.656 376.442 171.29C376.442 168.924 377.786 167.412 379.844 167.412C381.888 167.412 383.232 168.924 383.232 171.29C383.232 173.656 381.888 175.168 379.844 175.168ZM379.844 174.048C381.202 174.048 382 173.012 382 171.29C382 169.568 381.202 168.532 379.844 168.532C378.472 168.532 377.674 169.568 377.674 171.29C377.674 173.012 378.472 174.048 379.844 174.048ZM385.276 175V168.616H384.268V167.58H385.276V166.908C385.276 165.816 385.892 165.06 387.236 165.06H388.412V166.096H387.32C386.732 166.096 386.452 166.432 386.452 166.992V167.58H388.314V168.616H386.452V175H385.276ZM73.836 193C72.492 193 71.862 192.412 71.862 191.096V186.616H70.77V185.58H71.862V183.844H73.038V185.58H75.012V186.616H73.038V191.068C73.038 191.74 73.332 191.964 73.948 191.964H75.012V193H73.836ZM76.5204 193V183.06H77.6964V186.742C78.0744 185.832 78.9144 185.412 79.9364 185.412C81.5324 185.412 82.4144 186.574 82.4144 188.226V193H81.2384V188.562C81.2384 187.134 80.7204 186.448 79.6844 186.448C78.4804 186.448 77.6964 187.204 77.6964 188.576V193H76.5204ZM87.3891 193.168C85.2891 193.168 83.9871 191.642 83.9871 189.29C83.9871 186.938 85.2891 185.412 87.3331 185.412C89.2651 185.412 90.6091 186.812 90.6091 189.304V189.654H85.2191C85.3031 191.25 86.1011 192.048 87.3891 192.048C88.3551 192.048 88.9851 191.558 89.2371 190.802L90.4971 190.9C90.1051 192.23 88.9571 193.168 87.3891 193.168ZM85.2191 188.618H89.3211C89.2091 187.19 88.4251 186.532 87.3331 186.532C86.1851 186.532 85.4151 187.246 85.2191 188.618ZM98.6528 195.268C97.0568 195.268 95.8528 194.414 95.5448 193.112L96.7767 193.028C97.0008 193.728 97.5048 194.148 98.6528 194.148C99.9968 194.148 100.739 193.616 100.739 192.524V191.32C100.375 192.104 99.5348 192.608 98.5688 192.608C96.6788 192.608 95.3348 191.124 95.3348 189.01C95.3348 186.896 96.6508 185.412 98.5128 185.412C99.5488 185.412 100.459 185.93 100.795 186.756V185.58H101.915V192.496C101.915 194.232 100.697 195.268 98.6528 195.268ZM98.6248 191.488C99.8988 191.488 100.725 190.536 100.739 189.01C100.767 187.484 99.9128 186.532 98.6248 186.532C97.3228 186.532 96.5667 187.484 96.5667 189.01C96.5667 190.536 97.3508 191.488 98.6248 191.488ZM105.607 193C104.739 193 104.151 192.58 104.151 191.6V183.06H105.327V191.502C105.327 191.81 105.481 191.964 105.789 191.964H106.433V193H105.607ZM110.7 193.168C108.642 193.168 107.298 191.656 107.298 189.29C107.298 186.924 108.642 185.412 110.7 185.412C112.744 185.412 114.088 186.924 114.088 189.29C114.088 191.656 112.744 193.168 110.7 193.168ZM110.7 192.048C112.058 192.048 112.856 191.012 112.856 189.29C112.856 187.568 112.058 186.532 110.7 186.532C109.328 186.532 108.53 187.568 108.53 189.29C108.53 191.012 109.328 192.048 110.7 192.048ZM119.092 193.168C118.056 193.168 117.216 192.692 116.796 191.88L116.754 193H115.69V183.06H116.866V186.616C117.23 186 118.056 185.412 119.092 185.412C121.052 185.412 122.284 186.91 122.284 189.29C122.284 191.67 121.052 193.168 119.092 193.168ZM119.022 192.048C120.268 192.048 121.052 190.984 121.052 189.29C121.052 187.568 120.268 186.532 119.05 186.532C117.678 186.532 116.866 187.568 116.866 189.29C116.866 190.984 117.678 192.048 119.022 192.048ZM126.073 193.168C124.533 193.168 123.567 192.426 123.567 191.152C123.567 189.892 124.281 189.192 125.905 188.884L128.537 188.394C128.537 187.148 127.949 186.532 126.773 186.532C125.737 186.532 125.163 187.008 124.939 187.862L123.693 187.764C123.973 186.364 125.093 185.412 126.773 185.412C128.677 185.412 129.713 186.56 129.713 188.436V191.502C129.713 191.838 129.825 191.964 130.105 191.964H130.399V193C130.315 193.014 130.133 193.028 129.951 193.028C129.055 193.028 128.649 192.678 128.551 191.852C128.187 192.622 127.165 193.168 126.073 193.168ZM126.185 192.132C127.669 192.132 128.537 191.18 128.537 189.948V189.416L126.129 189.864C125.121 190.046 124.799 190.424 124.799 191.04C124.799 191.74 125.317 192.132 126.185 192.132ZM133.101 193C132.233 193 131.645 192.58 131.645 191.6V183.06H132.821V191.502C132.821 191.81 132.975 191.964 133.283 191.964H133.927V193H133.101ZM140.362 193L138.066 185.58H139.354L141.09 191.768L142.854 185.58H144.114L145.878 191.768L147.628 185.58H148.916L146.62 193H145.136L143.484 187.358L141.832 193H140.362ZM152.877 193.168C150.819 193.168 149.475 191.656 149.475 189.29C149.475 186.924 150.819 185.412 152.877 185.412C154.921 185.412 156.265 186.924 156.265 189.29C156.265 191.656 154.921 193.168 152.877 193.168ZM152.877 192.048C154.235 192.048 155.033 191.012 155.033 189.29C155.033 187.568 154.235 186.532 152.877 186.532C151.505 186.532 150.707 187.568 150.707 189.29C150.707 191.012 151.505 192.048 152.877 192.048ZM157.868 193V185.58H158.904L158.946 186.952C159.212 186.014 159.8 185.58 160.71 185.58H161.438V186.7H160.724C159.604 186.7 159.044 187.302 159.044 188.52V193H157.868ZM162.749 193V183.06H163.925V189.57L167.537 185.58H169.105L166.179 188.73L169.231 193H167.803L165.381 189.528L163.925 191.068V193H162.749ZM170.901 193V186.616H169.893V185.58H170.901V184.908C170.901 183.816 171.517 183.06 172.861 183.06H174.037V184.096H172.945C172.357 184.096 172.077 184.432 172.077 184.992V185.58H173.939V186.616H172.077V193H170.901ZM177.979 193.168C175.921 193.168 174.577 191.656 174.577 189.29C174.577 186.924 175.921 185.412 177.979 185.412C180.023 185.412 181.367 186.924 181.367 189.29C181.367 191.656 180.023 193.168 177.979 193.168ZM177.979 192.048C179.337 192.048 180.135 191.012 180.135 189.29C180.135 187.568 179.337 186.532 177.979 186.532C176.607 186.532 175.809 187.568 175.809 189.29C175.809 191.012 176.607 192.048 177.979 192.048ZM182.97 193V185.58H184.006L184.048 186.952C184.314 186.014 184.902 185.58 185.812 185.58H186.54V186.7H185.826C184.706 186.7 184.146 187.302 184.146 188.52V193H182.97ZM190.612 193.168C188.54 193.168 187.21 191.642 187.21 189.29C187.21 186.938 188.54 185.412 190.612 185.412C192.32 185.412 193.51 186.336 193.762 187.988L192.53 188.072C192.362 187.092 191.62 186.532 190.612 186.532C189.24 186.532 188.442 187.568 188.442 189.29C188.442 191.012 189.24 192.048 190.612 192.048C191.62 192.048 192.362 191.488 192.53 190.368L193.762 190.452C193.51 192.104 192.32 193.168 190.612 193.168ZM198.118 193.168C196.018 193.168 194.716 191.642 194.716 189.29C194.716 186.938 196.018 185.412 198.062 185.412C199.994 185.412 201.338 186.812 201.338 189.304V189.654H195.948C196.032 191.25 196.83 192.048 198.118 192.048C199.084 192.048 199.714 191.558 199.966 190.802L201.226 190.9C200.834 192.23 199.686 193.168 198.118 193.168ZM195.948 188.618H200.05C199.938 187.19 199.154 186.532 198.062 186.532C196.914 186.532 196.144 187.246 195.948 188.618ZM202.563 193V191.418H204.145V193H202.563Z" fill="#374A5F"/>
<rect x="480" y="103" width="380" height="124" fill="#374A5F" fill-opacity="0.025"/>
<rect x="480.375" y="103.375" width="379.25" height="123.25" stroke="#374A5F" stroke-opacity="0.1" stroke-width="0.75"/>
<path d="M511.176 145V136.48H512.436V143.812H516.504V145H511.176ZM518.851 145V143.812H520.891V137.668H518.851V136.48H524.179V137.668H522.139V143.812H524.179V145H518.851ZM526.647 145V136.48H528.183L530.979 143.212V136.48H532.215V145H530.679L527.883 138.268V145H526.647ZM534.418 145V136.48H535.678V140.488L538.87 136.48H540.394L537.346 140.224L540.49 145H539.014L536.554 141.196L535.678 142.276V145H534.418ZM542.717 145V136.48H547.949V137.668H543.977V140.152H547.805V141.304H543.977V143.812H548.045V145H542.717ZM550.573 145V136.48H552.649C554.917 136.48 556.345 138.016 556.345 140.752C556.345 143.488 554.917 145 552.649 145H550.573ZM551.833 143.812H552.613C554.149 143.812 555.037 142.792 555.037 140.752C555.037 138.7 554.149 137.668 552.613 137.668H551.833V143.812ZM558.428 145V143.812H560.468V137.668H558.428V136.48H563.756V137.668H561.716V143.812H563.756V145H558.428ZM566.223 145V136.48H567.759L570.555 143.212V136.48H571.791V145H570.255L567.459 138.268V145H566.223ZM576.491 140.428L576.335 137.428V136.48H577.511V137.428L577.355 140.428H576.491ZM584.946 145.192C583.098 145.192 581.898 144.016 581.754 142.228L583.05 142.144C583.218 143.368 583.914 144.016 584.994 144.016C586.038 144.016 586.626 143.596 586.626 142.84C586.626 142.084 586.218 141.652 584.43 141.148C582.678 140.668 581.946 140.08 581.946 138.76C581.946 137.296 583.026 136.288 584.814 136.288C586.59 136.288 587.61 137.404 587.778 139.048L586.482 139.12C586.35 138.136 585.798 137.464 584.778 137.464C583.842 137.464 583.242 137.956 583.242 138.7C583.242 139.444 583.662 139.72 585.174 140.14C587.214 140.692 587.922 141.448 587.922 142.84C587.922 144.244 586.734 145.192 584.946 145.192ZM600.188 143.968L598.856 138.424V145H597.644V136.48H599.324L600.668 141.988L602.012 136.48H603.692V145H602.48V138.424L601.148 143.968H600.188ZM605.92 145V143.812H607.96V137.668H605.92V136.48H611.248V137.668H609.208V143.812H611.248V145H605.92ZM616.607 145.192C614.759 145.192 613.559 144.016 613.415 142.228L614.711 142.144C614.879 143.368 615.575 144.016 616.655 144.016C617.699 144.016 618.287 143.596 618.287 142.84C618.287 142.084 617.879 141.652 616.091 141.148C614.339 140.668 613.607 140.08 613.607 138.76C613.607 137.296 614.687 136.288 616.475 136.288C618.251 136.288 619.271 137.404 619.439 139.048L618.143 139.12C618.011 138.136 617.459 137.464 616.439 137.464C615.503 137.464 614.903 137.956 614.903 138.7C614.903 139.444 615.323 139.72 616.835 140.14C618.875 140.692 619.583 141.448 619.583 142.84C619.583 144.244 618.395 145.192 616.607 145.192ZM624.522 145.192C622.674 145.192 621.474 144.016 621.33 142.228L622.626 142.144C622.794 143.368 623.49 144.016 624.57 144.016C625.614 144.016 626.202 143.596 626.202 142.84C626.202 142.084 625.794 141.652 624.006 141.148C622.254 140.668 621.522 140.08 621.522 138.76C621.522 137.296 622.602 136.288 624.39 136.288C626.166 136.288 627.186 137.404 627.354 139.048L626.058 139.12C625.926 138.136 625.374 137.464 624.354 137.464C623.418 137.464 622.818 137.956 622.818 138.7C622.818 139.444 623.238 139.72 624.75 140.14C626.79 140.692 627.498 141.448 627.498 142.84C627.498 144.244 626.31 145.192 624.522 145.192ZM629.666 145V143.812H631.706V137.668H629.666V136.48H634.994V137.668H632.954V143.812H634.994V145H629.666ZM640.245 145.192C638.217 145.192 637.077 143.596 637.077 140.752C637.077 137.884 638.217 136.288 640.245 136.288C642.273 136.288 643.413 137.884 643.413 140.752C643.413 143.596 642.273 145.192 640.245 145.192ZM640.245 144.016C641.445 144.016 642.105 142.912 642.105 140.752C642.105 138.592 641.445 137.464 640.245 137.464C639.045 137.464 638.385 138.592 638.385 140.752C638.385 142.912 639.045 144.016 640.245 144.016ZM645.376 145V136.48H646.912L649.708 143.212V136.48H650.944V145H649.408L646.612 138.268V145H645.376Z" fill="#98A3AE"/>
<path d="M515.096 175.224C512.436 175.224 510.63 173.264 510.63 170.044C510.63 166.824 512.436 164.836 515.096 164.836C517.504 164.836 518.778 166.138 519.198 168.224L517.924 168.308C517.644 166.894 516.748 166.012 515.096 166.012C513.192 166.012 511.89 167.524 511.89 170.044C511.89 172.564 513.192 174.048 515.096 174.048C516.832 174.048 517.756 173.082 518.008 171.528L519.282 171.612C518.918 173.768 517.476 175.224 515.096 175.224ZM523.752 175.168C521.694 175.168 520.35 173.656 520.35 171.29C520.35 168.924 521.694 167.412 523.752 167.412C525.796 167.412 527.14 168.924 527.14 171.29C527.14 173.656 525.796 175.168 523.752 175.168ZM523.752 174.048C525.11 174.048 525.908 173.012 525.908 171.29C525.908 169.568 525.11 168.532 523.752 168.532C522.38 168.532 521.582 169.568 521.582 171.29C521.582 173.012 522.38 174.048 523.752 174.048ZM528.743 175V167.58H529.821L529.849 168.91C530.241 167.888 531.109 167.412 532.131 167.412C533.825 167.412 534.637 168.658 534.637 170.226V175H533.461V170.562C533.461 169.19 532.999 168.448 531.879 168.448C530.731 168.448 529.919 169.19 529.919 170.562V175H528.743ZM536.604 175V167.58H537.682L537.71 168.91C538.102 167.888 538.97 167.412 539.992 167.412C541.686 167.412 542.498 168.658 542.498 170.226V175H541.322V170.562C541.322 169.19 540.86 168.448 539.74 168.448C538.592 168.448 537.78 169.19 537.78 170.562V175H536.604ZM547.473 175.168C545.373 175.168 544.071 173.642 544.071 171.29C544.071 168.938 545.373 167.412 547.417 167.412C549.349 167.412 550.693 168.812 550.693 171.304V171.654H545.303C545.387 173.25 546.185 174.048 547.473 174.048C548.439 174.048 549.069 173.558 549.321 172.802L550.581 172.9C550.189 174.23 549.041 175.168 547.473 175.168ZM545.303 170.618H549.405C549.293 169.19 548.509 168.532 547.417 168.532C546.269 168.532 545.499 169.246 545.303 170.618ZM555.184 175.168C553.112 175.168 551.782 173.642 551.782 171.29C551.782 168.938 553.112 167.412 555.184 167.412C556.892 167.412 558.082 168.336 558.334 169.988L557.102 170.072C556.934 169.092 556.192 168.532 555.184 168.532C553.812 168.532 553.014 169.568 553.014 171.29C553.014 173.012 553.812 174.048 555.184 174.048C556.192 174.048 556.934 173.488 557.102 172.368L558.334 172.452C558.082 174.104 556.892 175.168 555.184 175.168ZM562.221 175C560.877 175 560.247 174.412 560.247 173.096V168.616H559.155V167.58H560.247V165.844H561.423V167.58H563.397V168.616H561.423V173.068C561.423 173.74 561.717 173.964 562.333 173.964H563.397V175H562.221ZM571.203 175C569.859 175 569.229 174.412 569.229 173.096V168.616H568.137V167.58H569.229V165.844H570.405V167.58H572.379V168.616H570.405V173.068C570.405 173.74 570.699 173.964 571.315 173.964H572.379V175H571.203ZM573.888 175V165.06H575.064V168.742C575.442 167.832 576.282 167.412 577.304 167.412C578.9 167.412 579.782 168.574 579.782 170.226V175H578.606V170.562C578.606 169.134 578.088 168.448 577.052 168.448C575.848 168.448 575.064 169.204 575.064 170.576V175H573.888ZM584.756 175.168C582.656 175.168 581.354 173.642 581.354 171.29C581.354 168.938 582.656 167.412 584.7 167.412C586.632 167.412 587.976 168.812 587.976 171.304V171.654H582.586C582.67 173.25 583.468 174.048 584.756 174.048C585.722 174.048 586.352 173.558 586.604 172.802L587.864 172.9C587.472 174.23 586.324 175.168 584.756 175.168ZM582.586 170.618H586.688C586.576 169.19 585.792 168.532 584.7 168.532C583.552 168.532 582.782 169.246 582.586 170.618ZM594.69 175L592.394 167.58H593.682L595.418 173.768L597.182 167.58H598.442L600.206 173.768L601.956 167.58H603.244L600.948 175H599.464L597.812 169.358L596.16 175H594.69ZM607.206 175.168C605.148 175.168 603.804 173.656 603.804 171.29C603.804 168.924 605.148 167.412 607.206 167.412C609.25 167.412 610.594 168.924 610.594 171.29C610.594 173.656 609.25 175.168 607.206 175.168ZM607.206 174.048C608.564 174.048 609.362 173.012 609.362 171.29C609.362 169.568 608.564 168.532 607.206 168.532C605.834 168.532 605.035 169.568 605.035 171.29C605.035 173.012 605.834 174.048 607.206 174.048ZM612.196 175V167.58H613.232L613.274 168.952C613.54 168.014 614.128 167.58 615.038 167.58H615.766V168.7H615.052C613.932 168.7 613.372 169.302 613.372 170.52V175H612.196ZM618.533 175C617.665 175 617.077 174.58 617.077 173.6V165.06H618.253V173.502C618.253 173.81 618.407 173.964 618.715 173.964H619.359V175H618.533ZM623.359 175.168C621.427 175.168 620.223 173.67 620.223 171.29C620.223 168.91 621.427 167.412 623.359 167.412C624.353 167.412 625.235 167.86 625.641 168.616V165.06H626.817V175H625.753L625.711 173.88C625.291 174.692 624.395 175.168 623.359 175.168ZM623.597 174.048C624.913 174.048 625.641 172.984 625.641 171.29C625.641 169.568 624.913 168.532 623.597 168.532C622.295 168.532 621.455 169.568 621.455 171.29C621.455 172.984 622.295 174.048 623.597 174.048ZM628.606 168.826L629.278 166.642H628.564V165.06H630.146V166.446L629.306 168.826H628.606ZM634.599 175.168C632.611 175.168 631.505 174.118 631.393 172.662L632.625 172.578C632.765 173.474 633.339 174.048 634.599 174.048C635.607 174.048 636.265 173.74 636.265 173.012C636.265 172.424 635.971 172.172 634.375 171.892C632.247 171.514 631.575 170.856 631.575 169.68C631.575 168.364 632.583 167.412 634.375 167.412C636.181 167.412 637.133 168.504 637.357 169.792L636.125 169.876C635.957 169.092 635.369 168.532 634.361 168.532C633.297 168.532 632.807 168.994 632.807 169.624C632.807 170.352 633.283 170.632 634.599 170.856C636.867 171.248 637.497 171.836 637.497 173.012C637.497 174.384 636.237 175.168 634.599 175.168ZM642.739 177.1V167.58H643.831L643.845 168.714C644.293 167.86 645.119 167.412 646.127 167.412C648.339 167.412 649.333 169.246 649.333 171.29C649.333 173.334 648.339 175.168 646.127 175.168C645.161 175.168 644.307 174.734 643.915 174.02V177.1H642.739ZM646.015 174.048C647.303 174.048 648.101 173.026 648.101 171.29C648.101 169.554 647.303 168.532 646.015 168.532C644.727 168.532 643.915 169.47 643.915 171.29C643.915 173.11 644.713 174.048 646.015 174.048ZM650.929 175V167.58H651.965L652.007 168.952C652.273 168.014 652.861 167.58 653.771 167.58H654.499V168.7H653.785C652.665 168.7 652.105 169.302 652.105 170.52V175H650.929ZM658.571 175.168C656.513 175.168 655.169 173.656 655.169 171.29C655.169 168.924 656.513 167.412 658.571 167.412C660.615 167.412 661.959 168.924 661.959 171.29C661.959 173.656 660.615 175.168 658.571 175.168ZM658.571 174.048C659.929 174.048 660.727 173.012 660.727 171.29C660.727 169.568 659.929 168.532 658.571 168.532C657.199 168.532 656.401 169.568 656.401 171.29C656.401 173.012 657.199 174.048 658.571 174.048ZM664.002 175V168.616H662.994V167.58H664.002V166.908C664.002 165.816 664.618 165.06 665.962 165.06H667.138V166.096H666.046C665.458 166.096 665.178 166.432 665.178 166.992V167.58H667.04V168.616H665.178V175H664.002ZM671.081 175.168C668.981 175.168 667.679 173.642 667.679 171.29C667.679 168.938 668.981 167.412 671.025 167.412C672.957 167.412 674.301 168.812 674.301 171.304V171.654H668.91C668.995 173.25 669.793 174.048 671.081 174.048C672.047 174.048 672.677 173.558 672.929 172.802L674.189 172.9C673.797 174.23 672.649 175.168 671.081 175.168ZM668.91 170.618H673.013C672.901 169.19 672.117 168.532 671.025 168.532C669.877 168.532 669.107 169.246 668.91 170.618ZM678.595 175.168C676.607 175.168 675.501 174.118 675.389 172.662L676.621 172.578C676.761 173.474 677.335 174.048 678.595 174.048C679.603 174.048 680.261 173.74 680.261 173.012C680.261 172.424 679.967 172.172 678.371 171.892C676.243 171.514 675.571 170.856 675.571 169.68C675.571 168.364 676.579 167.412 678.371 167.412C680.177 167.412 681.129 168.504 681.353 169.792L680.121 169.876C679.953 169.092 679.365 168.532 678.357 168.532C677.293 168.532 676.803 168.994 676.803 169.624C676.803 170.352 677.279 170.632 678.595 170.856C680.863 171.248 681.493 171.836 681.493 173.012C681.493 174.384 680.233 175.168 678.595 175.168ZM685.801 175.168C683.813 175.168 682.707 174.118 682.595 172.662L683.827 172.578C683.967 173.474 684.541 174.048 685.801 174.048C686.809 174.048 687.467 173.74 687.467 173.012C687.467 172.424 687.173 172.172 685.577 171.892C683.449 171.514 682.777 170.856 682.777 169.68C682.777 168.364 683.785 167.412 685.577 167.412C687.383 167.412 688.335 168.504 688.559 169.792L687.327 169.876C687.159 169.092 686.571 168.532 685.563 168.532C684.499 168.532 684.009 168.994 684.009 169.624C684.009 170.352 684.485 170.632 685.801 170.856C688.069 171.248 688.699 171.836 688.699 173.012C688.699 174.384 687.439 175.168 685.801 175.168ZM690.276 166.418V165.046H691.508V166.418H690.276ZM690.304 175V167.58H691.48V175H690.304ZM696.483 175.168C694.425 175.168 693.081 173.656 693.081 171.29C693.081 168.924 694.425 167.412 696.483 167.412C698.527 167.412 699.871 168.924 699.871 171.29C699.871 173.656 698.527 175.168 696.483 175.168ZM696.483 174.048C697.841 174.048 698.639 173.012 698.639 171.29C698.639 169.568 697.841 168.532 696.483 168.532C695.111 168.532 694.313 169.568 694.313 171.29C694.313 173.012 695.111 174.048 696.483 174.048ZM701.474 175V167.58H702.552L702.58 168.91C702.972 167.888 703.84 167.412 704.862 167.412C706.556 167.412 707.368 168.658 707.368 170.226V175H706.192V170.562C706.192 169.19 705.73 168.448 704.61 168.448C703.462 168.448 702.65 169.19 702.65 170.562V175H701.474ZM711.474 175.168C709.934 175.168 708.968 174.426 708.968 173.152C708.968 171.892 709.682 171.192 711.306 170.884L713.938 170.394C713.938 169.148 713.35 168.532 712.174 168.532C711.138 168.532 710.564 169.008 710.34 169.862L709.094 169.764C709.374 168.364 710.494 167.412 712.174 167.412C714.078 167.412 715.114 168.56 715.114 170.436V173.502C715.114 173.838 715.226 173.964 715.506 173.964H715.8V175C715.716 175.014 715.534 175.028 715.352 175.028C714.456 175.028 714.05 174.678 713.952 173.852C713.588 174.622 712.566 175.168 711.474 175.168ZM711.586 174.132C713.07 174.132 713.938 173.18 713.938 171.948V171.416L711.53 171.864C710.522 172.046 710.2 172.424 710.2 173.04C710.2 173.74 710.718 174.132 711.586 174.132ZM718.502 175C717.634 175 717.046 174.58 717.046 173.6V165.06H718.222V173.502C718.222 173.81 718.376 173.964 718.684 173.964H719.328V175H718.502ZM723.398 175.168C721.41 175.168 720.304 174.118 720.192 172.662L721.424 172.578C721.564 173.474 722.138 174.048 723.398 174.048C724.406 174.048 725.064 173.74 725.064 173.012C725.064 172.424 724.77 172.172 723.174 171.892C721.046 171.514 720.374 170.856 720.374 169.68C720.374 168.364 721.382 167.412 723.174 167.412C724.98 167.412 725.932 168.504 726.156 169.792L724.924 169.876C724.756 169.092 724.168 168.532 723.16 168.532C722.096 168.532 721.606 168.994 721.606 169.624C721.606 170.352 722.082 170.632 723.398 170.856C725.666 171.248 726.296 171.836 726.296 173.012C726.296 174.384 725.036 175.168 723.398 175.168ZM734.254 175C732.91 175 732.28 174.412 732.28 173.096V168.616H731.188V167.58H732.28V165.844H733.456V167.58H735.43V168.616H733.456V173.068C733.456 173.74 733.75 173.964 734.366 173.964H735.43V175H734.254ZM739.7 175.168C737.642 175.168 736.298 173.656 736.298 171.29C736.298 168.924 737.642 167.412 739.7 167.412C741.744 167.412 743.088 168.924 743.088 171.29C743.088 173.656 741.744 175.168 739.7 175.168ZM739.7 174.048C741.058 174.048 741.856 173.012 741.856 171.29C741.856 169.568 741.058 168.532 739.7 168.532C738.328 168.532 737.53 169.568 737.53 171.29C737.53 173.012 738.328 174.048 739.7 174.048ZM748.327 175V167.58H749.405L749.433 168.882C749.797 167.972 750.567 167.412 751.519 167.412C752.639 167.412 753.423 167.972 753.745 168.966C754.067 167.972 754.823 167.412 755.915 167.412C757.497 167.412 758.365 168.434 758.365 170.226V175H757.189V170.478C757.189 169.134 756.657 168.448 755.635 168.448C754.599 168.448 753.927 169.232 753.927 170.562V175H752.751V170.562C752.751 169.246 752.317 168.448 751.225 168.448C750.189 168.448 749.503 169.246 749.503 170.562V175H748.327ZM762.47 175.168C760.93 175.168 759.964 174.426 759.964 173.152C759.964 171.892 760.678 171.192 762.302 170.884L764.934 170.394C764.934 169.148 764.346 168.532 763.17 168.532C762.134 168.532 761.56 169.008 761.336 169.862L760.09 169.764C760.37 168.364 761.49 167.412 763.17 167.412C765.074 167.412 766.11 168.56 766.11 170.436V173.502C766.11 173.838 766.222 173.964 766.502 173.964H766.796V175C766.712 175.014 766.53 175.028 766.348 175.028C765.452 175.028 765.046 174.678 764.948 173.852C764.584 174.622 763.562 175.168 762.47 175.168ZM762.582 174.132C764.066 174.132 764.934 173.18 764.934 171.948V171.416L762.526 171.864C761.518 172.046 761.196 172.424 761.196 173.04C761.196 173.74 761.714 174.132 762.582 174.132ZM768.069 175V165.06H769.245V171.57L772.857 167.58H774.425L771.499 170.73L774.551 175H773.123L770.701 171.528L769.245 173.068V175H768.069ZM778.528 175.168C776.428 175.168 775.126 173.642 775.126 171.29C775.126 168.938 776.428 167.412 778.472 167.412C780.404 167.412 781.748 168.812 781.748 171.304V171.654H776.358C776.442 173.25 777.24 174.048 778.528 174.048C779.494 174.048 780.124 173.558 780.376 172.802L781.636 172.9C781.244 174.23 780.096 175.168 778.528 175.168ZM776.358 170.618H780.46C780.348 169.19 779.564 168.532 778.472 168.532C777.324 168.532 776.554 169.246 776.358 170.618ZM789.693 175C788.349 175 787.719 174.412 787.719 173.096V168.616H786.627V167.58H787.719V165.844H788.895V167.58H790.869V168.616H788.895V173.068C788.895 173.74 789.189 173.964 789.805 173.964H790.869V175H789.693ZM792.378 175V165.06H793.554V168.742C793.932 167.832 794.772 167.412 795.794 167.412C797.39 167.412 798.272 168.574 798.272 170.226V175H797.096V170.562C797.096 169.134 796.578 168.448 795.542 168.448C794.338 168.448 793.554 169.204 793.554 170.576V175H792.378ZM803.247 175.168C801.147 175.168 799.845 173.642 799.845 171.29C799.845 168.938 801.147 167.412 803.191 167.412C805.123 167.412 806.467 168.812 806.467 171.304V171.654H801.077C801.161 173.25 801.959 174.048 803.247 174.048C804.213 174.048 804.843 173.558 805.095 172.802L806.355 172.9C805.963 174.23 804.815 175.168 803.247 175.168ZM801.077 170.618H805.179C805.067 169.19 804.283 168.532 803.191 168.532C802.043 168.532 801.273 169.246 801.077 170.618ZM808.059 175V167.58H809.137L809.165 168.882C809.529 167.972 810.299 167.412 811.251 167.412C812.371 167.412 813.155 167.972 813.477 168.966C813.799 167.972 814.555 167.412 815.647 167.412C817.229 167.412 818.097 168.434 818.097 170.226V175H816.921V170.478C816.921 169.134 816.389 168.448 815.367 168.448C814.331 168.448 813.659 169.232 813.659 170.562V175H812.483V170.562C812.483 169.246 812.049 168.448 810.957 168.448C809.921 168.448 809.235 169.246 809.235 170.562V175H808.059ZM511.12 193V185.58H512.198L512.226 186.882C512.59 185.972 513.36 185.412 514.312 185.412C515.432 185.412 516.216 185.972 516.538 186.966C516.86 185.972 517.616 185.412 518.708 185.412C520.29 185.412 521.158 186.434 521.158 188.226V193H519.982V188.478C519.982 187.134 519.45 186.448 518.428 186.448C517.392 186.448 516.72 187.232 516.72 188.562V193H515.544V188.562C515.544 187.246 515.11 186.448 514.018 186.448C512.982 186.448 512.296 187.246 512.296 188.562V193H511.12ZM526.131 193.168C524.073 193.168 522.729 191.656 522.729 189.29C522.729 186.924 524.073 185.412 526.131 185.412C528.175 185.412 529.519 186.924 529.519 189.29C529.519 191.656 528.175 193.168 526.131 193.168ZM526.131 192.048C527.489 192.048 528.287 191.012 528.287 189.29C528.287 187.568 527.489 186.532 526.131 186.532C524.759 186.532 523.961 187.568 523.961 189.29C523.961 191.012 524.759 192.048 526.131 192.048ZM531.122 193V185.58H532.158L532.2 186.952C532.466 186.014 533.054 185.58 533.964 185.58H534.692V186.7H533.978C532.858 186.7 532.298 187.302 532.298 188.52V193H531.122ZM538.764 193.168C536.664 193.168 535.362 191.642 535.362 189.29C535.362 186.938 536.664 185.412 538.708 185.412C540.64 185.412 541.984 186.812 541.984 189.304V189.654H536.594C536.678 191.25 537.476 192.048 538.764 192.048C539.73 192.048 540.36 191.558 540.612 190.802L541.872 190.9C541.48 192.23 540.332 193.168 538.764 193.168ZM536.594 188.618H540.696C540.584 187.19 539.8 186.532 538.708 186.532C537.56 186.532 536.79 187.246 536.594 188.618ZM547.214 195.1V185.58H548.306L548.32 186.714C548.768 185.86 549.594 185.412 550.602 185.412C552.814 185.412 553.808 187.246 553.808 189.29C553.808 191.334 552.814 193.168 550.602 193.168C549.636 193.168 548.782 192.734 548.39 192.02V195.1H547.214ZM550.49 192.048C551.778 192.048 552.576 191.026 552.576 189.29C552.576 187.554 551.778 186.532 550.49 186.532C549.202 186.532 548.39 187.47 548.39 189.29C548.39 191.11 549.188 192.048 550.49 192.048ZM555.403 193V185.58H556.439L556.481 186.952C556.747 186.014 557.335 185.58 558.245 185.58H558.973V186.7H558.259C557.139 186.7 556.579 187.302 556.579 188.52V193H555.403ZM563.045 193.168C560.987 193.168 559.643 191.656 559.643 189.29C559.643 186.924 560.987 185.412 563.045 185.412C565.089 185.412 566.433 186.924 566.433 189.29C566.433 191.656 565.089 193.168 563.045 193.168ZM563.045 192.048C564.403 192.048 565.201 191.012 565.201 189.29C565.201 187.568 564.403 186.532 563.045 186.532C561.673 186.532 560.875 187.568 560.875 189.29C560.875 191.012 561.673 192.048 563.045 192.048ZM570.668 193.168C568.736 193.168 567.532 191.67 567.532 189.29C567.532 186.91 568.736 185.412 570.668 185.412C571.662 185.412 572.544 185.86 572.95 186.616V183.06H574.126V193H573.062L573.02 191.88C572.6 192.692 571.704 193.168 570.668 193.168ZM570.906 192.048C572.222 192.048 572.95 190.984 572.95 189.29C572.95 187.568 572.222 186.532 570.906 186.532C569.604 186.532 568.764 187.568 568.764 189.29C568.764 190.984 569.604 192.048 570.906 192.048ZM578.525 193.168C577.041 193.168 576.089 192.118 576.089 190.354V185.58H577.265V190.032C577.265 191.474 577.769 192.132 578.833 192.132C580.009 192.132 580.723 191.334 580.723 190.004V185.58H581.899V193H580.779V191.796C580.373 192.678 579.589 193.168 578.525 193.168ZM586.903 193.168C584.831 193.168 583.501 191.642 583.501 189.29C583.501 186.938 584.831 185.412 586.903 185.412C588.611 185.412 589.801 186.336 590.053 187.988L588.821 188.072C588.653 187.092 587.911 186.532 586.903 186.532C585.531 186.532 584.733 187.568 584.733 189.29C584.733 191.012 585.531 192.048 586.903 192.048C587.911 192.048 588.653 191.488 588.821 190.368L590.053 190.452C589.801 192.104 588.611 193.168 586.903 193.168ZM593.94 193C592.596 193 591.966 192.412 591.966 191.096V186.616H590.874V185.58H591.966V183.844H593.142V185.58H595.116V186.616H593.142V191.068C593.142 191.74 593.436 191.964 594.052 191.964H595.116V193H593.94ZM596.596 184.418V183.046H597.828V184.418H596.596ZM596.624 193V185.58H597.8V193H596.624ZM601.795 193L599.093 185.58H600.381L602.537 191.796L604.693 185.58H605.981L603.279 193H601.795ZM609.94 193.168C607.84 193.168 606.538 191.642 606.538 189.29C606.538 186.938 607.84 185.412 609.884 185.412C611.816 185.412 613.16 186.812 613.16 189.304V189.654H607.77C607.854 191.25 608.652 192.048 609.94 192.048C610.906 192.048 611.536 191.558 611.788 190.802L613.048 190.9C612.656 192.23 611.508 193.168 609.94 193.168ZM607.77 188.618H611.872C611.76 187.19 610.976 186.532 609.884 186.532C608.736 186.532 607.966 187.246 607.77 188.618ZM620.392 193.168C618.852 193.168 617.886 192.426 617.886 191.152C617.886 189.892 618.6 189.192 620.224 188.884L622.856 188.394C622.856 187.148 622.268 186.532 621.092 186.532C620.056 186.532 619.482 187.008 619.258 187.862L618.012 187.764C618.292 186.364 619.412 185.412 621.092 185.412C622.996 185.412 624.032 186.56 624.032 188.436V191.502C624.032 191.838 624.144 191.964 624.424 191.964H624.718V193C624.634 193.014 624.452 193.028 624.27 193.028C623.374 193.028 622.968 192.678 622.87 191.852C622.506 192.622 621.484 193.168 620.392 193.168ZM620.504 192.132C621.988 192.132 622.856 191.18 622.856 189.948V189.416L620.448 189.864C619.44 190.046 619.118 190.424 619.118 191.04C619.118 191.74 619.636 192.132 620.504 192.132ZM626.046 193V185.58H627.124L627.152 186.91C627.544 185.888 628.412 185.412 629.434 185.412C631.128 185.412 631.94 186.658 631.94 188.226V193H630.764V188.562C630.764 187.19 630.302 186.448 629.182 186.448C628.034 186.448 627.222 187.19 627.222 188.562V193H626.046ZM636.648 193.168C634.716 193.168 633.512 191.67 633.512 189.29C633.512 186.91 634.716 185.412 636.648 185.412C637.642 185.412 638.524 185.86 638.93 186.616V183.06H640.106V193H639.042L639 191.88C638.58 192.692 637.684 193.168 636.648 193.168ZM636.886 192.048C638.202 192.048 638.93 190.984 638.93 189.29C638.93 187.568 638.202 186.532 636.886 186.532C635.584 186.532 634.744 187.568 634.744 189.29C634.744 190.984 635.584 192.048 636.886 192.048ZM648.545 193.168C646.557 193.168 645.451 192.118 645.339 190.662L646.571 190.578C646.711 191.474 647.285 192.048 648.545 192.048C649.553 192.048 650.211 191.74 650.211 191.012C650.211 190.424 649.917 190.172 648.321 189.892C646.193 189.514 645.521 188.856 645.521 187.68C645.521 186.364 646.529 185.412 648.321 185.412C650.127 185.412 651.079 186.504 651.303 187.792L650.071 187.876C649.903 187.092 649.315 186.532 648.307 186.532C647.243 186.532 646.753 186.994 646.753 187.624C646.753 188.352 647.229 188.632 648.545 188.856C650.813 189.248 651.443 189.836 651.443 191.012C651.443 192.384 650.183 193.168 648.545 193.168ZM655.484 193.168C654 193.168 653.048 192.118 653.048 190.354V185.58H654.224V190.032C654.224 191.474 654.728 192.132 655.792 192.132C656.968 192.132 657.682 191.334 657.682 190.004V185.58H658.858V193H657.738V191.796C657.332 192.678 656.548 193.168 655.484 193.168ZM663.862 193.168C661.79 193.168 660.46 191.642 660.46 189.29C660.46 186.938 661.79 185.412 663.862 185.412C665.57 185.412 666.76 186.336 667.012 187.988L665.78 188.072C665.612 187.092 664.87 186.532 663.862 186.532C662.49 186.532 661.692 187.568 661.692 189.29C661.692 191.012 662.49 192.048 663.862 192.048C664.87 192.048 665.612 191.488 665.78 190.368L667.012 190.452C666.76 192.104 665.57 193.168 663.862 193.168ZM671.368 193.168C669.296 193.168 667.966 191.642 667.966 189.29C667.966 186.938 669.296 185.412 671.368 185.412C673.076 185.412 674.266 186.336 674.518 187.988L673.286 188.072C673.118 187.092 672.376 186.532 671.368 186.532C669.996 186.532 669.198 187.568 669.198 189.29C669.198 191.012 669.996 192.048 671.368 192.048C672.376 192.048 673.118 191.488 673.286 190.368L674.518 190.452C674.266 192.104 673.076 193.168 671.368 193.168ZM678.873 193.168C676.773 193.168 675.471 191.642 675.471 189.29C675.471 186.938 676.773 185.412 678.817 185.412C680.749 185.412 682.093 186.812 682.093 189.304V189.654H676.703C676.787 191.25 677.585 192.048 678.873 192.048C679.839 192.048 680.469 191.558 680.721 190.802L681.981 190.9C681.589 192.23 680.441 193.168 678.873 193.168ZM676.703 188.618H680.805C680.693 187.19 679.909 186.532 678.817 186.532C677.669 186.532 676.899 187.246 676.703 188.618ZM686.388 193.168C684.4 193.168 683.294 192.118 683.182 190.662L684.414 190.578C684.554 191.474 685.128 192.048 686.388 192.048C687.396 192.048 688.054 191.74 688.054 191.012C688.054 190.424 687.76 190.172 686.164 189.892C684.036 189.514 683.364 188.856 683.364 187.68C683.364 186.364 684.372 185.412 686.164 185.412C687.97 185.412 688.922 186.504 689.146 187.792L687.914 187.876C687.746 187.092 687.158 186.532 686.15 186.532C685.086 186.532 684.596 186.994 684.596 187.624C684.596 188.352 685.072 188.632 686.388 188.856C688.656 189.248 689.286 189.836 689.286 191.012C689.286 192.384 688.026 193.168 686.388 193.168ZM693.593 193.168C691.605 193.168 690.499 192.118 690.387 190.662L691.619 190.578C691.759 191.474 692.333 192.048 693.593 192.048C694.601 192.048 695.259 191.74 695.259 191.012C695.259 190.424 694.965 190.172 693.369 189.892C691.241 189.514 690.569 188.856 690.569 187.68C690.569 186.364 691.577 185.412 693.369 185.412C695.175 185.412 696.127 186.504 696.351 187.792L695.119 187.876C694.951 187.092 694.363 186.532 693.355 186.532C692.291 186.532 691.801 186.994 691.801 187.624C691.801 188.352 692.277 188.632 693.593 188.856C695.861 189.248 696.491 189.836 696.491 191.012C696.491 192.384 695.231 193.168 693.593 193.168ZM698.537 193V186.616H697.529V185.58H698.537V184.908C698.537 183.816 699.153 183.06 700.497 183.06H701.673V184.096H700.581C699.993 184.096 699.713 184.432 699.713 184.992V185.58H701.575V186.616H699.713V193H698.537ZM705.769 193.168C704.285 193.168 703.333 192.118 703.333 190.354V185.58H704.509V190.032C704.509 191.474 705.013 192.132 706.077 192.132C707.253 192.132 707.967 191.334 707.967 190.004V185.58H709.143V193H708.023V191.796C707.617 192.678 706.833 193.168 705.769 193.168ZM712.842 193C711.974 193 711.386 192.58 711.386 191.6V183.06H712.562V191.502C712.562 191.81 712.716 191.964 713.024 191.964H713.668V193H712.842ZM714.887 193V191.418H716.469V193H714.887Z" fill="#374A5F"/>
<mask id="path-12-inside-1_644_27834" fill="white">
<path d="M230 227H670V257H230V227Z"/>
</mask>
<path d="M670 257V258.5H671.5V257H670ZM230 257H228.5V258.5H230V257ZM670 227H668.5V257H670H671.5V227H670ZM670 257V255.5H230V257V258.5H670V257ZM230 257H231.5V227H230H228.5V257H230Z" fill="#98A3AE" mask="url(#path-12-inside-1_644_27834)"/>
<mask id="path-14-inside-2_644_27834" fill="white">
<path d="M450.75 257H449.25V287H450.75V257Z"/>
</mask>
<path d="M449.25 287V288.5H447.75V287H449.25ZM450.75 287H452.25V288.5H450.75V287ZM449.25 257H450.75V287H449.25H447.75V257H449.25ZM449.25 287V285.5H450.75V287V288.5H449.25V287ZM450.75 287H449.25V257H450.75H452.25V287H450.75Z" fill="#98A3AE" mask="url(#path-14-inside-2_644_27834)"/>
<rect width="380" height="125.75" transform="translate(260 287)" fill="#2D64BC"/>
<path opacity="0.75" d="M291.176 329.75V321.23H292.436V328.562H296.504V329.75H291.176ZM298.851 329.75V328.562H300.891V322.418H298.851V321.23H304.179V322.418H302.139V328.562H304.179V329.75H298.851ZM306.647 329.75V321.23H308.183L310.979 327.962V321.23H312.215V329.75H310.679L307.883 323.018V329.75H306.647ZM314.418 329.75V321.23H315.678V325.238L318.87 321.23H320.394L317.346 324.974L320.49 329.75H319.014L316.554 325.946L315.678 327.026V329.75H314.418ZM322.717 329.75V321.23H327.949V322.418H323.977V324.902H327.805V326.054H323.977V328.562H328.045V329.75H322.717ZM330.573 329.75V321.23H332.649C334.917 321.23 336.345 322.766 336.345 325.502C336.345 328.238 334.917 329.75 332.649 329.75H330.573ZM331.833 328.562H332.613C334.149 328.562 335.037 327.542 335.037 325.502C335.037 323.45 334.149 322.418 332.613 322.418H331.833V328.562ZM338.428 329.75V328.562H340.468V322.418H338.428V321.23H343.756V322.418H341.716V328.562H343.756V329.75H338.428ZM346.223 329.75V321.23H347.759L350.555 327.962V321.23H351.791V329.75H350.255L347.459 323.018V329.75H346.223ZM356.491 325.178L356.335 322.178V321.23H357.511V322.178L357.355 325.178H356.491ZM364.946 329.942C363.098 329.942 361.898 328.766 361.754 326.978L363.05 326.894C363.218 328.118 363.914 328.766 364.994 328.766C366.038 328.766 366.626 328.346 366.626 327.59C366.626 326.834 366.218 326.402 364.43 325.898C362.678 325.418 361.946 324.83 361.946 323.51C361.946 322.046 363.026 321.038 364.814 321.038C366.59 321.038 367.61 322.154 367.778 323.798L366.482 323.87C366.35 322.886 365.798 322.214 364.778 322.214C363.842 322.214 363.242 322.706 363.242 323.45C363.242 324.194 363.662 324.47 365.174 324.89C367.214 325.442 367.922 326.198 367.922 327.59C367.922 328.994 366.734 329.942 364.946 329.942ZM377.884 329.75V321.23H379.42L382.216 327.962V321.23H383.452V329.75H381.916L379.12 323.018V329.75H377.884ZM388.584 329.942C386.556 329.942 385.416 328.346 385.416 325.502C385.416 322.634 386.556 321.038 388.584 321.038C390.612 321.038 391.752 322.634 391.752 325.502C391.752 328.346 390.612 329.942 388.584 329.942ZM388.584 328.766C389.784 328.766 390.444 327.662 390.444 325.502C390.444 323.342 389.784 322.214 388.584 322.214C387.384 322.214 386.724 323.342 386.724 325.502C386.724 327.662 387.384 328.766 388.584 328.766ZM393.703 329.75V321.23H396.355C398.155 321.23 399.259 322.202 399.259 323.774C399.259 324.794 398.611 325.538 397.819 325.79C398.659 325.946 399.067 326.414 399.139 327.326L399.355 329.75H398.095L397.903 327.566C397.831 326.714 397.495 326.426 396.451 326.426H394.963V329.75H393.703ZM394.963 325.25H396.331C397.375 325.25 397.963 324.734 397.963 323.834C397.963 322.922 397.375 322.418 396.331 322.418H394.963V325.25ZM403.79 329.75V322.418H401.294V321.23H407.534V322.418H405.038V329.75H403.79ZM409.402 329.75V321.23H410.662V324.878H413.998V321.23H415.258V329.75H413.998V326.054H410.662V329.75H409.402ZM428.268 329.942C426.42 329.942 425.22 328.766 425.076 326.978L426.372 326.894C426.54 328.118 427.236 328.766 428.316 328.766C429.36 328.766 429.948 328.346 429.948 327.59C429.948 326.834 429.54 326.402 427.752 325.898C426 325.418 425.268 324.83 425.268 323.51C425.268 322.046 426.348 321.038 428.136 321.038C429.912 321.038 430.932 322.154 431.1 323.798L429.804 323.87C429.672 322.886 429.12 322.214 428.1 322.214C427.164 322.214 426.564 322.706 426.564 323.45C426.564 324.194 426.984 324.47 428.496 324.89C430.536 325.442 431.244 326.198 431.244 327.59C431.244 328.994 430.056 329.942 428.268 329.942ZM435.452 329.75V322.418H432.956V321.23H439.196V322.418H436.7V329.75H435.452ZM440.679 329.75L443.175 321.23H444.807L447.303 329.75H445.995L445.383 327.53H442.599L441.987 329.75H440.679ZM443.991 322.538L442.923 326.366H445.059L443.991 322.538ZM449.11 329.75V321.23H451.762C453.562 321.23 454.666 322.202 454.666 323.774C454.666 324.794 454.018 325.538 453.226 325.79C454.066 325.946 454.474 326.414 454.546 327.326L454.762 329.75H453.502L453.31 327.566C453.238 326.714 452.902 326.426 451.858 326.426H450.37V329.75H449.11ZM450.37 325.25H451.738C452.782 325.25 453.37 324.734 453.37 323.834C453.37 322.922 452.782 322.418 451.738 322.418H450.37V325.25Z" fill="white"/>
<path d="M291.288 362.75V352.81H292.968L296.146 361.434L299.31 352.81H300.99V362.75H299.786V355.05L296.944 362.75H295.334L292.492 355.05V362.75H291.288ZM305.263 362.918C303.723 362.918 302.757 362.176 302.757 360.902C302.757 359.642 303.471 358.942 305.095 358.634L307.727 358.144C307.727 356.898 307.139 356.282 305.963 356.282C304.927 356.282 304.353 356.758 304.129 357.612L302.883 357.514C303.163 356.114 304.283 355.162 305.963 355.162C307.867 355.162 308.903 356.31 308.903 358.186V361.252C308.903 361.588 309.015 361.714 309.295 361.714H309.589V362.75C309.505 362.764 309.323 362.778 309.141 362.778C308.245 362.778 307.839 362.428 307.741 361.602C307.377 362.372 306.355 362.918 305.263 362.918ZM305.375 361.882C306.859 361.882 307.727 360.93 307.727 359.698V359.166L305.319 359.614C304.311 359.796 303.989 360.174 303.989 360.79C303.989 361.49 304.507 361.882 305.375 361.882ZM310.14 362.75L312.87 358.942L310.28 355.33H311.652L313.598 358.13L315.488 355.33H316.888L314.326 358.97L317.014 362.75H315.642L313.598 359.754L311.54 362.75H310.14ZM318.067 354.168V352.796H319.299V354.168H318.067ZM318.095 362.75V355.33H319.271V362.75H318.095ZM321.649 362.75V355.33H322.727L322.755 356.632C323.119 355.722 323.889 355.162 324.841 355.162C325.961 355.162 326.745 355.722 327.067 356.716C327.389 355.722 328.145 355.162 329.237 355.162C330.819 355.162 331.687 356.184 331.687 357.976V362.75H330.511V358.228C330.511 356.884 329.979 356.198 328.957 356.198C327.921 356.198 327.249 356.982 327.249 358.312V362.75H326.073V358.312C326.073 356.996 325.639 356.198 324.547 356.198C323.511 356.198 322.825 356.996 322.825 358.312V362.75H321.649ZM333.762 354.168V352.796H334.994V354.168H333.762ZM333.79 362.75V355.33H334.966V362.75H333.79ZM336.886 362.75V361.574L341.576 356.366H337.026V355.33H342.864V356.506L338.174 361.714H342.976V362.75H336.886ZM347.366 362.918C345.266 362.918 343.964 361.392 343.964 359.04C343.964 356.688 345.266 355.162 347.31 355.162C349.242 355.162 350.586 356.562 350.586 359.054V359.404H345.196C345.28 361 346.078 361.798 347.366 361.798C348.332 361.798 348.962 361.308 349.214 360.552L350.474 360.65C350.082 361.98 348.934 362.918 347.366 362.918ZM345.196 358.368H349.298C349.186 356.94 348.402 356.282 347.31 356.282C346.162 356.282 345.392 356.996 345.196 358.368ZM355.815 364.85V355.33H356.907L356.921 356.464C357.369 355.61 358.195 355.162 359.203 355.162C361.415 355.162 362.409 356.996 362.409 359.04C362.409 361.084 361.415 362.918 359.203 362.918C358.237 362.918 357.383 362.484 356.991 361.77V364.85H355.815ZM359.091 361.798C360.379 361.798 361.177 360.776 361.177 359.04C361.177 357.304 360.379 356.282 359.091 356.282C357.803 356.282 356.991 357.22 356.991 359.04C356.991 360.86 357.789 361.798 359.091 361.798ZM364.005 362.75V355.33H365.041L365.083 356.702C365.349 355.764 365.937 355.33 366.847 355.33H367.575V356.45H366.861C365.741 356.45 365.181 357.052 365.181 358.27V362.75H364.005ZM371.647 362.918C369.589 362.918 368.245 361.406 368.245 359.04C368.245 356.674 369.589 355.162 371.647 355.162C373.691 355.162 375.035 356.674 375.035 359.04C375.035 361.406 373.691 362.918 371.647 362.918ZM371.647 361.798C373.005 361.798 373.803 360.762 373.803 359.04C373.803 357.318 373.005 356.282 371.647 356.282C370.275 356.282 369.477 357.318 369.477 359.04C369.477 360.762 370.275 361.798 371.647 361.798ZM379.27 362.918C377.338 362.918 376.134 361.42 376.134 359.04C376.134 356.66 377.338 355.162 379.27 355.162C380.264 355.162 381.146 355.61 381.552 356.366V352.81H382.728V362.75H381.664L381.622 361.63C381.202 362.442 380.306 362.918 379.27 362.918ZM379.508 361.798C380.824 361.798 381.552 360.734 381.552 359.04C381.552 357.318 380.824 356.282 379.508 356.282C378.206 356.282 377.366 357.318 377.366 359.04C377.366 360.734 378.206 361.798 379.508 361.798ZM387.126 362.918C385.642 362.918 384.69 361.868 384.69 360.104V355.33H385.866V359.782C385.866 361.224 386.37 361.882 387.434 361.882C388.61 361.882 389.324 361.084 389.324 359.754V355.33H390.5V362.75H389.38V361.546C388.974 362.428 388.19 362.918 387.126 362.918ZM395.504 362.918C393.432 362.918 392.102 361.392 392.102 359.04C392.102 356.688 393.432 355.162 395.504 355.162C397.212 355.162 398.402 356.086 398.654 357.738L397.422 357.822C397.254 356.842 396.512 356.282 395.504 356.282C394.132 356.282 393.334 357.318 393.334 359.04C393.334 360.762 394.132 361.798 395.504 361.798C396.512 361.798 397.254 361.238 397.422 360.118L398.654 360.202C398.402 361.854 397.212 362.918 395.504 362.918ZM402.541 362.75C401.197 362.75 400.567 362.162 400.567 360.846V356.366H399.475V355.33H400.567V353.594H401.743V355.33H403.717V356.366H401.743V360.818C401.743 361.49 402.037 361.714 402.653 361.714H403.717V362.75H402.541ZM405.197 354.168V352.796H406.429V354.168H405.197ZM405.225 362.75V355.33H406.401V362.75H405.225ZM410.397 362.75L407.695 355.33H408.983L411.139 361.546L413.295 355.33H414.583L411.881 362.75H410.397ZM415.848 354.168V352.796H417.08V354.168H415.848ZM415.876 362.75V355.33H417.052V362.75H415.876ZM421.449 362.75C420.105 362.75 419.475 362.162 419.475 360.846V356.366H418.383V355.33H419.475V353.594H420.651V355.33H422.625V356.366H420.651V360.818C420.651 361.49 420.945 361.714 421.561 361.714H422.625V362.75H421.449ZM424.401 364.85V363.814H425.255C425.773 363.814 425.983 363.66 426.123 363.31L426.389 362.61H425.983L423.267 355.33H424.555L426.767 361.518L428.881 355.33H430.169L427.159 363.688C426.879 364.486 426.361 364.85 425.367 364.85H424.401ZM430.303 364.934L430.975 362.75H430.261V361.168H431.843V362.554L431.003 364.934H430.303ZM439.783 362.918C437.795 362.918 436.689 361.868 436.577 360.412L437.809 360.328C437.949 361.224 438.523 361.798 439.783 361.798C440.791 361.798 441.449 361.49 441.449 360.762C441.449 360.174 441.155 359.922 439.559 359.642C437.431 359.264 436.759 358.606 436.759 357.43C436.759 356.114 437.767 355.162 439.559 355.162C441.365 355.162 442.317 356.254 442.541 357.542L441.309 357.626C441.141 356.842 440.553 356.282 439.545 356.282C438.481 356.282 437.991 356.744 437.991 357.374C437.991 358.102 438.467 358.382 439.783 358.606C442.051 358.998 442.681 359.586 442.681 360.762C442.681 362.134 441.421 362.918 439.783 362.918ZM446.722 362.918C445.238 362.918 444.286 361.868 444.286 360.104V355.33H445.462V359.782C445.462 361.224 445.966 361.882 447.03 361.882C448.206 361.882 448.92 361.084 448.92 359.754V355.33H450.096V362.75H448.976V361.546C448.57 362.428 447.786 362.918 446.722 362.918ZM455.1 362.918C453.028 362.918 451.698 361.392 451.698 359.04C451.698 356.688 453.028 355.162 455.1 355.162C456.808 355.162 457.998 356.086 458.25 357.738L457.018 357.822C456.85 356.842 456.108 356.282 455.1 356.282C453.728 356.282 452.93 357.318 452.93 359.04C452.93 360.762 453.728 361.798 455.1 361.798C456.108 361.798 456.85 361.238 457.018 360.118L458.25 360.202C457.998 361.854 456.808 362.918 455.1 362.918ZM462.606 362.918C460.534 362.918 459.204 361.392 459.204 359.04C459.204 356.688 460.534 355.162 462.606 355.162C464.314 355.162 465.504 356.086 465.756 357.738L464.524 357.822C464.356 356.842 463.614 356.282 462.606 356.282C461.234 356.282 460.436 357.318 460.436 359.04C460.436 360.762 461.234 361.798 462.606 361.798C463.614 361.798 464.356 361.238 464.524 360.118L465.756 360.202C465.504 361.854 464.314 362.918 462.606 362.918ZM470.112 362.918C468.012 362.918 466.71 361.392 466.71 359.04C466.71 356.688 468.012 355.162 470.056 355.162C471.988 355.162 473.332 356.562 473.332 359.054V359.404H467.942C468.026 361 468.824 361.798 470.112 361.798C471.078 361.798 471.708 361.308 471.96 360.552L473.22 360.65C472.828 361.98 471.68 362.918 470.112 362.918ZM467.942 358.368H472.044C471.932 356.94 471.148 356.282 470.056 356.282C468.908 356.282 468.138 356.996 467.942 358.368ZM477.627 362.918C475.639 362.918 474.533 361.868 474.421 360.412L475.653 360.328C475.793 361.224 476.367 361.798 477.627 361.798C478.635 361.798 479.293 361.49 479.293 360.762C479.293 360.174 478.999 359.922 477.403 359.642C475.275 359.264 474.603 358.606 474.603 357.43C474.603 356.114 475.611 355.162 477.403 355.162C479.209 355.162 480.161 356.254 480.385 357.542L479.153 357.626C478.985 356.842 478.397 356.282 477.389 356.282C476.325 356.282 475.835 356.744 475.835 357.374C475.835 358.102 476.311 358.382 477.627 358.606C479.895 358.998 480.525 359.586 480.525 360.762C480.525 362.134 479.265 362.918 477.627 362.918ZM484.832 362.918C482.844 362.918 481.738 361.868 481.626 360.412L482.858 360.328C482.998 361.224 483.572 361.798 484.832 361.798C485.84 361.798 486.498 361.49 486.498 360.762C486.498 360.174 486.204 359.922 484.608 359.642C482.48 359.264 481.808 358.606 481.808 357.43C481.808 356.114 482.816 355.162 484.608 355.162C486.414 355.162 487.366 356.254 487.59 357.542L486.358 357.626C486.19 356.842 485.602 356.282 484.594 356.282C483.53 356.282 483.04 356.744 483.04 357.374C483.04 358.102 483.516 358.382 484.832 358.606C487.1 358.998 487.73 359.586 487.73 360.762C487.73 362.134 486.47 362.918 484.832 362.918ZM489.01 364.934L489.682 362.75H488.968V361.168H490.55V362.554L489.71 364.934H489.01ZM497.79 362.918C496.25 362.918 495.284 362.176 495.284 360.902C495.284 359.642 495.998 358.942 497.622 358.634L500.254 358.144C500.254 356.898 499.666 356.282 498.49 356.282C497.454 356.282 496.88 356.758 496.656 357.612L495.41 357.514C495.69 356.114 496.81 355.162 498.49 355.162C500.394 355.162 501.43 356.31 501.43 358.186V361.252C501.43 361.588 501.542 361.714 501.822 361.714H502.116V362.75C502.032 362.764 501.85 362.778 501.668 362.778C500.772 362.778 500.366 362.428 500.268 361.602C499.904 362.372 498.882 362.918 497.79 362.918ZM497.902 361.882C499.386 361.882 500.254 360.93 500.254 359.698V359.166L497.846 359.614C496.838 359.796 496.516 360.174 496.516 360.79C496.516 361.49 497.034 361.882 497.902 361.882ZM503.444 362.75V355.33H504.522L504.55 356.66C504.942 355.638 505.81 355.162 506.832 355.162C508.526 355.162 509.338 356.408 509.338 357.976V362.75H508.162V358.312C508.162 356.94 507.7 356.198 506.58 356.198C505.432 356.198 504.62 356.94 504.62 358.312V362.75H503.444ZM514.047 362.918C512.115 362.918 510.911 361.42 510.911 359.04C510.911 356.66 512.115 355.162 514.047 355.162C515.041 355.162 515.923 355.61 516.329 356.366V352.81H517.505V362.75H516.441L516.399 361.63C515.979 362.442 515.083 362.918 514.047 362.918ZM514.285 361.798C515.601 361.798 516.329 360.734 516.329 359.04C516.329 357.318 515.601 356.282 514.285 356.282C512.983 356.282 512.143 357.318 512.143 359.04C512.143 360.734 512.983 361.798 514.285 361.798ZM526.139 362.918C524.039 362.918 522.737 361.392 522.737 359.04C522.737 356.688 524.039 355.162 526.083 355.162C528.015 355.162 529.359 356.562 529.359 359.054V359.404H523.969C524.053 361 524.851 361.798 526.139 361.798C527.105 361.798 527.735 361.308 527.987 360.552L529.247 360.65C528.855 361.98 527.707 362.918 526.139 362.918ZM523.969 358.368H528.071C527.959 356.94 527.175 356.282 526.083 356.282C524.935 356.282 524.165 356.996 523.969 358.368ZM533.85 362.918C531.778 362.918 530.448 361.392 530.448 359.04C530.448 356.688 531.778 355.162 533.85 355.162C535.558 355.162 536.748 356.086 537 357.738L535.768 357.822C535.6 356.842 534.858 356.282 533.85 356.282C532.478 356.282 531.68 357.318 531.68 359.04C531.68 360.762 532.478 361.798 533.85 361.798C534.858 361.798 535.6 361.238 535.768 360.118L537 360.202C536.748 361.854 535.558 362.918 533.85 362.918ZM541.356 362.918C539.298 362.918 537.954 361.406 537.954 359.04C537.954 356.674 539.298 355.162 541.356 355.162C543.4 355.162 544.744 356.674 544.744 359.04C544.744 361.406 543.4 362.918 541.356 362.918ZM541.356 361.798C542.714 361.798 543.512 360.762 543.512 359.04C543.512 357.318 542.714 356.282 541.356 356.282C539.984 356.282 539.186 357.318 539.186 359.04C539.186 360.762 539.984 361.798 541.356 361.798ZM546.347 362.75V355.33H547.425L547.453 356.66C547.845 355.638 548.713 355.162 549.735 355.162C551.429 355.162 552.241 356.408 552.241 357.976V362.75H551.065V358.312C551.065 356.94 550.603 356.198 549.483 356.198C548.335 356.198 547.523 356.94 547.523 358.312V362.75H546.347ZM557.215 362.918C555.157 362.918 553.813 361.406 553.813 359.04C553.813 356.674 555.157 355.162 557.215 355.162C559.259 355.162 560.603 356.674 560.603 359.04C560.603 361.406 559.259 362.918 557.215 362.918ZM557.215 361.798C558.573 361.798 559.371 360.762 559.371 359.04C559.371 357.318 558.573 356.282 557.215 356.282C555.843 356.282 555.045 357.318 555.045 359.04C555.045 360.762 555.843 361.798 557.215 361.798ZM562.206 362.75V355.33H563.284L563.312 356.632C563.676 355.722 564.446 355.162 565.398 355.162C566.518 355.162 567.302 355.722 567.624 356.716C567.946 355.722 568.702 355.162 569.794 355.162C571.376 355.162 572.244 356.184 572.244 357.976V362.75H571.068V358.228C571.068 356.884 570.536 356.198 569.514 356.198C568.478 356.198 567.806 356.982 567.806 358.312V362.75H566.63V358.312C566.63 356.996 566.196 356.198 565.104 356.198C564.068 356.198 563.382 356.996 563.382 358.312V362.75H562.206ZM574.319 354.168V352.796H575.551V354.168H574.319ZM574.347 362.75V355.33H575.523V362.75H574.347ZM580.526 362.918C578.454 362.918 577.124 361.392 577.124 359.04C577.124 356.688 578.454 355.162 580.526 355.162C582.234 355.162 583.424 356.086 583.676 357.738L582.444 357.822C582.276 356.842 581.534 356.282 580.526 356.282C579.154 356.282 578.356 357.318 578.356 359.04C578.356 360.762 579.154 361.798 580.526 361.798C581.534 361.798 582.276 361.238 582.444 360.118L583.676 360.202C583.424 361.854 582.234 362.918 580.526 362.918ZM294.018 380.918C291.96 380.918 290.616 379.406 290.616 377.04C290.616 374.674 291.96 373.162 294.018 373.162C296.062 373.162 297.406 374.674 297.406 377.04C297.406 379.406 296.062 380.918 294.018 380.918ZM294.018 379.798C295.376 379.798 296.174 378.762 296.174 377.04C296.174 375.318 295.376 374.282 294.018 374.282C292.646 374.282 291.848 375.318 291.848 377.04C291.848 378.762 292.646 379.798 294.018 379.798ZM299.009 382.85V373.33H300.101L300.115 374.464C300.563 373.61 301.389 373.162 302.397 373.162C304.609 373.162 305.603 374.996 305.603 377.04C305.603 379.084 304.609 380.918 302.397 380.918C301.431 380.918 300.577 380.484 300.185 379.77V382.85H299.009ZM302.285 379.798C303.573 379.798 304.371 378.776 304.371 377.04C304.371 375.304 303.573 374.282 302.285 374.282C300.997 374.282 300.185 375.22 300.185 377.04C300.185 378.86 300.983 379.798 302.285 379.798ZM307.198 382.85V373.33H308.29L308.304 374.464C308.752 373.61 309.578 373.162 310.586 373.162C312.798 373.162 313.792 374.996 313.792 377.04C313.792 379.084 312.798 380.918 310.586 380.918C309.62 380.918 308.766 380.484 308.374 379.77V382.85H307.198ZM310.474 379.798C311.762 379.798 312.56 378.776 312.56 377.04C312.56 375.304 311.762 374.282 310.474 374.282C309.186 374.282 308.374 375.22 308.374 377.04C308.374 378.86 309.172 379.798 310.474 379.798ZM318.286 380.918C316.228 380.918 314.884 379.406 314.884 377.04C314.884 374.674 316.228 373.162 318.286 373.162C320.33 373.162 321.674 374.674 321.674 377.04C321.674 379.406 320.33 380.918 318.286 380.918ZM318.286 379.798C319.644 379.798 320.442 378.762 320.442 377.04C320.442 375.318 319.644 374.282 318.286 374.282C316.914 374.282 316.116 375.318 316.116 377.04C316.116 378.762 316.914 379.798 318.286 379.798ZM323.276 380.75V373.33H324.312L324.354 374.702C324.62 373.764 325.208 373.33 326.118 373.33H326.846V374.45H326.132C325.012 374.45 324.452 375.052 324.452 376.27V380.75H323.276ZM330.6 380.75C329.256 380.75 328.626 380.162 328.626 378.846V374.366H327.534V373.33H328.626V371.594H329.802V373.33H331.776V374.366H329.802V378.818C329.802 379.49 330.096 379.714 330.712 379.714H331.776V380.75H330.6ZM335.72 380.918C334.236 380.918 333.284 379.868 333.284 378.104V373.33H334.46V377.782C334.46 379.224 334.964 379.882 336.028 379.882C337.204 379.882 337.918 379.084 337.918 377.754V373.33H339.094V380.75H337.974V379.546C337.568 380.428 336.784 380.918 335.72 380.918ZM341.337 380.75V373.33H342.415L342.443 374.66C342.835 373.638 343.703 373.162 344.725 373.162C346.419 373.162 347.231 374.408 347.231 375.976V380.75H346.055V376.312C346.055 374.94 345.593 374.198 344.473 374.198C343.325 374.198 342.513 374.94 342.513 376.312V380.75H341.337ZM349.307 372.168V370.796H350.539V372.168H349.307ZM349.335 380.75V373.33H350.511V380.75H349.335ZM354.908 380.75C353.564 380.75 352.934 380.162 352.934 378.846V374.366H351.842V373.33H352.934V371.594H354.11V373.33H356.084V374.366H354.11V378.818C354.11 379.49 354.404 379.714 355.02 379.714H356.084V380.75H354.908ZM357.86 382.85V381.814H358.714C359.232 381.814 359.442 381.66 359.582 381.31L359.848 380.61H359.442L356.726 373.33H358.014L360.226 379.518L362.34 373.33H363.628L360.618 381.688C360.338 382.486 359.82 382.85 358.826 382.85H357.86ZM369.285 380.75V374.366H368.278V373.33H369.285V372.658C369.285 371.566 369.902 370.81 371.246 370.81H372.422V371.846H371.33C370.742 371.846 370.462 372.182 370.462 372.742V373.33H372.324V374.366H370.462V380.75H369.285ZM376.364 380.918C374.306 380.918 372.962 379.406 372.962 377.04C372.962 374.674 374.306 373.162 376.364 373.162C378.408 373.162 379.752 374.674 379.752 377.04C379.752 379.406 378.408 380.918 376.364 380.918ZM376.364 379.798C377.722 379.798 378.52 378.762 378.52 377.04C378.52 375.318 377.722 374.282 376.364 374.282C374.992 374.282 374.194 375.318 374.194 377.04C374.194 378.762 374.992 379.798 376.364 379.798ZM381.354 380.75V373.33H382.39L382.432 374.702C382.698 373.764 383.286 373.33 384.196 373.33H384.924V374.45H384.21C383.09 374.45 382.53 375.052 382.53 376.27V380.75H381.354ZM393.057 380.918C390.957 380.918 389.655 379.392 389.655 377.04C389.655 374.688 390.957 373.162 393.001 373.162C394.933 373.162 396.277 374.562 396.277 377.054V377.404H390.887C390.971 379 391.769 379.798 393.057 379.798C394.023 379.798 394.653 379.308 394.905 378.552L396.165 378.65C395.773 379.98 394.625 380.918 393.057 380.918ZM390.887 376.368H394.989C394.877 374.94 394.093 374.282 393.001 374.282C391.853 374.282 391.083 374.996 390.887 376.368ZM399.541 380.75L396.839 373.33H398.127L400.283 379.546L402.439 373.33H403.727L401.025 380.75H399.541ZM407.686 380.918C405.586 380.918 404.284 379.392 404.284 377.04C404.284 374.688 405.586 373.162 407.63 373.162C409.562 373.162 410.906 374.562 410.906 377.054V377.404H405.516C405.6 379 406.398 379.798 407.686 379.798C408.652 379.798 409.282 379.308 409.534 378.552L410.794 378.65C410.402 379.98 409.254 380.918 407.686 380.918ZM405.516 376.368H409.618C409.506 374.94 408.722 374.282 407.63 374.282C406.482 374.282 405.712 374.996 405.516 376.368ZM412.499 380.75V373.33H413.535L413.577 374.702C413.843 373.764 414.431 373.33 415.341 373.33H416.069V374.45H415.355C414.235 374.45 413.675 375.052 413.675 376.27V380.75H412.499ZM417.77 382.85V381.814H418.624C419.142 381.814 419.352 381.66 419.492 381.31L419.758 380.61H419.352L416.636 373.33H417.924L420.136 379.518L422.25 373.33H423.538L420.528 381.688C420.248 382.486 419.73 382.85 418.736 382.85H417.77ZM427.497 380.918C425.439 380.918 424.095 379.406 424.095 377.04C424.095 374.674 425.439 373.162 427.497 373.162C429.541 373.162 430.885 374.674 430.885 377.04C430.885 379.406 429.541 380.918 427.497 380.918ZM427.497 379.798C428.855 379.798 429.653 378.762 429.653 377.04C429.653 375.318 428.855 374.282 427.497 374.282C426.125 374.282 425.327 375.318 425.327 377.04C425.327 378.762 426.125 379.798 427.497 379.798ZM432.487 380.75V373.33H433.565L433.593 374.66C433.985 373.638 434.853 373.162 435.875 373.162C437.569 373.162 438.381 374.408 438.381 375.976V380.75H437.205V376.312C437.205 374.94 436.743 374.198 435.623 374.198C434.475 374.198 433.663 374.94 433.663 376.312V380.75H432.487ZM443.356 380.918C441.256 380.918 439.954 379.392 439.954 377.04C439.954 374.688 441.256 373.162 443.3 373.162C445.232 373.162 446.576 374.562 446.576 377.054V377.404H441.186C441.27 379 442.068 379.798 443.356 379.798C444.322 379.798 444.952 379.308 445.204 378.552L446.464 378.65C446.072 379.98 444.924 380.918 443.356 380.918ZM441.186 376.368H445.288C445.176 374.94 444.392 374.282 443.3 374.282C442.152 374.282 441.382 374.996 441.186 376.368ZM447.802 380.75V379.168H449.384V380.75H447.802Z" fill="#FAFCFD"/>
</svg>
