<svg width="900" height="262" viewBox="0 0 900 262" fill="none" xmlns="http://www.w3.org/2000/svg">
<rect y="0.75" width="900" height="260.6" fill="#374A5F" fill-opacity="0.025"/>
<rect x="0.5" y="1.25" width="899" height="259.6" stroke="#374A5F" stroke-opacity="0.1"/>
<path d="M42.484 47.114H53.536L52.978 51.02H52.186C51.682 48.68 51.502 48.032 49.9 48.032H48.91L46.948 57.338C46.876 57.662 46.858 57.896 46.858 58.022C46.858 58.706 47.434 58.868 48.532 58.904L48.352 59.75H42.322L42.502 58.904C43.708 58.85 44.428 58.67 44.644 57.608L46.678 48.032H45.706C44.104 48.032 43.708 48.68 42.178 51.02H41.368L42.484 47.114ZM56.5129 52.19L55.8109 54.476H55.9369C57.1969 52.298 59.2309 49.922 60.9589 49.922C61.8949 49.922 62.2729 50.462 62.2729 51.29C62.2729 51.524 62.2189 51.848 62.1649 52.082L60.7429 57.482C60.6529 57.824 60.5809 58.112 60.5809 58.256C60.5809 58.436 60.6709 58.526 60.8329 58.526C61.1749 58.526 61.6609 58.13 62.4349 57.176L62.8489 57.59C61.7149 59.246 60.8329 59.93 59.8069 59.93C58.9789 59.93 58.4569 59.372 58.4569 58.562C58.4569 58.13 58.5289 57.68 58.7089 57.014L60.0049 52.334C60.0589 52.1 60.0949 51.884 60.0949 51.74C60.0949 51.488 60.0049 51.362 59.7709 51.362C58.7809 51.362 56.2069 54.026 55.3789 57.266L54.7489 59.75H52.6249L55.3789 47.87L54.1189 47.24L54.2269 46.808L57.4849 46.052H57.9529L56.5129 52.19ZM71.753 51.974C71.753 54.062 68.909 55.034 65.903 55.718V56.15C65.903 57.662 66.623 58.652 67.793 58.652C68.855 58.652 69.755 58.04 70.619 57.014L71.087 57.41C69.809 59.228 68.477 59.93 66.983 59.93C64.823 59.93 63.851 58.22 63.851 56.294C63.851 53.144 66.371 49.922 69.467 49.922C71.015 49.922 71.753 50.84 71.753 51.974ZM68.999 50.894C67.613 50.894 66.281 52.82 65.975 55.124C68.639 54.332 69.935 53.468 69.935 52.028C69.935 51.398 69.629 50.894 68.999 50.894ZM78.5291 54.836H78.6551C80.0231 52.1 81.7331 49.922 83.4611 49.922C84.7931 49.922 85.5671 51.038 85.5671 52.658C85.5671 56.384 82.5251 59.93 79.5011 59.93C78.7271 59.93 78.0971 59.534 77.8091 59.102L77.3231 61.262C77.2691 61.478 77.2331 61.676 77.2331 61.82C77.2511 62.342 77.7191 62.414 78.3851 62.504L78.1871 63.296H73.3631L73.5611 62.504C74.4071 62.396 74.9471 62.306 75.1451 61.478L77.5391 51.614L76.2971 51.02L76.4231 50.57L79.5011 49.904H80.0051L79.4471 52.262L78.5291 54.836ZM82.4531 51.452C81.3191 51.452 79.0331 54.26 78.0791 57.806C78.1511 58.544 78.5831 59.084 79.3211 59.084C81.4811 59.084 83.3711 55.628 83.3891 52.874C83.3891 51.938 83.0471 51.452 82.4531 51.452ZM89.2044 55.934H89.3304C91.3104 51.974 92.4984 49.922 93.7944 49.922C94.5864 49.922 94.9104 50.498 94.9104 51.128C94.9104 51.992 94.3344 52.532 93.6504 52.856H93.3444C93.3444 52.514 93.2544 52.19 92.8404 52.19C91.7964 52.19 89.7084 55.304 88.6104 59.75H86.4864L88.4844 51.65L87.2604 51.02L87.3864 50.57L90.4644 49.904H90.9684L90.2304 52.802L89.2044 55.934ZM98.1048 59.084C99.9768 59.084 101.165 55.52 101.165 53.108C101.165 51.65 100.715 50.768 99.8688 50.768C97.9968 50.768 96.8088 54.332 96.8088 56.762C96.8088 58.202 97.2588 59.084 98.1048 59.084ZM98.0328 59.93C96.0348 59.93 94.6668 58.544 94.6668 56.15C94.6668 53.054 96.8088 49.922 99.9408 49.922C101.939 49.922 103.307 51.308 103.307 53.702C103.307 56.798 101.165 59.93 98.0328 59.93ZM104.33 57.644L106.598 47.87L105.338 47.24L105.446 46.808L108.704 46.052H109.172L107.786 51.902L106.832 54.638H106.958C108.38 51.992 110 49.922 111.746 49.922C113.168 49.922 113.852 51.038 113.852 52.658C113.852 56.384 110.738 59.93 107.462 59.93C105.914 59.93 104.672 59.138 104.33 57.644ZM110.738 51.416C109.586 51.416 107.12 54.26 106.328 57.806C106.346 58.562 106.85 59.102 107.552 59.102C109.748 59.102 111.692 55.592 111.71 52.838C111.71 51.902 111.386 51.416 110.738 51.416ZM117.228 47.87L115.968 47.24L116.094 46.808L119.334 46.052H119.82L117.12 57.482C117.03 57.842 116.994 58.112 116.994 58.256C116.994 58.436 117.084 58.526 117.246 58.526C117.588 58.526 118.074 58.13 118.848 57.176L119.262 57.59C118.146 59.246 117.264 59.93 116.22 59.93C115.41 59.93 114.888 59.372 114.888 58.562C114.888 58.13 114.96 57.68 115.122 57.014L117.228 47.87ZM128.067 51.974C128.067 54.062 125.223 55.034 122.217 55.718V56.15C122.217 57.662 122.937 58.652 124.107 58.652C125.169 58.652 126.069 58.04 126.933 57.014L127.401 57.41C126.123 59.228 124.791 59.93 123.297 59.93C121.137 59.93 120.165 58.22 120.165 56.294C120.165 53.144 122.685 49.922 125.781 49.922C127.329 49.922 128.067 50.84 128.067 51.974ZM125.313 50.894C123.927 50.894 122.595 52.82 122.289 55.124C124.953 54.332 126.249 53.468 126.249 52.028C126.249 51.398 125.943 50.894 125.313 50.894ZM137.144 54.494H137.27C138.548 52.316 140.402 49.922 142.13 49.922C143.066 49.922 143.444 50.462 143.444 51.29C143.444 51.524 143.39 51.866 143.336 52.082L141.914 57.482C141.824 57.824 141.752 58.112 141.752 58.256C141.752 58.436 141.842 58.526 142.004 58.526C142.346 58.526 142.832 58.13 143.606 57.176L144.02 57.59C142.886 59.246 142.004 59.93 140.978 59.93C140.15 59.93 139.628 59.372 139.628 58.562C139.628 58.13 139.7 57.68 139.88 57.014L141.158 52.37C141.212 52.136 141.248 51.92 141.248 51.776C141.248 51.542 141.158 51.416 140.924 51.416C139.916 51.416 137.486 54.17 136.73 57.212L136.1 59.75H133.976L135.83 52.37C135.884 52.136 135.92 51.92 135.92 51.776C135.92 51.542 135.83 51.416 135.596 51.416C134.624 51.416 132.14 54.17 131.384 57.212L130.754 59.75H128.63L130.646 51.65L129.422 51.02L129.548 50.57L132.626 49.904H133.13L132.608 52.1L131.798 54.494H131.924C133.22 52.316 135.074 49.922 136.82 49.922C137.72 49.922 138.008 50.48 138.008 51.182C138.008 51.776 137.72 52.838 137.144 54.494ZM151.253 59.048C152.099 59.048 152.549 58.598 152.549 57.842C152.549 56.474 149.165 55.034 149.165 52.91C149.165 51.2 150.605 49.922 152.585 49.922C154.007 49.922 154.979 50.606 154.979 51.614C154.979 52.082 154.565 52.424 154.133 52.604H153.827C153.431 51.542 152.801 50.858 151.919 50.858C151.127 50.858 150.731 51.254 150.731 51.938C150.731 53.162 154.223 54.782 154.223 56.834C154.223 58.742 152.585 59.93 150.731 59.93C148.967 59.93 147.779 59.066 147.779 57.968C147.779 57.392 148.139 56.942 148.661 56.726H148.931C149.345 58.112 150.101 59.048 151.253 59.048ZM159.496 51.074L158.11 57.104C158.002 57.572 157.948 57.86 157.948 58.112C157.948 58.382 158.056 58.562 158.344 58.562C158.974 58.562 159.676 57.986 160.756 56.834L161.206 57.284C159.928 58.958 158.542 59.93 157.318 59.93C156.256 59.93 155.824 59.264 155.824 58.364C155.824 57.932 155.896 57.536 156.022 56.996L157.39 51.074H156.076L156.256 50.444C157.57 50.066 158.578 49.238 159.532 47.996H160.252L159.748 50.102H161.944L161.71 51.074H159.496ZM165.246 58.436C166.542 58.436 168.396 55.682 169.386 51.596C169.098 51.038 168.72 50.768 168.126 50.768C165.93 50.768 164.346 54.152 164.328 56.906C164.328 57.824 164.634 58.436 165.246 58.436ZM169.926 50.714L171.24 49.832H172.068L171.402 51.992L170.07 57.482C169.98 57.824 169.908 58.112 169.908 58.256C169.908 58.436 169.998 58.526 170.16 58.526C170.502 58.526 171.006 58.13 171.744 57.176L172.176 57.59C171.06 59.246 170.178 59.93 169.134 59.93C168.324 59.93 167.892 59.354 167.892 58.49C167.892 57.932 168.216 56.726 168.54 55.772H168.414C167.406 57.95 165.966 59.93 164.346 59.93C163.032 59.93 162.222 58.868 162.222 57.086C162.222 53.36 164.94 49.922 167.928 49.922C168.828 49.922 169.422 50.21 169.926 50.714ZM177.215 51.074L175.829 57.104C175.721 57.572 175.667 57.86 175.667 58.112C175.667 58.382 175.775 58.562 176.063 58.562C176.693 58.562 177.395 57.986 178.475 56.834L178.925 57.284C177.647 58.958 176.261 59.93 175.037 59.93C173.975 59.93 173.543 59.264 173.543 58.364C173.543 57.932 173.615 57.536 173.741 56.996L175.109 51.074H173.795L173.975 50.444C175.289 50.066 176.297 49.238 177.251 47.996H177.971L177.467 50.102H179.663L179.429 51.074H177.215ZM187.879 51.974C187.879 54.062 185.035 55.034 182.029 55.718V56.15C182.029 57.662 182.749 58.652 183.919 58.652C184.981 58.652 185.881 58.04 186.745 57.014L187.213 57.41C185.935 59.228 184.603 59.93 183.109 59.93C180.949 59.93 179.977 58.22 179.977 56.294C179.977 53.144 182.497 49.922 185.593 49.922C187.141 49.922 187.879 50.84 187.879 51.974ZM185.125 50.894C183.739 50.894 182.407 52.82 182.101 55.124C184.765 54.332 186.061 53.468 186.061 52.028C186.061 51.398 185.755 50.894 185.125 50.894ZM196.956 54.494H197.082C198.36 52.316 200.214 49.922 201.942 49.922C202.878 49.922 203.256 50.462 203.256 51.29C203.256 51.524 203.202 51.866 203.148 52.082L201.726 57.482C201.636 57.824 201.564 58.112 201.564 58.256C201.564 58.436 201.654 58.526 201.816 58.526C202.158 58.526 202.644 58.13 203.418 57.176L203.832 57.59C202.698 59.246 201.816 59.93 200.79 59.93C199.962 59.93 199.44 59.372 199.44 58.562C199.44 58.13 199.512 57.68 199.692 57.014L200.97 52.37C201.024 52.136 201.06 51.92 201.06 51.776C201.06 51.542 200.97 51.416 200.736 51.416C199.728 51.416 197.298 54.17 196.542 57.212L195.912 59.75H193.788L195.642 52.37C195.696 52.136 195.732 51.92 195.732 51.776C195.732 51.542 195.642 51.416 195.408 51.416C194.436 51.416 191.952 54.17 191.196 57.212L190.566 59.75H188.442L190.458 51.65L189.234 51.02L189.36 50.57L192.438 49.904H192.942L192.42 52.1L191.61 54.494H191.736C193.032 52.316 194.886 49.922 196.632 49.922C197.532 49.922 197.82 50.48 197.82 51.182C197.82 51.776 197.532 52.838 196.956 54.494ZM212.735 51.974C212.735 54.062 209.891 55.034 206.885 55.718V56.15C206.885 57.662 207.605 58.652 208.775 58.652C209.837 58.652 210.737 58.04 211.601 57.014L212.069 57.41C210.791 59.228 209.459 59.93 207.965 59.93C205.805 59.93 204.833 58.22 204.833 56.294C204.833 53.144 207.353 49.922 210.449 49.922C211.997 49.922 212.735 50.84 212.735 51.974ZM209.981 50.894C208.595 50.894 207.263 52.82 206.957 55.124C209.621 54.332 210.917 53.468 210.917 52.028C210.917 51.398 210.611 50.894 209.981 50.894ZM217.798 49.904L217.222 52.208L216.484 54.476H216.61C217.87 52.298 219.904 49.922 221.632 49.922C222.586 49.922 222.964 50.462 222.964 51.29C222.964 51.524 222.91 51.848 222.856 52.082L221.416 57.482C221.326 57.824 221.254 58.112 221.254 58.256C221.254 58.436 221.344 58.526 221.506 58.526C221.848 58.526 222.334 58.13 223.108 57.176L223.522 57.59C222.406 59.246 221.524 59.93 220.498 59.93C219.67 59.93 219.13 59.372 219.13 58.562C219.13 58.13 219.202 57.68 219.382 57.014L220.678 52.334C220.732 52.1 220.768 51.884 220.768 51.74C220.768 51.488 220.678 51.362 220.444 51.362C219.472 51.362 216.88 54.026 216.052 57.266L215.422 59.75H213.298L215.314 51.65L214.09 51.02L214.216 50.57L217.294 49.904H217.798ZM228.571 51.074L227.185 57.104C227.077 57.572 227.023 57.86 227.023 58.112C227.023 58.382 227.131 58.562 227.419 58.562C228.049 58.562 228.751 57.986 229.831 56.834L230.281 57.284C229.003 58.958 227.617 59.93 226.393 59.93C225.331 59.93 224.899 59.264 224.899 58.364C224.899 57.932 224.971 57.536 225.097 56.996L226.465 51.074H225.151L225.331 50.444C226.645 50.066 227.653 49.238 228.607 47.996H229.327L228.823 50.102H231.019L230.785 51.074H228.571Z" fill="#374A5F"/>
<rect x="40" y="93.75" width="820" height="127.6" fill="#DFEBF8"/>
<rect x="40.5" y="94.25" width="819" height="126.6" stroke="#374A5F" stroke-opacity="0.1"/>
<path d="M227.581 148.67V143.558H219.565V148.67C219.565 150.086 220.285 150.35 221.845 150.398V151.55H214.237V150.398C215.845 150.35 216.517 150.086 216.517 148.67V137.558C216.517 136.166 215.845 135.902 214.237 135.854V134.702H221.845V135.854C220.285 135.902 219.565 136.166 219.565 137.558V142.262H227.581V137.558C227.581 136.166 226.861 135.902 225.301 135.854V134.702H232.909V135.854C231.301 135.902 230.629 136.166 230.629 137.558V148.67C230.629 150.086 231.301 150.35 232.909 150.398V151.55H225.301V150.398C226.861 150.35 227.581 150.086 227.581 148.67ZM241.015 150.398C242.983 150.398 243.991 148.406 243.991 145.478C243.991 142.358 242.743 139.814 240.583 139.814C238.591 139.814 237.607 141.83 237.607 144.758C237.607 147.878 238.831 150.398 241.015 150.398ZM240.679 151.79C236.983 151.79 234.607 149.054 234.607 145.358C234.607 141.158 237.391 138.446 240.895 138.446C244.591 138.446 246.991 141.182 246.991 144.878C246.991 149.078 244.183 151.79 240.679 151.79ZM261.521 147.494L263.801 141.302C263.897 141.014 263.945 140.798 263.945 140.606C263.945 140.03 263.513 139.91 262.433 139.742V138.686H266.969V139.742C265.961 140.102 265.793 140.174 265.601 140.702L261.329 151.742H260.465L257.321 143.558L254.057 151.742H253.217L248.777 140.702C248.561 140.174 248.393 140.078 247.409 139.742V138.686H253.409V139.742C252.377 139.91 251.969 140.054 251.969 140.582C251.969 140.798 252.041 141.062 252.161 141.35L254.441 147.518L256.601 141.854L256.193 140.702C256.001 140.174 255.833 140.054 254.897 139.742V138.686H260.681V139.742C259.577 139.91 259.169 140.03 259.169 140.606C259.169 140.822 259.241 141.086 259.337 141.35L261.521 147.494ZM295.074 151.55H288.762V150.47C289.842 150.326 290.442 150.206 290.442 149.102V142.622C290.442 141.086 289.914 140.534 288.522 140.534C287.418 140.534 286.41 140.99 285.57 141.566V149.102C285.57 150.206 286.194 150.326 287.25 150.47V151.55H280.986V150.47C282.066 150.326 282.666 150.206 282.666 149.102V142.622C282.666 141.086 282.138 140.534 280.77 140.534C279.642 140.534 278.634 140.99 277.794 141.566V149.102C277.794 150.206 278.37 150.326 279.45 150.47V151.55H273.162V150.47C274.218 150.326 274.89 150.206 274.89 149.102V141.278L273.282 140.246V139.646L277.122 138.398H277.794V140.846C278.898 139.694 280.242 138.446 282.234 138.446C283.866 138.446 285.018 139.214 285.426 140.942C286.554 139.79 288.042 138.446 290.058 138.446C292.17 138.446 293.346 139.622 293.346 142.358V149.102C293.346 150.206 293.994 150.326 295.074 150.47V151.55ZM301.161 138.446V149.102C301.161 150.206 301.809 150.326 302.889 150.47V151.55H296.529V150.47C297.585 150.326 298.257 150.206 298.257 149.102V141.23L296.649 140.222V139.646L300.489 138.446H301.161ZM299.625 137.006C298.545 137.006 297.777 136.19 297.777 135.206C297.777 134.222 298.545 133.406 299.625 133.406C300.681 133.406 301.449 134.222 301.449 135.206C301.449 136.19 300.681 137.006 299.625 137.006ZM309.992 146.966C309.2 146.966 308.408 146.846 307.688 146.606C307.04 147.278 306.8 147.686 306.8 148.166C306.8 148.67 307.088 148.862 307.592 148.862H313.136C315.488 148.862 316.808 149.822 316.808 151.91C316.808 154.718 313.88 156.518 309.68 156.518C306.152 156.518 304.064 155.558 304.064 153.59C304.064 152.294 305.192 151.67 306.272 151.262C305.312 150.902 304.784 150.278 304.784 149.27C304.784 148.07 305.744 147.158 307.088 146.318C305.816 145.67 304.928 144.542 304.928 142.862C304.928 140.126 307.112 138.446 310.088 138.446C310.976 138.446 311.72 138.614 312.32 138.83L316.688 138.566V140.366H315.752L313.472 139.862V140.006C314.432 140.558 315.128 141.518 315.128 142.766C315.128 145.334 313.04 146.966 309.992 146.966ZM312.68 151.598H306.728C306.368 151.958 306.248 152.414 306.248 152.87C306.248 154.574 307.784 155.27 310.016 155.27C312.584 155.27 314.456 154.502 314.456 152.846C314.456 151.838 313.784 151.598 312.68 151.598ZM310.208 145.886C311.648 145.886 312.32 144.71 312.32 142.958C312.32 141.086 311.432 139.574 309.848 139.574C308.408 139.574 307.76 140.75 307.76 142.502C307.76 144.35 308.6 145.886 310.208 145.886ZM322.813 133.286V140.846C323.941 139.694 325.381 138.446 327.397 138.446C329.581 138.446 330.853 139.622 330.853 142.382V149.102C330.853 150.206 331.525 150.326 332.605 150.47V151.55H326.269V150.47C327.325 150.326 327.949 150.206 327.949 149.102V142.622C327.949 141.134 327.373 140.534 325.957 140.534C324.805 140.534 323.653 140.99 322.813 141.566V149.102C322.813 150.206 323.437 150.326 324.493 150.47V151.55H318.157V150.47C319.237 150.326 319.909 150.206 319.909 149.102V136.046L318.277 135.014V134.414L322.165 133.286H322.813ZM338.084 135.854V138.686H341.612V140.126H338.084V148.214C338.084 149.486 338.636 149.942 339.86 149.942C340.532 149.942 341.324 149.75 341.924 149.438L342.236 150.182C341.324 151.166 340.004 151.79 338.348 151.79C336.428 151.79 335.204 150.878 335.204 148.67V140.126H333.476V139.214C334.82 138.518 336.116 137.39 337.22 135.854H338.084ZM361.81 147.494L364.09 141.302C364.186 141.014 364.234 140.798 364.234 140.606C364.234 140.03 363.802 139.91 362.722 139.742V138.686H367.258V139.742C366.25 140.102 366.082 140.174 365.89 140.702L361.618 151.742H360.754L357.61 143.558L354.346 151.742H353.506L349.066 140.702C348.85 140.174 348.682 140.078 347.698 139.742V138.686H353.698V139.742C352.666 139.91 352.258 140.054 352.258 140.582C352.258 140.798 352.33 141.062 352.45 141.35L354.73 147.518L356.89 141.854L356.482 140.702C356.29 140.174 356.122 140.054 355.186 139.742V138.686H360.97V139.742C359.866 139.91 359.458 140.03 359.458 140.606C359.458 140.822 359.53 141.086 359.626 141.35L361.81 147.494ZM373.592 138.446C376.856 138.446 378.56 140.75 378.56 143.846V144.638H370.184C370.184 147.542 371.816 149.486 374.36 149.486C376.064 149.486 377.192 148.694 378.056 147.542L378.584 147.854C377.984 150.182 376.16 151.79 373.352 151.79C369.824 151.79 367.592 149.126 367.592 145.526C367.592 141.278 370.184 138.446 373.592 138.446ZM373.208 139.766C371.48 139.766 370.448 141.47 370.256 143.414H375.848C375.848 141.206 374.96 139.766 373.208 139.766ZM390.2 138.446V149.102C390.2 150.206 390.848 150.326 391.928 150.47V151.55H385.568V150.47C386.624 150.326 387.296 150.206 387.296 149.102V141.23L385.688 140.222V139.646L389.528 138.446H390.2ZM388.664 137.006C387.584 137.006 386.816 136.19 386.816 135.206C386.816 134.222 387.584 133.406 388.664 133.406C389.72 133.406 390.488 134.222 390.488 135.206C390.488 136.19 389.72 137.006 388.664 137.006ZM415.519 151.55H409.207V150.47C410.287 150.326 410.887 150.206 410.887 149.102V142.622C410.887 141.086 410.359 140.534 408.967 140.534C407.863 140.534 406.855 140.99 406.015 141.566V149.102C406.015 150.206 406.639 150.326 407.695 150.47V151.55H401.431V150.47C402.511 150.326 403.111 150.206 403.111 149.102V142.622C403.111 141.086 402.583 140.534 401.215 140.534C400.087 140.534 399.079 140.99 398.239 141.566V149.102C398.239 150.206 398.815 150.326 399.895 150.47V151.55H393.607V150.47C394.663 150.326 395.335 150.206 395.335 149.102V141.278L393.727 140.246V139.646L397.567 138.398H398.239V140.846C399.343 139.694 400.687 138.446 402.679 138.446C404.311 138.446 405.463 139.214 405.871 140.942C406.999 139.79 408.487 138.446 410.503 138.446C412.615 138.446 413.791 139.622 413.791 142.358V149.102C413.791 150.206 414.439 150.326 415.519 150.47V151.55ZM421.295 150.71V153.83C421.295 154.934 421.967 155.054 423.047 155.198V156.278H416.663V155.198C417.743 155.054 418.415 154.934 418.415 153.83V141.278L416.783 140.246V139.646L420.671 138.398H421.295V140.606C422.23 139.31 423.527 138.446 425.327 138.446C428.519 138.446 430.319 140.99 430.319 144.494C430.319 149.006 427.511 151.79 424.127 151.79C422.831 151.79 421.799 151.334 421.295 150.71ZM423.983 150.518C426.047 150.518 427.415 148.55 427.415 145.574C427.415 142.79 426.311 140.414 423.911 140.414C422.927 140.414 421.943 140.726 421.295 141.326V147.446C421.295 149.462 422.279 150.518 423.983 150.518ZM436.771 138.398V142.334C438.139 139.406 438.859 138.446 440.395 138.446C440.827 138.446 441.139 138.59 441.331 138.758V141.398H440.803C439.315 141.398 438.187 141.59 436.771 143.126V149.054C436.771 150.206 437.347 150.278 438.979 150.47V151.55H432.139V150.47C433.195 150.326 433.867 150.206 433.867 149.102V141.278L432.259 140.246V139.646L436.075 138.398H436.771ZM448.953 150.398C450.921 150.398 451.929 148.406 451.929 145.478C451.929 142.358 450.681 139.814 448.521 139.814C446.529 139.814 445.545 141.83 445.545 144.758C445.545 147.878 446.769 150.398 448.953 150.398ZM448.617 151.79C444.921 151.79 442.545 149.054 442.545 145.358C442.545 141.158 445.329 138.446 448.833 138.446C452.529 138.446 454.929 141.182 454.929 144.878C454.929 149.078 452.121 151.79 448.617 151.79ZM468.859 138.686V139.742C467.851 140.126 467.707 140.174 467.467 140.702L462.595 151.742H461.827L456.739 140.702C456.499 140.198 456.355 140.126 455.347 139.742V138.686H461.707V139.742C460.459 139.91 460.003 140.03 460.003 140.606C460.003 140.798 460.051 140.99 460.195 141.302L462.859 147.83L465.595 141.302C465.715 140.966 465.763 140.798 465.763 140.606C465.763 140.03 465.307 139.91 464.083 139.742V138.686H468.859ZM475.193 138.446C478.457 138.446 480.161 140.75 480.161 143.846V144.638H471.785C471.785 147.542 473.417 149.486 475.961 149.486C477.665 149.486 478.793 148.694 479.657 147.542L480.185 147.854C479.585 150.182 477.761 151.79 474.953 151.79C471.425 151.79 469.193 149.126 469.193 145.526C469.193 141.278 471.785 138.446 475.193 138.446ZM474.809 139.766C473.081 139.766 472.049 141.47 471.857 143.414H477.449C477.449 141.206 476.561 139.766 474.809 139.766ZM491.178 135.854V138.686H494.706V140.126H491.178V148.214C491.178 149.486 491.73 149.942 492.954 149.942C493.626 149.942 494.418 149.75 495.018 149.438L495.33 150.182C494.418 151.166 493.098 151.79 491.442 151.79C489.522 151.79 488.298 150.878 488.298 148.67V140.126H486.57V139.214C487.914 138.518 489.21 137.39 490.314 135.854H491.178ZM500.868 133.286V140.846C501.996 139.694 503.436 138.446 505.452 138.446C507.636 138.446 508.908 139.622 508.908 142.382V149.102C508.908 150.206 509.58 150.326 510.66 150.47V151.55H504.324V150.47C505.38 150.326 506.004 150.206 506.004 149.102V142.622C506.004 141.134 505.428 140.534 504.012 140.534C502.86 140.534 501.708 140.99 500.868 141.566V149.102C500.868 150.206 501.492 150.326 502.548 150.47V151.55H496.212V150.47C497.292 150.326 497.964 150.206 497.964 149.102V136.046L496.332 135.014V134.414L500.22 133.286H500.868ZM518.131 138.446C521.395 138.446 523.099 140.75 523.099 143.846V144.638H514.723C514.723 147.542 516.355 149.486 518.899 149.486C520.603 149.486 521.731 148.694 522.595 147.542L523.123 147.854C522.523 150.182 520.699 151.79 517.891 151.79C514.363 151.79 512.131 149.126 512.131 145.526C512.131 141.278 514.723 138.446 518.131 138.446ZM517.747 139.766C516.019 139.766 514.987 141.47 514.795 143.414H520.387C520.387 141.206 519.499 139.766 517.747 139.766ZM534.283 138.446V149.15C534.283 151.214 534.043 152.294 533.347 153.446C532.531 154.742 531.355 155.654 530.011 156.542L529.363 155.894L530.179 154.694C531.283 153.23 531.379 151.934 531.379 149.726V141.23L529.771 140.222V139.646L533.659 138.446H534.283ZM532.771 137.006C531.691 137.006 530.923 136.19 530.923 135.206C530.923 134.222 531.691 133.406 532.771 133.406C533.827 133.406 534.595 134.222 534.595 135.206C534.595 136.19 533.827 137.006 532.771 137.006ZM543.383 150.398C545.351 150.398 546.359 148.406 546.359 145.478C546.359 142.358 545.111 139.814 542.951 139.814C540.959 139.814 539.975 141.83 539.975 144.758C539.975 147.878 541.199 150.398 543.383 150.398ZM543.047 151.79C539.351 151.79 536.975 149.054 536.975 145.358C536.975 141.158 539.759 138.446 543.263 138.446C546.959 138.446 549.359 141.182 549.359 144.878C549.359 149.078 546.551 151.79 543.047 151.79ZM552.162 136.046L550.554 135.014V134.414L554.418 133.286H555.066V140.606C555.978 139.31 557.298 138.446 559.074 138.446C562.29 138.446 564.09 140.99 564.09 144.494C564.09 149.006 561.21 151.79 557.61 151.79C555.282 151.79 553.314 151.118 552.162 150.182V136.046ZM557.754 150.518C559.818 150.518 561.162 148.55 561.162 145.574C561.162 142.79 560.058 140.414 557.658 140.414C556.674 140.414 555.69 140.726 555.066 141.326V147.47C555.066 149.63 556.05 150.518 557.754 150.518ZM572.448 145.286H566.208V143.174H572.448V145.286ZM579.296 151.79C577.568 151.79 575.936 151.406 574.76 150.542L574.616 147.446H575.864C576.32 149.414 577.448 150.566 579.368 150.566C580.784 150.566 581.696 149.918 581.696 148.766C581.696 147.398 580.736 146.918 578.576 146.318C576.152 145.622 574.736 144.614 574.736 142.334C574.736 139.982 576.464 138.446 579.176 138.446C580.832 138.446 582.2 138.854 583.256 139.478V142.358H582.032C581.672 140.606 580.712 139.694 579.08 139.694C577.832 139.694 577.112 140.438 577.112 141.422C577.112 142.598 577.904 143.222 579.872 143.75C582.344 144.422 584.048 145.262 584.048 147.782C584.048 150.158 582.272 151.79 579.296 151.79ZM591.865 138.446C595.129 138.446 596.833 140.75 596.833 143.846V144.638H588.457C588.457 147.542 590.089 149.486 592.633 149.486C594.337 149.486 595.465 148.694 596.329 147.542L596.857 147.854C596.257 150.182 594.433 151.79 591.625 151.79C588.097 151.79 585.865 149.126 585.865 145.526C585.865 141.278 588.457 138.446 591.865 138.446ZM591.481 139.766C589.753 139.766 588.721 141.47 588.529 143.414H594.121C594.121 141.206 593.233 139.766 591.481 139.766ZM603.461 149.798C604.397 149.798 605.045 149.534 605.861 148.958V144.758L603.053 145.838C602.165 146.174 601.661 146.822 601.661 147.734C601.661 149.054 602.309 149.798 603.461 149.798ZM608.765 142.838C608.765 143.414 608.693 147.662 608.693 148.406C608.693 149.366 609.005 149.918 609.677 149.918C609.893 149.918 610.421 149.87 610.781 149.774L610.925 150.542C610.109 151.358 609.197 151.79 608.189 151.79C606.917 151.79 606.221 150.902 605.933 149.606C605.093 150.614 603.797 151.766 601.973 151.766C599.837 151.766 598.733 150.326 598.733 148.478C598.733 146.27 600.437 145.502 602.045 144.95L605.861 143.582V142.31C605.861 140.75 605.381 139.694 603.797 139.694C602.621 139.694 602.045 140.27 602.045 141.374C602.045 141.83 602.093 142.238 602.213 142.742L600.101 143.054C599.645 142.742 599.429 142.286 599.429 141.638C599.429 139.55 601.469 138.446 604.229 138.446C607.181 138.446 608.765 139.766 608.765 142.838ZM616.56 138.398V142.334C617.928 139.406 618.648 138.446 620.184 138.446C620.616 138.446 620.928 138.59 621.12 138.758V141.398H620.592C619.104 141.398 617.976 141.59 616.56 143.126V149.054C616.56 150.206 617.136 150.278 618.768 150.47V151.55H611.928V150.47C612.984 150.326 613.656 150.206 613.656 149.102V141.278L612.048 140.246V139.646L615.864 138.398H616.56ZM624.974 144.35C624.974 147.422 626.39 149.486 629.006 149.486C630.566 149.486 631.646 148.79 632.534 147.542L633.086 147.878C632.342 150.542 630.518 151.79 627.974 151.79C624.614 151.79 622.334 149.246 622.334 145.55C622.334 141.638 624.854 138.446 628.694 138.446C631.214 138.446 632.942 139.598 632.942 141.566C632.942 142.454 632.51 142.886 631.958 143.126H630.398V142.19C630.398 140.822 629.822 139.79 628.382 139.79C626.39 139.79 624.974 141.662 624.974 144.35ZM638.821 133.286V140.846C639.949 139.694 641.389 138.446 643.405 138.446C645.589 138.446 646.861 139.622 646.861 142.382V149.102C646.861 150.206 647.533 150.326 648.613 150.47V151.55H642.277V150.47C643.333 150.326 643.957 150.206 643.957 149.102V142.622C643.957 141.134 643.381 140.534 641.965 140.534C640.813 140.534 639.661 140.99 638.821 141.566V149.102C638.821 150.206 639.445 150.326 640.501 150.47V151.55H634.165V150.47C635.245 150.326 635.917 150.206 635.917 149.102V136.046L634.285 135.014V134.414L638.173 133.286H638.821ZM654.716 138.446V149.102C654.716 150.206 655.364 150.326 656.444 150.47V151.55H650.084V150.47C651.14 150.326 651.812 150.206 651.812 149.102V141.23L650.204 140.222V139.646L654.044 138.446H654.716ZM653.18 137.006C652.1 137.006 651.332 136.19 651.332 135.206C651.332 134.222 652.1 133.406 653.18 133.406C654.236 133.406 655.004 134.222 655.004 135.206C655.004 136.19 654.236 137.006 653.18 137.006ZM667.915 149.102V142.622C667.915 141.134 667.315 140.534 665.899 140.534C664.771 140.534 663.571 140.99 662.755 141.566V149.102C662.755 150.206 663.355 150.326 664.435 150.47V151.55H658.123V150.47C659.179 150.326 659.851 150.206 659.851 149.102V141.278L658.243 140.246V139.646L662.083 138.398H662.755V140.846C663.859 139.694 665.347 138.446 667.363 138.446C669.523 138.446 670.819 139.622 670.819 142.382V149.102C670.819 150.206 671.467 150.326 672.547 150.47V151.55H666.211V150.47C667.291 150.326 667.915 150.206 667.915 149.102ZM679.461 146.966C678.669 146.966 677.877 146.846 677.157 146.606C676.509 147.278 676.269 147.686 676.269 148.166C676.269 148.67 676.557 148.862 677.061 148.862H682.605C684.957 148.862 686.277 149.822 686.277 151.91C686.277 154.718 683.349 156.518 679.149 156.518C675.621 156.518 673.533 155.558 673.533 153.59C673.533 152.294 674.661 151.67 675.741 151.262C674.781 150.902 674.253 150.278 674.253 149.27C674.253 148.07 675.213 147.158 676.557 146.318C675.285 145.67 674.397 144.542 674.397 142.862C674.397 140.126 676.581 138.446 679.557 138.446C680.445 138.446 681.189 138.614 681.789 138.83L686.157 138.566V140.366H685.221L682.941 139.862V140.006C683.901 140.558 684.597 141.518 684.597 142.766C684.597 145.334 682.509 146.966 679.461 146.966ZM682.149 151.598H676.197C675.837 151.958 675.717 152.414 675.717 152.87C675.717 154.574 677.253 155.27 679.485 155.27C682.053 155.27 683.925 154.502 683.925 152.846C683.925 151.838 683.253 151.598 682.149 151.598ZM679.677 145.886C681.117 145.886 681.789 144.71 681.789 142.958C681.789 141.086 680.901 139.574 679.317 139.574C677.877 139.574 677.229 140.75 677.229 142.502C677.229 144.35 678.069 145.886 679.677 145.886ZM219.689 169.446C222.953 169.446 224.657 171.75 224.657 174.846V175.638H216.281C216.281 178.542 217.913 180.486 220.457 180.486C222.161 180.486 223.289 179.694 224.153 178.542L224.681 178.854C224.081 181.182 222.257 182.79 219.449 182.79C215.921 182.79 213.689 180.126 213.689 176.526C213.689 172.278 216.281 169.446 219.689 169.446ZM219.305 170.766C217.577 170.766 216.545 172.47 216.353 174.414H221.945C221.945 172.206 221.057 170.766 219.305 170.766ZM227.374 180.51L230.878 176.07L227.59 171.702C227.23 171.222 226.942 170.934 226.102 170.742V169.686H232.294V170.742C231.214 170.886 230.926 170.982 230.926 171.414C230.926 171.63 231.142 171.918 231.358 172.206L233.158 174.63L234.934 172.206C235.174 171.918 235.294 171.702 235.294 171.462C235.294 171.006 235.006 170.958 234.022 170.742V169.686H238.63V170.742C237.886 170.982 237.406 171.222 236.974 171.726L233.926 175.662L237.526 180.51C237.91 181.038 238.246 181.374 239.062 181.47V182.55H232.822V181.47C233.974 181.35 234.238 181.23 234.238 180.798C234.238 180.582 234.022 180.294 233.83 180.03L231.646 177.078L229.51 180.03C229.342 180.27 229.198 180.486 229.198 180.75C229.198 181.206 229.462 181.278 230.518 181.47V182.55H225.718V181.47C226.462 181.302 226.99 180.966 227.374 180.51ZM244.423 181.71V184.83C244.423 185.934 245.095 186.054 246.175 186.198V187.278H239.791V186.198C240.871 186.054 241.543 185.934 241.543 184.83V172.278L239.911 171.246V170.646L243.799 169.398H244.423V171.606C245.359 170.31 246.655 169.446 248.455 169.446C251.647 169.446 253.447 171.99 253.447 175.494C253.447 180.006 250.639 182.79 247.255 182.79C245.959 182.79 244.927 182.334 244.423 181.71ZM247.111 181.518C249.175 181.518 250.543 179.55 250.543 176.574C250.543 173.79 249.439 171.414 247.039 171.414C246.055 171.414 245.071 171.726 244.423 172.326V178.446C244.423 180.462 245.407 181.518 247.111 181.518ZM261.267 169.446C264.531 169.446 266.235 171.75 266.235 174.846V175.638H257.859C257.859 178.542 259.491 180.486 262.035 180.486C263.739 180.486 264.867 179.694 265.731 178.542L266.259 178.854C265.659 181.182 263.835 182.79 261.027 182.79C257.499 182.79 255.267 180.126 255.267 176.526C255.267 172.278 257.859 169.446 261.267 169.446ZM260.883 170.766C259.155 170.766 258.123 172.47 257.931 174.414H263.523C263.523 172.206 262.635 170.766 260.883 170.766ZM272.72 169.398V173.334C274.088 170.406 274.808 169.446 276.344 169.446C276.776 169.446 277.088 169.59 277.28 169.758V172.398H276.752C275.264 172.398 274.136 172.59 272.72 174.126V180.054C272.72 181.206 273.296 181.278 274.928 181.47V182.55H268.088V181.47C269.144 181.326 269.816 181.206 269.816 180.102V172.278L268.208 171.246V170.646L272.024 169.398H272.72ZM283.126 169.446V180.102C283.126 181.206 283.774 181.326 284.854 181.47V182.55H278.494V181.47C279.55 181.326 280.222 181.206 280.222 180.102V172.23L278.614 171.222V170.646L282.454 169.446H283.126ZM281.59 168.006C280.51 168.006 279.742 167.19 279.742 166.206C279.742 165.222 280.51 164.406 281.59 164.406C282.646 164.406 283.414 165.222 283.414 166.206C283.414 167.19 282.646 168.006 281.59 168.006ZM292.533 169.446C295.797 169.446 297.501 171.75 297.501 174.846V175.638H289.125C289.125 178.542 290.757 180.486 293.301 180.486C295.005 180.486 296.133 179.694 296.997 178.542L297.525 178.854C296.925 181.182 295.101 182.79 292.293 182.79C288.765 182.79 286.533 180.126 286.533 176.526C286.533 172.278 289.125 169.446 292.533 169.446ZM292.149 170.766C290.421 170.766 289.389 172.47 289.197 174.414H294.789C294.789 172.206 293.901 170.766 292.149 170.766ZM309.145 180.102V173.622C309.145 172.134 308.545 171.534 307.129 171.534C306.001 171.534 304.801 171.99 303.985 172.566V180.102C303.985 181.206 304.585 181.326 305.665 181.47V182.55H299.353V181.47C300.409 181.326 301.081 181.206 301.081 180.102V172.278L299.473 171.246V170.646L303.313 169.398H303.985V171.846C305.089 170.694 306.577 169.446 308.593 169.446C310.753 169.446 312.049 170.622 312.049 173.382V180.102C312.049 181.206 312.697 181.326 313.777 181.47V182.55H307.441V181.47C308.521 181.326 309.145 181.206 309.145 180.102ZM317.907 175.35C317.907 178.422 319.323 180.486 321.939 180.486C323.499 180.486 324.579 179.79 325.467 178.542L326.019 178.878C325.275 181.542 323.451 182.79 320.907 182.79C317.547 182.79 315.267 180.246 315.267 176.55C315.267 172.638 317.787 169.446 321.627 169.446C324.147 169.446 325.875 170.598 325.875 172.566C325.875 173.454 325.443 173.886 324.891 174.126H323.331V173.19C323.331 171.822 322.755 170.79 321.315 170.79C319.323 170.79 317.907 172.662 317.907 175.35ZM333.666 169.446C336.93 169.446 338.634 171.75 338.634 174.846V175.638H330.258C330.258 178.542 331.89 180.486 334.434 180.486C336.138 180.486 337.266 179.694 338.13 178.542L338.658 178.854C338.058 181.182 336.234 182.79 333.426 182.79C329.898 182.79 327.666 180.126 327.666 176.526C327.666 172.278 330.258 169.446 333.666 169.446ZM333.282 170.766C331.554 170.766 330.522 172.47 330.33 174.414H335.922C335.922 172.206 335.034 170.766 333.282 170.766ZM350.298 171.126V180.054C350.298 181.206 350.898 181.278 352.506 181.47V182.55H345.666V181.47C346.746 181.326 347.394 181.206 347.394 180.102V171.126H345.618V170.118L347.394 169.542V169.206C347.394 165.99 349.338 164.142 352.29 164.142C354.21 164.142 355.362 164.862 355.362 166.134C355.362 166.758 355.002 167.214 354.57 167.478H353.082V166.758C353.082 165.87 352.818 165.222 351.882 165.222C350.802 165.222 350.298 166.302 350.298 168.198V169.686H353.346V171.126H350.298ZM360.347 181.398C362.315 181.398 363.323 179.406 363.323 176.478C363.323 173.358 362.075 170.814 359.915 170.814C357.923 170.814 356.939 172.83 356.939 175.758C356.939 178.878 358.163 181.398 360.347 181.398ZM360.011 182.79C356.315 182.79 353.939 180.054 353.939 176.358C353.939 172.158 356.723 169.446 360.227 169.446C363.923 169.446 366.323 172.182 366.323 175.878C366.323 180.078 363.515 182.79 360.011 182.79ZM372.774 169.398V173.334C374.142 170.406 374.862 169.446 376.398 169.446C376.83 169.446 377.142 169.59 377.334 169.758V172.398H376.806C375.318 172.398 374.19 172.59 372.774 174.126V180.054C372.774 181.206 373.35 181.278 374.982 181.47V182.55H368.142V181.47C369.198 181.326 369.87 181.206 369.87 180.102V172.278L368.262 171.246V170.646L372.078 169.398H372.774ZM389.705 169.446C392.969 169.446 394.673 171.75 394.673 174.846V175.638H386.297C386.297 178.542 387.929 180.486 390.473 180.486C392.177 180.486 393.305 179.694 394.169 178.542L394.697 178.854C394.097 181.182 392.273 182.79 389.465 182.79C385.937 182.79 383.705 180.126 383.705 176.526C383.705 172.278 386.297 169.446 389.705 169.446ZM389.321 170.766C387.593 170.766 386.561 172.47 386.369 174.414H391.961C391.961 172.206 391.073 170.766 389.321 170.766ZM401.301 180.798C402.237 180.798 402.885 180.534 403.701 179.958V175.758L400.893 176.838C400.005 177.174 399.501 177.822 399.501 178.734C399.501 180.054 400.149 180.798 401.301 180.798ZM406.605 173.838C406.605 174.414 406.533 178.662 406.533 179.406C406.533 180.366 406.845 180.918 407.517 180.918C407.733 180.918 408.261 180.87 408.621 180.774L408.765 181.542C407.949 182.358 407.037 182.79 406.029 182.79C404.757 182.79 404.061 181.902 403.773 180.606C402.933 181.614 401.637 182.766 399.813 182.766C397.677 182.766 396.573 181.326 396.573 179.478C396.573 177.27 398.277 176.502 399.885 175.95L403.701 174.582V173.31C403.701 171.75 403.221 170.694 401.637 170.694C400.461 170.694 399.885 171.27 399.885 172.374C399.885 172.83 399.933 173.238 400.053 173.742L397.941 174.054C397.485 173.742 397.269 173.286 397.269 172.638C397.269 170.55 399.309 169.446 402.069 169.446C405.021 169.446 406.605 170.766 406.605 173.838ZM414.399 169.398V173.334C415.767 170.406 416.487 169.446 418.023 169.446C418.455 169.446 418.767 169.59 418.959 169.758V172.398H418.431C416.943 172.398 415.815 172.59 414.399 174.126V180.054C414.399 181.206 414.975 181.278 416.607 181.47V182.55H409.767V181.47C410.823 181.326 411.495 181.206 411.495 180.102V172.278L409.887 171.246V170.646L413.703 169.398H414.399ZM424.59 164.286V180.102C424.59 181.206 425.262 181.326 426.318 181.47V182.55H419.958V181.47C421.038 181.326 421.71 181.206 421.71 180.102V167.046L420.078 166.014V165.414L423.942 164.286H424.59ZM433.075 182.622L428.203 171.702C427.963 171.198 427.819 171.126 426.811 170.742V169.686H433.171V170.742C431.923 170.91 431.467 171.03 431.467 171.606C431.467 171.798 431.491 171.966 431.659 172.35L434.491 179.286L437.179 172.35C437.323 171.966 437.371 171.798 437.371 171.606C437.371 171.03 436.915 170.91 435.691 170.742V169.686H440.467V170.742C439.459 171.102 439.291 171.174 439.075 171.702L433.699 184.782C432.979 186.534 432.139 187.518 430.603 187.518C429.763 187.518 429.067 187.158 428.707 186.63V185.19H430.003C431.563 185.19 432.163 184.926 432.691 183.582L433.075 182.622ZM449.298 175.35C449.298 178.422 450.714 180.486 453.33 180.486C454.89 180.486 455.97 179.79 456.858 178.542L457.41 178.878C456.666 181.542 454.842 182.79 452.298 182.79C448.938 182.79 446.658 180.246 446.658 176.55C446.658 172.638 449.178 169.446 453.018 169.446C455.538 169.446 457.266 170.598 457.266 172.566C457.266 173.454 456.834 173.886 456.282 174.126H454.722V173.19C454.722 171.822 454.146 170.79 452.706 170.79C450.714 170.79 449.298 172.662 449.298 175.35ZM463.833 180.798C464.769 180.798 465.417 180.534 466.233 179.958V175.758L463.425 176.838C462.537 177.174 462.033 177.822 462.033 178.734C462.033 180.054 462.681 180.798 463.833 180.798ZM469.137 173.838C469.137 174.414 469.065 178.662 469.065 179.406C469.065 180.366 469.377 180.918 470.049 180.918C470.265 180.918 470.793 180.87 471.153 180.774L471.297 181.542C470.481 182.358 469.569 182.79 468.561 182.79C467.289 182.79 466.593 181.902 466.305 180.606C465.465 181.614 464.169 182.766 462.345 182.766C460.209 182.766 459.105 181.326 459.105 179.478C459.105 177.27 460.809 176.502 462.417 175.95L466.233 174.582V173.31C466.233 171.75 465.753 170.694 464.169 170.694C462.993 170.694 462.417 171.27 462.417 172.374C462.417 172.83 462.465 173.238 462.585 173.742L460.473 174.054C460.017 173.742 459.801 173.286 459.801 172.638C459.801 170.55 461.841 169.446 464.601 169.446C467.553 169.446 469.137 170.766 469.137 173.838ZM476.931 169.398V173.334C478.299 170.406 479.019 169.446 480.555 169.446C480.987 169.446 481.299 169.59 481.491 169.758V172.398H480.963C479.475 172.398 478.347 172.59 476.931 174.126V180.054C476.931 181.206 477.507 181.278 479.139 181.47V182.55H472.299V181.47C473.355 181.326 474.027 181.206 474.027 180.102V172.278L472.419 171.246V170.646L476.235 169.398H476.931ZM488.705 169.446C491.969 169.446 493.673 171.75 493.673 174.846V175.638H485.297C485.297 178.542 486.929 180.486 489.473 180.486C491.177 180.486 492.305 179.694 493.169 178.542L493.697 178.854C493.097 181.182 491.273 182.79 488.465 182.79C484.937 182.79 482.705 180.126 482.705 176.526C482.705 172.278 485.297 169.446 488.705 169.446ZM488.321 170.766C486.593 170.766 485.561 172.47 485.369 174.414H490.961C490.961 172.206 490.073 170.766 488.321 170.766ZM501.525 169.446C504.789 169.446 506.493 171.75 506.493 174.846V175.638H498.117C498.117 178.542 499.749 180.486 502.293 180.486C503.997 180.486 505.125 179.694 505.989 178.542L506.517 178.854C505.917 181.182 504.093 182.79 501.285 182.79C497.757 182.79 495.525 180.126 495.525 176.526C495.525 172.278 498.117 169.446 501.525 169.446ZM501.141 170.766C499.413 170.766 498.381 172.47 498.189 174.414H503.781C503.781 172.206 502.893 170.766 501.141 170.766ZM512.978 169.398V173.334C514.346 170.406 515.066 169.446 516.602 169.446C517.034 169.446 517.346 169.59 517.538 169.758V172.398H517.01C515.522 172.398 514.394 172.59 512.978 174.126V180.054C512.978 181.206 513.554 181.278 515.186 181.47V182.55H508.346V181.47C509.402 181.326 510.074 181.206 510.074 180.102V172.278L508.466 171.246V170.646L512.282 169.398H512.978ZM528.228 181.71V184.83C528.228 185.934 528.9 186.054 529.98 186.198V187.278H523.596V186.198C524.676 186.054 525.348 185.934 525.348 184.83V172.278L523.716 171.246V170.646L527.604 169.398H528.228V171.606C529.164 170.31 530.46 169.446 532.26 169.446C535.452 169.446 537.252 171.99 537.252 175.494C537.252 180.006 534.444 182.79 531.06 182.79C529.764 182.79 528.732 182.334 528.228 181.71ZM530.916 181.518C532.98 181.518 534.348 179.55 534.348 176.574C534.348 173.79 533.244 171.414 530.844 171.414C529.86 171.414 528.876 171.726 528.228 172.326V178.446C528.228 180.462 529.212 181.518 530.916 181.518ZM543.704 169.398V173.334C545.072 170.406 545.792 169.446 547.328 169.446C547.76 169.446 548.072 169.59 548.264 169.758V172.398H547.736C546.248 172.398 545.12 172.59 543.704 174.126V180.054C543.704 181.206 544.28 181.278 545.912 181.47V182.55H539.072V181.47C540.128 181.326 540.8 181.206 540.8 180.102V172.278L539.192 171.246V170.646L543.008 169.398H543.704ZM555.886 181.398C557.854 181.398 558.862 179.406 558.862 176.478C558.862 173.358 557.614 170.814 555.454 170.814C553.462 170.814 552.478 172.83 552.478 175.758C552.478 178.878 553.702 181.398 555.886 181.398ZM555.55 182.79C551.854 182.79 549.478 180.054 549.478 176.358C549.478 172.158 552.262 169.446 555.766 169.446C559.462 169.446 561.862 172.182 561.862 175.878C561.862 180.078 559.054 182.79 555.55 182.79ZM568.338 171.126V180.054C568.338 181.206 568.938 181.278 570.546 181.47V182.55H563.706V181.47C564.786 181.326 565.434 181.206 565.434 180.102V171.126H563.658V170.118L565.434 169.542V169.206C565.434 165.99 567.378 164.142 570.33 164.142C572.25 164.142 573.402 164.862 573.402 166.134C573.402 166.758 573.042 167.214 572.61 167.478H571.122V166.758C571.122 165.87 570.858 165.222 569.922 165.222C568.842 165.222 568.338 166.302 568.338 168.198V169.686H571.386V171.126H568.338ZM578.096 169.446C581.36 169.446 583.064 171.75 583.064 174.846V175.638H574.688C574.688 178.542 576.32 180.486 578.864 180.486C580.568 180.486 581.696 179.694 582.56 178.542L583.088 178.854C582.488 181.182 580.664 182.79 577.856 182.79C574.328 182.79 572.096 180.126 572.096 176.526C572.096 172.278 574.688 169.446 578.096 169.446ZM577.712 170.766C575.984 170.766 574.952 172.47 574.76 174.414H580.352C580.352 172.206 579.464 170.766 577.712 170.766ZM589.644 182.79C587.916 182.79 586.284 182.406 585.108 181.542L584.964 178.446H586.212C586.668 180.414 587.796 181.566 589.716 181.566C591.132 181.566 592.044 180.918 592.044 179.766C592.044 178.398 591.084 177.918 588.924 177.318C586.5 176.622 585.084 175.614 585.084 173.334C585.084 170.982 586.812 169.446 589.524 169.446C591.18 169.446 592.548 169.854 593.604 170.478V173.358H592.38C592.02 171.606 591.06 170.694 589.428 170.694C588.18 170.694 587.46 171.438 587.46 172.422C587.46 173.598 588.252 174.222 590.22 174.75C592.692 175.422 594.396 176.262 594.396 178.782C594.396 181.158 592.62 182.79 589.644 182.79ZM600.941 182.79C599.213 182.79 597.581 182.406 596.405 181.542L596.261 178.446H597.509C597.965 180.414 599.093 181.566 601.013 181.566C602.429 181.566 603.341 180.918 603.341 179.766C603.341 178.398 602.381 177.918 600.221 177.318C597.797 176.622 596.381 175.614 596.381 173.334C596.381 170.982 598.109 169.446 600.821 169.446C602.477 169.446 603.845 169.854 604.901 170.478V173.358H603.677C603.317 171.606 602.357 170.694 600.725 170.694C599.477 170.694 598.757 171.438 598.757 172.422C598.757 173.598 599.549 174.222 601.517 174.75C603.989 175.422 605.693 176.262 605.693 178.782C605.693 181.158 603.917 182.79 600.941 182.79ZM612.142 169.446V180.102C612.142 181.206 612.79 181.326 613.87 181.47V182.55H607.51V181.47C608.566 181.326 609.238 181.206 609.238 180.102V172.23L607.63 171.222V170.646L611.47 169.446H612.142ZM610.606 168.006C609.526 168.006 608.758 167.19 608.758 166.206C608.758 165.222 609.526 164.406 610.606 164.406C611.662 164.406 612.43 165.222 612.43 166.206C612.43 167.19 611.662 168.006 610.606 168.006ZM621.957 181.398C623.925 181.398 624.933 179.406 624.933 176.478C624.933 173.358 623.685 170.814 621.525 170.814C619.533 170.814 618.549 172.83 618.549 175.758C618.549 178.878 619.773 181.398 621.957 181.398ZM621.621 182.79C617.925 182.79 615.549 180.054 615.549 176.358C615.549 172.158 618.333 169.446 621.837 169.446C625.533 169.446 627.933 172.182 627.933 175.878C627.933 180.078 625.125 182.79 621.621 182.79ZM639.544 180.102V173.622C639.544 172.134 638.944 171.534 637.528 171.534C636.4 171.534 635.2 171.99 634.384 172.566V180.102C634.384 181.206 634.984 181.326 636.064 181.47V182.55H629.752V181.47C630.808 181.326 631.48 181.206 631.48 180.102V172.278L629.872 171.246V170.646L633.712 169.398H634.384V171.846C635.488 170.694 636.976 169.446 638.992 169.446C641.152 169.446 642.448 170.622 642.448 173.382V180.102C642.448 181.206 643.096 181.326 644.176 181.47V182.55H637.84V181.47C638.92 181.326 639.544 181.206 639.544 180.102ZM650.442 180.798C651.378 180.798 652.026 180.534 652.842 179.958V175.758L650.034 176.838C649.146 177.174 648.642 177.822 648.642 178.734C648.642 180.054 649.29 180.798 650.442 180.798ZM655.746 173.838C655.746 174.414 655.674 178.662 655.674 179.406C655.674 180.366 655.986 180.918 656.658 180.918C656.874 180.918 657.402 180.87 657.762 180.774L657.906 181.542C657.09 182.358 656.178 182.79 655.17 182.79C653.898 182.79 653.202 181.902 652.914 180.606C652.074 181.614 650.778 182.766 648.954 182.766C646.818 182.766 645.714 181.326 645.714 179.478C645.714 177.27 647.418 176.502 649.026 175.95L652.842 174.582V173.31C652.842 171.75 652.362 170.694 650.778 170.694C649.602 170.694 649.026 171.27 649.026 172.374C649.026 172.83 649.074 173.238 649.194 173.742L647.082 174.054C646.626 173.742 646.41 173.286 646.41 172.638C646.41 170.55 648.45 169.446 651.21 169.446C654.162 169.446 655.746 170.766 655.746 173.838ZM663.324 164.286V180.102C663.324 181.206 663.996 181.326 665.052 181.47V182.55H658.692V181.47C659.772 181.326 660.444 181.206 660.444 180.102V167.046L658.812 166.014V165.414L662.676 164.286H663.324ZM671.464 182.79C669.736 182.79 668.104 182.406 666.928 181.542L666.784 178.446H668.032C668.488 180.414 669.616 181.566 671.536 181.566C672.952 181.566 673.864 180.918 673.864 179.766C673.864 178.398 672.904 177.918 670.744 177.318C668.32 176.622 666.904 175.614 666.904 173.334C666.904 170.982 668.632 169.446 671.344 169.446C673 169.446 674.368 169.854 675.424 170.478V173.358H674.2C673.84 171.606 672.88 170.694 671.248 170.694C670 170.694 669.28 171.438 669.28 172.422C669.28 173.598 670.072 174.222 672.04 174.75C674.512 175.422 676.216 176.262 676.216 178.782C676.216 181.158 674.44 182.79 671.464 182.79ZM683.931 168.822C683.931 167.502 683.115 166.758 681.771 166.758C680.379 166.758 679.803 167.622 679.803 168.918V169.926H677.667C677.259 169.614 677.043 169.182 677.043 168.654C677.043 166.83 679.059 165.462 681.747 165.462C684.723 165.462 686.643 166.782 686.643 169.47C686.643 171.462 685.539 172.686 683.763 173.91C682.371 174.846 681.891 175.59 681.891 176.862V177.582H681.003C680.619 177.174 680.091 176.286 680.091 175.326C680.091 174.078 680.571 173.07 681.843 172.038C682.971 171.102 683.931 170.382 683.931 168.822ZM679.467 180.822C679.467 179.694 680.331 178.83 681.435 178.83C682.539 178.83 683.379 179.694 683.379 180.822C683.379 181.902 682.539 182.79 681.435 182.79C680.331 182.79 679.467 181.902 679.467 180.822Z" fill="#0B66C3"/>
</svg>
