<svg width="900" height="323" viewBox="0 0 900 323" fill="none" xmlns="http://www.w3.org/2000/svg">
<rect y="0.400391" width="900" height="322.6" fill="#374A5F" fill-opacity="0.025"/>
<rect x="0.5" y="0.900391" width="899" height="321.6" stroke="#374A5F" stroke-opacity="0.1"/>
<path d="M46.768 56.5204L51.232 49.1224C51.448 48.7804 51.556 48.5104 51.556 48.2764C51.556 47.7904 51.052 47.6644 50.116 47.6104L50.314 46.7644H54.49L54.292 47.6104C53.77 47.7004 53.356 47.7904 53.05 48.2764L46.084 59.5444H45.382L42.682 48.2764C42.574 47.7904 42.25 47.7004 41.746 47.6104L41.926 46.7644H47.074L46.876 47.6104C45.904 47.6644 45.13 47.8084 45.112 48.6544C45.112 48.7984 45.13 48.9604 45.184 49.1584L46.768 56.5204ZM55.0349 58.0864C56.3309 58.0864 58.1849 55.3324 59.1749 51.2464C58.8869 50.6884 58.5089 50.4184 57.9149 50.4184C55.7189 50.4184 54.1349 53.8024 54.1169 56.5564C54.1169 57.4744 54.4229 58.0864 55.0349 58.0864ZM59.7149 50.3644L61.0289 49.4824H61.8569L61.1909 51.6424L59.8589 57.1324C59.7689 57.4744 59.6969 57.7624 59.6969 57.9064C59.6969 58.0864 59.7869 58.1764 59.9489 58.1764C60.2909 58.1764 60.7949 57.7804 61.5329 56.8264L61.9649 57.2404C60.8489 58.8964 59.9669 59.5804 58.9229 59.5804C58.1129 59.5804 57.6809 59.0044 57.6809 58.1404C57.6809 57.5824 58.0049 56.3764 58.3289 55.4224H58.2029C57.1949 57.6004 55.7549 59.5804 54.1349 59.5804C52.8209 59.5804 52.0109 58.5184 52.0109 56.7364C52.0109 53.0104 54.7289 49.5724 57.7169 49.5724C58.6169 49.5724 59.2109 49.8604 59.7149 50.3644ZM65.5285 47.5204L64.2685 46.8904L64.3945 46.4584L67.6345 45.7024H68.1205L65.4205 57.1324C65.3305 57.4924 65.2945 57.7624 65.2945 57.9064C65.2945 58.0864 65.3845 58.1764 65.5465 58.1764C65.8885 58.1764 66.3745 57.7804 67.1485 56.8264L67.5625 57.2404C66.4465 58.8964 65.5645 59.5804 64.5205 59.5804C63.7105 59.5804 63.1885 59.0224 63.1885 58.2124C63.1885 57.7804 63.2605 57.3304 63.4225 56.6644L65.5285 47.5204ZM75.1976 54.9544H75.0716C73.6136 57.7804 71.9396 59.5804 70.3376 59.5804C69.4376 59.5804 68.8976 58.9504 68.8976 57.9964C68.8976 57.6724 68.9516 57.2584 69.0596 56.8444L70.4276 51.3004L69.2036 50.6704L69.3296 50.2204L72.4796 49.5724H72.9836L71.1836 56.8084C71.1116 57.0784 71.0576 57.4204 71.0576 57.6904C71.0576 57.9964 71.1476 58.1584 71.4176 58.1584C72.6776 58.1584 74.9636 54.8824 75.7556 51.8404L76.2596 49.8964L78.4196 49.7524L76.5836 57.1324C76.4936 57.4744 76.4216 57.7624 76.4216 57.9064C76.4216 58.0864 76.5116 58.1764 76.6736 58.1764C77.0156 58.1764 77.5196 57.7804 78.2936 56.8264L78.7076 57.2404C77.5736 58.8964 76.7096 59.5804 75.6836 59.5804C74.8556 59.5804 74.4236 59.0044 74.4236 58.1404C74.4236 57.6004 74.6576 56.7004 75.1976 54.9544ZM87.6443 51.6244C87.6443 53.7124 84.8003 54.6844 81.7943 55.3684V55.8004C81.7943 57.3124 82.5143 58.3024 83.6843 58.3024C84.7463 58.3024 85.6463 57.6904 86.5103 56.6644L86.9783 57.0604C85.7003 58.8784 84.3683 59.5804 82.8743 59.5804C80.7143 59.5804 79.7423 57.8704 79.7423 55.9444C79.7423 52.7944 82.2623 49.5724 85.3583 49.5724C86.9063 49.5724 87.6443 50.4904 87.6443 51.6244ZM84.8903 50.5444C83.5043 50.5444 82.1723 52.4704 81.8663 54.7744C84.5303 53.9824 85.8263 53.1184 85.8263 51.6784C85.8263 51.0484 85.5203 50.5444 84.8903 50.5444ZM94.4205 54.4864H94.5465C95.9145 51.7504 97.6245 49.5724 99.3525 49.5724C100.684 49.5724 101.458 50.6884 101.458 52.3084C101.458 56.0344 98.4165 59.5804 95.3925 59.5804C94.6185 59.5804 93.9885 59.1844 93.7005 58.7524L93.2145 60.9124C93.1605 61.1284 93.1245 61.3264 93.1245 61.4704C93.1425 61.9924 93.6105 62.0644 94.2765 62.1544L94.0785 62.9464H89.2545L89.4525 62.1544C90.2985 62.0464 90.8385 61.9564 91.0365 61.1284L93.4305 51.2644L92.1885 50.6704L92.3145 50.2204L95.3925 49.5544H95.8965L95.3385 51.9124L94.4205 54.4864ZM98.3445 51.1024C97.2105 51.1024 94.9245 53.9104 93.9705 57.4564C94.0425 58.1944 94.4745 58.7344 95.2125 58.7344C97.3725 58.7344 99.2625 55.2784 99.2805 52.5244C99.2805 51.5884 98.9385 51.1024 98.3445 51.1024ZM105.096 55.5844H105.222C107.202 51.6244 108.39 49.5724 109.686 49.5724C110.478 49.5724 110.802 50.1484 110.802 50.7784C110.802 51.6424 110.226 52.1824 109.542 52.5064H109.236C109.236 52.1644 109.146 51.8404 108.732 51.8404C107.688 51.8404 105.6 54.9544 104.502 59.4004H102.378L104.376 51.3004L103.152 50.6704L103.278 50.2204L106.356 49.5544H106.86L106.122 52.4524L105.096 55.5844ZM113.996 58.7344C115.868 58.7344 117.056 55.1704 117.056 52.7584C117.056 51.3004 116.606 50.4184 115.76 50.4184C113.888 50.4184 112.7 53.9824 112.7 56.4124C112.7 57.8524 113.15 58.7344 113.996 58.7344ZM113.924 59.5804C111.926 59.5804 110.558 58.1944 110.558 55.8004C110.558 52.7044 112.7 49.5724 115.832 49.5724C117.83 49.5724 119.198 50.9584 119.198 53.3524C119.198 56.4484 117.056 59.5804 113.924 59.5804ZM123.048 54.4864H123.174C124.542 51.7504 126.252 49.5724 127.98 49.5724C129.312 49.5724 130.086 50.6884 130.086 52.3084C130.086 56.0344 127.044 59.5804 124.02 59.5804C123.246 59.5804 122.616 59.1844 122.328 58.7524L121.842 60.9124C121.788 61.1284 121.752 61.3264 121.752 61.4704C121.77 61.9924 122.238 62.0644 122.904 62.1544L122.706 62.9464H117.882L118.08 62.1544C118.926 62.0464 119.466 61.9564 119.664 61.1284L122.058 51.2644L120.816 50.6704L120.942 50.2204L124.02 49.5544H124.524L123.966 51.9124L123.048 54.4864ZM126.972 51.1024C125.838 51.1024 123.552 53.9104 122.598 57.4564C122.67 58.1944 123.102 58.7344 123.84 58.7344C126 58.7344 127.89 55.2784 127.908 52.5244C127.908 51.5884 127.566 51.1024 126.972 51.1024ZM134.335 58.7344C136.207 58.7344 137.395 55.1704 137.395 52.7584C137.395 51.3004 136.945 50.4184 136.099 50.4184C134.227 50.4184 133.039 53.9824 133.039 56.4124C133.039 57.8524 133.489 58.7344 134.335 58.7344ZM134.263 59.5804C132.265 59.5804 130.897 58.1944 130.897 55.8004C130.897 52.7044 133.039 49.5724 136.171 49.5724C138.169 49.5724 139.537 50.9584 139.537 53.3524C139.537 56.4484 137.395 59.5804 134.263 59.5804ZM143.386 58.6984C144.232 58.6984 144.682 58.2484 144.682 57.4924C144.682 56.1244 141.298 54.6844 141.298 52.5604C141.298 50.8504 142.738 49.5724 144.718 49.5724C146.14 49.5724 147.112 50.2564 147.112 51.2644C147.112 51.7324 146.698 52.0744 146.266 52.2544H145.96C145.564 51.1924 144.934 50.5084 144.052 50.5084C143.26 50.5084 142.864 50.9044 142.864 51.5884C142.864 52.8124 146.356 54.4324 146.356 56.4844C146.356 58.3924 144.718 59.5804 142.864 59.5804C141.1 59.5804 139.912 58.7164 139.912 57.6184C139.912 57.0424 140.272 56.5924 140.794 56.3764H141.064C141.478 57.7624 142.234 58.6984 143.386 58.6984ZM152.378 49.5724L150.506 57.1324C150.416 57.4744 150.344 57.7624 150.344 57.9064C150.344 58.0864 150.434 58.1764 150.596 58.1764C150.938 58.1764 151.442 57.7804 152.198 56.8264L152.63 57.2404C151.496 58.8964 150.614 59.5804 149.588 59.5804C148.76 59.5804 148.238 59.0224 148.238 58.2124C148.238 57.7804 148.328 57.3304 148.49 56.6644L149.822 51.3004L148.58 50.6704L148.706 50.2204L151.874 49.5724H152.378ZM151.658 48.4924C150.884 48.4924 150.344 47.9164 150.344 47.2324C150.344 46.4404 150.956 45.7924 151.784 45.7924C152.558 45.7924 153.098 46.3684 153.098 47.0524C153.098 47.8444 152.486 48.4924 151.658 48.4924ZM157.755 50.7244L156.369 56.7544C156.261 57.2224 156.207 57.5104 156.207 57.7624C156.207 58.0324 156.315 58.2124 156.603 58.2124C157.233 58.2124 157.935 57.6364 159.015 56.4844L159.465 56.9344C158.187 58.6084 156.801 59.5804 155.577 59.5804C154.515 59.5804 154.083 58.9144 154.083 58.0144C154.083 57.5824 154.155 57.1864 154.281 56.6464L155.649 50.7244H154.335L154.515 50.0944C155.829 49.7164 156.837 48.8884 157.791 47.6464H158.511L158.007 49.7524H160.203L159.969 50.7244H157.755ZM165.035 49.5724L163.163 57.1324C163.073 57.4744 163.001 57.7624 163.001 57.9064C163.001 58.0864 163.091 58.1764 163.253 58.1764C163.595 58.1764 164.099 57.7804 164.855 56.8264L165.287 57.2404C164.153 58.8964 163.271 59.5804 162.245 59.5804C161.417 59.5804 160.895 59.0224 160.895 58.2124C160.895 57.7804 160.985 57.3304 161.147 56.6644L162.479 51.3004L161.237 50.6704L161.363 50.2204L164.531 49.5724H165.035ZM164.315 48.4924C163.541 48.4924 163.001 47.9164 163.001 47.2324C163.001 46.4404 163.613 45.7924 164.441 45.7924C165.215 45.7924 165.755 46.3684 165.755 47.0524C165.755 47.8444 165.143 48.4924 164.315 48.4924ZM169.8 58.7344C171.672 58.7344 172.86 55.1704 172.86 52.7584C172.86 51.3004 172.41 50.4184 171.564 50.4184C169.692 50.4184 168.504 53.9824 168.504 56.4124C168.504 57.8524 168.954 58.7344 169.8 58.7344ZM169.728 59.5804C167.73 59.5804 166.362 58.1944 166.362 55.8004C166.362 52.7044 168.504 49.5724 171.636 49.5724C173.634 49.5724 175.002 50.9584 175.002 53.3524C175.002 56.4484 172.86 59.5804 169.728 59.5804ZM180.382 49.5544L179.806 51.8584L179.068 54.1264H179.194C180.454 51.9484 182.488 49.5724 184.216 49.5724C185.17 49.5724 185.548 50.1124 185.548 50.9404C185.548 51.1744 185.494 51.4984 185.44 51.7324L184 57.1324C183.91 57.4744 183.838 57.7624 183.838 57.9064C183.838 58.0864 183.928 58.1764 184.09 58.1764C184.432 58.1764 184.918 57.7804 185.692 56.8264L186.106 57.2404C184.99 58.8964 184.108 59.5804 183.082 59.5804C182.254 59.5804 181.714 59.0224 181.714 58.2124C181.714 57.7804 181.786 57.3304 181.966 56.6644L183.262 51.9844C183.316 51.7504 183.352 51.5344 183.352 51.3904C183.352 51.1384 183.262 51.0124 183.028 51.0124C182.056 51.0124 179.464 53.6764 178.636 56.9164L178.006 59.4004H175.882L177.898 51.3004L176.674 50.6704L176.8 50.2204L179.878 49.5544H180.382Z" fill="#374A5F"/>
<rect x="40" y="93.4004" width="820" height="189.6" fill="#DFEBF8"/>
<rect x="40.5" y="93.9004" width="819" height="188.6" stroke="#374A5F" stroke-opacity="0.1"/>
<path d="M187.706 151.2V150.048C189.314 150 189.986 149.736 189.986 148.32V137.208C189.986 135.816 189.314 135.552 187.706 135.504V134.352H195.602C199.298 134.352 201.434 135.768 201.434 138.576C201.434 141 199.37 142.128 197.138 142.488C200.33 142.728 202.274 144.216 202.274 146.664C202.274 149.496 199.994 151.2 195.962 151.2H187.706ZM195.002 143.208H193.034V148.344C193.034 149.64 193.682 149.952 195.242 149.952H195.506C197.906 149.952 199.082 148.848 199.082 146.64C199.082 144.72 198.002 143.208 195.002 143.208ZM194.498 135.648H193.034V141.936H194.546C197.042 141.936 198.266 140.928 198.266 138.624C198.266 136.896 197.066 135.648 194.498 135.648ZM209.587 151.272L204.715 140.352C204.475 139.848 204.331 139.776 203.323 139.392V138.336H209.683V139.392C208.435 139.56 207.979 139.68 207.979 140.256C207.979 140.448 208.003 140.616 208.171 141L211.003 147.936L213.691 141C213.835 140.616 213.883 140.448 213.883 140.256C213.883 139.68 213.427 139.56 212.203 139.392V138.336H216.979V139.392C215.971 139.752 215.803 139.824 215.587 140.352L210.211 153.432C209.491 155.184 208.651 156.168 207.115 156.168C206.275 156.168 205.579 155.808 205.219 155.28V153.84H206.515C208.075 153.84 208.675 153.576 209.203 152.232L209.587 151.272ZM227.802 138.096V148.752C227.802 149.856 228.45 149.976 229.53 150.12V151.2H223.17V150.12C224.226 149.976 224.898 149.856 224.898 148.752V140.88L223.29 139.872V139.296L227.13 138.096H227.802ZM226.266 136.656C225.186 136.656 224.418 135.84 224.418 134.856C224.418 133.872 225.186 133.056 226.266 133.056C227.322 133.056 228.09 133.872 228.09 134.856C228.09 135.84 227.322 136.656 226.266 136.656ZM241.001 148.752V142.272C241.001 140.784 240.401 140.184 238.985 140.184C237.857 140.184 236.657 140.64 235.841 141.216V148.752C235.841 149.856 236.441 149.976 237.521 150.12V151.2H231.209V150.12C232.265 149.976 232.937 149.856 232.937 148.752V140.928L231.329 139.896V139.296L235.169 138.048H235.841V140.496C236.945 139.344 238.433 138.096 240.449 138.096C242.609 138.096 243.905 139.272 243.905 142.032V148.752C243.905 149.856 244.553 149.976 245.633 150.12V151.2H239.297V150.12C240.377 149.976 241.001 149.856 241.001 148.752ZM251.131 135.504V138.336H254.659V139.776H251.131V147.864C251.131 149.136 251.683 149.592 252.907 149.592C253.579 149.592 254.371 149.4 254.971 149.088L255.283 149.832C254.371 150.816 253.051 151.44 251.395 151.44C249.475 151.44 248.251 150.528 248.251 148.32V139.776H246.523V138.864C247.867 138.168 249.163 137.04 250.267 135.504H251.131ZM261.013 138.048V141.984C262.381 139.056 263.101 138.096 264.637 138.096C265.069 138.096 265.381 138.24 265.573 138.408V141.048H265.045C263.557 141.048 262.429 141.24 261.013 142.776V148.704C261.013 149.856 261.589 149.928 263.221 150.12V151.2H256.381V150.12C257.437 149.976 258.109 149.856 258.109 148.752V140.928L256.501 139.896V139.296L260.317 138.048H261.013ZM273.195 150.048C275.163 150.048 276.171 148.056 276.171 145.128C276.171 142.008 274.923 139.464 272.763 139.464C270.771 139.464 269.787 141.48 269.787 144.408C269.787 147.528 271.011 150.048 273.195 150.048ZM272.859 151.44C269.163 151.44 266.787 148.704 266.787 145.008C266.787 140.808 269.571 138.096 273.075 138.096C276.771 138.096 279.171 140.832 279.171 144.528C279.171 148.728 276.363 151.44 272.859 151.44ZM290.014 151.44V149.232C289.102 150.552 287.902 151.44 286.054 151.44C282.886 151.44 280.99 148.896 280.99 145.392C280.99 140.88 283.726 138.144 287.254 138.144C288.43 138.144 289.486 138.552 290.014 139.248V135.696L288.382 134.664V134.064L292.27 132.936H292.918V148.344C292.918 149.16 293.158 149.4 294.142 149.496L294.742 149.544V150.624L290.542 151.44H290.014ZM287.35 139.392C285.238 139.392 283.918 141.432 283.918 144.384C283.918 147.168 285.07 149.448 287.422 149.448C288.406 149.448 289.39 149.088 290.014 148.512V142.44C290.014 140.376 289.03 139.392 287.35 139.392ZM305.44 151.44V149.088C304.36 150.216 302.992 151.44 300.976 151.44C298.864 151.44 297.52 150.264 297.52 147.456V141.168C297.52 140.352 297.28 140.04 296.248 139.872L295.864 139.8V138.816L299.944 138.096H300.448V147.096C300.448 148.68 301.072 149.4 302.44 149.4C303.592 149.4 304.6 148.944 305.44 148.392V141.168C305.44 140.352 305.2 140.04 304.168 139.872L303.808 139.8V138.816L307.84 138.096H308.368V148.344C308.368 149.16 308.584 149.4 309.568 149.496L310.168 149.544V150.624L305.968 151.44H305.44ZM314.404 144C314.404 147.072 315.82 149.136 318.436 149.136C319.996 149.136 321.076 148.44 321.964 147.192L322.516 147.528C321.772 150.192 319.948 151.44 317.404 151.44C314.044 151.44 311.764 148.896 311.764 145.2C311.764 141.288 314.284 138.096 318.124 138.096C320.644 138.096 322.372 139.248 322.372 141.216C322.372 142.104 321.94 142.536 321.388 142.776H319.828V141.84C319.828 140.472 319.252 139.44 317.812 139.44C315.82 139.44 314.404 141.312 314.404 144ZM328.794 138.096V148.752C328.794 149.856 329.442 149.976 330.522 150.12V151.2H324.162V150.12C325.218 149.976 325.89 149.856 325.89 148.752V140.88L324.282 139.872V139.296L328.122 138.096H328.794ZM327.258 136.656C326.178 136.656 325.41 135.84 325.41 134.856C325.41 133.872 326.178 133.056 327.258 133.056C328.314 133.056 329.082 133.872 329.082 134.856C329.082 135.84 328.314 136.656 327.258 136.656ZM341.993 148.752V142.272C341.993 140.784 341.393 140.184 339.977 140.184C338.849 140.184 337.649 140.64 336.833 141.216V148.752C336.833 149.856 337.433 149.976 338.513 150.12V151.2H332.201V150.12C333.257 149.976 333.929 149.856 333.929 148.752V140.928L332.321 139.896V139.296L336.161 138.048H336.833V140.496C337.937 139.344 339.425 138.096 341.441 138.096C343.601 138.096 344.897 139.272 344.897 142.032V148.752C344.897 149.856 345.545 149.976 346.625 150.12V151.2H340.289V150.12C341.369 149.976 341.993 149.856 341.993 148.752ZM353.539 146.616C352.747 146.616 351.955 146.496 351.235 146.256C350.587 146.928 350.347 147.336 350.347 147.816C350.347 148.32 350.635 148.512 351.139 148.512H356.683C359.035 148.512 360.355 149.472 360.355 151.56C360.355 154.368 357.427 156.168 353.227 156.168C349.699 156.168 347.611 155.208 347.611 153.24C347.611 151.944 348.739 151.32 349.819 150.912C348.859 150.552 348.331 149.928 348.331 148.92C348.331 147.72 349.291 146.808 350.635 145.968C349.363 145.32 348.475 144.192 348.475 142.512C348.475 139.776 350.659 138.096 353.635 138.096C354.523 138.096 355.267 138.264 355.867 138.48L360.235 138.216V140.016H359.299L357.019 139.512V139.656C357.979 140.208 358.675 141.168 358.675 142.416C358.675 144.984 356.587 146.616 353.539 146.616ZM356.227 151.248H350.275C349.915 151.608 349.795 152.064 349.795 152.52C349.795 154.224 351.331 154.92 353.563 154.92C356.131 154.92 358.003 154.152 358.003 152.496C358.003 151.488 357.331 151.248 356.227 151.248ZM353.755 145.536C355.195 145.536 355.867 144.36 355.867 142.608C355.867 140.736 354.979 139.224 353.395 139.224C351.955 139.224 351.307 140.4 351.307 142.152C351.307 144 352.147 145.536 353.755 145.536ZM371.477 149.448C372.413 149.448 373.061 149.184 373.877 148.608V144.408L371.069 145.488C370.181 145.824 369.677 146.472 369.677 147.384C369.677 148.704 370.325 149.448 371.477 149.448ZM376.781 142.488C376.781 143.064 376.709 147.312 376.709 148.056C376.709 149.016 377.021 149.568 377.693 149.568C377.909 149.568 378.437 149.52 378.797 149.424L378.941 150.192C378.125 151.008 377.213 151.44 376.205 151.44C374.933 151.44 374.237 150.552 373.949 149.256C373.109 150.264 371.813 151.416 369.989 151.416C367.853 151.416 366.749 149.976 366.749 148.128C366.749 145.92 368.453 145.152 370.061 144.6L373.877 143.232V141.96C373.877 140.4 373.397 139.344 371.813 139.344C370.637 139.344 370.061 139.92 370.061 141.024C370.061 141.48 370.109 141.888 370.229 142.392L368.117 142.704C367.661 142.392 367.445 141.936 367.445 141.288C367.445 139.2 369.485 138.096 372.245 138.096C375.197 138.096 376.781 139.416 376.781 142.488ZM389.735 148.752V142.272C389.735 140.784 389.135 140.184 387.719 140.184C386.591 140.184 385.391 140.64 384.575 141.216V148.752C384.575 149.856 385.175 149.976 386.255 150.12V151.2H379.943V150.12C380.999 149.976 381.671 149.856 381.671 148.752V140.928L380.063 139.896V139.296L383.903 138.048H384.575V140.496C385.679 139.344 387.167 138.096 389.183 138.096C391.343 138.096 392.639 139.272 392.639 142.032V148.752C392.639 149.856 393.287 149.976 394.367 150.12V151.2H388.031V150.12C389.111 149.976 389.735 149.856 389.735 148.752ZM405.646 138.096V148.752C405.646 149.856 406.294 149.976 407.374 150.12V151.2H401.014V150.12C402.07 149.976 402.742 149.856 402.742 148.752V140.88L401.134 139.872V139.296L404.974 138.096H405.646ZM404.11 136.656C403.03 136.656 402.262 135.84 402.262 134.856C402.262 133.872 403.03 133.056 404.11 133.056C405.166 133.056 405.934 133.872 405.934 134.856C405.934 135.84 405.166 136.656 404.11 136.656ZM418.845 148.752V142.272C418.845 140.784 418.245 140.184 416.829 140.184C415.701 140.184 414.501 140.64 413.685 141.216V148.752C413.685 149.856 414.285 149.976 415.365 150.12V151.2H409.053V150.12C410.109 149.976 410.781 149.856 410.781 148.752V140.928L409.173 139.896V139.296L413.013 138.048H413.685V140.496C414.789 139.344 416.277 138.096 418.293 138.096C420.453 138.096 421.749 139.272 421.749 142.032V148.752C421.749 149.856 422.397 149.976 423.477 150.12V151.2H417.141V150.12C418.221 149.976 418.845 149.856 418.845 148.752ZM431.495 144.936H425.255V142.824H431.495V144.936ZM437.935 150.36V153.48C437.935 154.584 438.607 154.704 439.687 154.848V155.928H433.303V154.848C434.383 154.704 435.055 154.584 435.055 153.48V140.928L433.423 139.896V139.296L437.311 138.048H437.935V140.256C438.871 138.96 440.167 138.096 441.967 138.096C445.159 138.096 446.959 140.64 446.959 144.144C446.959 148.656 444.151 151.44 440.767 151.44C439.471 151.44 438.439 150.984 437.935 150.36ZM440.623 150.168C442.687 150.168 444.055 148.2 444.055 145.224C444.055 142.44 442.951 140.064 440.551 140.064C439.567 140.064 438.583 140.376 437.935 140.976V147.096C437.935 149.112 438.919 150.168 440.623 150.168ZM453.195 132.936V148.752C453.195 149.856 453.867 149.976 454.923 150.12V151.2H448.563V150.12C449.643 149.976 450.315 149.856 450.315 148.752V135.696L448.683 134.664V134.064L452.547 132.936H453.195ZM461.383 149.448C462.319 149.448 462.967 149.184 463.783 148.608V144.408L460.975 145.488C460.087 145.824 459.583 146.472 459.583 147.384C459.583 148.704 460.231 149.448 461.383 149.448ZM466.687 142.488C466.687 143.064 466.615 147.312 466.615 148.056C466.615 149.016 466.927 149.568 467.599 149.568C467.815 149.568 468.343 149.52 468.703 149.424L468.847 150.192C468.031 151.008 467.119 151.44 466.111 151.44C464.839 151.44 464.143 150.552 463.855 149.256C463.015 150.264 461.719 151.416 459.895 151.416C457.759 151.416 456.655 149.976 456.655 148.128C456.655 145.92 458.359 145.152 459.967 144.6L463.783 143.232V141.96C463.783 140.4 463.303 139.344 461.719 139.344C460.543 139.344 459.967 139.92 459.967 141.024C459.967 141.48 460.015 141.888 460.135 142.392L458.023 142.704C457.567 142.392 457.351 141.936 457.351 141.288C457.351 139.2 459.391 138.096 462.151 138.096C465.103 138.096 466.687 139.416 466.687 142.488ZM473.858 135.504V138.336H477.386V139.776H473.858V147.864C473.858 149.136 474.41 149.592 475.634 149.592C476.306 149.592 477.098 149.4 477.698 149.088L478.01 149.832C477.098 150.816 475.778 151.44 474.122 151.44C472.202 151.44 470.978 150.528 470.978 148.32V139.776H469.25V138.864C470.594 138.168 471.89 137.04 472.994 135.504H473.858ZM483.763 139.776V148.704C483.763 149.856 484.363 149.928 485.971 150.12V151.2H479.131V150.12C480.211 149.976 480.859 149.856 480.859 148.752V139.776H479.083V138.768L480.859 138.192V137.856C480.859 134.64 482.803 132.792 485.755 132.792C487.675 132.792 488.827 133.512 488.827 134.784C488.827 135.408 488.467 135.864 488.035 136.128H486.547V135.408C486.547 134.52 486.283 133.872 485.347 133.872C484.267 133.872 483.763 134.952 483.763 136.848V138.336H486.811V139.776H483.763ZM493.812 150.048C495.78 150.048 496.788 148.056 496.788 145.128C496.788 142.008 495.54 139.464 493.38 139.464C491.388 139.464 490.404 141.48 490.404 144.408C490.404 147.528 491.628 150.048 493.812 150.048ZM493.476 151.44C489.78 151.44 487.404 148.704 487.404 145.008C487.404 140.808 490.188 138.096 493.692 138.096C497.388 138.096 499.788 140.832 499.788 144.528C499.788 148.728 496.98 151.44 493.476 151.44ZM506.239 138.048V141.984C507.607 139.056 508.327 138.096 509.863 138.096C510.295 138.096 510.607 138.24 510.799 138.408V141.048H510.271C508.783 141.048 507.655 141.24 506.239 142.776V148.704C506.239 149.856 506.815 149.928 508.447 150.12V151.2H501.607V150.12C502.663 149.976 503.335 149.856 503.335 148.752V140.928L501.727 139.896V139.296L505.543 138.048H506.239ZM533.926 151.2H527.614V150.12C528.694 149.976 529.294 149.856 529.294 148.752V142.272C529.294 140.736 528.766 140.184 527.374 140.184C526.27 140.184 525.262 140.64 524.422 141.216V148.752C524.422 149.856 525.046 149.976 526.102 150.12V151.2H519.838V150.12C520.918 149.976 521.518 149.856 521.518 148.752V142.272C521.518 140.736 520.99 140.184 519.622 140.184C518.494 140.184 517.486 140.64 516.646 141.216V148.752C516.646 149.856 517.222 149.976 518.302 150.12V151.2H512.014V150.12C513.07 149.976 513.742 149.856 513.742 148.752V140.928L512.134 139.896V139.296L515.974 138.048H516.646V140.496C517.75 139.344 519.094 138.096 521.086 138.096C522.718 138.096 523.87 138.864 524.278 140.592C525.406 139.44 526.894 138.096 528.91 138.096C531.022 138.096 532.198 139.272 532.198 142.008V148.752C532.198 149.856 532.846 149.976 533.926 150.12V151.2ZM544.713 138.096V148.8C544.713 150.864 544.473 151.944 543.777 153.096C542.961 154.392 541.785 155.304 540.441 156.192L539.793 155.544L540.609 154.344C541.713 152.88 541.809 151.584 541.809 149.376V140.88L540.201 139.872V139.296L544.089 138.096H544.713ZM543.201 136.656C542.121 136.656 541.353 135.84 541.353 134.856C541.353 133.872 542.121 133.056 543.201 133.056C544.257 133.056 545.025 133.872 545.025 134.856C545.025 135.84 544.257 136.656 543.201 136.656ZM553.812 150.048C555.78 150.048 556.788 148.056 556.788 145.128C556.788 142.008 555.54 139.464 553.38 139.464C551.388 139.464 550.404 141.48 550.404 144.408C550.404 147.528 551.628 150.048 553.812 150.048ZM553.476 151.44C549.78 151.44 547.404 148.704 547.404 145.008C547.404 140.808 550.188 138.096 553.692 138.096C557.388 138.096 559.788 140.832 559.788 144.528C559.788 148.728 556.98 151.44 553.476 151.44ZM562.591 135.696L560.983 134.664V134.064L564.847 132.936H565.495V140.256C566.407 138.96 567.727 138.096 569.503 138.096C572.719 138.096 574.519 140.64 574.519 144.144C574.519 148.656 571.639 151.44 568.039 151.44C565.711 151.44 563.743 150.768 562.591 149.832V135.696ZM568.183 150.168C570.247 150.168 571.591 148.2 571.591 145.224C571.591 142.44 570.487 140.064 568.087 140.064C567.103 140.064 566.119 140.376 565.495 140.976V147.12C565.495 149.28 566.479 150.168 568.183 150.168ZM586.282 149.448C587.218 149.448 587.866 149.184 588.682 148.608V144.408L585.874 145.488C584.986 145.824 584.482 146.472 584.482 147.384C584.482 148.704 585.13 149.448 586.282 149.448ZM591.586 142.488C591.586 143.064 591.514 147.312 591.514 148.056C591.514 149.016 591.826 149.568 592.498 149.568C592.714 149.568 593.242 149.52 593.602 149.424L593.746 150.192C592.93 151.008 592.018 151.44 591.01 151.44C589.738 151.44 589.042 150.552 588.754 149.256C587.914 150.264 586.618 151.416 584.794 151.416C582.658 151.416 581.554 149.976 581.554 148.128C581.554 145.92 583.258 145.152 584.866 144.6L588.682 143.232V141.96C588.682 140.4 588.202 139.344 586.618 139.344C585.442 139.344 584.866 139.92 584.866 141.024C584.866 141.48 584.914 141.888 585.034 142.392L582.922 142.704C582.466 142.392 582.25 141.936 582.25 141.288C582.25 139.2 584.29 138.096 587.05 138.096C590.002 138.096 591.586 139.416 591.586 142.488ZM599.068 150.36V153.48C599.068 154.584 599.74 154.704 600.82 154.848V155.928H594.436V154.848C595.516 154.704 596.188 154.584 596.188 153.48V140.928L594.556 139.896V139.296L598.444 138.048H599.068V140.256C600.004 138.96 601.3 138.096 603.1 138.096C606.292 138.096 608.092 140.64 608.092 144.144C608.092 148.656 605.284 151.44 601.9 151.44C600.604 151.44 599.572 150.984 599.068 150.36ZM601.756 150.168C603.82 150.168 605.188 148.2 605.188 145.224C605.188 142.44 604.084 140.064 601.684 140.064C600.7 140.064 599.716 140.376 599.068 140.976V147.096C599.068 149.112 600.052 150.168 601.756 150.168ZM614.232 150.36V153.48C614.232 154.584 614.904 154.704 615.984 154.848V155.928H609.6V154.848C610.68 154.704 611.352 154.584 611.352 153.48V140.928L609.72 139.896V139.296L613.608 138.048H614.232V140.256C615.168 138.96 616.464 138.096 618.264 138.096C621.456 138.096 623.256 140.64 623.256 144.144C623.256 148.656 620.448 151.44 617.064 151.44C615.768 151.44 614.736 150.984 614.232 150.36ZM616.92 150.168C618.984 150.168 620.352 148.2 620.352 145.224C620.352 142.44 619.248 140.064 616.848 140.064C615.864 140.064 614.88 140.376 614.232 140.976V147.096C614.232 149.112 615.216 150.168 616.92 150.168ZM629.492 132.936V148.752C629.492 149.856 630.164 149.976 631.22 150.12V151.2H624.86V150.12C625.94 149.976 626.612 149.856 626.612 148.752V135.696L624.98 134.664V134.064L628.844 132.936H629.492ZM637.536 138.096V148.752C637.536 149.856 638.184 149.976 639.264 150.12V151.2H632.904V150.12C633.96 149.976 634.632 149.856 634.632 148.752V140.88L633.024 139.872V139.296L636.864 138.096H637.536ZM636 136.656C634.92 136.656 634.152 135.84 634.152 134.856C634.152 133.872 634.92 133.056 636 133.056C637.056 133.056 637.824 133.872 637.824 134.856C637.824 135.84 637.056 136.656 636 136.656ZM643.583 144C643.583 147.072 644.999 149.136 647.615 149.136C649.175 149.136 650.255 148.44 651.143 147.192L651.695 147.528C650.951 150.192 649.127 151.44 646.583 151.44C643.223 151.44 640.943 148.896 640.943 145.2C640.943 141.288 643.463 138.096 647.303 138.096C649.823 138.096 651.551 139.248 651.551 141.216C651.551 142.104 651.119 142.536 650.567 142.776H649.007V141.84C649.007 140.472 648.431 139.44 646.991 139.44C644.999 139.44 643.583 141.312 643.583 144ZM658.118 149.448C659.054 149.448 659.702 149.184 660.518 148.608V144.408L657.71 145.488C656.822 145.824 656.318 146.472 656.318 147.384C656.318 148.704 656.966 149.448 658.118 149.448ZM663.422 142.488C663.422 143.064 663.35 147.312 663.35 148.056C663.35 149.016 663.662 149.568 664.334 149.568C664.55 149.568 665.078 149.52 665.438 149.424L665.582 150.192C664.766 151.008 663.854 151.44 662.846 151.44C661.574 151.44 660.878 150.552 660.59 149.256C659.75 150.264 658.454 151.416 656.63 151.416C654.494 151.416 653.39 149.976 653.39 148.128C653.39 145.92 655.094 145.152 656.702 144.6L660.518 143.232V141.96C660.518 140.4 660.038 139.344 658.454 139.344C657.278 139.344 656.702 139.92 656.702 141.024C656.702 141.48 656.75 141.888 656.87 142.392L654.758 142.704C654.302 142.392 654.086 141.936 654.086 141.288C654.086 139.2 656.126 138.096 658.886 138.096C661.838 138.096 663.422 139.416 663.422 142.488ZM670.592 135.504V138.336H674.12V139.776H670.592V147.864C670.592 149.136 671.144 149.592 672.368 149.592C673.04 149.592 673.832 149.4 674.432 149.088L674.744 149.832C673.832 150.816 672.512 151.44 670.856 151.44C668.936 151.44 667.712 150.528 667.712 148.32V139.776H665.984V138.864C667.328 138.168 668.624 137.04 669.728 135.504H670.592ZM680.474 138.096V148.752C680.474 149.856 681.122 149.976 682.202 150.12V151.2H675.842V150.12C676.898 149.976 677.57 149.856 677.57 148.752V140.88L675.962 139.872V139.296L679.802 138.096H680.474ZM678.938 136.656C677.858 136.656 677.09 135.84 677.09 134.856C677.09 133.872 677.858 133.056 678.938 133.056C679.994 133.056 680.762 133.872 680.762 134.856C680.762 135.84 679.994 136.656 678.938 136.656ZM690.289 150.048C692.257 150.048 693.265 148.056 693.265 145.128C693.265 142.008 692.017 139.464 689.857 139.464C687.865 139.464 686.881 141.48 686.881 144.408C686.881 147.528 688.105 150.048 690.289 150.048ZM689.953 151.44C686.257 151.44 683.881 148.704 683.881 145.008C683.881 140.808 686.665 138.096 690.169 138.096C693.865 138.096 696.265 140.832 696.265 144.528C696.265 148.728 693.457 151.44 689.953 151.44ZM707.876 148.752V142.272C707.876 140.784 707.276 140.184 705.86 140.184C704.732 140.184 703.532 140.64 702.716 141.216V148.752C702.716 149.856 703.316 149.976 704.396 150.12V151.2H698.084V150.12C699.14 149.976 699.812 149.856 699.812 148.752V140.928L698.204 139.896V139.296L702.044 138.048H702.716V140.496C703.82 139.344 705.308 138.096 707.324 138.096C709.484 138.096 710.78 139.272 710.78 142.032V148.752C710.78 149.856 711.428 149.976 712.508 150.12V151.2H706.172V150.12C707.252 149.976 707.876 149.856 707.876 148.752ZM185.553 166.504V169.336H189.081V170.776H185.553V178.864C185.553 180.136 186.105 180.592 187.329 180.592C188.001 180.592 188.793 180.4 189.393 180.088L189.705 180.832C188.793 181.816 187.473 182.44 185.817 182.44C183.897 182.44 182.673 181.528 182.673 179.32V170.776H180.945V169.864C182.289 169.168 183.585 168.04 184.689 166.504H185.553ZM195.435 169.048V172.984C196.803 170.056 197.523 169.096 199.059 169.096C199.491 169.096 199.803 169.24 199.995 169.408V172.048H199.467C197.979 172.048 196.851 172.24 195.435 173.776V179.704C195.435 180.856 196.011 180.928 197.643 181.12V182.2H190.803V181.12C191.859 180.976 192.531 180.856 192.531 179.752V171.928L190.923 170.896V170.296L194.739 169.048H195.435ZM205.985 180.448C206.921 180.448 207.569 180.184 208.385 179.608V175.408L205.577 176.488C204.689 176.824 204.185 177.472 204.185 178.384C204.185 179.704 204.833 180.448 205.985 180.448ZM211.289 173.488C211.289 174.064 211.217 178.312 211.217 179.056C211.217 180.016 211.529 180.568 212.201 180.568C212.417 180.568 212.945 180.52 213.305 180.424L213.449 181.192C212.633 182.008 211.721 182.44 210.713 182.44C209.441 182.44 208.745 181.552 208.457 180.256C207.617 181.264 206.321 182.416 204.497 182.416C202.361 182.416 201.257 180.976 201.257 179.128C201.257 176.92 202.961 176.152 204.569 175.6L208.385 174.232V172.96C208.385 171.4 207.905 170.344 206.321 170.344C205.145 170.344 204.569 170.92 204.569 172.024C204.569 172.48 204.617 172.888 204.737 173.392L202.625 173.704C202.169 173.392 201.953 172.936 201.953 172.288C201.953 170.2 203.993 169.096 206.753 169.096C209.705 169.096 211.289 170.416 211.289 173.488ZM217.091 175C217.091 178.072 218.507 180.136 221.123 180.136C222.683 180.136 223.763 179.44 224.651 178.192L225.203 178.528C224.459 181.192 222.635 182.44 220.091 182.44C216.731 182.44 214.451 179.896 214.451 176.2C214.451 172.288 216.971 169.096 220.811 169.096C223.331 169.096 225.059 170.248 225.059 172.216C225.059 173.104 224.627 173.536 224.075 173.776H222.515V172.84C222.515 171.472 221.939 170.44 220.499 170.44C218.507 170.44 217.091 172.312 217.091 175ZM231.154 175.336L234.85 171.808C235.114 171.544 235.306 171.328 235.306 171.088C235.306 170.656 234.922 170.584 233.578 170.392V169.336H239.29V170.392C238.354 170.632 237.85 170.8 237.298 171.328L233.986 174.424L239.77 181.36V182.2H236.674L231.154 175.336ZM230.938 163.936V179.752C230.938 180.856 231.61 180.976 232.666 181.12V182.2H226.282V181.12C227.362 180.976 228.034 180.856 228.034 179.752V166.696L226.402 165.664V165.064L230.29 163.936H230.938ZM245.802 169.096V179.752C245.802 180.856 246.45 180.976 247.53 181.12V182.2H241.17V181.12C242.226 180.976 242.898 180.856 242.898 179.752V171.88L241.29 170.872V170.296L245.13 169.096H245.802ZM244.266 167.656C243.186 167.656 242.418 166.84 242.418 165.856C242.418 164.872 243.186 164.056 244.266 164.056C245.322 164.056 246.09 164.872 246.09 165.856C246.09 166.84 245.322 167.656 244.266 167.656ZM259.001 179.752V173.272C259.001 171.784 258.401 171.184 256.985 171.184C255.857 171.184 254.657 171.64 253.841 172.216V179.752C253.841 180.856 254.441 180.976 255.521 181.12V182.2H249.209V181.12C250.265 180.976 250.937 180.856 250.937 179.752V171.928L249.329 170.896V170.296L253.169 169.048H253.841V171.496C254.945 170.344 256.433 169.096 258.449 169.096C260.609 169.096 261.905 170.272 261.905 173.032V179.752C261.905 180.856 262.553 180.976 263.633 181.12V182.2H257.297V181.12C258.377 180.976 259.001 180.856 259.001 179.752ZM270.547 177.616C269.755 177.616 268.963 177.496 268.243 177.256C267.595 177.928 267.355 178.336 267.355 178.816C267.355 179.32 267.643 179.512 268.147 179.512H273.691C276.043 179.512 277.363 180.472 277.363 182.56C277.363 185.368 274.435 187.168 270.235 187.168C266.707 187.168 264.619 186.208 264.619 184.24C264.619 182.944 265.747 182.32 266.827 181.912C265.867 181.552 265.339 180.928 265.339 179.92C265.339 178.72 266.299 177.808 267.643 176.968C266.371 176.32 265.483 175.192 265.483 173.512C265.483 170.776 267.667 169.096 270.643 169.096C271.531 169.096 272.275 169.264 272.875 169.48L277.243 169.216V171.016H276.307L274.027 170.512V170.656C274.987 171.208 275.683 172.168 275.683 173.416C275.683 175.984 273.595 177.616 270.547 177.616ZM273.235 182.248H267.283C266.923 182.608 266.803 183.064 266.803 183.52C266.803 185.224 268.339 185.92 270.571 185.92C273.139 185.92 275.011 185.152 275.011 183.496C275.011 182.488 274.339 182.248 273.235 182.248ZM270.763 176.536C272.203 176.536 272.875 175.36 272.875 173.608C272.875 171.736 271.987 170.224 270.403 170.224C268.963 170.224 268.315 171.4 268.315 173.152C268.315 175 269.155 176.536 270.763 176.536ZM288.437 182.44C286.709 182.44 285.077 182.056 283.901 181.192L283.757 178.096H285.005C285.461 180.064 286.589 181.216 288.509 181.216C289.925 181.216 290.837 180.568 290.837 179.416C290.837 178.048 289.877 177.568 287.717 176.968C285.293 176.272 283.877 175.264 283.877 172.984C283.877 170.632 285.605 169.096 288.317 169.096C289.973 169.096 291.341 169.504 292.397 170.128V173.008H291.173C290.813 171.256 289.853 170.344 288.221 170.344C286.973 170.344 286.253 171.088 286.253 172.072C286.253 173.248 287.045 173.872 289.013 174.4C291.485 175.072 293.189 175.912 293.189 178.432C293.189 180.808 291.413 182.44 288.437 182.44ZM300.478 182.272L295.606 171.352C295.366 170.848 295.222 170.776 294.214 170.392V169.336H300.574V170.392C299.326 170.56 298.87 170.68 298.87 171.256C298.87 171.448 298.894 171.616 299.062 172L301.894 178.936L304.582 172C304.726 171.616 304.774 171.448 304.774 171.256C304.774 170.68 304.318 170.56 303.094 170.392V169.336H307.87V170.392C306.862 170.752 306.694 170.824 306.478 171.352L301.102 184.432C300.382 186.184 299.542 187.168 298.006 187.168C297.166 187.168 296.47 186.808 296.11 186.28V184.84H297.406C298.966 184.84 299.566 184.576 300.094 183.232L300.478 182.272ZM313.632 182.44C311.904 182.44 310.272 182.056 309.096 181.192L308.952 178.096H310.2C310.656 180.064 311.784 181.216 313.704 181.216C315.12 181.216 316.032 180.568 316.032 179.416C316.032 178.048 315.072 177.568 312.912 176.968C310.488 176.272 309.072 175.264 309.072 172.984C309.072 170.632 310.8 169.096 313.512 169.096C315.168 169.096 316.536 169.504 317.592 170.128V173.008H316.368C316.008 171.256 315.048 170.344 313.416 170.344C312.168 170.344 311.448 171.088 311.448 172.072C311.448 173.248 312.24 173.872 314.208 174.4C316.68 175.072 318.384 175.912 318.384 178.432C318.384 180.808 316.608 182.44 313.632 182.44ZM324.209 166.504V169.336H327.737V170.776H324.209V178.864C324.209 180.136 324.761 180.592 325.985 180.592C326.657 180.592 327.449 180.4 328.049 180.088L328.361 180.832C327.449 181.816 326.129 182.44 324.473 182.44C322.553 182.44 321.329 181.528 321.329 179.32V170.776H319.601V169.864C320.945 169.168 322.241 168.04 323.345 166.504H324.209ZM335.459 169.096C338.723 169.096 340.427 171.4 340.427 174.496V175.288H332.051C332.051 178.192 333.683 180.136 336.227 180.136C337.931 180.136 339.059 179.344 339.923 178.192L340.451 178.504C339.851 180.832 338.027 182.44 335.219 182.44C331.691 182.44 329.459 179.776 329.459 176.176C329.459 171.928 332.051 169.096 335.459 169.096ZM335.075 170.416C333.347 170.416 332.315 172.12 332.123 174.064H337.715C337.715 171.856 336.827 170.416 335.075 170.416ZM364.191 182.2H357.879V181.12C358.959 180.976 359.559 180.856 359.559 179.752V173.272C359.559 171.736 359.031 171.184 357.639 171.184C356.535 171.184 355.527 171.64 354.687 172.216V179.752C354.687 180.856 355.311 180.976 356.367 181.12V182.2H350.103V181.12C351.183 180.976 351.783 180.856 351.783 179.752V173.272C351.783 171.736 351.255 171.184 349.887 171.184C348.759 171.184 347.751 171.64 346.911 172.216V179.752C346.911 180.856 347.487 180.976 348.567 181.12V182.2H342.279V181.12C343.335 180.976 344.007 180.856 344.007 179.752V171.928L342.399 170.896V170.296L346.239 169.048H346.911V171.496C348.015 170.344 349.359 169.096 351.351 169.096C352.983 169.096 354.135 169.864 354.543 171.592C355.671 170.44 357.159 169.096 359.175 169.096C361.287 169.096 362.463 170.272 362.463 173.008V179.752C362.463 180.856 363.111 180.976 364.191 181.12V182.2ZM368.55 182.008H367.59C366.822 181.864 366.366 181.312 366.366 180.4C366.366 179.392 367.086 178.672 368.166 178.672C369.486 178.672 370.23 179.656 370.23 181.144C370.23 183.376 368.934 185.104 365.982 185.272V184.144C367.71 183.928 368.55 183.208 368.55 182.008ZM386.956 182.44V180.088C385.876 181.216 384.508 182.44 382.492 182.44C380.38 182.44 379.036 181.264 379.036 178.456V172.168C379.036 171.352 378.796 171.04 377.764 170.872L377.38 170.8V169.816L381.46 169.096H381.964V178.096C381.964 179.68 382.588 180.4 383.956 180.4C385.108 180.4 386.116 179.944 386.956 179.392V172.168C386.956 171.352 386.716 171.04 385.684 170.872L385.324 170.8V169.816L389.356 169.096H389.884V179.344C389.884 180.16 390.1 180.4 391.084 180.496L391.684 180.544V181.624L387.484 182.44H386.956ZM398.007 182.44C396.279 182.44 394.647 182.056 393.471 181.192L393.327 178.096H394.575C395.031 180.064 396.159 181.216 398.079 181.216C399.495 181.216 400.407 180.568 400.407 179.416C400.407 178.048 399.447 177.568 397.287 176.968C394.863 176.272 393.447 175.264 393.447 172.984C393.447 170.632 395.175 169.096 397.887 169.096C399.543 169.096 400.911 169.504 401.967 170.128V173.008H400.743C400.383 171.256 399.423 170.344 397.791 170.344C396.543 170.344 395.823 171.088 395.823 172.072C395.823 173.248 396.615 173.872 398.583 174.4C401.055 175.072 402.759 175.912 402.759 178.432C402.759 180.808 400.983 182.44 398.007 182.44ZM410.576 169.096C413.84 169.096 415.544 171.4 415.544 174.496V175.288H407.168C407.168 178.192 408.8 180.136 411.344 180.136C413.048 180.136 414.176 179.344 415.04 178.192L415.568 178.504C414.968 180.832 413.144 182.44 410.336 182.44C406.808 182.44 404.576 179.776 404.576 176.176C404.576 171.928 407.168 169.096 410.576 169.096ZM410.192 170.416C408.464 170.416 407.432 172.12 407.24 174.064H412.832C412.832 171.856 411.944 170.416 410.192 170.416ZM422.028 169.048V172.984C423.396 170.056 424.116 169.096 425.652 169.096C426.084 169.096 426.396 169.24 426.588 169.408V172.048H426.06C424.572 172.048 423.444 172.24 422.028 173.776V179.704C422.028 180.856 422.604 180.928 424.236 181.12V182.2H417.396V181.12C418.452 180.976 419.124 180.856 419.124 179.752V171.928L417.516 170.896V170.296L421.332 169.048H422.028ZM432.531 182.44C430.803 182.44 429.171 182.056 427.995 181.192L427.851 178.096H429.099C429.555 180.064 430.683 181.216 432.603 181.216C434.019 181.216 434.931 180.568 434.931 179.416C434.931 178.048 433.971 177.568 431.811 176.968C429.387 176.272 427.971 175.264 427.971 172.984C427.971 170.632 429.699 169.096 432.411 169.096C434.067 169.096 435.435 169.504 436.491 170.128V173.008H435.267C434.907 171.256 433.947 170.344 432.315 170.344C431.067 170.344 430.347 171.088 430.347 172.072C430.347 173.248 431.139 173.872 433.107 174.4C435.579 175.072 437.283 175.912 437.283 178.432C437.283 180.808 435.507 182.44 432.531 182.44ZM457.576 178.144L459.856 171.952C459.952 171.664 460 171.448 460 171.256C460 170.68 459.568 170.56 458.488 170.392V169.336H463.024V170.392C462.016 170.752 461.848 170.824 461.656 171.352L457.384 182.392H456.52L453.376 174.208L450.112 182.392H449.272L444.832 171.352C444.616 170.824 444.448 170.728 443.464 170.392V169.336H449.464V170.392C448.432 170.56 448.024 170.704 448.024 171.232C448.024 171.448 448.096 171.712 448.216 172L450.496 178.168L452.656 172.504L452.248 171.352C452.056 170.824 451.888 170.704 450.952 170.392V169.336H456.736V170.392C455.632 170.56 455.224 170.68 455.224 171.256C455.224 171.472 455.296 171.736 455.392 172L457.576 178.144ZM468.692 169.096V179.752C468.692 180.856 469.34 180.976 470.42 181.12V182.2H464.06V181.12C465.116 180.976 465.788 180.856 465.788 179.752V171.88L464.18 170.872V170.296L468.02 169.096H468.692ZM467.156 167.656C466.076 167.656 465.308 166.84 465.308 165.856C465.308 164.872 466.076 164.056 467.156 164.056C468.212 164.056 468.98 164.872 468.98 165.856C468.98 166.84 468.212 167.656 467.156 167.656ZM476.516 163.936V179.752C476.516 180.856 477.188 180.976 478.243 181.12V182.2H471.884V181.12C472.964 180.976 473.636 180.856 473.636 179.752V166.696L472.004 165.664V165.064L475.868 163.936H476.516ZM484.344 163.936V179.752C484.344 180.856 485.016 180.976 486.072 181.12V182.2H479.712V181.12C480.792 180.976 481.464 180.856 481.464 179.752V166.696L479.832 165.664V165.064L483.696 163.936H484.344ZM497.64 182.44C495.912 182.44 494.28 182.056 493.104 181.192L492.96 178.096H494.208C494.664 180.064 495.792 181.216 497.712 181.216C499.128 181.216 500.04 180.568 500.04 179.416C500.04 178.048 499.08 177.568 496.92 176.968C494.496 176.272 493.08 175.264 493.08 172.984C493.08 170.632 494.808 169.096 497.52 169.096C499.176 169.096 500.544 169.504 501.6 170.128V173.008H500.376C500.016 171.256 499.056 170.344 497.424 170.344C496.176 170.344 495.456 171.088 495.456 172.072C495.456 173.248 496.248 173.872 498.216 174.4C500.688 175.072 502.392 175.912 502.392 178.432C502.392 180.808 500.616 182.44 497.64 182.44ZM508.985 180.448C509.921 180.448 510.569 180.184 511.385 179.608V175.408L508.577 176.488C507.689 176.824 507.185 177.472 507.185 178.384C507.185 179.704 507.833 180.448 508.985 180.448ZM514.289 173.488C514.289 174.064 514.217 178.312 514.217 179.056C514.217 180.016 514.529 180.568 515.201 180.568C515.417 180.568 515.945 180.52 516.305 180.424L516.449 181.192C515.633 182.008 514.721 182.44 513.713 182.44C512.441 182.44 511.745 181.552 511.457 180.256C510.617 181.264 509.321 182.416 507.497 182.416C505.361 182.416 504.257 180.976 504.257 179.128C504.257 176.92 505.961 176.152 507.569 175.6L511.385 174.232V172.96C511.385 171.4 510.905 170.344 509.321 170.344C508.145 170.344 507.569 170.92 507.569 172.024C507.569 172.48 507.617 172.888 507.737 173.392L505.625 173.704C505.169 173.392 504.953 172.936 504.953 172.288C504.953 170.2 506.993 169.096 509.753 169.096C512.705 169.096 514.289 170.416 514.289 173.488ZM529.491 169.336V170.392C528.483 170.776 528.339 170.824 528.099 171.352L523.227 182.392H522.459L517.371 171.352C517.131 170.848 516.987 170.776 515.979 170.392V169.336H522.339V170.392C521.091 170.56 520.635 170.68 520.635 171.256C520.635 171.448 520.683 171.64 520.827 171.952L523.491 178.48L526.227 171.952C526.347 171.616 526.395 171.448 526.395 171.256C526.395 170.68 525.939 170.56 524.715 170.392V169.336H529.491ZM535.826 169.096C539.09 169.096 540.794 171.4 540.794 174.496V175.288H532.418C532.418 178.192 534.05 180.136 536.594 180.136C538.298 180.136 539.426 179.344 540.29 178.192L540.818 178.504C540.218 180.832 538.394 182.44 535.586 182.44C532.058 182.44 529.826 179.776 529.826 176.176C529.826 171.928 532.418 169.096 535.826 169.096ZM535.442 170.416C533.714 170.416 532.682 172.12 532.49 174.064H538.082C538.082 171.856 537.194 170.416 535.442 170.416ZM551.811 166.504V169.336H555.339V170.776H551.811V178.864C551.811 180.136 552.363 180.592 553.587 180.592C554.259 180.592 555.051 180.4 555.651 180.088L555.963 180.832C555.051 181.816 553.731 182.44 552.075 182.44C550.155 182.44 548.931 181.528 548.931 179.32V170.776H547.203V169.864C548.547 169.168 549.843 168.04 550.947 166.504H551.811ZM561.692 169.096V179.752C561.692 180.856 562.34 180.976 563.42 181.12V182.2H557.06V181.12C558.116 180.976 558.788 180.856 558.788 179.752V171.88L557.18 170.872V170.296L561.02 169.096H561.692ZM560.156 167.656C559.076 167.656 558.308 166.84 558.308 165.856C558.308 164.872 559.076 164.056 560.156 164.056C561.212 164.056 561.98 164.872 561.98 165.856C561.98 166.84 561.212 167.656 560.156 167.656ZM587.012 182.2H580.7V181.12C581.78 180.976 582.38 180.856 582.38 179.752V173.272C582.38 171.736 581.852 171.184 580.46 171.184C579.356 171.184 578.348 171.64 577.508 172.216V179.752C577.508 180.856 578.132 180.976 579.188 181.12V182.2H572.924V181.12C574.004 180.976 574.604 180.856 574.604 179.752V173.272C574.604 171.736 574.076 171.184 572.708 171.184C571.58 171.184 570.572 171.64 569.732 172.216V179.752C569.732 180.856 570.308 180.976 571.388 181.12V182.2H565.1V181.12C566.156 180.976 566.828 180.856 566.828 179.752V171.928L565.22 170.896V170.296L569.06 169.048H569.732V171.496C570.836 170.344 572.18 169.096 574.172 169.096C575.804 169.096 576.956 169.864 577.364 171.592C578.492 170.44 579.98 169.096 581.996 169.096C584.108 169.096 585.284 170.272 585.284 173.008V179.752C585.284 180.856 585.932 180.976 587.012 181.12V182.2ZM594.467 169.096C597.731 169.096 599.435 171.4 599.435 174.496V175.288H591.059C591.059 178.192 592.691 180.136 595.235 180.136C596.939 180.136 598.067 179.344 598.931 178.192L599.459 178.504C598.859 180.832 597.035 182.44 594.227 182.44C590.699 182.44 588.467 179.776 588.467 176.176C588.467 171.928 591.059 169.096 594.467 169.096ZM594.083 170.416C592.355 170.416 591.323 172.12 591.131 174.064H596.723C596.723 171.856 595.835 170.416 594.083 170.416ZM611.219 180.448C612.155 180.448 612.803 180.184 613.619 179.608V175.408L610.811 176.488C609.923 176.824 609.419 177.472 609.419 178.384C609.419 179.704 610.067 180.448 611.219 180.448ZM616.523 173.488C616.523 174.064 616.451 178.312 616.451 179.056C616.451 180.016 616.763 180.568 617.435 180.568C617.651 180.568 618.179 180.52 618.539 180.424L618.683 181.192C617.867 182.008 616.955 182.44 615.947 182.44C614.675 182.44 613.979 181.552 613.691 180.256C612.851 181.264 611.555 182.416 609.731 182.416C607.595 182.416 606.491 180.976 606.491 179.128C606.491 176.92 608.195 176.152 609.803 175.6L613.619 174.232V172.96C613.619 171.4 613.139 170.344 611.555 170.344C610.379 170.344 609.803 170.92 609.803 172.024C609.803 172.48 609.851 172.888 609.971 173.392L607.859 173.704C607.403 173.392 607.187 172.936 607.187 172.288C607.187 170.2 609.227 169.096 611.987 169.096C614.939 169.096 616.523 170.416 616.523 173.488ZM629.477 179.752V173.272C629.477 171.784 628.877 171.184 627.461 171.184C626.333 171.184 625.133 171.64 624.317 172.216V179.752C624.317 180.856 624.917 180.976 625.997 181.12V182.2H619.685V181.12C620.741 180.976 621.413 180.856 621.413 179.752V171.928L619.805 170.896V170.296L623.645 169.048H624.317V171.496C625.421 170.344 626.909 169.096 628.925 169.096C631.085 169.096 632.381 170.272 632.381 173.032V179.752C632.381 180.856 633.029 180.976 634.109 181.12V182.2H627.773V181.12C628.853 180.976 629.477 180.856 629.477 179.752ZM644.624 182.44V180.232C643.712 181.552 642.512 182.44 640.664 182.44C637.496 182.44 635.6 179.896 635.6 176.392C635.6 171.88 638.336 169.144 641.864 169.144C643.04 169.144 644.096 169.552 644.624 170.248V166.696L642.992 165.664V165.064L646.88 163.936H647.528V179.344C647.528 180.16 647.768 180.4 648.752 180.496L649.352 180.544V181.624L645.152 182.44H644.624ZM641.96 170.392C639.848 170.392 638.528 172.432 638.528 175.384C638.528 178.168 639.68 180.448 642.032 180.448C643.016 180.448 644 180.088 644.624 179.512V173.44C644.624 171.376 643.64 170.392 641.96 170.392ZM662.014 169.096C665.278 169.096 666.982 171.4 666.982 174.496V175.288H658.606C658.606 178.192 660.238 180.136 662.782 180.136C664.486 180.136 665.614 179.344 666.478 178.192L667.006 178.504C666.406 180.832 664.582 182.44 661.774 182.44C658.246 182.44 656.014 179.776 656.014 176.176C656.014 171.928 658.606 169.096 662.014 169.096ZM661.63 170.416C659.902 170.416 658.87 172.12 658.678 174.064H664.27C664.27 171.856 663.382 170.416 661.63 170.416ZM673.115 170.776V179.704C673.115 180.856 673.715 180.928 675.323 181.12V182.2H668.483V181.12C669.563 180.976 670.211 180.856 670.211 179.752V170.776H668.435V169.768L670.211 169.192V168.856C670.211 165.64 672.155 163.792 675.107 163.792C677.027 163.792 678.179 164.512 678.179 165.784C678.179 166.408 677.819 166.864 677.387 167.128H675.899V166.408C675.899 165.52 675.635 164.872 674.699 164.872C673.619 164.872 673.115 165.952 673.115 167.848V169.336H676.163V170.776H673.115ZM682.185 170.776V179.704C682.185 180.856 682.785 180.928 684.393 181.12V182.2H677.553V181.12C678.633 180.976 679.281 180.856 679.281 179.752V170.776H677.505V169.768L679.281 169.192V168.856C679.281 165.64 681.225 163.792 684.177 163.792C686.097 163.792 687.249 164.512 687.249 165.784C687.249 166.408 686.889 166.864 686.457 167.128H684.969V166.408C684.969 165.52 684.705 164.872 683.769 164.872C682.689 164.872 682.185 165.952 682.185 167.848V169.336H685.233V170.776H682.185ZM692.234 181.048C694.202 181.048 695.21 179.056 695.21 176.128C695.21 173.008 693.962 170.464 691.802 170.464C689.81 170.464 688.826 172.48 688.826 175.408C688.826 178.528 690.05 181.048 692.234 181.048ZM691.898 182.44C688.202 182.44 685.826 179.704 685.826 176.008C685.826 171.808 688.61 169.096 692.114 169.096C695.81 169.096 698.21 171.832 698.21 175.528C698.21 179.728 695.402 182.44 691.898 182.44ZM704.661 169.048V172.984C706.029 170.056 706.749 169.096 708.285 169.096C708.717 169.096 709.029 169.24 709.221 169.408V172.048H708.693C707.205 172.048 706.077 172.24 704.661 173.776V179.704C704.661 180.856 705.237 180.928 706.869 181.12V182.2H700.029V181.12C701.085 180.976 701.757 180.856 701.757 179.752V171.928L700.149 170.896V170.296L703.965 169.048H704.661ZM715.029 166.504V169.336H718.557V170.776H715.029V178.864C715.029 180.136 715.581 180.592 716.805 180.592C717.477 180.592 718.269 180.4 718.869 180.088L719.181 180.832C718.269 181.816 716.949 182.44 715.293 182.44C713.373 182.44 712.149 181.528 712.149 179.32V170.776H710.421V169.864C711.765 169.168 713.061 168.04 714.165 166.504H715.029ZM177.927 200.096V210.752C177.927 211.856 178.575 211.976 179.655 212.12V213.2H173.295V212.12C174.351 211.976 175.023 211.856 175.023 210.752V202.88L173.415 201.872V201.296L177.255 200.096H177.927ZM176.391 198.656C175.311 198.656 174.543 197.84 174.543 196.856C174.543 195.872 175.311 195.056 176.391 195.056C177.447 195.056 178.215 195.872 178.215 196.856C178.215 197.84 177.447 198.656 176.391 198.656ZM191.126 210.752V204.272C191.126 202.784 190.526 202.184 189.11 202.184C187.982 202.184 186.782 202.64 185.966 203.216V210.752C185.966 211.856 186.566 211.976 187.646 212.12V213.2H181.334V212.12C182.39 211.976 183.062 211.856 183.062 210.752V202.928L181.454 201.896V201.296L185.294 200.048H185.966V202.496C187.07 201.344 188.558 200.096 190.574 200.096C192.734 200.096 194.03 201.272 194.03 204.032V210.752C194.03 211.856 194.678 211.976 195.758 212.12V213.2H189.422V212.12C190.502 211.976 191.126 211.856 191.126 210.752ZM206.412 197.504V200.336H209.94V201.776H206.412V209.864C206.412 211.136 206.964 211.592 208.188 211.592C208.86 211.592 209.652 211.4 210.252 211.088L210.564 211.832C209.652 212.816 208.332 213.44 206.676 213.44C204.756 213.44 203.532 212.528 203.532 210.32V201.776H201.804V200.864C203.148 200.168 204.444 199.04 205.548 197.504H206.412ZM216.102 194.936V202.496C217.23 201.344 218.67 200.096 220.686 200.096C222.87 200.096 224.142 201.272 224.142 204.032V210.752C224.142 211.856 224.814 211.976 225.894 212.12V213.2H219.558V212.12C220.614 211.976 221.238 211.856 221.238 210.752V204.272C221.238 202.784 220.662 202.184 219.246 202.184C218.094 202.184 216.942 202.64 216.102 203.216V210.752C216.102 211.856 216.726 211.976 217.782 212.12V213.2H211.446V212.12C212.526 211.976 213.198 211.856 213.198 210.752V197.696L211.566 196.664V196.064L215.454 194.936H216.102ZM233.365 200.096C236.629 200.096 238.333 202.4 238.333 205.496V206.288H229.957C229.957 209.192 231.589 211.136 234.133 211.136C235.837 211.136 236.965 210.344 237.829 209.192L238.357 209.504C237.757 211.832 235.933 213.44 233.125 213.44C229.597 213.44 227.365 210.776 227.365 207.176C227.365 202.928 229.957 200.096 233.365 200.096ZM232.981 201.416C231.253 201.416 230.221 203.12 230.029 205.064H235.621C235.621 202.856 234.733 201.416 232.981 201.416ZM249.518 200.096V210.8C249.518 212.864 249.278 213.944 248.582 215.096C247.766 216.392 246.59 217.304 245.246 218.192L244.598 217.544L245.414 216.344C246.518 214.88 246.614 213.584 246.614 211.376V202.88L245.006 201.872V201.296L248.894 200.096H249.518ZM248.006 198.656C246.926 198.656 246.158 197.84 246.158 196.856C246.158 195.872 246.926 195.056 248.006 195.056C249.062 195.056 249.83 195.872 249.83 196.856C249.83 197.84 249.062 198.656 248.006 198.656ZM258.617 212.048C260.585 212.048 261.593 210.056 261.593 207.128C261.593 204.008 260.345 201.464 258.185 201.464C256.193 201.464 255.209 203.48 255.209 206.408C255.209 209.528 256.433 212.048 258.617 212.048ZM258.281 213.44C254.585 213.44 252.209 210.704 252.209 207.008C252.209 202.808 254.993 200.096 258.497 200.096C262.193 200.096 264.593 202.832 264.593 206.528C264.593 210.728 261.785 213.44 258.281 213.44ZM267.396 197.696L265.788 196.664V196.064L269.652 194.936H270.3V202.256C271.212 200.96 272.532 200.096 274.308 200.096C277.524 200.096 279.324 202.64 279.324 206.144C279.324 210.656 276.444 213.44 272.844 213.44C270.516 213.44 268.548 212.768 267.396 211.832V197.696ZM272.988 212.168C275.052 212.168 276.396 210.2 276.396 207.224C276.396 204.44 275.292 202.064 272.892 202.064C271.908 202.064 270.924 202.376 270.3 202.976V209.12C270.3 211.28 271.284 212.168 272.988 212.168ZM291.038 213.44C289.31 213.44 287.678 213.056 286.502 212.192L286.358 209.096H287.606C288.062 211.064 289.19 212.216 291.11 212.216C292.526 212.216 293.438 211.568 293.438 210.416C293.438 209.048 292.478 208.568 290.318 207.968C287.894 207.272 286.478 206.264 286.478 203.984C286.478 201.632 288.206 200.096 290.918 200.096C292.574 200.096 293.942 200.504 294.998 201.128V204.008H293.774C293.414 202.256 292.454 201.344 290.822 201.344C289.574 201.344 288.854 202.088 288.854 203.072C288.854 204.248 289.646 204.872 291.614 205.4C294.086 206.072 295.79 206.912 295.79 209.432C295.79 211.808 294.014 213.44 291.038 213.44ZM303.607 200.096C306.871 200.096 308.575 202.4 308.575 205.496V206.288H300.199C300.199 209.192 301.831 211.136 304.375 211.136C306.079 211.136 307.207 210.344 308.071 209.192L308.599 209.504C307.999 211.832 306.175 213.44 303.367 213.44C299.839 213.44 297.607 210.776 297.607 207.176C297.607 202.928 300.199 200.096 303.607 200.096ZM303.223 201.416C301.495 201.416 300.463 203.12 300.271 205.064H305.863C305.863 202.856 304.975 201.416 303.223 201.416ZM315.204 211.448C316.14 211.448 316.788 211.184 317.604 210.608V206.408L314.796 207.488C313.908 207.824 313.404 208.472 313.404 209.384C313.404 210.704 314.052 211.448 315.204 211.448ZM320.508 204.488C320.508 205.064 320.436 209.312 320.436 210.056C320.436 211.016 320.748 211.568 321.42 211.568C321.636 211.568 322.164 211.52 322.524 211.424L322.668 212.192C321.852 213.008 320.94 213.44 319.932 213.44C318.66 213.44 317.964 212.552 317.676 211.256C316.836 212.264 315.54 213.416 313.716 213.416C311.58 213.416 310.476 211.976 310.476 210.128C310.476 207.92 312.18 207.152 313.788 206.6L317.604 205.232V203.96C317.604 202.4 317.124 201.344 315.54 201.344C314.364 201.344 313.788 201.92 313.788 203.024C313.788 203.48 313.836 203.888 313.956 204.392L311.844 204.704C311.388 204.392 311.172 203.936 311.172 203.288C311.172 201.2 313.212 200.096 315.972 200.096C318.924 200.096 320.508 201.416 320.508 204.488ZM328.302 200.048V203.984C329.67 201.056 330.39 200.096 331.926 200.096C332.358 200.096 332.67 200.24 332.862 200.408V203.048H332.334C330.846 203.048 329.718 203.24 328.302 204.776V210.704C328.302 211.856 328.878 211.928 330.51 212.12V213.2H323.67V212.12C324.726 211.976 325.398 211.856 325.398 210.752V202.928L323.79 201.896V201.296L327.606 200.048H328.302ZM336.716 206C336.716 209.072 338.132 211.136 340.748 211.136C342.308 211.136 343.388 210.44 344.276 209.192L344.828 209.528C344.084 212.192 342.26 213.44 339.716 213.44C336.356 213.44 334.076 210.896 334.076 207.2C334.076 203.288 336.596 200.096 340.436 200.096C342.956 200.096 344.684 201.248 344.684 203.216C344.684 204.104 344.252 204.536 343.7 204.776H342.14V203.84C342.14 202.472 341.564 201.44 340.124 201.44C338.132 201.44 336.716 203.312 336.716 206ZM350.563 194.936V202.496C351.691 201.344 353.131 200.096 355.147 200.096C357.331 200.096 358.603 201.272 358.603 204.032V210.752C358.603 211.856 359.275 211.976 360.355 212.12V213.2H354.019V212.12C355.075 211.976 355.699 211.856 355.699 210.752V204.272C355.699 202.784 355.123 202.184 353.707 202.184C352.555 202.184 351.403 202.64 350.563 203.216V210.752C350.563 211.856 351.187 211.976 352.243 212.12V213.2H345.907V212.12C346.987 211.976 347.659 211.856 347.659 210.752V197.696L346.027 196.664V196.064L349.915 194.936H350.563ZM366.458 200.096V210.752C366.458 211.856 367.106 211.976 368.186 212.12V213.2H361.826V212.12C362.882 211.976 363.554 211.856 363.554 210.752V202.88L361.946 201.872V201.296L365.786 200.096H366.458ZM364.922 198.656C363.842 198.656 363.074 197.84 363.074 196.856C363.074 195.872 363.842 195.056 364.922 195.056C365.978 195.056 366.746 195.872 366.746 196.856C366.746 197.84 365.978 198.656 364.922 198.656ZM379.657 210.752V204.272C379.657 202.784 379.057 202.184 377.641 202.184C376.513 202.184 375.313 202.64 374.497 203.216V210.752C374.497 211.856 375.097 211.976 376.177 212.12V213.2H369.865V212.12C370.921 211.976 371.593 211.856 371.593 210.752V202.928L369.985 201.896V201.296L373.825 200.048H374.497V202.496C375.601 201.344 377.089 200.096 379.105 200.096C381.265 200.096 382.561 201.272 382.561 204.032V210.752C382.561 211.856 383.209 211.976 384.289 212.12V213.2H377.953V212.12C379.033 211.976 379.657 211.856 379.657 210.752ZM391.203 208.616C390.411 208.616 389.619 208.496 388.899 208.256C388.251 208.928 388.011 209.336 388.011 209.816C388.011 210.32 388.299 210.512 388.803 210.512H394.347C396.699 210.512 398.019 211.472 398.019 213.56C398.019 216.368 395.091 218.168 390.891 218.168C387.363 218.168 385.275 217.208 385.275 215.24C385.275 213.944 386.403 213.32 387.483 212.912C386.523 212.552 385.995 211.928 385.995 210.92C385.995 209.72 386.955 208.808 388.299 207.968C387.027 207.32 386.139 206.192 386.139 204.512C386.139 201.776 388.323 200.096 391.299 200.096C392.187 200.096 392.931 200.264 393.531 200.48L397.899 200.216V202.016H396.963L394.683 201.512V201.656C395.643 202.208 396.339 203.168 396.339 204.416C396.339 206.984 394.251 208.616 391.203 208.616ZM393.891 213.248H387.939C387.579 213.608 387.459 214.064 387.459 214.52C387.459 216.224 388.995 216.92 391.227 216.92C393.795 216.92 395.667 216.152 395.667 214.496C395.667 213.488 394.995 213.248 393.891 213.248ZM391.419 207.536C392.859 207.536 393.531 206.36 393.531 204.608C393.531 202.736 392.643 201.224 391.059 201.224C389.619 201.224 388.971 202.4 388.971 204.152C388.971 206 389.811 207.536 391.419 207.536ZM408.685 212.36V215.48C408.685 216.584 409.357 216.704 410.437 216.848V217.928H404.053V216.848C405.133 216.704 405.805 216.584 405.805 215.48V202.928L404.173 201.896V201.296L408.061 200.048H408.685V202.256C409.621 200.96 410.917 200.096 412.717 200.096C415.909 200.096 417.709 202.64 417.709 206.144C417.709 210.656 414.901 213.44 411.517 213.44C410.221 213.44 409.189 212.984 408.685 212.36ZM411.373 212.168C413.437 212.168 414.805 210.2 414.805 207.224C414.805 204.44 413.701 202.064 411.301 202.064C410.317 202.064 409.333 202.376 408.685 202.976V209.096C408.685 211.112 409.669 212.168 411.373 212.168ZM424.161 200.048V203.984C425.529 201.056 426.249 200.096 427.785 200.096C428.217 200.096 428.529 200.24 428.721 200.408V203.048H428.193C426.705 203.048 425.577 203.24 424.161 204.776V210.704C424.161 211.856 424.737 211.928 426.369 212.12V213.2H419.529V212.12C420.585 211.976 421.257 211.856 421.257 210.752V202.928L419.649 201.896V201.296L423.465 200.048H424.161ZM436.343 212.048C438.311 212.048 439.319 210.056 439.319 207.128C439.319 204.008 438.071 201.464 435.911 201.464C433.919 201.464 432.935 203.48 432.935 206.408C432.935 209.528 434.159 212.048 436.343 212.048ZM436.007 213.44C432.311 213.44 429.935 210.704 429.935 207.008C429.935 202.808 432.719 200.096 436.223 200.096C439.919 200.096 442.319 202.832 442.319 206.528C442.319 210.728 439.511 213.44 436.007 213.44ZM446.779 206C446.779 209.072 448.195 211.136 450.811 211.136C452.371 211.136 453.451 210.44 454.339 209.192L454.891 209.528C454.147 212.192 452.323 213.44 449.779 213.44C446.419 213.44 444.139 210.896 444.139 207.2C444.139 203.288 446.659 200.096 450.499 200.096C453.019 200.096 454.747 201.248 454.747 203.216C454.747 204.104 454.315 204.536 453.763 204.776H452.203V203.84C452.203 202.472 451.627 201.44 450.187 201.44C448.195 201.44 446.779 203.312 446.779 206ZM462.537 200.096C465.801 200.096 467.505 202.4 467.505 205.496V206.288H459.129C459.129 209.192 460.761 211.136 463.305 211.136C465.009 211.136 466.137 210.344 467.001 209.192L467.529 209.504C466.929 211.832 465.105 213.44 462.297 213.44C458.769 213.44 456.537 210.776 456.537 207.176C456.537 202.928 459.129 200.096 462.537 200.096ZM462.153 201.416C460.425 201.416 459.393 203.12 459.201 205.064H464.793C464.793 202.856 463.905 201.416 462.153 201.416ZM474.085 213.44C472.357 213.44 470.725 213.056 469.549 212.192L469.405 209.096H470.653C471.109 211.064 472.237 212.216 474.157 212.216C475.573 212.216 476.485 211.568 476.485 210.416C476.485 209.048 475.525 208.568 473.365 207.968C470.941 207.272 469.525 206.264 469.525 203.984C469.525 201.632 471.253 200.096 473.965 200.096C475.621 200.096 476.989 200.504 478.045 201.128V204.008H476.821C476.461 202.256 475.501 201.344 473.869 201.344C472.621 201.344 471.901 202.088 471.901 203.072C471.901 204.248 472.693 204.872 474.661 205.4C477.133 206.072 478.837 206.912 478.837 209.432C478.837 211.808 477.061 213.44 474.085 213.44ZM485.382 213.44C483.654 213.44 482.022 213.056 480.846 212.192L480.702 209.096H481.95C482.406 211.064 483.534 212.216 485.454 212.216C486.87 212.216 487.782 211.568 487.782 210.416C487.782 209.048 486.822 208.568 484.662 207.968C482.238 207.272 480.822 206.264 480.822 203.984C480.822 201.632 482.55 200.096 485.262 200.096C486.918 200.096 488.286 200.504 489.342 201.128V204.008H488.118C487.758 202.256 486.798 201.344 485.166 201.344C483.918 201.344 483.198 202.088 483.198 203.072C483.198 204.248 483.99 204.872 485.958 205.4C488.43 206.072 490.134 206.912 490.134 209.432C490.134 211.808 488.358 213.44 485.382 213.44ZM501.883 211.448C502.819 211.448 503.467 211.184 504.283 210.608V206.408L501.475 207.488C500.587 207.824 500.083 208.472 500.083 209.384C500.083 210.704 500.731 211.448 501.883 211.448ZM507.187 204.488C507.187 205.064 507.115 209.312 507.115 210.056C507.115 211.016 507.427 211.568 508.099 211.568C508.315 211.568 508.843 211.52 509.203 211.424L509.347 212.192C508.531 213.008 507.619 213.44 506.611 213.44C505.339 213.44 504.643 212.552 504.355 211.256C503.515 212.264 502.219 213.416 500.395 213.416C498.259 213.416 497.155 211.976 497.155 210.128C497.155 207.92 498.859 207.152 500.467 206.6L504.283 205.232V203.96C504.283 202.4 503.803 201.344 502.219 201.344C501.043 201.344 500.467 201.92 500.467 203.024C500.467 203.48 500.515 203.888 500.635 204.392L498.523 204.704C498.067 204.392 497.851 203.936 497.851 203.288C497.851 201.2 499.891 200.096 502.651 200.096C505.603 200.096 507.187 201.416 507.187 204.488ZM520.142 210.752V204.272C520.142 202.784 519.542 202.184 518.126 202.184C516.998 202.184 515.798 202.64 514.982 203.216V210.752C514.982 211.856 515.582 211.976 516.662 212.12V213.2H510.35V212.12C511.406 211.976 512.078 211.856 512.078 210.752V202.928L510.47 201.896V201.296L514.31 200.048H514.982V202.496C516.086 201.344 517.574 200.096 519.59 200.096C521.75 200.096 523.046 201.272 523.046 204.032V210.752C523.046 211.856 523.694 211.976 524.774 212.12V213.2H518.438V212.12C519.518 211.976 520.142 211.856 520.142 210.752ZM535.288 213.44V211.232C534.376 212.552 533.176 213.44 531.328 213.44C528.16 213.44 526.264 210.896 526.264 207.392C526.264 202.88 529 200.144 532.528 200.144C533.704 200.144 534.76 200.552 535.288 201.248V197.696L533.656 196.664V196.064L537.544 194.936H538.192V210.344C538.192 211.16 538.432 211.4 539.416 211.496L540.016 211.544V212.624L535.816 213.44H535.288ZM532.624 201.392C530.512 201.392 529.192 203.432 529.192 206.384C529.192 209.168 530.344 211.448 532.696 211.448C533.68 211.448 534.664 211.088 535.288 210.512V204.44C535.288 202.376 534.304 201.392 532.624 201.392ZM547.662 197.696L546.054 196.664V196.064L549.918 194.936H550.566V202.256C551.478 200.96 552.798 200.096 554.574 200.096C557.79 200.096 559.59 202.64 559.59 206.144C559.59 210.656 556.71 213.44 553.11 213.44C550.782 213.44 548.814 212.768 547.662 211.832V197.696ZM553.254 212.168C555.318 212.168 556.662 210.2 556.662 207.224C556.662 204.44 555.558 202.064 553.158 202.064C552.174 202.064 551.19 202.376 550.566 202.976V209.12C550.566 211.28 551.55 212.168 553.254 212.168ZM567.42 200.096C570.684 200.096 572.388 202.4 572.388 205.496V206.288H564.012C564.012 209.192 565.644 211.136 568.188 211.136C569.892 211.136 571.02 210.344 571.884 209.192L572.412 209.504C571.812 211.832 569.988 213.44 567.18 213.44C563.652 213.44 561.42 210.776 561.42 207.176C561.42 202.928 564.012 200.096 567.42 200.096ZM567.036 201.416C565.308 201.416 564.276 203.12 564.084 205.064H569.676C569.676 202.856 568.788 201.416 567.036 201.416ZM584.172 211.448C585.108 211.448 585.756 211.184 586.572 210.608V206.408L583.764 207.488C582.876 207.824 582.372 208.472 582.372 209.384C582.372 210.704 583.02 211.448 584.172 211.448ZM589.476 204.488C589.476 205.064 589.404 209.312 589.404 210.056C589.404 211.016 589.716 211.568 590.388 211.568C590.604 211.568 591.132 211.52 591.492 211.424L591.636 212.192C590.82 213.008 589.908 213.44 588.9 213.44C587.628 213.44 586.932 212.552 586.644 211.256C585.804 212.264 584.508 213.416 582.684 213.416C580.548 213.416 579.444 211.976 579.444 210.128C579.444 207.92 581.148 207.152 582.756 206.6L586.572 205.232V203.96C586.572 202.4 586.092 201.344 584.508 201.344C583.332 201.344 582.756 201.92 582.756 203.024C582.756 203.48 582.804 203.888 582.924 204.392L580.812 204.704C580.356 204.392 580.14 203.936 580.14 203.288C580.14 201.2 582.18 200.096 584.94 200.096C587.892 200.096 589.476 201.416 589.476 204.488ZM593.623 197.696L592.015 196.664V196.064L595.879 194.936H596.527V202.256C597.439 200.96 598.759 200.096 600.535 200.096C603.751 200.096 605.551 202.64 605.551 206.144C605.551 210.656 602.671 213.44 599.071 213.44C596.743 213.44 594.775 212.768 593.623 211.832V197.696ZM599.215 212.168C601.279 212.168 602.623 210.2 602.623 207.224C602.623 204.44 601.519 202.064 599.119 202.064C598.135 202.064 597.151 202.376 596.527 202.976V209.12C596.527 211.28 597.511 212.168 599.215 212.168ZM611.797 194.936V210.752C611.797 211.856 612.469 211.976 613.525 212.12V213.2H607.165V212.12C608.245 211.976 608.917 211.856 608.917 210.752V197.696L607.285 196.664V196.064L611.149 194.936H611.797ZM621.209 200.096C624.473 200.096 626.177 202.4 626.177 205.496V206.288H617.801C617.801 209.192 619.433 211.136 621.977 211.136C623.681 211.136 624.809 210.344 625.673 209.192L626.201 209.504C625.601 211.832 623.777 213.44 620.969 213.44C617.441 213.44 615.209 210.776 615.209 207.176C615.209 202.928 617.801 200.096 621.209 200.096ZM620.825 201.416C619.097 201.416 618.065 203.12 617.873 205.064H623.465C623.465 202.856 622.577 201.416 620.825 201.416ZM637.193 197.504V200.336H640.721V201.776H637.193V209.864C637.193 211.136 637.745 211.592 638.969 211.592C639.641 211.592 640.433 211.4 641.033 211.088L641.345 211.832C640.433 212.816 639.113 213.44 637.457 213.44C635.537 213.44 634.313 212.528 634.313 210.32V201.776H632.585V200.864C633.929 200.168 635.225 199.04 636.329 197.504H637.193ZM648.851 212.048C650.819 212.048 651.827 210.056 651.827 207.128C651.827 204.008 650.579 201.464 648.419 201.464C646.427 201.464 645.443 203.48 645.443 206.408C645.443 209.528 646.667 212.048 648.851 212.048ZM648.515 213.44C644.819 213.44 642.443 210.704 642.443 207.008C642.443 202.808 645.227 200.096 648.731 200.096C652.427 200.096 654.827 202.832 654.827 206.528C654.827 210.728 652.019 213.44 648.515 213.44ZM667.803 200.096C671.067 200.096 672.771 202.4 672.771 205.496V206.288H664.395C664.395 209.192 666.027 211.136 668.571 211.136C670.275 211.136 671.403 210.344 672.267 209.192L672.795 209.504C672.195 211.832 670.371 213.44 667.563 213.44C664.035 213.44 661.803 210.776 661.803 207.176C661.803 202.928 664.395 200.096 667.803 200.096ZM667.419 201.416C665.691 201.416 664.659 203.12 664.467 205.064H670.059C670.059 202.856 669.171 201.416 667.419 201.416ZM679.399 211.448C680.335 211.448 680.983 211.184 681.799 210.608V206.408L678.991 207.488C678.103 207.824 677.599 208.472 677.599 209.384C677.599 210.704 678.247 211.448 679.399 211.448ZM684.703 204.488C684.703 205.064 684.631 209.312 684.631 210.056C684.631 211.016 684.943 211.568 685.615 211.568C685.831 211.568 686.359 211.52 686.719 211.424L686.863 212.192C686.047 213.008 685.135 213.44 684.127 213.44C682.855 213.44 682.159 212.552 681.871 211.256C681.031 212.264 679.735 213.416 677.911 213.416C675.775 213.416 674.671 211.976 674.671 210.128C674.671 207.92 676.375 207.152 677.983 206.6L681.799 205.232V203.96C681.799 202.4 681.319 201.344 679.735 201.344C678.559 201.344 677.983 201.92 677.983 203.024C677.983 203.48 678.031 203.888 678.151 204.392L676.039 204.704C675.583 204.392 675.367 203.936 675.367 203.288C675.367 201.2 677.407 200.096 680.167 200.096C683.119 200.096 684.703 201.416 684.703 204.488ZM692.593 213.44C690.865 213.44 689.233 213.056 688.057 212.192L687.913 209.096H689.161C689.617 211.064 690.745 212.216 692.665 212.216C694.081 212.216 694.993 211.568 694.993 210.416C694.993 209.048 694.033 208.568 691.873 207.968C689.449 207.272 688.033 206.264 688.033 203.984C688.033 201.632 689.761 200.096 692.473 200.096C694.129 200.096 695.497 200.504 696.553 201.128V204.008H695.329C694.969 202.256 694.009 201.344 692.377 201.344C691.129 201.344 690.409 202.088 690.409 203.072C690.409 204.248 691.201 204.872 693.169 205.4C695.641 206.072 697.345 206.912 697.345 209.432C697.345 211.808 695.569 213.44 692.593 213.44ZM703.794 200.096V210.752C703.794 211.856 704.442 211.976 705.522 212.12V213.2H699.162V212.12C700.218 211.976 700.89 211.856 700.89 210.752V202.88L699.282 201.872V201.296L703.122 200.096H703.794ZM702.258 198.656C701.178 198.656 700.41 197.84 700.41 196.856C700.41 195.872 701.178 195.056 702.258 195.056C703.314 195.056 704.082 195.872 704.082 196.856C704.082 197.84 703.314 198.656 702.258 198.656ZM711.617 194.936V210.752C711.617 211.856 712.289 211.976 713.345 212.12V213.2H706.985V212.12C708.065 211.976 708.737 211.856 708.737 210.752V197.696L707.105 196.664V196.064L710.969 194.936H711.617ZM720.103 213.272L715.231 202.352C714.991 201.848 714.847 201.776 713.839 201.392V200.336H720.199V201.392C718.951 201.56 718.495 201.68 718.495 202.256C718.495 202.448 718.519 202.616 718.687 203L721.519 209.936L724.207 203C724.351 202.616 724.399 202.448 724.399 202.256C724.399 201.68 723.943 201.56 722.719 201.392V200.336H727.495V201.392C726.487 201.752 726.319 201.824 726.103 202.352L720.727 215.432C720.007 217.184 719.167 218.168 717.631 218.168C716.791 218.168 716.095 217.808 715.735 217.28V215.84H717.031C718.591 215.84 719.191 215.576 719.719 214.232L720.103 213.272ZM305.14 244.2H298.828V243.12C299.908 242.976 300.508 242.856 300.508 241.752V235.272C300.508 233.736 299.98 233.184 298.588 233.184C297.484 233.184 296.476 233.64 295.636 234.216V241.752C295.636 242.856 296.26 242.976 297.316 243.12V244.2H291.052V243.12C292.132 242.976 292.732 242.856 292.732 241.752V235.272C292.732 233.736 292.204 233.184 290.836 233.184C289.708 233.184 288.7 233.64 287.86 234.216V241.752C287.86 242.856 288.436 242.976 289.516 243.12V244.2H283.228V243.12C284.284 242.976 284.956 242.856 284.956 241.752V233.928L283.348 232.896V232.296L287.188 231.048H287.86V233.496C288.964 232.344 290.308 231.096 292.3 231.096C293.932 231.096 295.084 231.864 295.492 233.592C296.62 232.44 298.108 231.096 300.124 231.096C302.236 231.096 303.412 232.272 303.412 235.008V241.752C303.412 242.856 304.06 242.976 305.14 243.12V244.2ZM311.372 242.448C312.308 242.448 312.956 242.184 313.772 241.608V237.408L310.964 238.488C310.076 238.824 309.572 239.472 309.572 240.384C309.572 241.704 310.22 242.448 311.372 242.448ZM316.676 235.488C316.676 236.064 316.604 240.312 316.604 241.056C316.604 242.016 316.916 242.568 317.588 242.568C317.804 242.568 318.332 242.52 318.692 242.424L318.836 243.192C318.02 244.008 317.108 244.44 316.1 244.44C314.828 244.44 314.132 243.552 313.844 242.256C313.004 243.264 311.708 244.416 309.884 244.416C307.748 244.416 306.644 242.976 306.644 241.128C306.644 238.92 308.348 238.152 309.956 237.6L313.772 236.232V234.96C313.772 233.4 313.292 232.344 311.708 232.344C310.532 232.344 309.956 232.92 309.956 234.024C309.956 234.48 310.004 234.888 310.124 235.392L308.012 235.704C307.556 235.392 307.34 234.936 307.34 234.288C307.34 232.2 309.38 231.096 312.14 231.096C315.092 231.096 316.676 232.416 316.676 235.488ZM329.63 241.752V235.272C329.63 233.784 329.03 233.184 327.614 233.184C326.486 233.184 325.286 233.64 324.47 234.216V241.752C324.47 242.856 325.07 242.976 326.15 243.12V244.2H319.838V243.12C320.894 242.976 321.566 242.856 321.566 241.752V233.928L319.958 232.896V232.296L323.798 231.048H324.47V233.496C325.574 232.344 327.062 231.096 329.078 231.096C331.238 231.096 332.534 232.272 332.534 235.032V241.752C332.534 242.856 333.182 242.976 334.262 243.12V244.2H327.926V243.12C329.006 242.976 329.63 242.856 329.63 241.752ZM340.528 242.448C341.464 242.448 342.112 242.184 342.928 241.608V237.408L340.12 238.488C339.232 238.824 338.728 239.472 338.728 240.384C338.728 241.704 339.376 242.448 340.528 242.448ZM345.832 235.488C345.832 236.064 345.76 240.312 345.76 241.056C345.76 242.016 346.072 242.568 346.744 242.568C346.96 242.568 347.488 242.52 347.848 242.424L347.992 243.192C347.176 244.008 346.264 244.44 345.256 244.44C343.984 244.44 343.288 243.552 343 242.256C342.16 243.264 340.864 244.416 339.04 244.416C336.904 244.416 335.8 242.976 335.8 241.128C335.8 238.92 337.504 238.152 339.112 237.6L342.928 236.232V234.96C342.928 233.4 342.448 232.344 340.864 232.344C339.688 232.344 339.112 232.92 339.112 234.024C339.112 234.48 339.16 234.888 339.28 235.392L337.168 235.704C336.712 235.392 336.496 234.936 336.496 234.288C336.496 232.2 338.536 231.096 341.296 231.096C344.248 231.096 345.832 232.416 345.832 235.488ZM354.418 239.616C353.626 239.616 352.834 239.496 352.114 239.256C351.466 239.928 351.226 240.336 351.226 240.816C351.226 241.32 351.514 241.512 352.018 241.512H357.562C359.914 241.512 361.234 242.472 361.234 244.56C361.234 247.368 358.306 249.168 354.106 249.168C350.578 249.168 348.49 248.208 348.49 246.24C348.49 244.944 349.618 244.32 350.698 243.912C349.738 243.552 349.21 242.928 349.21 241.92C349.21 240.72 350.17 239.808 351.514 238.968C350.242 238.32 349.354 237.192 349.354 235.512C349.354 232.776 351.538 231.096 354.514 231.096C355.402 231.096 356.146 231.264 356.746 231.48L361.114 231.216V233.016H360.178L357.898 232.512V232.656C358.858 233.208 359.554 234.168 359.554 235.416C359.554 237.984 357.466 239.616 354.418 239.616ZM357.106 244.248H351.154C350.794 244.608 350.674 245.064 350.674 245.52C350.674 247.224 352.21 247.92 354.442 247.92C357.01 247.92 358.882 247.152 358.882 245.496C358.882 244.488 358.21 244.248 357.106 244.248ZM354.634 238.536C356.074 238.536 356.746 237.36 356.746 235.608C356.746 233.736 355.858 232.224 354.274 232.224C352.834 232.224 352.186 233.4 352.186 235.152C352.186 237 353.026 238.536 354.634 238.536ZM368.025 231.096C371.289 231.096 372.993 233.4 372.993 236.496V237.288H364.617C364.617 240.192 366.249 242.136 368.793 242.136C370.497 242.136 371.625 241.344 372.489 240.192L373.017 240.504C372.417 242.832 370.593 244.44 367.785 244.44C364.257 244.44 362.025 241.776 362.025 238.176C362.025 233.928 364.617 231.096 368.025 231.096ZM367.641 232.416C365.913 232.416 364.881 234.12 364.689 236.064H370.281C370.281 233.856 369.393 232.416 367.641 232.416ZM384.778 242.448C385.714 242.448 386.362 242.184 387.178 241.608V237.408L384.37 238.488C383.482 238.824 382.978 239.472 382.978 240.384C382.978 241.704 383.626 242.448 384.778 242.448ZM390.082 235.488C390.082 236.064 390.01 240.312 390.01 241.056C390.01 242.016 390.322 242.568 390.994 242.568C391.21 242.568 391.738 242.52 392.098 242.424L392.242 243.192C391.426 244.008 390.514 244.44 389.506 244.44C388.234 244.44 387.538 243.552 387.25 242.256C386.41 243.264 385.114 244.416 383.29 244.416C381.154 244.416 380.05 242.976 380.05 241.128C380.05 238.92 381.754 238.152 383.362 237.6L387.178 236.232V234.96C387.178 233.4 386.698 232.344 385.114 232.344C383.938 232.344 383.362 232.92 383.362 234.024C383.362 234.48 383.41 234.888 383.53 235.392L381.418 235.704C380.962 235.392 380.746 234.936 380.746 234.288C380.746 232.2 382.786 231.096 385.546 231.096C388.498 231.096 390.082 232.416 390.082 235.488ZM397.564 243.36V246.48C397.564 247.584 398.236 247.704 399.316 247.848V248.928H392.932V247.848C394.012 247.704 394.684 247.584 394.684 246.48V233.928L393.052 232.896V232.296L396.94 231.048H397.564V233.256C398.5 231.96 399.796 231.096 401.596 231.096C404.788 231.096 406.588 233.64 406.588 237.144C406.588 241.656 403.78 244.44 400.396 244.44C399.1 244.44 398.068 243.984 397.564 243.36ZM400.252 243.168C402.316 243.168 403.684 241.2 403.684 238.224C403.684 235.44 402.58 233.064 400.18 233.064C399.196 233.064 398.212 233.376 397.564 233.976V240.096C397.564 242.112 398.548 243.168 400.252 243.168ZM412.728 243.36V246.48C412.728 247.584 413.4 247.704 414.48 247.848V248.928H408.096V247.848C409.176 247.704 409.848 247.584 409.848 246.48V233.928L408.216 232.896V232.296L412.104 231.048H412.728V233.256C413.664 231.96 414.96 231.096 416.76 231.096C419.952 231.096 421.752 233.64 421.752 237.144C421.752 241.656 418.944 244.44 415.56 244.44C414.264 244.44 413.232 243.984 412.728 243.36ZM415.416 243.168C417.48 243.168 418.848 241.2 418.848 238.224C418.848 235.44 417.744 233.064 415.344 233.064C414.36 233.064 413.376 233.376 412.728 233.976V240.096C412.728 242.112 413.712 243.168 415.416 243.168ZM427.988 225.936V241.752C427.988 242.856 428.66 242.976 429.716 243.12V244.2H423.356V243.12C424.436 242.976 425.108 242.856 425.108 241.752V228.696L423.476 227.664V227.064L427.34 225.936H427.988ZM436.032 231.096V241.752C436.032 242.856 436.68 242.976 437.76 243.12V244.2H431.4V243.12C432.456 242.976 433.128 242.856 433.128 241.752V233.88L431.52 232.872V232.296L435.36 231.096H436.032ZM434.496 229.656C433.416 229.656 432.648 228.84 432.648 227.856C432.648 226.872 433.416 226.056 434.496 226.056C435.552 226.056 436.32 226.872 436.32 227.856C436.32 228.84 435.552 229.656 434.496 229.656ZM442.079 237C442.079 240.072 443.495 242.136 446.111 242.136C447.671 242.136 448.751 241.44 449.639 240.192L450.191 240.528C449.447 243.192 447.623 244.44 445.079 244.44C441.719 244.44 439.439 241.896 439.439 238.2C439.439 234.288 441.959 231.096 445.799 231.096C448.319 231.096 450.047 232.248 450.047 234.216C450.047 235.104 449.615 235.536 449.063 235.776H447.503V234.84C447.503 233.472 446.927 232.44 445.487 232.44C443.495 232.44 442.079 234.312 442.079 237ZM456.614 242.448C457.55 242.448 458.198 242.184 459.014 241.608V237.408L456.206 238.488C455.318 238.824 454.814 239.472 454.814 240.384C454.814 241.704 455.462 242.448 456.614 242.448ZM461.918 235.488C461.918 236.064 461.846 240.312 461.846 241.056C461.846 242.016 462.158 242.568 462.83 242.568C463.046 242.568 463.574 242.52 463.934 242.424L464.078 243.192C463.262 244.008 462.35 244.44 461.342 244.44C460.07 244.44 459.374 243.552 459.086 242.256C458.246 243.264 456.95 244.416 455.126 244.416C452.99 244.416 451.886 242.976 451.886 241.128C451.886 238.92 453.59 238.152 455.198 237.6L459.014 236.232V234.96C459.014 233.4 458.534 232.344 456.95 232.344C455.774 232.344 455.198 232.92 455.198 234.024C455.198 234.48 455.246 234.888 455.366 235.392L453.254 235.704C452.798 235.392 452.582 234.936 452.582 234.288C452.582 232.2 454.622 231.096 457.382 231.096C460.334 231.096 461.918 232.416 461.918 235.488ZM469.088 228.504V231.336H472.616V232.776H469.088V240.864C469.088 242.136 469.64 242.592 470.864 242.592C471.536 242.592 472.328 242.4 472.928 242.088L473.24 242.832C472.328 243.816 471.008 244.44 469.352 244.44C467.432 244.44 466.208 243.528 466.208 241.32V232.776H464.48V231.864C465.824 231.168 467.12 230.04 468.224 228.504H469.088ZM478.97 231.096V241.752C478.97 242.856 479.618 242.976 480.698 243.12V244.2H474.338V243.12C475.394 242.976 476.066 242.856 476.066 241.752V233.88L474.458 232.872V232.296L478.298 231.096H478.97ZM477.434 229.656C476.354 229.656 475.586 228.84 475.586 227.856C475.586 226.872 476.354 226.056 477.434 226.056C478.49 226.056 479.258 226.872 479.258 227.856C479.258 228.84 478.49 229.656 477.434 229.656ZM488.785 243.048C490.753 243.048 491.761 241.056 491.761 238.128C491.761 235.008 490.513 232.464 488.353 232.464C486.361 232.464 485.377 234.48 485.377 237.408C485.377 240.528 486.601 243.048 488.785 243.048ZM488.449 244.44C484.753 244.44 482.377 241.704 482.377 238.008C482.377 233.808 485.161 231.096 488.665 231.096C492.361 231.096 494.761 233.832 494.761 237.528C494.761 241.728 491.953 244.44 488.449 244.44ZM506.372 241.752V235.272C506.372 233.784 505.772 233.184 504.356 233.184C503.228 233.184 502.028 233.64 501.212 234.216V241.752C501.212 242.856 501.812 242.976 502.892 243.12V244.2H496.58V243.12C497.636 242.976 498.308 242.856 498.308 241.752V233.928L496.7 232.896V232.296L500.54 231.048H501.212V233.496C502.316 232.344 503.804 231.096 505.82 231.096C507.98 231.096 509.276 232.272 509.276 235.032V241.752C509.276 242.856 509.924 242.976 511.004 243.12V244.2H504.668V243.12C505.748 242.976 506.372 242.856 506.372 241.752ZM522.378 244.44C520.65 244.44 519.018 244.056 517.842 243.192L517.698 240.096H518.946C519.402 242.064 520.53 243.216 522.45 243.216C523.866 243.216 524.778 242.568 524.778 241.416C524.778 240.048 523.818 239.568 521.658 238.968C519.234 238.272 517.818 237.264 517.818 234.984C517.818 232.632 519.546 231.096 522.258 231.096C523.914 231.096 525.282 231.504 526.338 232.128V235.008H525.114C524.754 233.256 523.794 232.344 522.162 232.344C520.914 232.344 520.194 233.088 520.194 234.072C520.194 235.248 520.986 235.872 522.954 236.4C525.426 237.072 527.13 237.912 527.13 240.432C527.13 242.808 525.354 244.44 522.378 244.44ZM532.955 228.504V231.336H536.483V232.776H532.955V240.864C532.955 242.136 533.507 242.592 534.731 242.592C535.403 242.592 536.195 242.4 536.795 242.088L537.107 242.832C536.195 243.816 534.875 244.44 533.219 244.44C531.299 244.44 530.075 243.528 530.075 241.32V232.776H528.347V231.864C529.691 231.168 530.987 230.04 532.091 228.504H532.955ZM542.981 242.448C543.917 242.448 544.565 242.184 545.381 241.608V237.408L542.573 238.488C541.685 238.824 541.181 239.472 541.181 240.384C541.181 241.704 541.829 242.448 542.981 242.448ZM548.285 235.488C548.285 236.064 548.213 240.312 548.213 241.056C548.213 242.016 548.525 242.568 549.197 242.568C549.413 242.568 549.941 242.52 550.301 242.424L550.445 243.192C549.629 244.008 548.717 244.44 547.709 244.44C546.437 244.44 545.741 243.552 545.453 242.256C544.613 243.264 543.317 244.416 541.493 244.416C539.357 244.416 538.253 242.976 538.253 241.128C538.253 238.92 539.957 238.152 541.565 237.6L545.381 236.232V234.96C545.381 233.4 544.901 232.344 543.317 232.344C542.141 232.344 541.565 232.92 541.565 234.024C541.565 234.48 541.613 234.888 541.733 235.392L539.621 235.704C539.165 235.392 538.949 234.936 538.949 234.288C538.949 232.2 540.989 231.096 543.749 231.096C546.701 231.096 548.285 232.416 548.285 235.488ZM555.455 228.504V231.336H558.983V232.776H555.455V240.864C555.455 242.136 556.007 242.592 557.231 242.592C557.903 242.592 558.695 242.4 559.295 242.088L559.607 242.832C558.695 243.816 557.375 244.44 555.719 244.44C553.799 244.44 552.575 243.528 552.575 241.32V232.776H550.847V231.864C552.191 231.168 553.487 230.04 554.591 228.504H555.455ZM569.897 244.44V242.088C568.817 243.216 567.449 244.44 565.433 244.44C563.321 244.44 561.977 243.264 561.977 240.456V234.168C561.977 233.352 561.737 233.04 560.705 232.872L560.321 232.8V231.816L564.401 231.096H564.905V240.096C564.905 241.68 565.529 242.4 566.897 242.4C568.049 242.4 569.057 241.944 569.897 241.392V234.168C569.897 233.352 569.657 233.04 568.625 232.872L568.265 232.8V231.816L572.297 231.096H572.825V241.344C572.825 242.16 573.041 242.4 574.025 242.496L574.625 242.544V243.624L570.425 244.44H569.897ZM580.949 244.44C579.221 244.44 577.589 244.056 576.413 243.192L576.269 240.096H577.517C577.973 242.064 579.101 243.216 581.021 243.216C582.437 243.216 583.349 242.568 583.349 241.416C583.349 240.048 582.389 239.568 580.229 238.968C577.805 238.272 576.389 237.264 576.389 234.984C576.389 232.632 578.117 231.096 580.829 231.096C582.485 231.096 583.853 231.504 584.909 232.128V235.008H583.685C583.325 233.256 582.365 232.344 580.733 232.344C579.485 232.344 578.765 233.088 578.765 234.072C578.765 235.248 579.557 235.872 581.525 236.4C583.997 237.072 585.701 237.912 585.701 240.432C585.701 242.808 583.925 244.44 580.949 244.44ZM593.517 231.096C596.781 231.096 598.485 233.4 598.485 236.496V237.288H590.109C590.109 240.192 591.741 242.136 594.285 242.136C595.989 242.136 597.117 241.344 597.981 240.192L598.509 240.504C597.909 242.832 596.085 244.44 593.277 244.44C589.749 244.44 587.517 241.776 587.517 238.176C587.517 233.928 590.109 231.096 593.517 231.096ZM593.133 232.416C591.405 232.416 590.373 234.12 590.181 236.064H595.773C595.773 233.856 594.885 232.416 593.133 232.416ZM605.066 244.44C603.338 244.44 601.706 244.056 600.53 243.192L600.386 240.096H601.634C602.09 242.064 603.218 243.216 605.138 243.216C606.554 243.216 607.466 242.568 607.466 241.416C607.466 240.048 606.506 239.568 604.346 238.968C601.922 238.272 600.506 237.264 600.506 234.984C600.506 232.632 602.234 231.096 604.946 231.096C606.602 231.096 607.97 231.504 609.026 232.128V235.008H607.802C607.442 233.256 606.482 232.344 604.85 232.344C603.602 232.344 602.882 233.088 602.882 234.072C602.882 235.248 603.674 235.872 605.642 236.4C608.114 237.072 609.818 237.912 609.818 240.432C609.818 242.808 608.042 244.44 605.066 244.44ZM612.211 242.448C612.211 241.296 613.099 240.432 614.203 240.432C615.331 240.432 616.219 241.296 616.219 242.448C616.219 243.576 615.331 244.44 614.203 244.44C613.099 244.44 612.211 243.576 612.211 242.448Z" fill="#0B66C3"/>
<line x1="547" y1="155" x2="591" y2="155" stroke="#0B66C3" stroke-width="2"/>
<line x1="620" y1="155" x2="713" y2="155" stroke="#0B66C3" stroke-width="2"/>
<line x1="603" y1="155" x2="608" y2="155" stroke="#0B66C3" stroke-width="2"/>
<line x1="443" y1="155" x2="537" y2="155" stroke="#0B66C3" stroke-width="2"/>
<line x1="182" y1="186" x2="261" y2="186" stroke="#0B66C3" stroke-width="2"/>
<line x1="279" y1="186" x2="294" y2="186" stroke="#0B66C3" stroke-width="2"/>
<line x1="400" y1="155" x2="430" y2="155" stroke="#0B66C3" stroke-width="2"/>
<line x1="303" y1="186" x2="364" y2="186" stroke="#0B66C3" stroke-width="2"/>
<line x1="493" y1="186" x2="721" y2="186" stroke="#0B66C3" stroke-width="2"/>
</svg>
